<?xml version="1.0" encoding="UTF-8" standalone="no"?> <svg width="50" height="50" viewBox="0 0 50 50" fill="none" xmlns="http://www.w3.org/2000/svg">
<path d="M30.336 18.9836L20.8885 20.1675L20.5503 21.7381L22.4108 22.0764C23.6189 22.3663 23.8605 22.8012 23.5947 24.0093L20.5503 38.3135C19.7529 42.0103 20.9852 43.75 23.8847 43.75C26.1318 43.75 28.7413 42.711 29.9253 41.2854L30.2877 39.5699C29.4662 40.2948 28.2581 40.5847 27.4607 40.5847C26.3251 40.5847 25.9143 39.7874 26.2043 38.386L30.336 18.9836Z" fill="black"/>
<path d="M30.6218 10.3737C30.6218 12.6512 28.7755 14.4974 26.4981 14.4974C24.2206 14.4974 22.3744 12.6512 22.3744 10.3737C22.3744 8.09625 24.2206 6.25 26.4981 6.25C28.7755 6.25 30.6218 8.09625 30.6218 10.3737Z" fill="black"/>
<path d="M30.336 18.9836L20.8885 20.1675L20.5503 21.7381L22.4108 22.0764C23.6189 22.3663 23.8605 22.8012 23.5947 24.0093L20.5503 38.3135C19.7529 42.0103 20.9852 43.75 23.8847 43.75C26.1318 43.75 28.7413 42.711 29.9253 41.2854L30.2877 39.5699C29.4662 40.2948 28.2581 40.5847 27.4607 40.5847C26.3251 40.5847 25.9143 39.7874 26.2043 38.386L30.336 18.9836Z" stroke="black"/>
<path d="M30.6218 10.3737C30.6218 12.6512 28.7755 14.4974 26.4981 14.4974C24.2206 14.4974 22.3744 12.6512 22.3744 10.3737C22.3744 8.09625 24.2206 6.25 26.4981 6.25C28.7755 6.25 30.6218 8.09625 30.6218 10.3737Z" stroke="black"/>
</svg>
