<svg xmlns="http://www.w3.org/2000/svg" width="512" height="512" viewBox="0 0 24 24"><path fill="#000000" fill-rule="evenodd" d="M10.193 9.556L12 6.665l1.807 2.891a.85.85 0 0 0 1.221.237l3.88-2.822l-1.49 7.826a.25.25 0 0 1-.245.203H6.828a.25.25 0 0 1-.246-.203L5.092 6.97l3.88 2.822a.85.85 0 0 0 1.22-.237m2.528-4.568a.85.85 0 0 0-1.442 0L9.29 8.17L4.646 4.792c-.623-.453-1.48.09-1.335.846l1.797 9.44a1.75 1.75 0 0 0 1.72 1.422h10.345a1.75 1.75 0 0 0 1.719-1.423l1.797-9.439c.145-.756-.711-1.3-1.334-.846L14.71 8.17zM6 18a.75.75 0 0 0 0 1.5h12a.75.75 0 1 0 0-1.5z" clip-rule="evenodd"/></svg>