<?xml version="1.0" encoding="UTF-8"?>
<svg version="1.1" xmlns="http://www.w3.org/2000/svg" width="600" height="600">
<path d="M0 0 C2.34255806 1.11776976 4.51273978 2.18727724 6.66699219 3.6184082 C10.28994374 5.95020149 13.99494692 8.08539496 17.7487793 10.19897461 C20.43041202 11.71306453 23.09799133 13.24998776 25.76464844 14.7902832 C32.14743401 18.46160506 38.58431321 22.03287065 45.02636719 25.59887695 C53.65074073 30.37622317 62.25807125 35.18117891 70.83886719 40.03637695 C72.24712769 40.82927124 72.24712769 40.82927124 73.68383789 41.63818359 C77.95914851 44.04903318 82.21362144 46.48371409 86.42480469 49.00512695 C87.15546143 49.43583496 87.88611816 49.86654297 88.63891602 50.31030273 C89.96999888 51.09683034 91.29359588 51.8962498 92.60717773 52.71166992 C96.79925115 55.16887255 98.99909512 55.30654605 103.65136719 54.16137695 C106.44146436 52.88544909 106.44146436 52.88544909 109.18652344 51.2043457 C110.23195313 50.59268555 111.27738281 49.98102539 112.35449219 49.35083008 C113.46308594 48.69018555 114.57167969 48.02954102 115.71386719 47.34887695 C116.88384346 46.66101216 118.05442488 45.97417571 119.22558594 45.28833008 C121.59110555 43.90233583 123.95430012 42.51250404 126.31591797 41.11987305 C130.90442237 38.42561289 135.52510511 35.79007901 140.15136719 33.16137695 C147.9735982 28.69909129 155.78447344 24.21728111 163.58886719 19.72387695 C165.21924927 18.78910522 165.21924927 18.78910522 166.88256836 17.83544922 C172.30967423 14.71327617 177.69371472 11.54128522 183.01855469 8.24731445 C184.02152588 7.63299561 185.02449707 7.01867676 186.05786133 6.38574219 C187.95205729 5.22102571 189.83724171 4.04148476 191.71166992 2.84521484 C192.55415283 2.32950928 193.39663574 1.81380371 194.26464844 1.2824707 C194.99466064 0.82283936 195.72467285 0.36320801 196.47680664 -0.11035156 C198.65136719 -0.83862305 198.65136719 -0.83862305 201.07202148 -0.16210938 C203.84223876 1.25931494 206.58788162 2.69963591 209.30761719 4.21606445 C210.40307861 4.82538818 211.49854004 5.43471191 212.62719727 6.0625 C213.80202631 6.72027016 214.97674737 7.37823322 216.15136719 8.03637695 C217.35923463 8.71071764 218.56716166 9.38495163 219.77514648 10.05908203 C227.35421751 14.29362635 234.91833916 18.55483999 242.46386719 22.84887695 C243.30949219 23.3288916 244.15511719 23.80890625 245.02636719 24.3034668 C249.34962649 26.77629354 253.54706147 29.3392537 257.65136719 32.16137695 C256.99136719 32.49137695 256.33136719 32.82137695 255.65136719 33.16137695 C255.70466187 34.00725372 255.75795654 34.85313049 255.81286621 35.72463989 C256.2966506 43.75318593 256.66041807 51.77676665 256.89485931 59.81660652 C257.01949505 63.95012028 257.18774655 68.07148888 257.46191406 72.19799805 C259.17811461 98.72158673 259.17811461 98.72158673 253.42370605 105.96575928 C247.75715698 110.67042418 241.38047269 113.47837017 234.52832031 116.04962158 C230.92084889 117.44367479 227.88327844 119.20481738 224.60449219 121.24731445 C222.70388915 122.34442883 220.80285748 123.44080105 218.90136719 124.53637695 C217.31739136 125.44963745 217.31739136 125.44963745 215.70141602 126.38134766 C205.45298567 132.2849669 195.18513522 138.15445157 184.91308594 144.0168457 C183.35143707 144.95622482 183.35143707 144.95622482 181.75823975 145.9145813 C178.72940929 147.66246313 175.66572832 148.98761056 172.41589355 150.27416992 C162.22468223 154.50824969 162.22468223 154.50824969 155.48864174 162.76004982 C153.72252346 170.49510893 154.34994857 178.38136109 154.73339844 186.2434082 C154.77558011 188.78766232 154.80695636 191.33211635 154.82804871 193.87663269 C154.89772177 199.87158168 155.05335645 205.85751692 155.25900334 211.84881085 C155.64798762 223.21818201 155.87829511 234.5886924 156.03461266 245.96356773 C156.10741571 249.69306578 156.24898721 253.41540738 156.39814758 257.14253235 C156.44939214 259.42846858 156.49851268 261.71445374 156.54516602 264.00048828 C156.60475998 265.03180374 156.66435394 266.0631192 156.72575378 267.12568665 C156.7512357 270.11318274 156.6455996 272.34011371 155.65136719 275.16137695 C152.66613324 278.18347714 149.36525969 280.14455013 145.65136719 282.16137695 C143.96535693 283.18082859 142.2814177 284.20372212 140.60058594 285.23168945 C138.84875307 286.2534817 137.09477496 287.27160325 135.33886719 288.28637695 C126.64390432 293.36092688 118.05164576 298.57624927 109.52905273 303.93530273 C108.30569214 304.70076416 108.30569214 304.70076416 107.05761719 305.48168945 C106.34927734 305.92786621 105.6409375 306.37404297 104.91113281 306.83374023 C104.16541016 307.27186035 103.4196875 307.70998047 102.65136719 308.16137695 C101.68859863 308.76997559 100.72583008 309.37857422 99.73388672 310.00561523 C96.65136719 311.16137695 96.65136719 311.16137695 93.84423828 310.21118164 C92.8808252 309.59146484 91.91741211 308.97174805 90.92480469 308.33325195 C89.82305908 307.64295898 88.72131348 306.95266602 87.58618164 306.24145508 C86.39937575 305.46506966 85.21277577 304.68836937 84.02636719 303.91137695 C82.79902936 303.1321825 81.57007925 302.35552231 80.33959961 301.58129883 C77.76167195 299.95674696 75.19117578 298.32123704 72.62451172 296.67895508 C66.75920717 292.94255761 60.79292858 289.37268141 54.83453369 285.78747559 C51.84952096 283.9905659 48.86870919 282.18689401 45.88964844 280.38012695 C44.40525269 279.48197266 44.40525269 279.48197266 42.89086914 278.56567383 C40.65136719 277.16137695 40.65136719 277.16137695 39.65136719 276.16137695 C39.5434175 274.63094235 39.50453731 273.09558085 39.4931488 271.56138611 C39.48335999 270.56714127 39.47357117 269.57289642 39.46348572 268.54852295 C39.45773026 267.44873108 39.45197479 266.34893921 39.44604492 265.21582031 C39.43614532 264.06475296 39.42624573 262.91368561 39.41604614 261.72773743 C39.38432057 257.90225317 39.35963016 254.07675646 39.33496094 250.2512207 C39.31440095 247.60705736 39.29340475 244.96289738 39.27198792 242.31874084 C39.22201113 236.05725656 39.17709087 229.79574651 39.13396555 223.5342117 C39.08463569 216.40732852 39.02970185 209.28049203 38.97428596 202.15365398 C38.86038942 187.48960583 38.75356716 172.82551122 38.65136719 158.16137695 C37.87829727 157.7331665 37.10522736 157.30495605 36.30873108 156.86376953 C33.40074845 155.25240195 30.49325566 153.64015715 27.58607483 152.02734375 C26.33522805 151.3336402 25.08419515 150.64027212 23.83296204 149.94726562 C15.52070714 145.34308215 7.27283096 140.64963226 -0.89550781 135.79418945 C-6.45652237 132.49410542 -12.05946689 129.26681355 -17.66113281 126.03637695 C-18.74595947 125.41029541 -19.83078613 124.78421387 -20.94848633 124.13916016 C-27.01253622 120.64431648 -33.08689681 117.16866364 -39.17285156 113.7121582 C-40.4673811 112.97601845 -41.76189622 112.23985334 -43.05639648 111.50366211 C-45.54795747 110.08684604 -48.0419599 108.6744567 -50.53735352 107.2644043 C-51.66101318 106.62583496 -52.78467285 105.98726563 -53.94238281 105.3293457 C-54.93947266 104.76497803 -55.9365625 104.20061035 -56.96386719 103.61914062 C-59.34863281 102.16137695 -59.34863281 102.16137695 -61.34863281 100.16137695 C-61.58914185 97.33932495 -61.58914185 97.33932495 -61.57568359 93.69213867 C-61.57597565 93.02860382 -61.5762677 92.36506897 -61.5765686 91.681427 C-61.57517337 89.48450723 -61.55960349 87.2879251 -61.54394531 85.09106445 C-61.54021586 83.569348 -61.53736857 82.04762914 -61.53536987 80.52590942 C-61.52772805 76.51781604 -61.50807494 72.50986725 -61.48596191 68.50183105 C-61.46551525 64.41310584 -61.45637069 60.32435729 -61.44628906 56.2355957 C-61.42482948 48.21078971 -61.39068702 40.18610131 -61.34863281 32.16137695 C-49.02167964 25.10014535 -36.67782548 18.07592762 -24.26464844 11.16723633 C-23.27013672 10.61229492 -22.275625 10.05735352 -21.25097656 9.4855957 C-20.28345459 8.951521 -19.31593262 8.41744629 -18.3190918 7.8671875 C-16.23335207 6.66943428 -14.18269978 5.40948188 -12.16137695 4.10595703 C-10.59891235 3.11245239 -10.59891235 3.11245239 -9.00488281 2.09887695 C-8.07353516 1.48270508 -7.1421875 0.8665332 -6.18261719 0.23168945 C-3.34863281 -0.83862305 -3.34863281 -0.83862305 0 0 Z " fill="#F0B80A" transform="translate(200.3486328125,174.838623046875)"/>
<path d="M0 0 C3.79742277 0.68756669 6.42264975 1.62191559 9.7109375 3.66796875 C10.61513428 4.22492432 11.51933105 4.78187988 12.45092773 5.35571289 C13.41587158 5.96020264 14.38081543 6.56469238 15.375 7.1875 C17.4360541 8.46117025 19.49725647 9.7346006 21.55859375 11.0078125 C22.61804199 11.66555664 23.67749023 12.32330078 24.76904297 13.00097656 C29.97232546 16.22029627 35.20611412 19.38913365 40.4375 22.5625 C42.29078683 23.68810715 44.14367263 24.81437496 45.99609375 25.94140625 C46.84413574 26.45719238 47.69217773 26.97297852 48.56591797 27.50439453 C51.5092864 29.31292763 54.42397529 31.16449928 57.32836914 33.03491211 C59.15124447 34.16178581 59.15124447 34.16178581 62 35 C62 73.94 62 112.88 62 153 C63.98 153.66 65.96 154.32 68 155 C69.64422579 155.84794274 71.26231535 156.74832842 72.8515625 157.6953125 C73.77050293 158.23792725 74.68944336 158.78054199 75.63623047 159.33959961 C76.62252441 159.92878174 77.60881836 160.51796387 78.625 161.125 C80.78575431 162.40093257 82.94724252 163.67562295 85.109375 164.94921875 C86.23794922 165.6148584 87.36652344 166.28049805 88.52929688 166.96630859 C94.27945645 170.34512438 100.07951948 173.63730281 105.875 176.9375 C108.23076983 178.2807225 110.58613734 179.6246494 112.94140625 180.96875 C113.52436966 181.30139359 114.10733307 181.63403717 114.70796204 181.97676086 C142.05538788 197.58741468 142.05538788 197.58741468 155.0625 205.375 C155.67005127 205.73843506 156.27760254 206.10187012 156.90356445 206.47631836 C160.86987176 208.86987176 160.86987176 208.86987176 162 210 C162.0942174 212.11681317 162.11742761 214.23680758 162.11352539 216.35571289 C162.11367142 217.01910172 162.11381744 217.68249054 162.1139679 218.36598206 C162.11326881 220.56823956 162.10547665 222.77041345 162.09765625 224.97265625 C162.09579206 226.49580336 162.09436816 228.01895107 162.09336853 229.542099 C162.08954346 233.55837651 162.07971328 237.57461808 162.06866455 241.59088135 C162.05845019 245.68623366 162.05387086 249.78159176 162.04882812 253.87695312 C162.038091 261.91798528 162.02101472 269.95898817 162 278 C157.88113566 276.67123673 154.31084443 275.20120909 150.5703125 273.015625 C149.54035156 272.4175 148.51039063 271.819375 147.44921875 271.203125 C146.35222656 270.55859375 145.25523437 269.9140625 144.125 269.25 C142.96253256 268.57241378 141.79976703 267.89533873 140.63671875 267.21875 C137.6585033 265.48455261 134.68401375 263.74407437 131.71057129 262.00170898 C129.09802882 260.4718065 126.48258809 258.94688494 123.8671875 257.421875 C120.9239578 255.70556027 117.98095302 253.98887303 115.0390625 252.27026367 C104.47750423 246.10215467 93.88040929 239.99600648 83.28222656 233.89111328 C77.85340058 230.76319852 72.42680719 227.63141552 67 224.5 C64.83334417 223.24998121 62.6666775 221.99998122 60.5 220.75 C56.16666667 218.25 51.83333333 215.75 47.5 213.25 C46.42556641 212.63020264 45.35113281 212.01040527 44.24414062 211.37182617 C42.09676627 210.13281961 39.94962733 208.89340497 37.80273438 207.65356445 C32.7092817 204.7127388 27.61344857 201.77627381 22.50927734 198.85409546 C20.0884338 197.46781169 17.66892111 196.07921453 15.24951172 194.69042969 C13.53352383 193.70671796 11.81560807 192.72637165 10.09765625 191.74609375 C9.06511719 191.153125 8.03257813 190.56015625 6.96875 189.94921875 C6.05544922 189.42674561 5.14214844 188.90427246 4.20117188 188.3659668 C2 187 2 187 0 185 C-0.19299079 182.54125772 -0.26057655 180.19566494 -0.24050903 177.73617554 C-0.24221788 176.9790095 -0.24392673 176.22184346 -0.24568737 175.441733 C-0.24899543 172.89123643 -0.23795708 170.34099989 -0.22705078 167.79052734 C-0.22648695 165.96759548 -0.22680267 164.14466316 -0.22793579 162.32173157 C-0.22851141 157.36122492 -0.21672341 152.40081429 -0.20278788 147.44033003 C-0.19031521 142.26065014 -0.18911276 137.08096823 -0.18673706 131.90127563 C-0.18051208 122.08755639 -0.16408753 112.27388151 -0.14403808 102.46018183 C-0.1217107 91.28985842 -0.11069362 80.11953292 -0.10064721 68.94919276 C-0.07972216 45.96610387 -0.04452646 22.98305442 0 0 Z " fill="#F0B80C" transform="translate(39,265)"/>
<path d="M0 0 C0.56163664 24.00817656 0.98432868 48.01536396 1.24349213 72.02879524 C1.36705157 83.18012694 1.5353416 94.32736897 1.81054688 105.47607422 C2.05042403 115.19828799 2.20473996 124.91754073 2.25812387 134.64263141 C2.28932172 139.78993166 2.36208284 144.92876556 2.53752136 150.07333755 C3.56384021 181.35112363 3.56384021 181.35112363 -2.35437012 189.07117462 C-7.99768018 193.92427318 -14.18905886 196.70466387 -21.2061615 199.02878952 C-24.89088498 200.30969465 -27.89335866 202.08202613 -31.1875 204.15625 C-33.1247253 205.27131072 -35.06221785 206.38590727 -37 207.5 C-45.34836526 212.30785373 -53.68243604 217.13905928 -62 222 C-73.54722486 228.74713114 -85.12902119 235.4333937 -96.71777344 242.10888672 C-102.14659943 245.23680149 -107.57318635 248.36859566 -113 251.5 C-115.14191898 252.73569114 -117.28384609 253.97136817 -119.42578125 255.20703125 C-123.40462432 257.50249458 -127.38330773 259.79823414 -131.36178589 262.09432983 C-133.15066918 263.12673478 -134.93958717 264.15907956 -136.72851562 265.19140625 C-138.97337636 266.48685948 -141.2181719 267.7824257 -143.46289062 269.078125 C-145.44599366 270.22246473 -147.43012647 271.36502271 -149.41552734 272.50537109 C-151.01153248 273.42835838 -152.60175247 274.36153622 -154.18212891 275.31103516 C-158.68964904 278 -158.68964904 278 -162 278 C-162.44229375 269.32552111 -162.77875012 260.65496822 -162.98443127 251.97163677 C-163.08321999 247.93787189 -163.21678488 243.9118635 -163.43334961 239.88256836 C-164.78889429 213.98188203 -164.78889429 213.98188203 -160.27822876 207.54171753 C-155.89800259 203.64918665 -150.90138121 201.64620064 -145.38803101 199.83322144 C-142.03804247 198.66435795 -139.31677342 197.00426158 -136.30078125 195.13671875 C-134.30471735 193.98692735 -132.3086236 192.83718776 -130.3125 191.6875 C-122.82484951 187.37371597 -115.34975362 183.03999882 -107.89453125 178.67041016 C-95.51412627 171.41511668 -83.03001667 164.36399199 -70.48168945 157.40356445 C-69.66273193 156.94038818 -68.84377441 156.47721191 -68 156 C-67.13414276 155.69851547 -66.26828552 155.39703094 -65.37619019 155.08641052 C-62.84112048 153.28108044 -62.84112048 153.28108044 -62.56106472 150.91151142 C-62.41162457 148.00043664 -62.43195014 145.12815632 -62.49926758 142.21386719 C-62.5048468 141.10301254 -62.51042603 139.9921579 -62.51617432 138.84764099 C-62.53075916 136.43141833 -62.55644507 134.01524345 -62.59180641 131.59923553 C-62.64484593 127.77418097 -62.66289045 123.9504591 -62.670578 120.12506104 C-62.69768745 109.24832159 -62.77945452 98.37258173 -62.90698242 87.49658203 C-62.98452843 80.84699735 -63.00921525 74.19836085 -63.00626183 67.54825592 C-63.01507907 65.01401535 -63.04275904 62.47976743 -63.08967018 59.94594574 C-63.15448837 56.39710639 -63.15780936 52.85301595 -63.14770508 49.30371094 C-63.18216232 48.25825607 -63.21661957 47.21280121 -63.25212097 46.13566589 C-63.18334199 41.65517658 -63.06809687 39.0613598 -59.80237103 35.81623268 C-57.26921749 34.02465201 -54.72446554 32.47996971 -52 31 C-51.00830811 30.35144043 -50.01661621 29.70288086 -48.99487305 29.03466797 C-48.17543213 28.52564941 -47.35599121 28.01663086 -46.51171875 27.4921875 C-45.09596558 26.60998535 -45.09596558 26.60998535 -43.65161133 25.70996094 C-42.67345459 25.10442383 -41.69529785 24.49888672 -40.6875 23.875 C-39.65584717 23.23336914 -38.62419434 22.59173828 -37.5612793 21.93066406 C-34.3760206 19.95080289 -31.18823063 17.97507103 -28 16 C-25.98172189 14.74747469 -23.96349122 13.49487295 -21.9453125 12.2421875 C-12.68605922 6.49983224 -12.68605922 6.49983224 -8.98681641 4.22460938 C-7.33337063 3.20547887 -5.68721891 2.17452603 -4.04296875 1.140625 C-2 0 -2 0 0 0 Z " fill="#F0B90B" transform="translate(561,262)"/>
<path d="M0 0 C3.17899147 1.5553483 6.20917814 3.3165703 9.25 5.125 C11.13409762 6.22398742 13.01821302 7.32294435 14.90234375 8.421875 C15.89476074 9.00517578 16.88717773 9.58847656 17.90966797 10.18945312 C22.10739284 12.64879327 26.32589584 15.07134375 30.54394531 17.49560547 C41.04085924 23.53125257 51.50614464 29.62049822 61.96020508 35.72998047 C70.38626895 40.65088468 78.83773485 45.52700979 87.29345703 50.39672852 C95.47633341 55.11246006 103.63372564 59.87056303 111.78515625 64.64038086 C117.32278951 67.87417215 122.8750873 71.08059829 128.4453125 74.2578125 C129.07500946 74.61700272 129.70470642 74.97619293 130.35348511 75.3462677 C133.42127119 77.09514069 136.49064083 78.84117102 139.56201172 80.58374023 C145.4574776 83.93741007 151.28300043 87.34980788 157 91 C154.35217191 94.09159817 151.03647959 95.74842448 147.48046875 97.58984375 C146.50981979 98.1012793 146.50981979 98.1012793 145.51956177 98.62304688 C143.41141609 99.73277914 141.29948018 100.83508573 139.1875 101.9375 C136.2773607 103.46631216 133.36916734 104.99880934 130.4609375 106.53125 C129.73802017 106.9115184 129.01510284 107.2917868 128.27027893 107.68357849 C121.01125979 111.50733772 113.81477114 115.44108132 106.6394043 119.41967773 C105.07646187 120.28099206 103.50770827 121.13191006 101.93139648 121.96850586 C100.38779636 122.79289096 98.8720709 123.66939413 97.3671875 124.5625 C93.50222682 125.27681617 90.93216359 123.09570798 87.8125 121.0625 C86.28510661 120.1164645 84.75637244 119.17259151 83.2265625 118.23046875 C81.97407715 117.45002197 81.97407715 117.45002197 80.69628906 116.65380859 C75.75457852 113.62273768 70.71557109 110.75967405 65.6875 107.875 C64.03681519 106.92379272 64.03681519 106.92379272 62.3527832 105.95336914 C56.58104968 102.62761522 50.80338983 99.31242036 45.01953125 96.0078125 C44.4406868 95.67699173 43.86184235 95.34617096 43.26545715 95.00532532 C40.34970895 93.33962146 37.43227865 91.67697095 34.51196289 90.01928711 C29.14237144 86.96726294 23.79109157 83.89246033 18.4932251 80.71713257 C16.11143762 79.28995954 13.72301072 77.87408976 11.33447266 76.45825195 C9.66498129 75.46137343 8.00615373 74.44670434 6.34765625 73.43164062 C5.33832031 72.83416016 4.32898438 72.23667969 3.2890625 71.62109375 C2.40943848 71.0892749 1.52981445 70.55745605 0.62353516 70.00952148 C-2.75212669 68.71058591 -4.53659704 69.03078392 -8 70 C-10.85166307 71.26248077 -10.85166307 71.26248077 -13.68359375 72.921875 C-14.76398926 73.52845947 -15.84438477 74.13504395 -16.95751953 74.76000977 C-18.11760802 75.42317369 -19.27759908 76.08650807 -20.4375 76.75 C-21.64911848 77.43432451 -22.86120225 78.11782582 -24.07373047 78.80053711 C-27.14369772 80.53160419 -30.20787956 82.27263726 -33.27056885 84.01654053 C-35.84752367 85.48195337 -38.42956695 86.93830007 -41.01171875 88.39453125 C-44.76258389 90.51052004 -48.51104863 92.63066449 -52.2578125 94.75390625 C-56.22642619 97.00051045 -60.2006908 99.23668018 -64.1796875 101.46484375 C-65.22084717 102.04838623 -66.26200684 102.63192871 -67.3347168 103.2331543 C-69.43165068 104.4036526 -71.53204862 105.56796821 -73.63598633 106.72583008 C-78.9548824 109.66507789 -84.15576513 112.69941 -89.26953125 115.984375 C-103.64410999 125.07387808 -103.64410999 125.07387808 -109.36328125 124.89453125 C-111.98844536 123.62836299 -114.07891456 122.17259577 -116.30810547 120.30517578 C-119.81353508 117.60098722 -123.82267437 115.63928523 -127.6875 113.5 C-129.48878928 112.46669071 -131.28820999 111.4301186 -133.0859375 110.390625 C-139.63238831 106.62490816 -146.22036121 102.93493548 -152.8125 99.25 C-154.47768677 98.31897461 -154.47768677 98.31897461 -156.17651367 97.36914062 C-158.78392182 95.91200512 -161.39171943 94.45557313 -164 93 C-164 92.01 -164 91.02 -164 90 C-162.99755249 89.4423999 -162.99755249 89.4423999 -161.97485352 88.87353516 C-145.19311466 79.5341651 -145.19311466 79.5341651 -128.5859375 69.88989258 C-122.27328454 66.1477555 -115.92093194 62.476237 -109.5625 58.8125 C-108.45672607 58.17521973 -107.35095215 57.53793945 -106.21166992 56.88134766 C-102.8080747 54.9203862 -99.40408111 52.96011785 -96 51 C-91.62449212 48.48004706 -87.24943363 45.95931732 -82.875 43.4375 C-81.2650415 42.509375 -81.2650415 42.509375 -79.62255859 41.5625 C-72.29729436 37.33557825 -64.98870328 33.08082318 -57.6875 28.8125 C-49.35803297 23.94338403 -41.01069691 19.10800301 -32.61376953 14.35595703 C-28.26272896 11.88933718 -23.9500556 9.37762604 -19.6796875 6.7734375 C-18.81964111 6.25547607 -17.95959473 5.73751465 -17.07348633 5.20385742 C-15.44508252 4.22048202 -13.8245138 3.22396704 -12.21362305 2.2121582 C-7.76850088 -0.4541293 -5.13883697 -1.88006231 0 0 Z " fill="#F0B90C" transform="translate(304,1)"/>
<path d="M0 0 C12.5299647 6.76608624 24.87110917 13.86249085 37.20977783 20.96917725 C38.95161884 21.97214178 40.69430346 22.97364078 42.43701172 23.97509766 C45.54651908 25.76631841 48.6494251 27.56837189 51.75 29.375 C52.69012939 29.91584229 53.63025879 30.45668457 54.59887695 31.01391602 C55.87251099 31.76112915 55.87251099 31.76112915 57.171875 32.5234375 C58.2870752 33.1719165 58.2870752 33.1719165 59.42480469 33.83349609 C59.94461914 34.21844238 60.46443359 34.60338867 61 35 C61 35.66 61 36.32 61 37 C60.35377686 37.37060547 59.70755371 37.74121094 59.04174805 38.12304688 C31.95492987 53.56545982 31.95492987 53.56545982 5.2824707 69.70410156 C3 71 3 71 1 71 C1 93.44 1 115.88 1 139 C-2.95755177 137.41697929 -6.10433478 135.84591768 -9.69921875 133.6484375 C-10.25196976 133.31188141 -10.80472076 132.97532532 -11.3742218 132.62857056 C-13.14750599 131.54758991 -14.91751671 130.461375 -16.6875 129.375 C-18.36663865 128.35111086 -20.0458601 127.32734512 -21.72824097 126.30879211 C-22.94294022 125.56106025 -24.14725033 124.79624543 -25.34182739 124.01676941 C-29.64742091 121.25106211 -33.97981539 119.0993468 -38.67724609 117.05981445 C-56.02947293 108.94969524 -56.02947293 108.94969524 -59.42123413 100.43005371 C-61.68796096 91.08620173 -60.94792774 81.29246535 -60.36816406 71.78717041 C-60.20984029 68.63893169 -60.18739502 65.49592109 -60.16843033 62.34422207 C-60.14232491 59.29093063 -60.0614255 56.24118474 -59.96117401 53.18950081 C-59.91459783 51.74142191 -59.87800269 50.2929833 -59.85199738 48.84438896 C-59.57543493 37.73535567 -59.57543493 37.73535567 -55.86531067 33.64862061 C-53.32153797 31.83533684 -50.79453652 30.38911603 -48 29 C-46.9174292 28.32114746 -45.8348584 27.64229492 -44.71948242 26.94287109 C-43.77435791 26.39195801 -42.8292334 25.84104492 -41.85546875 25.2734375 C-40.77563721 24.63986328 -39.69580566 24.00628906 -38.58325195 23.35351562 C-37.46265381 22.70060547 -36.34205566 22.04769531 -35.1875 21.375 C-32.80807995 19.97963942 -30.43099026 18.58034925 -28.0546875 17.1796875 C-27.46321426 16.83125793 -26.87174103 16.48282837 -26.26234436 16.12384033 C-17.41650561 10.89972325 -8.70499095 5.45461735 0 0 Z " fill="#EFB80D" transform="translate(97,114)"/>
<path d="M0 0 C3.47276105 1.3023815 6.55439584 2.82244535 9.7109375 4.765625 C10.61513428 5.31935791 11.51933105 5.87309082 12.45092773 6.44360352 C13.41587158 7.03971436 14.38081543 7.6358252 15.375 8.25 C17.43611942 9.51445088 19.49731977 10.77876985 21.55859375 12.04296875 C22.61804199 12.69442871 23.67749023 13.34588867 24.76904297 14.01708984 C29.98143047 17.21604793 35.21029453 20.38783536 40.4375 23.5625 C42.29071632 24.68822324 44.14359856 25.8144967 45.99609375 26.94140625 C46.77138428 27.41263916 47.5466748 27.88387207 48.34545898 28.36938477 C49.22145752 28.90748779 50.09745605 29.44559082 51 30 C52.01635277 30.37758705 52.01635277 30.37758705 53.05323792 30.76280212 C55.64059367 31.90557209 57.1462995 32.84405968 59 35 C60.25562281 40.09360433 60.15160385 45.16141679 60.09765625 50.37109375 C60.10559098 51.89658382 60.115752 53.42206378 60.1280365 54.94752502 C60.14432353 58.14152374 60.13124922 61.33373428 60.09790039 64.52758789 C60.05793672 68.61242393 60.0945101 72.69236748 60.15367985 76.776824 C60.19018276 79.92652129 60.18404278 83.07506003 60.16540337 86.22487068 C60.16192631 87.7299203 60.17199135 89.23506664 60.19609261 90.73992729 C60.34989144 102.43619255 60.34989144 102.43619255 57.1401825 106.15454102 C54.8252841 107.72361047 52.55774013 108.87858378 50 110 C48.91936279 110.67691895 47.83872559 111.35383789 46.7253418 112.05126953 C45.72672119 112.65567871 44.72810059 113.26008789 43.69921875 113.8828125 C43.14397018 114.21961533 42.58872162 114.55641815 42.01664734 114.90342712 C40.2415324 115.97939542 38.46465582 117.0524065 36.6875 118.125 C35.45063439 118.87288412 34.21381851 119.62085051 32.97705078 120.36889648 C30.49924602 121.86706594 28.02059951 123.36383103 25.54150391 124.85986328 C22.28729002 126.8246571 19.03962387 128.80008147 15.79296875 130.77734375 C13.98711171 131.8726144 12.18113109 132.96768132 10.375 134.0625 C9.54701904 134.56861816 8.71903809 135.07473633 7.8659668 135.59619141 C7.11355713 136.0504248 6.36114746 136.5046582 5.5859375 136.97265625 C4.61213135 137.56445679 4.61213135 137.56445679 3.61865234 138.16821289 C2 139 2 139 0 139 C0.04298721 138.18139999 0.08597443 137.36279999 0.13026428 136.51939392 C0.51596526 128.73869289 0.77687568 120.96775728 0.90415287 113.17888546 C0.9738254 109.17462408 1.08852878 105.18312327 1.31323242 101.18432617 C2.82146063 83.71807762 2.82146063 83.71807762 -3.35354614 68.14123535 C-9.2883414 63.24245307 -15.94028421 60.12872874 -23.03048706 57.24234009 C-26.71300792 55.70170249 -29.8472182 53.8193368 -33.19140625 51.6484375 C-34.11244141 51.08769531 -35.03347656 50.52695313 -35.98242188 49.94921875 C-36.83384766 49.42972656 -37.68527344 48.91023438 -38.5625 48.375 C-39.47966797 47.81683594 -40.39683594 47.25867188 -41.34179688 46.68359375 C-43.09183917 45.61725973 -44.84019905 44.5481569 -46.58642578 43.47558594 C-48.19256322 42.49364231 -49.8055736 41.52285131 -51.42529297 40.56347656 C-52.16021973 40.12229492 -52.89514648 39.68111328 -53.65234375 39.2265625 C-54.30066162 38.84322754 -54.94897949 38.45989258 -55.61694336 38.06494141 C-56.07335205 37.71351074 -56.52976074 37.36208008 -57 37 C-57 36.34 -57 35.68 -57 35 C-54.87402344 33.48217773 -54.87402344 33.48217773 -51.859375 31.68359375 C-50.73829346 31.00941406 -49.61721191 30.33523437 -48.4621582 29.640625 C-47.2248051 28.90619446 -45.98741821 28.17182083 -44.75 27.4375 C-43.49326641 26.684373 -42.23700552 25.93045669 -40.98120117 25.17578125 C-38.34594718 23.59304124 -35.70863432 22.01381526 -33.06982422 20.43701172 C-27.09012565 16.86061292 -21.13294366 13.24711238 -15.17712402 9.63113403 C-13.3278569 8.50931593 -11.47705194 7.3900715 -9.62597656 6.27124023 C-8.50803711 5.59391846 -7.39009766 4.91659668 -6.23828125 4.21875 C-5.24868408 3.61998047 -4.25908691 3.02121094 -3.23950195 2.40429688 C-1.11183422 1.18630716 -1.11183422 1.18630716 0 0 Z " fill="#F0B90B" transform="translate(499,114)"/>
<path d="M0 0 C1.57078853 0.77334972 3.1401735 1.54955056 4.70898438 2.3269043 C5.5830896 2.75883591 6.45719482 3.19076752 7.35778809 3.63578796 C11.54951447 5.80003662 15.51410704 8.29449294 19.5 10.8125 C21.31609379 11.94841637 23.13251691 13.08380635 24.94921875 14.21875 C26.39433838 15.12367188 26.39433838 15.12367188 27.86865234 16.046875 C33.0776955 19.29592734 38.3089307 22.50883169 43.53955078 25.72299194 C45.30008155 26.80486864 47.0602576 27.88732003 48.8203125 28.9699707 C51.54668262 30.6469603 54.27325323 32.32362293 57 34 C65.81188287 29.02162487 74.53334839 23.92045567 83.16925049 18.64279175 C84.98439712 17.53384874 86.80128024 16.4278014 88.61865234 15.32250977 C92.98303131 12.66782806 97.34610376 10.01102955 101.70458984 7.34667969 C103.84256276 6.04001831 105.98332708 4.73808351 108.125 3.4375 C109.24132812 2.75558594 110.35765625 2.07367188 111.5078125 1.37109375 C114 0 114 0 116 0 C116.23217981 8.74475492 116.40961373 17.48844232 116.51812172 26.23561192 C116.57021505 30.29791524 116.64079916 34.3581036 116.75439453 38.41918945 C116.86343401 42.34216329 116.92291528 46.26311019 116.94877243 50.18748283 C116.96718494 51.68083554 117.00314705 53.17408277 117.05730057 54.66656685 C117.46356793 66.33240063 117.46356793 66.33240063 113.88478088 70.41009521 C111.32665829 72.22930092 108.82064692 73.63135156 106 75 C104.30928879 76.01163622 102.62466276 77.03358708 100.94921875 78.0703125 C99.19733193 79.09201223 97.44335683 80.11013815 95.6875 81.125 C87.83270159 85.71378121 80.0416575 90.38990586 72.3125 95.1875 C71.42199951 95.74002441 70.53149902 96.29254883 69.61401367 96.86181641 C66.38245156 98.87274845 63.16718538 100.88854308 60 103 C56.19594336 103.41520329 54.08556111 102.81086539 50.90234375 100.75390625 C50.1141626 100.25431396 49.32598145 99.75472168 48.51391602 99.23999023 C47.23859009 98.40963257 47.23859009 98.40963257 45.9375 97.5625 C44.07135634 96.37596086 42.2041066 95.19116008 40.3359375 94.0078125 C39.32756836 93.36618164 38.31919922 92.72455078 37.28027344 92.06347656 C31.25686323 88.27441263 25.15514112 84.61381031 19.0625 80.9375 C16.69821165 79.51077224 14.33505607 78.08219595 11.97265625 76.65234375 C10.46070679 75.73956665 10.46070679 75.73956665 8.91821289 74.80834961 C7.95520264 74.21159424 6.99219238 73.61483887 6 73 C4.96386063 72.44270706 3.92772125 71.88541412 2.86018372 71.31123352 C0 69 0 69 -0.7215271 65.8994751 C-0.70820343 64.68257996 -0.69487976 63.46568481 -0.68115234 62.21191406 C-0.6820285 61.53833359 -0.68290466 60.86475311 -0.68380737 60.17076111 C-0.67963724 57.9511895 -0.63302452 55.73466623 -0.5859375 53.515625 C-0.57474302 51.97436169 -0.56620402 50.43307698 -0.56021118 48.89178467 C-0.53733181 44.84044157 -0.47841891 40.79039482 -0.4119873 36.73956299 C-0.35054394 32.60389748 -0.32319195 28.4680219 -0.29296875 24.33203125 C-0.22867247 16.22076008 -0.12630655 8.11054142 0 0 Z " fill="#EFB80C" transform="translate(240,497)"/>
<path d="M0 0 C0.81597656 0.52722656 1.63195312 1.05445312 2.47265625 1.59765625 C4.17615234 2.58958984 4.17615234 2.58958984 5.9140625 3.6015625 C7.29001458 4.45078558 8.66353888 5.30394964 10.03515625 6.16015625 C11.6272077 7.14387111 13.21968636 8.12689475 14.8125 9.109375 C15.6979248 9.6564209 16.58334961 10.2034668 17.49560547 10.76708984 C23.95324063 14.73784172 30.44438819 18.65385486 36.92825317 22.58157349 C39.78021033 24.30962573 42.63044841 26.04029493 45.47753906 27.77636719 C47.34068998 28.90932332 49.20897108 30.03393999 51.08496094 31.14550781 C52.91365151 32.24336465 54.6999723 33.41148996 56.47265625 34.59765625 C56.47265625 35.25765625 56.47265625 35.91765625 56.47265625 36.59765625 C55.81072266 36.97873535 55.14878906 37.35981445 54.46679688 37.75244141 C51.30168611 39.57515746 48.13705287 41.39870078 44.97265625 43.22265625 C44.39208466 43.55723846 43.81151306 43.89182068 43.21334839 44.23654175 C33.67178294 49.73666147 24.1513213 55.27192493 14.65625 60.85205078 C12.83409113 61.91936109 11.00243237 62.97064614 9.16088867 64.00415039 C6.41358794 65.5710131 6.41358794 65.5710131 3.79418945 67.57983398 C0.97023873 69.52373796 -1.18613759 70.80405919 -4.52734375 71.59765625 C-9.44141924 70.22313662 -13.33415779 67.43588379 -17.46484375 64.53515625 C-18.66718864 63.7379618 -19.8726588 62.94546284 -21.08105469 62.1574707 C-22.96561236 60.92576007 -24.84608749 59.68973261 -26.71548462 58.43510437 C-31.24750152 55.39453539 -35.8669293 52.5544611 -40.578125 49.80078125 C-41.55270912 49.22796165 -41.55270912 49.22796165 -42.54698181 48.64356995 C-45.08072813 47.15511134 -47.61496841 45.66787131 -50.15939331 44.19772339 C-51.90993162 43.18210274 -53.64866135 42.14620967 -55.38671875 41.109375 C-56.38155273 40.52631592 -57.37638672 39.94325684 -58.40136719 39.3425293 C-59.10293945 38.76672119 -59.80451172 38.19091309 -60.52734375 37.59765625 C-60.52734375 36.27765625 -60.52734375 34.95765625 -60.52734375 33.59765625 C-59.427854 32.97274292 -59.427854 32.97274292 -58.30615234 32.33520508 C-45.58670391 25.10053518 -32.87459372 17.85637952 -20.27734375 10.41015625 C-19.40513184 9.89493408 -18.53291992 9.37971191 -17.63427734 8.84887695 C-16.39798584 8.11544067 -16.39798584 8.11544067 -15.13671875 7.3671875 C-14.35876953 6.90908691 -13.58082031 6.45098633 -12.77929688 5.97900391 C-11.26486278 5.0500503 -9.77838538 4.07408194 -8.32226562 3.05615234 C-3.17320335 -0.5051622 -3.17320335 -0.5051622 0 0 Z " fill="#EFB80C" transform="translate(301.52734375,114.40234375)"/>
<path d="M0 0 C3.68879495 1.19506331 6.91906055 2.35898931 10.1953125 4.44140625 C10.98043213 4.93463379 11.76555176 5.42786133 12.57446289 5.93603516 C13.41614014 6.47276855 14.25781738 7.00950195 15.125 7.5625 C16.97958287 8.72927387 18.83510504 9.89455564 20.69140625 11.05859375 C21.69316895 11.68749512 22.69493164 12.31639648 23.72705078 12.96435547 C27.29082432 15.18088118 30.87360595 17.36352997 34.46484375 19.53515625 C35.09547729 19.91658279 35.72611084 20.29800934 36.37585449 20.69099426 C38.89253252 22.21208132 41.40990735 23.73199544 43.92901611 25.24905396 C45.69464901 26.31268574 47.45874161 27.37883442 49.22265625 28.4453125 C50.75031616 29.36594482 50.75031616 29.36594482 52.30883789 30.30517578 C53.64096313 31.14411377 53.64096313 31.14411377 55 32 C55.70613937 32.39229294 56.41227875 32.78458588 57.13981628 33.18876648 C59 35 59 35 59.48101807 37.98027039 C59.4676944 39.80894402 59.4676944 39.80894402 59.45410156 41.67456055 C59.45468567 42.347995 59.45526978 43.02142944 59.45587158 43.715271 C59.45308639 45.93961264 59.42197713 48.16261147 59.390625 50.38671875 C59.38316408 51.92942065 59.37747044 53.47213203 59.37347412 55.0148468 C59.35820584 59.07408848 59.31891445 63.13275711 59.2746582 67.19177246 C59.23373083 71.33414965 59.21546857 75.4766195 59.1953125 79.61914062 C59.15242072 87.74635665 59.0841557 95.87310703 59 104 C57.10110785 103.05804801 55.20308406 102.11434538 53.30541992 101.16992188 C51.71983528 100.381922 51.71983528 100.381922 50.10221863 99.57800293 C45.75103177 97.36468838 41.53097 94.95428248 37.3125 92.5 C27.89355664 87.06444836 18.41676068 81.7397308 8.91137695 76.45703125 C7.38516724 75.60625 7.38516724 75.60625 5.828125 74.73828125 C4.9196582 74.23337158 4.01119141 73.72846191 3.07519531 73.20825195 C1 72 1 72 0 71 C-0.09432985 68.79132169 -0.11742431 66.57958479 -0.11352539 64.36889648 C-0.11367142 63.67624695 -0.11381744 62.98359741 -0.1139679 62.2699585 C-0.11326874 59.97030554 -0.10547628 57.67073263 -0.09765625 55.37109375 C-0.09579208 53.78068588 -0.09436817 52.19027743 -0.09336853 50.59986877 C-0.08954329 46.4060407 -0.07971295 42.21224705 -0.06866455 38.01843262 C-0.05845057 33.74211086 -0.05387094 29.46578356 -0.04882812 25.18945312 C-0.03809069 16.79295292 -0.02101419 8.39648074 0 0 Z " fill="#EFB90C" transform="translate(139,322)"/>
<path d="M0 0 C0.30200561 8.857567 0.53256894 17.7133489 0.67355824 26.57495117 C0.74125222 30.69065869 0.83292916 34.8028316 0.98071289 38.91650391 C1.12261076 42.89149217 1.19981047 46.86309747 1.23340416 50.84042358 C1.25731858 52.35270494 1.30403268 53.86481246 1.37449074 55.37564087 C1.58777134 60.14118918 1.54058502 64.4187921 0 69 C-3.93870853 72.76811612 -8.02579206 74.75349814 -13 77 C-15.21811557 78.1961176 -17.39368612 79.45325528 -19.578125 80.7109375 C-21.8005753 81.93503364 -24.02456271 83.15634273 -26.25 84.375 C-34.98851086 89.1764096 -43.67387195 94.04108159 -52.15136719 99.29443359 C-53.73365951 100.25455447 -55.36265666 101.13710496 -57 102 C-57.66 101.67 -58.32 101.34 -59 101 C-59.23223282 92.64630622 -59.4096369 84.29397117 -59.51812172 75.93784237 C-59.57020536 72.05708866 -59.64076793 68.17855054 -59.75439453 64.29907227 C-59.86347433 60.55115279 -59.92292256 56.80535588 -59.94877243 53.05597115 C-59.96717824 51.62958919 -60.00312786 50.20331709 -60.05730057 48.77784538 C-60.46305648 37.65324963 -60.46305648 37.65324963 -56.92323303 33.65325928 C-54.36180162 31.82914746 -51.81852234 30.38715793 -49 29 C-47.9174292 28.32114746 -46.8348584 27.64229492 -45.71948242 26.94287109 C-44.77435791 26.39195801 -43.8292334 25.84104492 -42.85546875 25.2734375 C-41.77571777 24.63986328 -40.6959668 24.00628906 -39.58349609 23.35351562 C-38.46281738 22.70060547 -37.34213867 22.04769531 -36.1875 21.375 C-33.80676264 19.97966581 -31.42830645 18.58048699 -29.05078125 17.1796875 C-28.45910156 16.83125793 -27.86742187 16.48282837 -27.2578125 16.12384033 C-20.49757 12.1311127 -13.83278501 7.98578059 -7.18432617 3.81005859 C-6.37842041 3.30555176 -5.57251465 2.80104492 -4.7421875 2.28125 C-4.0394873 1.83845703 -3.33678711 1.39566406 -2.61279297 0.93945312 C-1 0 -1 0 0 0 Z " fill="#EFB80C" transform="translate(458,324)"/>
<path d="M0 0 C0 61.38 0 122.76 0 186 C-0.99 186 -1.98 186 -3 186 C-2.67 125.61 -2.34 65.22 -2 3 C-3.65 3.33 -5.3 3.66 -7 4 C-3.17391304 0 -3.17391304 0 0 0 Z " fill="#DCB73E" transform="translate(561,262)"/>
<path d="M0 0 C2.475 0.495 2.475 0.495 5 1 C5.33 1.66 5.66 2.32 6 3 C4.68 2.67 3.36 2.34 2 2 C2.10711799 25.82572602 2.21985737 49.65141965 2.33933926 73.47708702 C2.39468144 84.53907579 2.44816505 95.60106778 2.49731445 106.66308594 C2.54014412 116.30167492 2.586419 125.94024005 2.63687855 135.57879221 C2.66348931 140.68508255 2.68834262 145.79136813 2.70907402 150.897686 C2.72862251 155.69925947 2.75276089 160.50078751 2.78049088 165.30232048 C2.7898708 167.06883484 2.79754268 168.83535917 2.80341911 170.60188866 C2.81166433 173.00534374 2.82593645 175.40868809 2.84178162 177.81210327 C2.84275972 178.51832113 2.84373783 179.22453898 2.84474558 179.95215738 C2.8324327 183.59918063 2.8324327 183.59918063 4 187 C2.68 186.34 1.36 185.68 0 185 C0 123.95 0 62.9 0 0 Z " fill="#D9B83E" transform="translate(39,265)"/>
<path d="M0 0 C0.66 0.33 1.32 0.66 2 1 C-0.46949174 5.21266238 -3.51343569 6.34705525 -8 8 C-9.32 8.33 -10.64 8.66 -12 9 C-12.33 30.12 -12.66 51.24 -13 73 C-12.01 72.01 -11.02 71.02 -10 70 C-8.68 70.66 -7.36 71.32 -6 72 C-8.64 73.32 -11.28 74.64 -14 76 C-15.80095705 74.19904295 -15.21211658 71.46429505 -15.2722168 69.03076172 C-15.30441818 67.75208221 -15.33661957 66.47340271 -15.36979675 65.15597534 C-15.47148844 60.05626075 -15.54668154 54.95615394 -15.60025311 49.85571098 C-15.64118695 45.98392942 -15.70142183 42.11468466 -15.80932617 38.24414062 C-15.91331658 34.50147157 -15.96769191 30.76106175 -15.98771095 27.01703262 C-16.00360809 25.59347905 -16.03676155 24.17000492 -16.08786583 22.74728012 C-16.46753082 11.64122199 -16.46753082 11.64122199 -12.88076782 7.62994385 C-10.32440505 5.81174198 -7.81061312 4.38554623 -5 3 C-4.10798386 2.42748505 -3.21596771 1.85497009 -2.29692078 1.2651062 C-1.53893692 0.84762115 -0.78095306 0.43013611 0 0 Z " fill="#DEB53A" transform="translate(414,350)"/>
<path d="M0 0 C3.73487777 0.4979837 5.81237635 0.87491756 9 3 C9 3.66 9 4.32 9 5 C10.32 5 11.64 5 13 5 C13.33 26.78 13.66 48.56 14 71 C15.32 71.33 16.64 71.66 18 72 C13.25 75 13.25 75 11 75 C11.00967804 74.16141449 11.01935608 73.32282898 11.02932739 72.45883179 C11.11179821 64.54304059 11.14617224 56.62879921 11.12697029 48.71257591 C11.11878307 44.6428091 11.12897497 40.57484147 11.18164062 36.50537109 C11.23181852 32.57527887 11.23310176 28.64789069 11.20095444 24.71763992 C11.19721255 23.22093493 11.21088092 21.72407881 11.24249649 20.22770309 C11.33213849 15.67560203 11.29590968 11.40741587 10 7 C6.98066977 4.04955062 3.87723574 2.56610477 0 1 C0 0.67 0 0.34 0 0 Z " fill="#E4B636" transform="translate(488,178)"/>
<path d="M0 0 C2.46452332 1.08857727 2.46452332 1.08857727 5 3 C5.60127258 5.94230652 5.60127258 5.94230652 5.56762695 9.58276367 C5.56872215 10.57828499 5.56872215 10.57828499 5.56983948 11.59391785 C5.56635781 13.78610179 5.52747641 15.9761565 5.48828125 18.16796875 C5.47895501 19.68824604 5.471838 21.20853837 5.46684265 22.72883606 C5.44775745 26.72905005 5.39864509 30.72835535 5.34332275 34.72821045 C5.29216216 38.81021837 5.26933553 42.89237322 5.24414062 46.97460938 C5.19052646 54.9834898 5.10519687 62.99163185 5 71 C1.20816385 69.77843841 -2.03728709 68.56177743 -5.375 66.375 C-6.40753906 65.70597656 -6.40753906 65.70597656 -7.4609375 65.0234375 C-7.96882812 64.68570313 -8.47671875 64.34796875 -9 64 C-7.02 63.505 -7.02 63.505 -5 63 C-5 63.66 -5 64.32 -5 65 C-3.02 64.505 -3.02 64.505 -1 64 C-1 64.66 -1 65.32 -1 66 C-0.34 66 0.32 66 1 66 C1 66.66 1 67.32 1 68 C1.66 68 2.32 68 3 68 C3 46.55 3 25.1 3 3 C2.01 2.67 1.02 2.34 0 2 C0 1.34 0 0.68 0 0 Z " fill="#DFB73E" transform="translate(196,472)"/>
<path d="M0 0 C6 2 6 2 7 4 C5.35 3.67 3.7 3.34 2 3 C2 25.44 2 47.88 2 71 C2.99 71 3.98 71 5 71 C5 71.66 5 72.32 5 73 C3.35 72.34 1.7 71.68 0 71 C0 47.57 0 24.14 0 0 Z " fill="#E2B636" transform="translate(139,322)"/>
<path d="M0 0 C0 0.66 0 1.32 0 2 C-1.65 2.66 -3.3 3.32 -5 4 C-4.67 26.11 -4.34 48.22 -4 71 C-4.99 71 -5.98 71 -7 71 C-7.11578185 62.18582412 -7.20465752 53.37190942 -7.25906086 44.5571394 C-7.28517022 40.46417089 -7.3205912 36.37172209 -7.37719727 32.27905273 C-7.43147158 28.3303192 -7.46141045 24.38208589 -7.47438622 20.43300819 C-7.48363456 18.92542963 -7.50169476 17.41787886 -7.52865028 15.91051292 C-7.56488381 13.80065862 -7.56994835 11.69287836 -7.56762695 9.58276367 C-7.57873001 8.38141281 -7.58983307 7.18006195 -7.60127258 5.94230652 C-7 3 -7 3 -4.58952332 1.08857727 C-2 0 -2 0 0 0 Z " fill="#DAB73E" transform="translate(406,469)"/>
<path d="M0 0 C1.32 0 2.64 0 4 0 C4 0.66 4 1.32 4 2 C5.98 2 7.96 2 10 2 C10.97096688 4.91290064 11.13341697 6.79446436 11.15148926 9.82704163 C11.15983292 10.82114548 11.16817657 11.81524933 11.17677307 12.83947754 C11.1830497 14.47366638 11.1830497 14.47366638 11.18945312 16.14086914 C11.19774643 17.28901596 11.20603973 18.43716278 11.21458435 19.62010193 C11.23199858 22.11644669 11.24716162 24.61280793 11.26036072 27.10917854 C11.28135235 31.0543919 11.30837709 34.99952228 11.33703613 38.94468689 C11.40222466 48.02993624 11.45768265 57.11524017 11.51302338 66.20055389 C11.56788158 75.19026916 11.62654426 84.17993864 11.69187927 93.16958427 C11.71853463 97.0661729 11.73929927 100.96276552 11.7598877 104.85939026 C11.7764843 107.23577068 11.79335558 109.6121492 11.81054688 111.98852539 C11.8168235 113.62575058 11.8168235 113.62575058 11.82322693 115.29605103 C11.83157059 116.28733505 11.83991425 117.27861908 11.84851074 118.29994202 C11.85366447 119.16437455 11.85881821 120.02880709 11.86412811 120.91943455 C11.86887958 123.06107279 11.86887958 123.06107279 13 125 C12.01 124.67 11.02 124.34 10 124 C9.67 85.06 9.34 46.12 9 6 C6.03 4.35 3.06 2.7 0 1 C0 0.67 0 0.34 0 0 Z " fill="#E3B82C" transform="translate(230,327)"/>
<path d="M0 0 C1.65 0 3.3 0 5 0 C2.03368051 2.47193291 -0.51236907 4.25618453 -4 6 C-4.33 43.95 -4.66 81.9 -5 121 C-5.99 121.495 -5.99 121.495 -7 122 C-6.93950459 106.79679051 -6.86203253 91.59373343 -6.76428509 76.39071941 C-6.71929725 69.33186522 -6.67988962 62.27306182 -6.65356445 55.21411133 C-6.62815887 48.40592471 -6.58727451 41.59797294 -6.53681374 34.78992653 C-6.52008736 32.18835053 -6.50860918 29.58673547 -6.50238609 26.98511314 C-6.49280781 23.35010328 -6.46482321 19.71567789 -6.43237305 16.08081055 C-6.43380814 14.99755997 -6.43524323 13.91430939 -6.4367218 12.79823303 C-6.42418365 11.80965302 -6.41164551 10.821073 -6.39872742 9.80253601 C-6.39411845 8.94250316 -6.38950949 8.0824703 -6.38476086 7.19637585 C-5.91308093 4.50382958 -5.20084591 3.58829469 -3 2 C-2.01 2 -1.02 2 0 2 C0 1.34 0 0.68 0 0 Z " fill="#DFB640" transform="translate(361,329)"/>
<path d="M0 0 C1.64936913 0.78427352 3.29441127 1.57765259 4.9375 2.375 C5.85402344 2.81585938 6.77054687 3.25671875 7.71484375 3.7109375 C10 5 10 5 11 7 C10.34 7 9.68 7 9 7 C9.01110306 7.8703035 9.02220612 8.74060699 9.03364563 9.63728333 C9.13376936 17.83315481 9.20992489 26.02882136 9.25906086 34.22516346 C9.28517157 38.43919238 9.32059527 42.65271665 9.37719727 46.86645508 C9.43146638 50.93189651 9.46140943 54.99685214 9.47438622 59.06262779 C9.48363546 60.61486144 9.50169734 62.16706805 9.52865028 63.71909523 C9.56487639 65.89119842 9.56994858 68.06128663 9.56762695 70.23364258 C9.57873001 71.47052322 9.58983307 72.70740387 9.60127258 73.98176575 C9 77 9 77 6.58952332 78.98539734 C5.73498062 79.32021622 4.88043793 79.6550351 4 80 C3.34 79.67 2.68 79.34 2 79 C4.475 78.01 4.475 78.01 7 77 C6.814375 76.030625 6.62875 75.06125 6.4375 74.0625 C6.293125 73.051875 6.14875 72.04125 6 71 C6.495 70.505 6.495 70.505 7 70 C7.12369325 68.0064857 7.1779639 66.0086353 7.20532227 64.01147461 C7.22526749 62.73022202 7.24521271 61.44896942 7.26576233 60.12889099 C7.28274797 58.72004316 7.29962673 57.31119405 7.31640625 55.90234375 C7.33696915 54.46887095 7.35796544 53.03540431 7.37937927 51.60194397 C7.43466859 47.8224688 7.48404745 44.0429383 7.53222656 40.2633667 C7.58239165 36.40925145 7.63810371 32.55521691 7.69335938 28.70117188 C7.80102479 21.13418286 7.90245097 13.5671269 8 6 C7.34 6 6.68 6 6 6 C6 5.34 6 4.68 6 4 C5.071875 3.7834375 5.071875 3.7834375 4.125 3.5625 C2 3 2 3 0 2 C0 1.34 0 0.68 0 0 Z " fill="#DFB73B" transform="translate(447,201)"/>
<path d="M0 0 C0 22.44 0 44.88 0 68 C-0.33 68 -0.66 68 -1 68 C-1.33 46.55 -1.66 25.1 -2 3 C-3.65 3.33 -5.3 3.66 -7 4 C-3.17391304 0 -3.17391304 0 0 0 Z " fill="#DCB742" transform="translate(356,497)"/>
<path d="M0 0 C3.465 1.98 3.465 1.98 7 4 C7 4.66 7 5.32 7 6 C4.8828125 7.5078125 4.8828125 7.5078125 2.125 9.125 C1.22007812 9.66382813 0.31515625 10.20265625 -0.6171875 10.7578125 C-3 12 -3 12 -5 12 C-5 11.34 -5 10.68 -5 10 C-4.01 10 -3.02 10 -2 10 C-1.34 6.7 -0.68 3.4 0 0 Z " fill="#E5B72B" transform="translate(351,145)"/>
<path d="M0 0 C0 0.66 0 1.32 0 2 C-0.99 2 -1.98 2 -3 2 C-3 2.66 -3 3.32 -3 4 C-7.15724428 7.80090906 -10.64143318 9.91099748 -16.3125 10.125 C-17.199375 10.08375 -18.08625 10.0425 -19 10 C-19.33 9.01 -19.66 8.02 -20 7 C-19.13890625 7.0721875 -18.2778125 7.144375 -17.390625 7.21875 C-13.28457615 6.95384362 -11.20559379 5.68796391 -7.75 3.5 C-2.16666667 0 -2.16666667 0 0 0 Z " fill="#E3B62B" transform="translate(316,223)"/>
<path d="M0 0 C0 0.66 0 1.32 0 2 C-1.95927063 3.7143618 -3.95880212 5.38405168 -6 7 C-5.34 8.65 -4.68 10.3 -4 12 C-6.9719385 10.87548273 -9.33440687 9.77706209 -12 8 C-12 7.34 -12 6.68 -12 6 C-9.8828125 4.4921875 -9.8828125 4.4921875 -7.125 2.875 C-6.22007812 2.33617187 -5.31515625 1.79734375 -4.3828125 1.2421875 C-2 0 -2 0 0 0 Z " fill="#E0B62D" transform="translate(454,143)"/>
<path d="M0 0 C3.36415551 1.26705319 6.37031789 2.71113193 9.42578125 4.6015625 C10.22177734 5.09140625 11.01777344 5.58125 11.83789062 6.0859375 C12.65451172 6.59382813 13.47113281 7.10171875 14.3125 7.625 C15.14845703 8.140625 15.98441406 8.65625 16.84570312 9.1875 C18.89931199 10.45487004 20.95063341 11.72578573 23 13 C20 14 20 14 17.30078125 12.78515625 C16.31464844 12.21667969 15.32851563 11.64820313 14.3125 11.0625 C12.82169922 10.21365234 12.82169922 10.21365234 11.30078125 9.34765625 C10.54152344 8.90292969 9.78226563 8.45820313 9 8 C9 7.34 9 6.68 9 6 C8.443125 5.896875 7.88625 5.79375 7.3125 5.6875 C4.5230899 4.85821592 2.3860936 3.65700944 0 2 C0 1.34 0 0.68 0 0 Z " fill="#DEB738" transform="translate(243,499)"/>
<path d="M0 0 C2.50022753 1.3021271 4.70495869 2.6657576 6.91015625 4.41796875 C3.25491397 5.63638284 3.14799962 5.03689043 -0.08984375 3.41796875 C-3.30448763 3.17687046 -6.00549937 3.50408893 -9.08984375 4.41796875 C-9.08984375 5.07796875 -9.08984375 5.73796875 -9.08984375 6.41796875 C-12.08984375 8.41796875 -12.08984375 8.41796875 -14.27734375 8.04296875 C-14.87546875 7.83671875 -15.47359375 7.63046875 -16.08984375 7.41796875 C-5.21809487 -0.98292811 -5.21809487 -0.98292811 0 0 Z " fill="#DFB732" transform="translate(100.08984375,114.58203125)"/>
<path d="M0 0 C0.66 0.33 1.32 0.66 2 1 C0.6875 2.5 0.6875 2.5 -1 4 C-1.99 4 -2.98 4 -4 4 C-4.33 4.99 -4.66 5.98 -5 7 C-6.98 7.33 -8.96 7.66 -11 8 C-11 8.66 -11 9.32 -11 10 C-11.99 10 -12.98 10 -14 10 C-14 10.66 -14 11.32 -14 12 C-15.65 12 -17.3 12 -19 12 C-15.3194903 9.09334106 -11.37683004 6.68023012 -7.375 4.25 C-6.694375 3.82589844 -6.01375 3.40179688 -5.3125 2.96484375 C-3.57871449 1.9129225 -1.79237311 0.9486565 0 0 Z " fill="#E1B62C" transform="translate(171,73)"/>
<path d="M0 0 C4.91441412 1.43652105 9.00238358 3.54159615 13.375 6.125 C14.01566406 6.49753906 14.65632813 6.87007813 15.31640625 7.25390625 C16.88048477 8.16434002 18.44065534 9.08148191 20 10 C17.4018259 10.98245308 16.34750375 11.14815584 13.74609375 10.0390625 C12.98425781 9.57242187 12.22242187 9.10578125 11.4375 8.625 C8.89969316 7.09290076 6.82921678 5.94307226 4 5 C4 4.34 4 3.68 4 3 C2.68 2.67 1.36 2.34 0 2 C0 1.34 0 0.68 0 0 Z " fill="#DDB638" transform="translate(108,422)"/>
<path d="M0 0 C2.93165235 1.5990831 5.66854016 3.40246988 8.40625 5.3125 C7.41625 5.8075 7.41625 5.8075 6.40625 6.3125 C5.66375 5.85875 4.92125 5.405 4.15625 4.9375 C1.16869216 3.17212491 -1.17523917 2.71000126 -4.59375 2.3125 C-4.59375 2.9725 -4.59375 3.6325 -4.59375 4.3125 C-7.59375 6.3125 -7.59375 6.3125 -9.78125 5.9375 C-10.379375 5.73125 -10.9775 5.525 -11.59375 5.3125 C-10.21460075 4.24884241 -8.81460398 3.21217517 -7.40625 2.1875 C-6.62894531 1.60742188 -5.85164063 1.02734375 -5.05078125 0.4296875 C-2.59375 -0.6875 -2.59375 -0.6875 0 0 Z " fill="#E0B731" transform="translate(501.59375,114.6875)"/>
<path d="M0 0 C1.98 0 3.96 0 6 0 C2.77333979 2.52521234 -0.60431967 4.65662251 -4.125 6.75 C-5.17945313 7.38421875 -6.23390625 8.0184375 -7.3203125 8.671875 C-8.20460938 9.11015625 -9.08890625 9.5484375 -10 10 C-10.66 9.67 -11.32 9.34 -12 9 C-9.82604981 6.60045121 -7.81224619 5.27606053 -4.875 3.9375 C-1.79891979 2.65691677 -1.79891979 2.65691677 0 0 Z " fill="#E3B62F" transform="translate(423,293)"/>
<path d="M0 0 C0 0.66 0 1.32 0 2 C-0.99 2 -1.98 2 -3 2 C-3.66 3.32 -4.32 4.64 -5 6 C-6.65 6 -8.3 6 -10 6 C-10 6.66 -10 7.32 -10 8 C-13 10 -13 10 -15.1875 9.625 C-15.785625 9.41875 -16.38375 9.2125 -17 9 C-14.54481265 7.49462965 -12.0861548 5.99555574 -9.625 4.5 C-8.92632812 4.07074219 -8.22765625 3.64148438 -7.5078125 3.19921875 C-2.2265625 0 -2.2265625 0 0 0 Z " fill="#DFB72D" transform="translate(286,123)"/>
<path d="M0 0 C0.66 0.33 1.32 0.66 2 1 C1.2575 2.175625 1.2575 2.175625 0.5 3.375 C-1.16537965 5.78552327 -1.16537965 5.78552327 -1 8 C-0.01 8.33 0.98 8.66 2 9 C1.01 9.495 1.01 9.495 0 10 C-1.98 8.68 -3.96 7.36 -6 6 C-5 3 -5 3 -2.5625 1.25 C-1.716875 0.8375 -0.87125 0.425 0 0 Z " fill="#E1B632" transform="translate(246,145)"/>
<path d="M0 0 C2.90314132 1.74188479 5.72327717 3.56275151 8.5 5.5 C7.51 5.995 7.51 5.995 6.5 6.5 C5.7575 6.04625 5.015 5.5925 4.25 5.125 C1.26244216 3.35962491 -1.08148917 2.89750126 -4.5 2.5 C-4.5 3.16 -4.5 3.82 -4.5 4.5 C-5.82 4.17 -7.14 3.84 -8.5 3.5 C-3.25117371 -0.65023474 -3.25117371 -0.65023474 0 0 Z " fill="#DEB535" transform="translate(301.5,114.5)"/>
<path d="M0 0 C0 0.66 0 1.32 0 2 C-0.99 2 -1.98 2 -3 2 C-3.66 3.32 -4.32 4.64 -5 6 C-6.65 6 -8.3 6 -10 6 C-10 6.66 -10 7.32 -10 8 C-11.32 7.67 -12.64 7.34 -14 7 C-12.04480616 5.82807953 -10.0857461 4.6626071 -8.125 3.5 C-7.03445313 2.8503125 -5.94390625 2.200625 -4.8203125 1.53125 C-2 0 -2 0 0 0 Z " fill="#E1B530" transform="translate(372,191)"/>
<path d="M0 0 C0 0.66 0 1.32 0 2 C-0.99 2 -1.98 2 -3 2 C-3.66 3.32 -4.32 4.64 -5 6 C-6.65 6 -8.3 6 -10 6 C-10 6.66 -10 7.32 -10 8 C-11.32 7.67 -12.64 7.34 -14 7 C-12.04480616 5.82807953 -10.0857461 4.6626071 -8.125 3.5 C-7.03445312 2.8503125 -5.94390625 2.200625 -4.8203125 1.53125 C-2 0 -2 0 0 0 Z " fill="#E0B72C" transform="translate(190,179)"/>
<path d="M0 0 C1.72990025 0.93614567 3.45888696 1.87397958 5.1875 2.8125 C6.15042969 3.33457031 7.11335938 3.85664062 8.10546875 4.39453125 C10.77398357 5.87463866 13.39374227 7.41337509 16 9 C15.01 9.495 15.01 9.495 14 10 C11.66573861 8.85089449 9.50584503 7.48937312 7.2890625 6.12890625 C4.827475 4.7051271 4.827475 4.7051271 1 5 C0.67 3.35 0.34 1.7 0 0 Z " fill="#DFB831" transform="translate(303,1)"/>
<path d="M0 0 C5.80342274 1.48805711 10.17590879 4.59097555 15 8 C14.01 8.33 13.02 8.66 12 9 C9.95912192 7.73012031 7.96374635 6.38617389 6 5 C4.01492052 3.97069953 2.01885749 2.96136071 0 2 C0 1.34 0 0.68 0 0 Z " fill="#E0B833" transform="translate(172,342)"/>
<path d="M0 0 C0 0.66 0 1.32 0 2 C-0.99 2 -1.98 2 -3 2 C-3.226875 2.61875 -3.45375 3.2375 -3.6875 3.875 C-5.40962687 6.66320542 -6.87800152 7.16239065 -10 8 C-10.99 7.67 -11.98 7.34 -13 7 C-11.21190303 5.82786955 -9.41940875 4.66244474 -7.625 3.5 C-6.62726563 2.8503125 -5.62953125 2.200625 -4.6015625 1.53125 C-2 0 -2 0 0 0 Z " fill="#E2B72E" transform="translate(326,515)"/>
<path d="M0 0 C1.2065625 0.0309375 1.2065625 0.0309375 2.4375 0.0625 C-0.25091859 2.31495881 -2.20891875 3.94463958 -5.5625 5.0625 C-8.25 3.125 -8.25 3.125 -10.5625 1.0625 C-9.428125 1.083125 -8.29375 1.10375 -7.125 1.125 C-3.34891585 1.05875291 -3.4052247 0.08305426 0 0 Z " fill="#DEB638" transform="translate(302.5625,480.9375)"/>
<path d="M0 0 C2.97 0.495 2.97 0.495 6 1 C6 1.66 6 2.32 6 3 C6.99 3 7.98 3 9 3 C9 3.66 9 4.32 9 5 C9.99 5 10.98 5 12 5 C12.33 5.99 12.66 6.98 13 8 C8.27626146 6.37621488 4.05818166 3.89006982 0 1 C0 0.67 0 0.34 0 0 Z " fill="#E0B631" transform="translate(256,460)"/>
<path d="M0 0 C0 0.66 0 1.32 0 2 C-0.99 2 -1.98 2 -3 2 C-3 2.66 -3 3.32 -3 4 C-3.99 4 -4.98 4 -6 4 C-6 4.66 -6 5.32 -6 6 C-9 8 -9 8 -11.1875 7.625 C-11.785625 7.41875 -12.38375 7.2125 -13 7 C-11.21190303 5.82786955 -9.41940875 4.66244474 -7.625 3.5 C-6.62726563 2.8503125 -5.62953125 2.200625 -4.6015625 1.53125 C-2 0 -2 0 0 0 Z " fill="#E0B82C" transform="translate(480,127)"/>
<path d="M0 0 C1.60781893 0.7631861 3.21113138 1.53587058 4.8125 2.3125 C5.70582031 2.74175781 6.59914063 3.17101563 7.51953125 3.61328125 C9.78931933 4.88221789 11.29248171 6.06556898 13 8 C10.33333333 7.33333333 7.66666667 6.66666667 5 6 C5 5.34 5 4.68 5 4 C3.35 3.67 1.7 3.34 0 3 C0 2.01 0 1.02 0 0 Z " fill="#E1B930" transform="translate(372,41)"/>
<path d="M0 0 C0 0.66 0 1.32 0 2 C-0.66 2 -1.32 2 -2 2 C-2.33 2.99 -2.66 3.98 -3 5 C-5.64 5.33 -8.28 5.66 -11 6 C-3.8 0 -3.8 0 0 0 Z " fill="#E2B731" transform="translate(451,443)"/>
<path d="M0 0 C3.06630664 0.8974556 4.73038808 1.73038808 7 4 C5.1746875 3.9690625 5.1746875 3.9690625 3.3125 3.9375 C0.08022678 3.93175884 -2.84934741 4.21233685 -6 5 C-4.06745228 2.9754262 -2.36841312 1.57894208 0 0 Z " fill="#DFB732" transform="translate(399,174)"/>
<path d="M0 0 C2.31 0.33 4.62 0.66 7 1 C7 1.33 7 1.66 7 2 C8.65 2.33 10.3 2.66 12 3 C11.01 3.99 10.02 4.98 9 6 C6.03 4.35 3.06 2.7 0 1 C0 0.67 0 0.34 0 0 Z " fill="#DDB737" transform="translate(289,180)"/>
<path d="M0 0 C0 0.66 0 1.32 0 2 C-0.99 2 -1.98 2 -3 2 C-3.268125 2.639375 -3.53625 3.27875 -3.8125 3.9375 C-5 6 -5 6 -8 7 C-8.66 6.34 -9.32 5.68 -10 5 C-8.71186658 4.16121545 -7.41936744 3.32913217 -6.125 2.5 C-5.40570313 2.0359375 -4.68640625 1.571875 -3.9453125 1.09375 C-2 0 -2 0 0 0 Z " fill="#E1B627" transform="translate(467,135)"/>
<path d="M0 0 C1.65 0 3.3 0 5 0 C1.80009492 2.74277578 -1.00499382 4.6302836 -5 6 C-4.625 4.0625 -4.625 4.0625 -4 2 C-3.34 1.67 -2.68 1.34 -2 1 C-1.34 1.33 -0.68 1.66 0 2 C0 1.34 0 0.68 0 0 Z " fill="#E7B62E" transform="translate(425,523)"/>
<path d="M0 0 C4.75 0.875 4.75 0.875 7 2 C7 2.66 7 3.32 7 4 C7.99 4 8.98 4 10 4 C10.33 4.99 10.66 5.98 11 7 C6.89188572 5.55007731 3.53144334 3.54592427 0 1 C0 0.67 0 0.34 0 0 Z " fill="#E0B531" transform="translate(281,475)"/>
<path d="M0 0 C1.65 0 3.3 0 5 0 C5 0.66 5 1.32 5 2 C7.31 2 9.62 2 12 2 C10.68 2.99 9.36 3.98 8 5 C5.36 3.68 2.72 2.36 0 1 C0 0.67 0 0.34 0 0 Z " fill="#DEB633" transform="translate(190,121)"/>
<path d="M0 0 C1.65 0 3.3 0 5 0 C1.80009492 2.74277578 -1.00499382 4.6302836 -5 6 C-4.67 4.68 -4.34 3.36 -4 2 C-2.68 2 -1.36 2 0 2 C0 1.34 0 0.68 0 0 Z " fill="#E2B82C" transform="translate(553,449)"/>
<path d="M0 0 C1.65 0 3.3 0 5 0 C1.53258866 2.95749791 -1.86873527 5.07848152 -6 7 C-5.25 5.0625 -5.25 5.0625 -4 3 C-1.875 2.25 -1.875 2.25 0 2 C0 1.34 0 0.68 0 0 Z " fill="#DFB82B" transform="translate(361,329)"/>
<path d="M0 0 C1.65 0 3.3 0 5 0 C2.63055987 2.61885488 0.16266898 4.41866551 -3 6 C-3.99 5.67 -4.98 5.34 -6 5 C-4.68 4.67 -3.36 4.34 -2 4 C-2 3.34 -2 2.68 -2 2 C-1.34 2 -0.68 2 0 2 C0 1.34 0 0.68 0 0 Z " fill="#E6B730" transform="translate(444,281)"/>
<path d="M0 0 C2.31 0.33 4.62 0.66 7 1 C7 1.66 7 2.32 7 3 C7.66 3 8.32 3 9 3 C9.33 3.99 9.66 4.98 10 6 C6.40992874 4.66654496 3.20429093 3.1056769 0 1 C0 0.67 0 0.34 0 0 Z " fill="#E2B735" transform="translate(284,592)"/>
<path d="M0 0 C0.680625 0.4125 1.36125 0.825 2.0625 1.25 C2.0625 1.58 2.0625 1.91 2.0625 2.25 C-0.5775 2.25 -3.2175 2.25 -5.9375 2.25 C-5.9375 2.91 -5.9375 3.57 -5.9375 4.25 C-7.2575 3.92 -8.5775 3.59 -9.9375 3.25 C-3.66057692 -0.93461538 -3.66057692 -0.93461538 0 0 Z " fill="#DFB736" transform="translate(199.9375,174.75)"/>
<path d="M0 0 C1.32 0.33 2.64 0.66 4 1 C2.71186658 1.83878455 1.41936744 2.67086783 0.125 3.5 C-0.59429687 3.9640625 -1.31359375 4.428125 -2.0546875 4.90625 C-4 6 -4 6 -6 6 C-6 5.01 -6 4.02 -6 3 C-4.02 2.67 -2.04 2.34 0 2 C0 1.34 0 0.68 0 0 Z " fill="#E0B52F" transform="translate(328,165)"/>
<path d="M0 0 C1.32 0 2.64 0 4 0 C4 0.66 4 1.32 4 2 C6.31 2 8.62 2 11 2 C10.01 2.99 9.02 3.98 8 5 C4.62496331 3.8141763 2.35277269 2.72426311 0 0 Z " fill="#E2B72E" transform="translate(393,121)"/>
<path d="M0 0 C1.32 0 2.64 0 4 0 C4 0.66 4 1.32 4 2 C5.32 1.67 6.64 1.34 8 1 C8.66 2.65 9.32 4.3 10 6 C6.00499382 4.6302836 3.19990508 2.74277578 0 0 Z " fill="#E4B730" transform="translate(358,101)"/>
<path d="M0 0 C7.57142857 1.85714286 7.57142857 1.85714286 10 5 C9.01 5.495 9.01 5.495 8 6 C6.0546875 5.0390625 6.0546875 5.0390625 3.875 3.625 C3.15054687 3.16351562 2.42609375 2.70203125 1.6796875 2.2265625 C1.12539063 1.82179688 0.57109375 1.41703125 0 1 C0 0.67 0 0.34 0 0 Z " fill="#E2B732" transform="translate(261,578)"/>
<path d="M0 0 C-1.28813342 0.83878455 -2.58063256 1.67086783 -3.875 2.5 C-4.59429687 2.9640625 -5.31359375 3.428125 -6.0546875 3.90625 C-8 5 -8 5 -10 5 C-9.875 3.125 -9.875 3.125 -9 1 C-5.3931275 -0.64661571 -3.8148779 -1.27162597 0 0 Z " fill="#E0B733" transform="translate(454,510)"/>
<path d="M0 0 C1.65 0 3.3 0 5 0 C1.80009492 2.74277578 -1.00499382 4.6302836 -5 6 C-4.34 4.68 -3.68 3.36 -3 2 C-2.01 2 -1.02 2 0 2 C0 1.34 0 0.68 0 0 Z " fill="#E2B730" transform="translate(477,493)"/>
<path d="M0 0 C-1.28813342 0.83878455 -2.58063256 1.67086783 -3.875 2.5 C-4.59429688 2.9640625 -5.31359375 3.428125 -6.0546875 3.90625 C-8 5 -8 5 -10 5 C-8.94958421 2.13522966 -8.29875437 1.16086774 -5.5625 -0.3125 C-3 -1 -3 -1 0 0 Z " fill="#DEB537" transform="translate(530,466)"/>
<path d="M0 0 C0 0.66 0 1.32 0 2 C-0.99 2 -1.98 2 -3 2 C-3 2.66 -3 3.32 -3 4 C-6 6 -6 6 -8.1875 5.625 C-8.785625 5.41875 -9.38375 5.2125 -10 5 C-8.71186658 4.16121545 -7.41936744 3.32913217 -6.125 2.5 C-5.40570313 2.0359375 -4.68640625 1.571875 -3.9453125 1.09375 C-2 0 -2 0 0 0 Z " fill="#DCB733" transform="translate(416,463)"/>
<path d="M0 0 C0.99 0.33 1.98 0.66 3 1 C1.54462432 1.83848804 0.08559627 2.67063934 -1.375 3.5 C-2.59316406 4.19609375 -2.59316406 4.19609375 -3.8359375 4.90625 C-6 6 -6 6 -8 6 C-7.67 4.68 -7.34 3.36 -7 2 C-6.21625 1.855625 -5.4325 1.71125 -4.625 1.5625 C-2.03578982 1.12201075 -2.03578982 1.12201075 0 0 Z " fill="#E3B734" transform="translate(444,399)"/>
<path d="M0 0 C0 0.99 0 1.98 0 3 C-1.75 4.75 -1.75 4.75 -4 6 C-5.32 5.67 -6.64 5.34 -8 5 C-4.04 2.525 -4.04 2.525 0 0 Z " fill="#E0B42A" transform="translate(535,277)"/>
<path d="M0 0 C3.3 1.65 6.6 3.3 10 5 C5.75492899 6.06126775 4.68024779 6.08878929 1 4 C0.67 2.68 0.34 1.36 0 0 Z " fill="#E2B931" transform="translate(54,273)"/>
<path d="M0 0 C0.66 0.33 1.32 0.66 2 1 C-1.32307692 4.93846154 -1.32307692 4.93846154 -4.75 5.25 C-5.4925 5.1675 -6.235 5.085 -7 5 C-2.25 1.125 -2.25 1.125 0 0 Z " fill="#E3B82C" transform="translate(323,218)"/>
<path d="M0 0 C3.3 1.65 6.6 3.3 10 5 C6.1851221 6.27162597 4.6068725 5.64661571 1 4 C0.67 2.68 0.34 1.36 0 0 Z " fill="#E1B72F" transform="translate(112,123)"/>
<path d="M0 0 C3.3 1.65 6.6 3.3 10 5 C10 5.33 10 5.66 10 6 C6.47730515 6.4025937 5.20059192 6.13372795 2.1875 4.125 C1.465625 3.42375 0.74375 2.7225 0 2 C0 1.34 0 0.68 0 0 Z " fill="#E4B730" transform="translate(448,85)"/>
<path d="M0 0 C5.66153846 1.47692308 5.66153846 1.47692308 7.375 4.125 C7.684375 5.053125 7.684375 5.053125 8 6 C6.68 5.67 5.36 5.34 4 5 C4 4.34 4 3.68 4 3 C2.68 2.67 1.36 2.34 0 2 C0 1.34 0 0.68 0 0 Z " fill="#E5B931" transform="translate(108,422)"/>
<path d="M0 0 C-1.28524261 0.86380259 -2.57842419 1.71580369 -3.875 2.5625 C-4.59429687 3.03816406 -5.31359375 3.51382813 -6.0546875 4.00390625 C-6.69664062 4.33261719 -7.33859375 4.66132813 -8 5 C-8.66 4.67 -9.32 4.34 -10 4 C-7.26634436 -0.10048346 -4.7993062 -1.59976873 0 0 Z " fill="#DFB835" transform="translate(516,244)"/>
<path d="M0 0 C3.73487777 0.4979837 5.81237635 0.87491756 9 3 C8.67 3.99 8.34 4.98 8 6 C6.66402348 5.19185349 5.331275 4.37836819 4 3.5625 C3.2575 3.11003906 2.515 2.65757812 1.75 2.19140625 C1.1725 1.79824219 0.595 1.40507812 0 1 C0 0.67 0 0.34 0 0 Z " fill="#E2B82E" transform="translate(488,178)"/>
<path d="M0 0 C-0.66 1.65 -1.32 3.3 -2 5 C-3.65 4.67 -5.3 4.34 -7 4 C-3.17391304 0 -3.17391304 0 0 0 Z " fill="#E5B52C" transform="translate(293,119)"/>
<path d="M0 0 C0 0.66 0 1.32 0 2 C-0.99 2 -1.98 2 -3 2 C-2.67 3.32 -2.34 4.64 -2 6 C-4.475 5.01 -4.475 5.01 -7 4 C-3.17391304 0 -3.17391304 0 0 0 Z " fill="#DDB43A" transform="translate(146,89)"/>
<path d="M0 0 C3.3 1.65 6.6 3.3 10 5 C6.37673261 6.2077558 5.35853631 5.54311128 2 4 C2 3.34 2 2.68 2 2 C1.34 2 0.68 2 0 2 C0 1.34 0 0.68 0 0 Z " fill="#DFB630" transform="translate(320,11)"/>
<path d="M0 0 C-0.5625 1.9375 -0.5625 1.9375 -2 4 C-5.625 4.75 -5.625 4.75 -9 5 C-2.87096774 0 -2.87096774 0 0 0 Z " fill="#E1B728" transform="translate(286,8)"/>
<path d="M0 0 C0.33 0.66 0.66 1.32 1 2 C0.34 2 -0.32 2 -1 2 C-1 2.66 -1 3.32 -1 4 C-1.99 4.66 -2.98 5.32 -4 6 C-5.32 5.67 -6.64 5.34 -8 5 C-4.04 2.525 -4.04 2.525 0 0 Z " fill="#E1B52F" transform="translate(79,125)"/>
<path d="M0 0 C-0.66 1.32 -1.32 2.64 -2 4 C-2.99 3.67 -3.98 3.34 -5 3 C-5 3.66 -5 4.32 -5 5 C-6.32 4.67 -7.64 4.34 -9 4 C-2.25 0 -2.25 0 0 0 Z " fill="#E5B82A" transform="translate(217,48)"/>
<path d="M0 0 C-3.96 1.98 -3.96 1.98 -8 4 C-8 3.01 -8 2.02 -8 1 C-3.375 -1.125 -3.375 -1.125 0 0 Z " fill="#E5B632" transform="translate(320,173)"/>
<path d="M0 0 C1.65 1.65 3.3 3.3 5 5 C1.42424104 5 -0.05295935 3.91159393 -3 2 C-2.01 1.34 -1.02 0.68 0 0 Z " fill="#DFB730" transform="translate(483,172)"/>
<path d="M0 0 C-0.625 1.9375 -0.625 1.9375 -2 4 C-5.125 4.75 -5.125 4.75 -8 5 C-3.16129032 0 -3.16129032 0 0 0 Z " fill="#E0B733" transform="translate(61,137)"/>
</svg>
