<?xml version="1.0" encoding="UTF-8"?>
<svg version="1.1" xmlns="http://www.w3.org/2000/svg" width="240" height="240">
<path d="M0 0 C8.75382858 3.91431359 16.86861538 10.80983429 23.12109375 18.046875 C26.4361501 20.87765354 29.19675658 21.22355147 33.40234375 21.19921875 C34.47125854 21.19426392 34.47125854 21.19426392 35.56176758 21.18920898 C40.69718931 20.89630535 43.27537241 19.65401414 46.90234375 15.82421875 C47.66289062 14.91800781 48.4234375 14.01179688 49.20703125 13.078125 C52.04231999 9.89394559 55.01473759 7.63616753 58.52734375 5.26171875 C60.11482422 4.17890625 60.11482422 4.17890625 61.734375 3.07421875 C65.6394094 0.69946651 69.09917739 -1.02022346 73.71484375 -1.11328125 C74.67390625 -1.15582031 74.67390625 -1.15582031 75.65234375 -1.19921875 C79.53434497 -0.33165029 81.98842126 2.2854212 84.3046875 5.3984375 C88.66526404 13.65193455 90.50020453 22.1097512 92.09545898 31.27612305 C93.56172975 38.52231325 95.71191784 41.9727828 101.52856445 46.53125 C113.21414157 55.78053762 119.69913513 73.8450459 121.50390625 88.03027344 C123.2373256 106.36760315 122.23337088 123.84387014 110.67578125 138.921875 C98.93055883 152.67997123 83.19727991 159.62556467 65.71484375 163.26171875 C64.4299707 163.53097168 64.4299707 163.53097168 63.11914062 163.80566406 C54.83664672 165.37149484 46.75227542 165.56120364 38.33984375 165.51171875 C37.03273438 165.51945313 35.725625 165.5271875 34.37890625 165.53515625 C6.54962567 165.47993942 -21.24648192 157.9068473 -41.55078125 138.14453125 C-52.40850584 126.69738733 -55.89154934 113.79906102 -55.76245117 98.35864258 C-55.00300076 74.5076211 -45.67616591 56.17473508 -29.28515625 39.26171875 C-28.71023437 38.79507813 -28.1353125 38.3284375 -27.54296875 37.84765625 C-25.524136 35.30217147 -25.41760081 32.55659967 -24.91015625 29.38671875 C-23.044651 18.86844448 -19.95709053 8.33879119 -12.53515625 0.38671875 C-8.26826895 -1.7467249 -4.40301439 -1.42251234 0 0 Z " fill="#33383E" transform="translate(86.28515625,29.73828125)"/>
<path d="M0 0 C8.75382858 3.91431359 16.86861538 10.80983429 23.12109375 18.046875 C26.4361501 20.87765354 29.19675658 21.22355147 33.40234375 21.19921875 C34.47125854 21.19426392 34.47125854 21.19426392 35.56176758 21.18920898 C40.69718931 20.89630535 43.27537241 19.65401414 46.90234375 15.82421875 C47.66289062 14.91800781 48.4234375 14.01179688 49.20703125 13.078125 C52.04231999 9.89394559 55.01473759 7.63616753 58.52734375 5.26171875 C60.11482422 4.17890625 60.11482422 4.17890625 61.734375 3.07421875 C65.6394094 0.69946651 69.09917739 -1.02022346 73.71484375 -1.11328125 C74.67390625 -1.15582031 74.67390625 -1.15582031 75.65234375 -1.19921875 C79.53434497 -0.33165029 81.98842126 2.2854212 84.3046875 5.3984375 C88.66526404 13.65193455 90.50020453 22.1097512 92.09545898 31.27612305 C93.56172975 38.52231325 95.71191784 41.9727828 101.52856445 46.53125 C113.21414157 55.78053762 119.69913513 73.8450459 121.50390625 88.03027344 C123.2373256 106.36760315 122.23337088 123.84387014 110.67578125 138.921875 C98.93055883 152.67997123 83.19727991 159.62556467 65.71484375 163.26171875 C64.4299707 163.53097168 64.4299707 163.53097168 63.11914062 163.80566406 C54.83664672 165.37149484 46.75227542 165.56120364 38.33984375 165.51171875 C37.03273438 165.51945313 35.725625 165.5271875 34.37890625 165.53515625 C6.54962567 165.47993942 -21.24648192 157.9068473 -41.55078125 138.14453125 C-52.40850584 126.69738733 -55.89154934 113.79906102 -55.76245117 98.35864258 C-55.00300076 74.5076211 -45.67616591 56.17473508 -29.28515625 39.26171875 C-28.71023437 38.79507813 -28.1353125 38.3284375 -27.54296875 37.84765625 C-25.524136 35.30217147 -25.41760081 32.55659967 -24.91015625 29.38671875 C-23.044651 18.86844448 -19.95709053 8.33879119 -12.53515625 0.38671875 C-8.26826895 -1.7467249 -4.40301439 -1.42251234 0 0 Z M-14.28515625 56.26171875 C-14.28515625 56.92171875 -14.28515625 57.58171875 -14.28515625 58.26171875 C-16.26515625 58.59171875 -18.24515625 58.92171875 -20.28515625 59.26171875 C-20.28515625 59.92171875 -20.28515625 60.58171875 -20.28515625 61.26171875 C-21.42984375 61.66390625 -21.42984375 61.66390625 -22.59765625 62.07421875 C-25.17504243 63.2130638 -26.55470489 64.07588546 -28.28515625 66.26171875 C-28.28515625 66.92171875 -28.28515625 67.58171875 -28.28515625 68.26171875 C-28.90390625 68.46796875 -29.52265625 68.67421875 -30.16015625 68.88671875 C-33.1316927 70.80947763 -33.41540284 72.92766402 -34.28515625 76.26171875 C-34.94515625 76.26171875 -35.60515625 76.26171875 -36.28515625 76.26171875 C-42.11783796 90.900051 -44.57561901 103.42720066 -38.28515625 118.26171875 C-34.73681506 125.13191127 -29.63324694 130.82410107 -23.28515625 135.26171875 C-22.29515625 135.26171875 -21.30515625 135.26171875 -20.28515625 135.26171875 C-20.28515625 135.92171875 -20.28515625 136.58171875 -20.28515625 137.26171875 C-19.21265625 137.92171875 -18.14015625 138.58171875 -17.03515625 139.26171875 C-16.431875 139.63296875 -15.82859375 140.00421875 -15.20703125 140.38671875 C-13.0303624 141.53795898 -13.0303624 141.53795898 -9.28515625 141.26171875 C-9.28515625 141.92171875 -9.28515625 142.58171875 -9.28515625 143.26171875 C21.76234249 153.42178063 53.51834336 155.1677086 83.71484375 141.26171875 C86.93143046 139.52940767 90.07873323 137.81866679 92.71484375 135.26171875 C92.71484375 134.60171875 92.71484375 133.94171875 92.71484375 133.26171875 C93.59462891 132.91947266 93.59462891 132.91947266 94.4921875 132.5703125 C100.39146584 129.09709942 103.73851634 121.09557612 105.65234375 114.76171875 C108.5515867 101.95068897 105.95924077 89.75958832 99.71484375 78.26171875 C93.57247345 68.54742659 84.28326548 61.62096376 73.71484375 57.26171875 C72.73386719 56.85179687 71.75289063 56.441875 70.7421875 56.01953125 C55.84073121 50.23687657 41.3087329 48.98474056 25.46484375 48.88671875 C24.78987854 48.87877289 24.11491333 48.87082703 23.41949463 48.86264038 C10.08383735 48.74209962 -2.10432623 50.73263231 -14.28515625 56.26171875 Z " fill="#2BBBEC" transform="translate(86.28515625,29.73828125)"/>
<path d="M0 0 C0.66 0 1.32 0 2 0 C2.33 0.66 2.66 1.32 3 2 C3.99 2.33 4.98 2.66 6 3 C8.22085338 6.97415868 8.17563129 10.5214021 8 15 C8.66 15 9.32 15 10 15 C10.04898438 15.63808594 10.09796875 16.27617188 10.1484375 16.93359375 C10.26058594 18.17302734 10.26058594 18.17302734 10.375 19.4375 C10.47941406 20.67306641 10.47941406 20.67306641 10.5859375 21.93359375 C10.72257813 22.61550781 10.85921875 23.29742187 11 24 C11.66 24.33 12.32 24.66 13 25 C13.40729228 27.32156597 13.74438677 29.6568787 14 32 C13.01 32.495 13.01 32.495 12 33 C11.45396311 35.50902103 11.45396311 35.50902103 11.125 38.5 C9.98368579 45.95835566 7.72424871 51.80371068 3.25 57.875 C0.70784764 60.76397876 0.70784764 60.76397876 1 64 C3.31 64.33 5.62 64.66 8 65 C7.67 66.65 7.34 68.3 7 70 C6.01 70.33 5.02 70.66 4 71 C3.86207031 71.62003906 3.72414062 72.24007812 3.58203125 72.87890625 C2.75969335 75.87574839 1.34375255 76.40814247 -1.3125 77.9375 C-18.40673275 87.52282542 -36.54057975 91.18761784 -56.00366211 91.18530273 C-58.03326051 91.18746879 -60.06229572 91.20560979 -62.09179688 91.22460938 C-90.31505848 91.34784662 -117.83048967 83.50290723 -138.390625 63.62890625 C-144.44358908 57.53063555 -146.83189954 52.50268474 -148 44 C-148.11085937 43.27554688 -148.22171875 42.55109375 -148.3359375 41.8046875 C-148.57545586 40.20574064 -148.79088609 38.60320662 -149 37 C-148.01 37.33 -147.02 37.66 -146 38 C-146 38.66 -146 39.32 -146 40 C-143.01076326 38.14035108 -143.01076326 38.14035108 -141.375 35.15454102 C-140.99491606 32.97079053 -140.90151918 30.99191324 -140.9375 28.77734375 C-140.94523437 27.99166016 -140.95296875 27.20597656 -140.9609375 26.39648438 C-140.97382813 25.58501953 -140.98671875 24.77355469 -141 23.9375 C-141.02554653 22.32168222 -141.04656632 20.70578491 -141.0625 19.08984375 C-141.07410156 18.37691162 -141.08570313 17.66397949 -141.09765625 16.92944336 C-141 15 -141 15 -140 12 C-139.34 12 -138.68 12 -138 12 C-137.34 10.68 -136.68 9.36 -136 8 C-134.46370226 11.07259547 -135.64547226 13.33720486 -136.4375 16.625 C-139.06742914 28.60578832 -137.89265835 38.17698691 -131.25 48.8125 C-127.59430613 53.91930899 -123.05652603 58.98115799 -117 61 C-117 61.66 -117 62.32 -117 63 C-116.113125 63.28875 -115.22625 63.5775 -114.3125 63.875 C-111.49617576 64.83148748 -108.74916844 65.86798946 -106 67 C-106 67.66 -106 68.32 -106 69 C-105.27852783 69.14115234 -104.55705566 69.28230469 -103.8137207 69.42773438 C-101.19034655 69.96128657 -98.58683819 70.54561914 -95.98046875 71.15625 C-94.56991211 71.48302734 -94.56991211 71.48302734 -93.13085938 71.81640625 C-91.17973708 72.26955343 -89.22920587 72.72525382 -87.27929688 73.18359375 C-62.83593208 78.82308679 -35.71715485 77.33688004 -13 66 C-10.59935892 64.41382088 -8.31576051 62.71037134 -6 61 C-5.34 61 -4.68 61 -4 61 C-4 60.34 -4 59.68 -4 59 C-3.278125 58.29875 -2.55625 57.5975 -1.8125 56.875 C5.71809293 49.53640519 8.97852777 40.09087053 9.4375 29.6875 C9.17777552 20.64908797 6.18009951 11.93991727 2 4 C1.33333333 2.66666667 0.66666667 1.33333333 0 0 Z " fill="#0E96CB" transform="translate(183,104)"/>
<path d="M0 0 C0.9590625 -0.04253906 0.9590625 -0.04253906 1.9375 -0.0859375 C5.99499926 0.82085211 8.41586604 3.49948628 10.66015625 6.86328125 C15.89982951 17.41560373 19.83761069 28.43904764 19 40.375 C17.47783765 39.62770098 15.95734737 38.87699602 14.4375 38.125 C13.59058594 37.70734375 12.74367187 37.2896875 11.87109375 36.859375 C9.75262535 35.76411242 7.67682361 34.58538721 5.62890625 33.36328125 C2.08233823 31.32276365 -1.58870627 29.98227379 -5.5 28.8125 C-6.18126953 28.60343018 -6.86253906 28.39436035 -7.56445312 28.17895508 C-14.61419006 26.08008561 -21.76065083 24.65436774 -29 23.375 C-29.32765672 18.89448484 -29.32765672 18.89448484 -27.92578125 16.671875 C-20.76156405 9.80255294 -10.43272752 0.21033725 0 0 Z " fill="#1CACE0" transform="translate(160,28.625)"/>
<path d="M0 0 C0 0.66 0 1.32 0 2 C0.60328125 1.7834375 1.2065625 1.566875 1.828125 1.34375 C3.02695313 0.92609375 3.02695313 0.92609375 4.25 0.5 C5.03890625 0.2215625 5.8278125 -0.056875 6.640625 -0.34375 C9 -1 9 -1 13 -1 C13.495 1.97 13.495 1.97 14 5 C11.03 5.66 8.06 6.32 5 7 C5.495 8.485 5.495 8.485 6 10 C6.53760715 16.34376437 5.68147796 20.73109576 2 26 C-1.81427545 30.02341327 -5.56318581 32.1085755 -11.125 32.4375 C-16.925582 32.36179909 -20.78281666 29.8207681 -25 26 C-28.30207358 22.19196353 -29.67374484 18.14796862 -29.38671875 13.05078125 C-28.43742249 8.0166344 -26.20512717 4.17422648 -22.5625 0.625 C-14.70660462 -4.35678732 -8.07276851 -4.03638425 0 0 Z " fill="#84AAE3" transform="translate(164,115)"/>
<path d="M0 0 C4.51807229 -0.37650602 4.51807229 -0.37650602 7 1.5625 C8.9565489 3.30057096 8.9565489 3.30057096 11.6875 2.75 C13.93769969 2.21379042 13.93769969 2.21379042 15 1 C22.03356403 0.21224083 27.64312611 0.36332421 33.4453125 4.63671875 C37.99570278 8.6268851 38.77843679 11.82129513 39.375 17.6875 C39.30680142 22.89007725 37.06114681 26.89337955 34 31 C28.90224579 34.978735 23.37364458 35.71227627 17 35 C12.48912876 33.12756288 8.79007328 31.37531275 6.3125 27.0625 C3.93185149 21.12957491 4.23563756 14.07566744 6 8 C4.824375 7.7834375 4.824375 7.7834375 3.625 7.5625 C1 7 1 7 -1 6 C-0.67 4.02 -0.34 2.04 0 0 Z " fill="#87A2E4" transform="translate(65,108)"/>
<path d="M0 0 C9.08324591 2.95516562 16.05727728 9.709679 23 16 C23.59941406 16.52335937 24.19882813 17.04671875 24.81640625 17.5859375 C26.26584652 19.31761202 26.62007278 20.79642215 27 23 C25.67162109 23.02126953 25.67162109 23.02126953 24.31640625 23.04296875 C9.48870952 23.61385822 -3.30920742 27.62803476 -16.33984375 34.64453125 C-19 36 -19 36 -21 36 C-20.75849468 33.89545361 -20.51542489 31.79107798 -20.265625 29.6875 C-20.09108521 27.92156798 -19.97466521 26.14875117 -19.921875 24.375 C-19.57480664 15.84703454 -16.88968751 7.63774883 -10.52734375 1.6875 C-6.98020665 -0.68091303 -4.06330926 -0.78690848 0 0 Z " fill="#1CADE0" transform="translate(84,29)"/>
<path d="M0 0 C1.53629774 3.07259547 0.35452774 5.33720486 -0.4375 8.625 C-3.06742914 20.60578832 -1.89265835 30.17698691 4.75 40.8125 C7.89730591 45.2348683 11.75666753 48.65056751 16 52 C13.50907189 53.24546405 12.58919267 52.7767578 10 52 C8.49069817 55.3863251 8.49069817 55.3863251 8 59 C11.14240166 62.45860029 11.14240166 62.45860029 15 65 C15 65.66 15 66.32 15 67 C15.66 67 16.32 67 17 67 C17.33 67.99 17.66 68.98 18 70 C7.7952719 66.43674028 -0.39978713 58.31785863 -7 50 C-7.54269531 49.35289062 -8.08539063 48.70578125 -8.64453125 48.0390625 C-10.19085926 45.71288607 -10.65000185 43.92953475 -11.125 41.1875 C-11.2796875 40.31738281 -11.434375 39.44726562 -11.59375 38.55078125 C-12.10027239 35.37040507 -12.58345406 32.19351887 -13 29 C-12.01 29.33 -11.02 29.66 -10 30 C-10 30.66 -10 31.32 -10 32 C-7.01076326 30.14035108 -7.01076326 30.14035108 -5.375 27.15454102 C-4.99491606 24.97079053 -4.90151918 22.99191324 -4.9375 20.77734375 C-4.94523437 19.99166016 -4.95296875 19.20597656 -4.9609375 18.39648438 C-4.97382812 17.58501953 -4.98671875 16.77355469 -5 15.9375 C-5.02554653 14.32168222 -5.04656632 12.70578491 -5.0625 11.08984375 C-5.07410156 10.37691162 -5.08570313 9.66397949 -5.09765625 8.92944336 C-5 7 -5 7 -4 4 C-3.34 4 -2.68 4 -2 4 C-1.34 2.68 -0.68 1.36 0 0 Z " fill="#1499CB" transform="translate(47,112)"/>
<path d="M0 0 C3 1 3 1 4.1875 2.875 C5 5 5 5 5 8 C6.32 8.33 7.64 8.66 9 9 C9.103125 9.639375 9.20625 10.27875 9.3125 10.9375 C9.539375 11.618125 9.76625 12.29875 10 13 C10.99 13.33 11.98 13.66 13 14 C14.02196992 14.97753644 15.01979625 15.9805881 16 17 C21.50860782 21.72166384 26.99135259 23.31302976 34.08203125 23.49609375 C34.71496094 23.66238281 35.34789062 23.82867187 36 24 C36.24234375 24.63679688 36.4846875 25.27359375 36.734375 25.9296875 C37.95169909 28.45653659 37.95169909 28.45653659 41.80859375 29.01171875 C43.34883735 29.25491511 44.89211097 29.4794914 46.4375 29.6875 C54.85611782 30.95203927 54.85611782 30.95203927 58 32 C60.6569191 31.12085312 60.6569191 31.12085312 63 30 C63 30.66 63 31.32 63 32 C63.845625 31.814375 64.69125 31.62875 65.5625 31.4375 C69.3147262 30.95994394 72.27209669 31.42153225 76 32 C81.58963685 32.17063102 86.75752243 31.76287134 92.25 30.75 C92.94351563 30.64042969 93.63703125 30.53085938 94.3515625 30.41796875 C98.82112691 29.60454228 101.0916254 28.46299487 104 25 C108.5 22 108.5 22 111 22 C111 22.66 111 23.32 111 24 C115.3919049 22.90202378 118.45777575 21.78317619 122 19 C122.99 19 123.98 19 125 19 C125 16.69 125 14.38 125 12 C128.75 10 128.75 10 131 10 C132.33783393 9.68521554 133.67203709 9.35412344 135 9 C132.53846154 14.66153846 132.53846154 14.66153846 129.8125 16.375 C129.214375 16.58125 128.61625 16.7875 128 17 C128 17.66 128 18.32 128 19 C110.33569225 33.80291881 83.11605192 36.66593211 61 35 C55.58598415 34.36439478 50.31308164 33.2112725 45 32 C43.69215947 31.73069088 42.38355656 31.46505772 41.07421875 31.203125 C35.84573644 30.13896868 30.91248917 29.12358066 26 27 C26 26.34 26 25.68 26 25 C25.29875 24.896875 24.5975 24.79375 23.875 24.6875 C20.60862353 23.90640997 17.9528148 22.57941257 15 21 C15 20.34 15 19.68 15 19 C14.13955078 18.86078125 14.13955078 18.86078125 13.26171875 18.71875 C10.46577857 17.83023015 8.96881099 16.47425846 6.8125 14.5 C6.11769531 13.8709375 5.42289063 13.241875 4.70703125 12.59375 C3.79357681 11.74091381 2.88366526 10.88366526 2 10 C1.95936168 8.33382885 1.957279 6.66611905 2 5 C1.34 5 0.68 5 0 5 C-0.5625 3.0625 -0.5625 3.0625 -1 1 C-0.67 0.67 -0.34 0.34 0 0 Z " fill="#162834" transform="translate(51,146)"/>
<path d="M0 0 C2.68635892 2.14908714 4.08828105 3.6984369 5.18359375 6.984375 C5.75082064 14.01798845 5.75082064 14.01798845 3.49609375 17.859375 C0.49802012 20.61436158 -1.6326175 21.94950412 -5.7734375 22.015625 C-9.31348865 21.75291248 -11.32705616 21.35782639 -14.19140625 19.171875 C-17.27378165 15.02252351 -18.45017782 12.26580472 -17.81640625 6.984375 C-16.19732847 3.97751626 -14.76063257 1.7262671 -12.06640625 -0.390625 C-7.89179943 -1.55023801 -3.86245521 -2.15965238 0 0 Z " fill="#323C43" transform="translate(158.81640625,119.015625)"/>
<path d="M0 0 C2.93038162 1.2469709 4.41759241 2.22345655 6.3125 4.75 C7.6178024 9.02189878 7.58533828 12.64447976 5.8125 16.75 C3.28607756 19.88624854 1.10414415 21.61160828 -2.92578125 22.35546875 C-7.10248547 22.64650087 -8.56947833 22.34808135 -11.9375 19.625 C-15.18155371 15.49620437 -15.47331568 12.66236335 -15.3984375 7.48828125 C-15 5 -15 5 -12.5625 1.875 C-8.6263459 -0.75532099 -4.55992042 -0.77400863 0 0 Z " fill="#323940" transform="translate(91,115)"/>
<path d="M0 0 C2.28827539 2.28827539 2.42255351 3.27122511 3 6.375 C3.59780127 9.56683178 4.32642808 12.19646164 6 15 C9.66416811 17.26316266 12.94014397 17.27951383 17.0703125 16.59375 C20.46293964 15.54986473 21.9501801 13.83357457 24 11 C24.9471433 8.32221265 25.47622836 5.80932062 26 3 C27.32 3.66 28.64 4.32 30 5 C30.42064893 11.09940955 30.08964656 14.13663653 26 19 C21.37019949 23.17811266 17.62470907 24.47426185 11.484375 24.4140625 C5.90020434 23.48336739 1.7189409 19.76949799 -2.125 15.8125 C-3.54381495 11.25202339 -2.99311239 6.63701347 -2 2 C-1.34 1.34 -0.68 0.68 0 0 Z " fill="#7CE8E3" transform="translate(139,123)"/>
<path d="M0 0 C0.70748383 0.00248749 1.41496765 0.00497498 2.14389038 0.00753784 C23.61371331 0.12423978 46.39598928 2.89949993 63.4375 17.3125 C62.7775 17.6425 62.1175 17.9725 61.4375 18.3125 C59.74462215 17.35754326 58.07892963 16.3534066 56.4375 15.3125 C55.4475 14.9825 54.4575 14.6525 53.4375 14.3125 C52.4475 15.3025 51.4575 16.2925 50.4375 17.3125 C50.4375 16.6525 50.4375 15.9925 50.4375 15.3125 C49.4475 14.8175 49.4475 14.8175 48.4375 14.3125 C48.7675 13.3225 49.0975 12.3325 49.4375 11.3125 C48.79941406 11.10753906 48.16132813 10.90257813 47.50390625 10.69140625 C46.67761719 10.42199219 45.85132813 10.15257813 45 9.875 C44.17628906 9.60816406 43.35257812 9.34132813 42.50390625 9.06640625 C40.4375 8.3125 40.4375 8.3125 39.4375 7.3125 C37.10932036 6.94489269 34.7756615 6.61008419 32.4375 6.3125 C32.4375 5.6525 32.4375 4.9925 32.4375 4.3125 C31.76203125 4.32410156 31.0865625 4.33570312 30.390625 4.34765625 C29.49859375 4.35667969 28.6065625 4.36570312 27.6875 4.375 C26.36492187 4.39240234 26.36492187 4.39240234 25.015625 4.41015625 C22.4375 4.3125 22.4375 4.3125 20.7409668 3.82568359 C15.42948683 2.64235229 9.73844847 2.96479384 4.3112793 2.9074707 C2.77198921 2.88584552 1.23282356 2.85168823 -0.3059082 2.80493164 C-2.53652228 2.73787242 -4.76461373 2.71047605 -6.99609375 2.69140625 C-8.02131386 2.64966026 -8.02131386 2.64966026 -9.06724548 2.60707092 C-11.89041447 2.61917 -13.97405549 2.79951836 -16.14309692 4.69039917 C-17.71558134 6.51160476 -17.71558134 6.51160476 -19.5625 9.3125 C-20.43261719 9.06113281 -20.43261719 9.06113281 -21.3203125 8.8046875 C-26.48737926 7.45749848 -29.51838769 7.13436059 -34.5625 9.3125 C-36.22338045 9.67356097 -37.88868981 10.01712173 -39.5625 10.3125 C-39.5625 10.9725 -39.5625 11.6325 -39.5625 12.3125 C-40.2225 12.3125 -40.8825 12.3125 -41.5625 12.3125 C-41.5625 12.9725 -41.5625 13.6325 -41.5625 14.3125 C-44.5325 13.8175 -44.5325 13.8175 -47.5625 13.3125 C-46.9025 12.9825 -46.2425 12.6525 -45.5625 12.3125 C-45.5625 11.6525 -45.5625 10.9925 -45.5625 10.3125 C-43.5825 9.9825 -41.6025 9.6525 -39.5625 9.3125 C-39.5625 8.6525 -39.5625 7.9925 -39.5625 7.3125 C-37.6304106 6.50771872 -35.69142419 5.71949391 -33.75 4.9375 C-32.67105469 4.49664062 -31.59210938 4.05578125 -30.48046875 3.6015625 C-20.57003728 0.08908719 -10.41011714 -0.0583426 0 0 Z " fill="#375C6C" transform="translate(111.5625,78.6875)"/>
<path d="M0 0 C0.99 0.33 1.98 0.66 3 1 C3.03738281 1.73605469 3.07476562 2.47210938 3.11328125 3.23046875 C3.48966551 10.63438588 3.48966551 10.63438588 7 17 C10.18795227 18.59397614 13.53022663 18.38775887 17 18 C19.74832154 16.71815438 19.74832154 16.71815438 22 15 C23.32608822 14.31903578 24.65686601 13.64669414 26 13 C26 10.69 26 8.38 26 6 C26.66 6 27.32 6 28 6 C29.43049123 14.87593956 29.43049123 14.87593956 27.875 18.9375 C23.56809921 23.67509087 19.30139553 24.85152287 13.125 25.25 C7.84703999 25.19102838 4.30982201 22.87321467 0 20 C-3.00477144 14.54689627 -3.37711099 10.15947951 -3 4 C-2.34 4 -1.68 4 -1 4 C-0.67 2.68 -0.34 1.36 0 0 Z " fill="#7EE6E7" transform="translate(73,118)"/>
<path d="M0 0 C1.98 0 3.96 0 6 0 C6.66 1.32 7.32 2.64 8 4 C10.97065509 3.65772428 10.97065509 3.65772428 14 3 C14.33 2.34 14.66 1.68 15 1 C16.98 1 18.96 1 21 1 C21.66 2.32 22.32 3.64 23 5 C25.41619823 5.25030977 25.41619823 5.25030977 28 5 C28.66 4.01 29.32 3.02 30 2 C33.125 1.8125 33.125 1.8125 36 2 C35.78698668 5.72773314 34.99909564 7.00099259 32.4375 9.8125 C28.65324237 12.72628674 25.64745242 12.54220278 21 12 C20.34 11.34 19.68 10.68 19 10 C17.32618981 10.29537827 15.66088045 10.63893903 14 11 C9.43385568 11.59156526 6.88970487 11.64361629 3.0625 8.875 C0.83809846 5.77431907 0.26298363 3.7694321 0 0 Z " fill="#84CDE3" transform="translate(101,141)"/>
<path d="M0 0 C9.18791444 6.0413684 11.75760459 17.67568788 14.43359375 27.75 C14.94883174 30.70640006 15.05331268 32.24624136 14 35 C12.10361315 32.15541973 11.57423245 30.68537055 10.9375 27.4375 C10.46509229 25.05984465 10.08564836 23.17129671 9 21 C8.64386903 19.33805547 8.30791692 17.671549 8 16 C7.01 16.99 6.02 17.98 5 19 C5.33 15.37 5.66 11.74 6 8 C4.02 7.67 2.04 7.34 0 7 C-0.33 5.02 -0.66 3.04 -1 1 C-7.78760937 2.02454481 -11.88799286 4.82170735 -17.30859375 8.953125 C-20.76053314 11.57840256 -24.2214742 13.87028546 -28 16 C-28.66 15.67 -29.32 15.34 -30 15 C-22.17628106 7.62463171 -11.61911619 -2.31956715 0 0 Z " fill="#76D1ED" transform="translate(164,29)"/>
<path d="M0 0 C4.37373746 0.66230882 5.87806422 2.04508055 8.734375 5.4140625 C11.02390295 10.09718784 11.06940205 14.30489995 10.734375 19.4140625 C10.074375 20.4040625 9.414375 21.3940625 8.734375 22.4140625 C8.404375 19.4440625 8.074375 16.4740625 7.734375 13.4140625 C7.074375 13.4140625 6.414375 13.4140625 5.734375 13.4140625 C5.734375 15.7240625 5.734375 18.0340625 5.734375 20.4140625 C5.074375 20.4140625 4.414375 20.4140625 3.734375 20.4140625 C3.74597656 19.81078125 3.75757812 19.2075 3.76953125 18.5859375 C3.77855469 17.78671875 3.78757812 16.9875 3.796875 16.1640625 C3.80847656 15.37515625 3.82007812 14.58625 3.83203125 13.7734375 C3.7368658 11.47424012 3.49465129 9.5849143 2.734375 7.4140625 C-1.48479532 5.04077919 -6.55643823 4.37847112 -11.265625 3.4140625 C-8.08777477 -0.58216388 -4.80976183 -0.13996661 0 0 Z " fill="#8CA6F2" transform="translate(93.265625,110.5859375)"/>
<path d="M0 0 C3 1 3 1 4.1875 2.875 C5 5 5 5 5 8 C6.32 8.33 7.64 8.66 9 9 C9.103125 9.639375 9.20625 10.27875 9.3125 10.9375 C9.539375 11.618125 9.76625 12.29875 10 13 C10.99 13.33 11.98 13.66 13 14 C14.02196992 14.97753644 15.01979625 15.9805881 16 17 C22.01753351 22.15788587 28.31899942 23.49490019 36 24 C36.495 25.485 36.495 25.485 37 27 C28.82439132 27.52184736 22.15445131 24.85239686 15 21 C15 20.34 15 19.68 15 19 C14.13955078 18.86078125 14.13955078 18.86078125 13.26171875 18.71875 C10.46577857 17.83023015 8.96881099 16.47425846 6.8125 14.5 C6.11769531 13.8709375 5.42289063 13.241875 4.70703125 12.59375 C3.79357681 11.74091381 2.88366526 10.88366526 2 10 C1.95936168 8.33382885 1.957279 6.66611905 2 5 C1.34 5 0.68 5 0 5 C-0.5625 3.0625 -0.5625 3.0625 -1 1 C-0.67 0.67 -0.34 0.34 0 0 Z " fill="#18303F" transform="translate(51,146)"/>
<path d="M0 0 C1.33333333 0.66666667 2.66666667 1.33333333 4 2 C4.556875 1.690625 5.11375 1.38125 5.6875 1.0625 C8.8653942 -0.39761355 11.54751795 -0.19542351 15 0 C15.33 0.33 15.66 0.66 16 1 C18.33944736 0.71269945 20.6739143 0.38063221 23 0 C23 0.99 23 1.98 23 3 C25.31 3 27.62 3 30 3 C30.33 3.66 30.66 4.32 31 5 C31.66 5.33 32.32 5.66 33 6 C32.67 6.99 32.34 7.98 32 9 C31.2575 8.505 30.515 8.01 29.75 7.5 C24.9244836 5.05831185 19.25805896 5.41577123 14 6 C13.01 6.66 12.02 7.32 11 8 C7.67759676 7.6758631 6.39223697 7.39223697 4 5 C1.42938689 4.35232207 1.42938689 4.35232207 -1 4 C-0.67 2.68 -0.34 1.36 0 0 Z " fill="#3D4759" transform="translate(66,104)"/>
<path d="M0 0 C9.32614555 3.65229111 9.32614555 3.65229111 11 7 C9.51988629 6.69201674 8.04092675 6.378482 6.5625 6.0625 C5.73878906 5.88847656 4.91507813 5.71445312 4.06640625 5.53515625 C2 5 2 5 1 4 C-2.41600593 3.58307147 -2.41600593 3.58307147 -6 4 C-7.84315671 5.9004467 -7.84315671 5.9004467 -9 8 C-9.66 8 -10.32 8 -11 8 C-11 8.66 -11 9.32 -11 10 C-11.66 10 -12.32 10 -13 10 C-13.33 11.98 -13.66 13.96 -14 16 C-14.33 15.34 -14.66 14.68 -15 14 C-15.66 14 -16.32 14 -17 14 C-17.33 15.32 -17.66 16.64 -18 18 C-18.33 17.34 -18.66 16.68 -19 16 C-17.9609375 13.3203125 -17.9609375 13.3203125 -16.375 10.125 C-15.86710937 9.07570313 -15.35921875 8.02640625 -14.8359375 6.9453125 C-11.14720726 1.02764739 -6.94312152 -1.424537 0 0 Z " fill="#35C0ED" transform="translate(84,29)"/>
<path d="M0 0 C1.98 0.66 3.96 1.32 6 2 C6 2.66 6 3.32 6 4 C6.66 4 7.32 4 8 4 C8.99 5.98 9.98 7.96 11 10 C10.195625 10.28875 9.39125 10.5775 8.5625 10.875 C5.8673532 11.73262568 5.8673532 11.73262568 5 14 C0.12314139 12.64531705 -1.48592381 10.28324091 -4 6 C-3.525625 5.566875 -3.05125 5.13375 -2.5625 4.6875 C-0.76313043 2.97690387 -0.76313043 2.97690387 0 0 Z " fill="#0A97D0" transform="translate(57,163)"/>
<path d="M0 0 C0.99 0.33 1.98 0.66 3 1 C3.07347656 2.10408203 3.07347656 2.10408203 3.1484375 3.23046875 C3.22320312 4.20628906 3.29796875 5.18210937 3.375 6.1875 C3.44460937 7.15042969 3.51421875 8.11335938 3.5859375 9.10546875 C4.00215853 12.01508938 4.79874096 14.32890774 6 17 C5.34 17 4.68 17 4 17 C3.67 17.66 3.34 18.32 3 19 C2.67 19.33 2.34 19.66 2 20 C1.34 20 0.68 20 0 20 C-2.8352113 14.4477112 -3.37952295 10.19887485 -3 4 C-2.34 4 -1.68 4 -1 4 C-0.67 2.68 -0.34 1.36 0 0 Z " fill="#86C6EE" transform="translate(73,118)"/>
<path d="M0 0 C2.4375 0.125 2.4375 0.125 5 1 C6.3125 3.5625 6.3125 3.5625 7 6 C4.36 6.99 1.72 7.98 -1 9 C-1 9.99 -1 10.98 -1 12 C-2.98 12.33 -4.96 12.66 -7 13 C-7.12375 12.195625 -7.2475 11.39125 -7.375 10.5625 C-7.684375 9.2940625 -7.684375 9.2940625 -8 8 C-8.66 7.67 -9.32 7.34 -10 7 C-8.68 6.67 -7.36 6.34 -6 6 C-6.99 5.67 -7.98 5.34 -9 5 C-7.35 5.33 -5.7 5.66 -4 6 C-3.525625 5.195625 -3.05125 4.39125 -2.5625 3.5625 C-1 1 -1 1 0 0 Z " fill="#2C3137" transform="translate(130,133)"/>
<path d="M0 0 C-0.639375 0.103125 -1.27875 0.20625 -1.9375 0.3125 C-2.618125 0.539375 -3.29875 0.76625 -4 1 C-4.33 1.99 -4.66 2.98 -5 4 C-7.64 4 -10.28 4 -13 4 C-13 4.66 -13 5.32 -13 6 C-15.31 6 -17.62 6 -20 6 C-20 6.66 -20 7.32 -20 8 C-31.94878968 9.46739522 -43.98594227 9.0947251 -56 9 C-56 8.67 -56 8.34 -56 8 C-54.77667969 7.96261719 -53.55335937 7.92523438 -52.29296875 7.88671875 C-36.58292065 7.31435787 -21.05118752 6.46259877 -6.56640625 -0.109375 C-3.81990834 -1.06249756 -2.66838264 -1.03455024 0 0 Z " fill="#1986B0" transform="translate(168,173)"/>
<path d="M0 0 C0.66 0 1.32 0 2 0 C2.33 0.66 2.66 1.32 3 2 C3.99 2.33 4.98 2.66 6 3 C8.22085338 6.97415868 8.17563129 10.5214021 8 15 C8.66 15 9.32 15 10 15 C10.04898438 15.63808594 10.09796875 16.27617188 10.1484375 16.93359375 C10.22320312 17.75988281 10.29796875 18.58617188 10.375 19.4375 C10.44460937 20.26121094 10.51421875 21.08492187 10.5859375 21.93359375 C10.72257813 22.61550781 10.85921875 23.29742187 11 24 C11.66 24.33 12.32 24.66 13 25 C13.40729228 27.32156597 13.74438677 29.6568787 14 32 C13.01 32.495 13.01 32.495 12 33 C11.31068656 35.34907875 11.31068656 35.34907875 10.875 38.0625 C10.70742187 38.98160156 10.53984375 39.90070313 10.3671875 40.84765625 C10.24601563 41.55792969 10.12484375 42.26820313 10 43 C9.67 43 9.34 43 9 43 C9.04640625 41.79085937 9.0928125 40.58171875 9.140625 39.3359375 C9.48672525 26.29771313 8.12668897 15.77056821 2 4 C1.33333333 2.66666667 0.66666667 1.33333333 0 0 Z " fill="#2B9CC4" transform="translate(183,104)"/>
<path d="M0 0 C9.02588534 0.59085931 17.55428252 2.63696327 26.30859375 4.828125 C35.8700902 7.08309064 45.21968135 7.6784249 55 8 C55 8.33 55 8.66 55 9 C42.50837117 9.3455676 31.19625021 8.78049228 19 6 C17.69215947 5.73069088 16.38355656 5.46505772 15.07421875 5.203125 C9.84573644 4.13896868 4.91248917 3.12358066 0 1 C0 0.67 0 0.34 0 0 Z " fill="#0F4158" transform="translate(77,172)"/>
<path d="M0 0 C1.32 0.66 2.64 1.32 4 2 C4.43177893 8.26079448 3.92739438 11.09075703 0 16 C-2.97 15.505 -2.97 15.505 -6 15 C-5.38125 14.01 -4.7625 13.02 -4.125 12 C-1.87738041 8.10253199 -0.92382899 4.3881877 0 0 Z " fill="#87CDE6" transform="translate(165,126)"/>
<path d="M0 0 C0.24234375 0.58265625 0.4846875 1.1653125 0.734375 1.765625 C2.22934302 4.40488954 3.91230702 5.82577653 6.25 7.75 C10.53161846 11.4298401 13.83892159 15.3389589 17 20 C16.67 20.66 16.34 21.32 16 22 C11.1542125 20.50221114 11.1542125 20.50221114 9 19 C8.25 15.4375 8.25 15.4375 8 12 C7.01 11.34 6.02 10.68 5 10 C5.33 10.66 5.66 11.32 6 12 C4.68 12.33 3.36 12.66 2 13 C1.67 12.01 1.34 11.02 1 10 C0.34 10 -0.32 10 -1 10 C-1.125 3.375 -1.125 3.375 0 0 Z " fill="#6CD0ED" transform="translate(179,66)"/>
<path d="M0 0 C0.66 0.33 1.32 0.66 2 1 C3.01229889 4.37432964 3.62883246 6.79590229 1.9453125 10.01953125 C0.7066915 11.73750557 -0.64087786 13.3756833 -2 15 C-3.91796875 14.67578125 -3.91796875 14.67578125 -6 14 C-7.40666215 10.98572397 -8.14845728 8.94022947 -7.625 5.625 C-7.41875 5.08875 -7.2125 4.5525 -7 4 C-6.34 4.33 -5.68 4.66 -5 5 C-5 5.66 -5 6.32 -5 7 C-1.88794071 5.01487051 -1.88794071 5.01487051 -0.25 1.8125 C-0.1675 1.214375 -0.085 0.61625 0 0 Z " fill="#13A1D7" transform="translate(42,137)"/>
<path d="M0 0 C0.99 0.33 1.98 0.66 3 1 C1.68 3.64 0.36 6.28 -1 9 C-1.66 8.34 -2.32 7.68 -3 7 C-3.66 8.32 -4.32 9.64 -5 11 C-5.66 11 -6.32 11 -7 11 C-6.67 12.32 -6.34 13.64 -6 15 C-5.34 14.67 -4.68 14.34 -4 14 C-4.25 15.875 -4.25 15.875 -5 18 C-7.0625 19.25 -7.0625 19.25 -9 20 C-9 20.66 -9 21.32 -9 22 C-9.66 21.67 -10.32 21.34 -11 21 C-10.67257813 20.29488281 -10.34515625 19.58976562 -10.0078125 18.86328125 C-8.91599278 15.76132833 -8.79614604 13.45993947 -8.875 10.1875 C-8.89304688 9.21167969 -8.91109375 8.23585938 -8.9296875 7.23046875 C-8.95289063 6.49441406 -8.97609375 5.75835937 -9 5 C-4.545 4.01 -4.545 4.01 0 3 C0 2.01 0 1.02 0 0 Z " fill="#34414B" transform="translate(178,117)"/>
<path d="M0 0 C2 3 2 3 1.75 5.19921875 C-0.08540207 11.28854749 -2.33544413 16.53727587 -7 21 C-10.3125 22.375 -10.3125 22.375 -13 23 C-13.33 23.66 -13.66 24.32 -14 25 C-16.5625 25.625 -16.5625 25.625 -19 26 C-17.37660195 24.29115995 -15.70680947 22.62553283 -14 21 C-13.34 21 -12.68 21 -12 21 C-12 20.34 -12 19.68 -12 19 C-10.81441348 17.84828738 -9.6280501 16.69736217 -8.4375 15.55078125 C-4.30996513 11.09797868 -1.60352633 5.83100485 0 0 Z " fill="#1C8EBA" transform="translate(191,144)"/>
<path d="M0 0 C0.99 0.33 1.98 0.66 3 1 C-0.625 6.875 -0.625 6.875 -4 8 C-4 8.66 -4 9.32 -4 10 C-6.3359375 11.76171875 -6.3359375 11.76171875 -9.375 13.6875 C-10.37273437 14.33074219 -11.37046875 14.97398437 -12.3984375 15.63671875 C-13.25695312 16.08660156 -14.11546875 16.53648437 -15 17 C-15.66 16.67 -16.32 16.34 -17 16 C-14.74259377 13.66475218 -12.7194239 11.81294927 -10 10 C-9.01 10 -8.02 10 -7 10 C-7 7.69 -7 5.38 -7 3 C-3.25 1 -3.25 1 -1 1 C-0.67 0.67 -0.34 0.34 0 0 Z " fill="#17343E" transform="translate(183,155)"/>
<path d="M0 0 C0.99 0 1.98 0 3 0 C4.6875 2 4.6875 2 6 4 C5.38125 4.061875 4.7625 4.12375 4.125 4.1875 C1.72238859 4.828919 1.72238859 4.828919 0.75 7.5625 C0.5025 8.366875 0.255 9.17125 0 10 C-1.65 9.67 -3.3 9.34 -5 9 C-5.33 7.35 -5.66 5.7 -6 4 C-7.65 4 -9.3 4 -11 4 C-10.34 3.01 -9.68 2.02 -9 1 C-9 1.66 -9 2.32 -9 3 C-8.34 3 -7.68 3 -7 3 C-7 2.34 -7 1.68 -7 1 C-5.824375 1.309375 -5.824375 1.309375 -4.625 1.625 C-3.75875 1.74875 -2.8925 1.8725 -2 2 C-1.34 1.34 -0.68 0.68 0 0 Z " fill="#2C313B" transform="translate(113,136)"/>
<path d="M0 0 C1.9375 0.3125 1.9375 0.3125 4 1 C4.33 1.99 4.66 2.98 5 4 C5.9075 4.45375 6.815 4.9075 7.75 5.375 C11.28627143 7.14313571 13.2552611 9.18664263 16 12 C17.093125 12.721875 18.18625 13.44375 19.3125 14.1875 C20.199375 14.785625 21.08625 15.38375 22 16 C22 16.66 22 17.32 22 18 C22.66 18 23.32 18 24 18 C24.33 18.99 24.66 19.98 25 21 C14.93208155 17.48451111 6.36163622 9.38239125 0 1 C0 0.67 0 0.34 0 0 Z " fill="#4AAED1" transform="translate(40,161)"/>
<path d="M0 0 C-0.66386719 0.17015625 -1.32773438 0.3403125 -2.01171875 0.515625 C-7.33809689 1.97746309 -10.68766309 3.50351062 -15 7 C-18.8125 7.75 -18.8125 7.75 -22 8 C-22 8.66 -22 9.32 -22 10 C-22.66 10 -23.32 10 -24 10 C-24 10.66 -24 11.32 -24 12 C-26.97 11.505 -26.97 11.505 -30 11 C-29.34 10.67 -28.68 10.34 -28 10 C-28 9.34 -28 8.68 -28 8 C-26.02 7.67 -24.04 7.34 -22 7 C-22 6.34 -22 5.68 -22 5 C-19.93950145 4.18243762 -17.87651147 3.37115266 -15.8125 2.5625 C-14.66394531 2.11003906 -13.51539062 1.65757813 -12.33203125 1.19140625 C-7.8619407 -0.40692624 -4.60039324 -1.53346441 0 0 Z " fill="#396173" transform="translate(94,81)"/>
<path d="M0 0 C2.48100587 2.48100587 2.25652762 3.23823449 2.265625 6.65625 C2.26820313 7.59726563 2.27078125 8.53828125 2.2734375 9.5078125 C2.26570312 10.49523437 2.25796875 11.48265625 2.25 12.5 C2.25773438 13.45648438 2.26546875 14.41296875 2.2734375 15.3984375 C2.2560362 21.81951734 1.50052017 27.75865644 0 34 C-0.33 34 -0.66 34 -1 34 C-1.16938829 22.63216352 -0.63922005 11.34615583 0 0 Z " fill="#5DBDDC" transform="translate(206,118)"/>
<path d="M0 0 C0.33 0.66 0.66 1.32 1 2 C0.34 2 -0.32 2 -1 2 C-1 2.99 -1 3.98 -1 5 C-1.66 5 -2.32 5 -3 5 C-3.0825 5.598125 -3.165 6.19625 -3.25 6.8125 C-4 9 -4 9 -5.875 10.25 C-9.03092686 12.84899859 -9.80199951 16.1791045 -11 20 C-12.32 20 -13.64 20 -15 20 C-14.34 18.02 -13.68 16.04 -13 14 C-12.34 14 -11.68 14 -11 14 C-10.7525 13.05125 -10.505 12.1025 -10.25 11.125 C-8.82678531 7.56696327 -8.30893663 7.44765978 -5 6 C-4.30062468 4.68352881 -3.63270867 3.34977849 -3 2 C-2.01 1.34 -1.02 0.68 0 0 Z " fill="#305362" transform="translate(63,92)"/>
<path d="M0 0 C0.33 0 0.66 0 1 0 C1.23035424 5.98921036 0.52395909 11.47074967 -0.5625 17.36328125 C-1.08184397 20.04779465 -1.08184397 20.04779465 -1 23 C-1.99 23.33 -2.98 23.66 -4 24 C-4 23.34 -4 22.68 -4 22 C-5.32 23.32 -6.64 24.64 -8 26 C-8.99 25.67 -9.98 25.34 -11 25 C-10.05125 24.34 -9.1025 23.68 -8.125 23 C-4.44521912 19.90622638 -3.82591335 16.57600639 -3 12 C-2.47024265 9.83039073 -1.92805306 7.66378824 -1.375 5.5 C-1.11460938 4.4584375 -0.85421875 3.416875 -0.5859375 2.34375 C-0.39257812 1.5703125 -0.19921875 0.796875 0 0 Z " fill="#64BAD9" transform="translate(64,48)"/>
<path d="M0 0 C0.99 0.33 1.98 0.66 3 1 C4.62395257 4.6908013 4.18730428 9.06661006 4 13 C3.01 14.485 3.01 14.485 2 16 C1.67 13.03 1.34 10.06 1 7 C0.34 7 -0.32 7 -1 7 C-1 9.31 -1 11.62 -1 14 C-1.66 14 -2.32 14 -3 14 C-3.08114106 12.22992286 -3.13925505 10.45877902 -3.1875 8.6875 C-3.22230469 7.70136719 -3.25710937 6.71523437 -3.29296875 5.69921875 C-3 3 -3 3 -1.48828125 1.14453125 C-0.99714844 0.76683594 -0.50601563 0.38914062 0 0 Z " fill="#85BEE9" transform="translate(100,117)"/>
<path d="M0 0 C0.33 1.98 0.66 3.96 1 6 C-1.3260857 6.38063221 -3.66055264 6.71269945 -6 7 C-6.33 6.67 -6.66 6.34 -7 6 C-8.34747084 5.76924918 -9.70377565 5.58846937 -11.0625 5.4375 C-12.361875 5.293125 -13.66125 5.14875 -15 5 C-12.82813579 2.82813579 -11.50023469 2.3206752 -8.625 1.375 C-7.85414063 1.11460938 -7.08328125 0.85421875 -6.2890625 0.5859375 C-4 0 -4 0 0 0 Z " fill="#8097D2" transform="translate(177,114)"/>
<path d="M0 0 C1.08345703 -0.00257812 2.16691406 -0.00515625 3.28320312 -0.0078125 C4.97413086 0.00378906 4.97413086 0.00378906 6.69921875 0.015625 C7.81490234 0.00789063 8.93058594 0.00015625 10.08007812 -0.0078125 C15.89991229 0.00598675 20.90131573 0.27093299 26.38671875 2.265625 C26.38671875 2.595625 26.38671875 2.925625 26.38671875 3.265625 C14.50671875 2.935625 2.62671875 2.605625 -9.61328125 2.265625 C-5.68271899 0.30034387 -4.21394955 0.00968168 0 0 Z " fill="#44B1D7" transform="translate(109.61328125,76.734375)"/>
<path d="M0 0 C2.21736634 1.10868317 4.03617993 2.49440461 6 4 C0.45834744 7.77304004 -3.34454208 8.54330269 -10 8 C-10 6.68 -10 5.36 -10 4 C-7.03 4.495 -7.03 4.495 -4 5 C-3.8453125 4.0409375 -3.8453125 4.0409375 -3.6875 3.0625 C-3.460625 2.381875 -3.23375 1.70125 -3 1 C-2.01 0.67 -1.02 0.34 0 0 Z " fill="#79DBD8" transform="translate(158,139)"/>
<path d="M0 0 C0.99 0.144375 1.98 0.28875 3 0.4375 C6.99409465 1.00925179 10.99532937 1.50819834 15 2 C15 2.66 15 3.32 15 4 C11.46498651 6.35667566 8.2300114 7.37856133 4 7 C1 4.5625 1 4.5625 -1 2 C-0.67 1.34 -0.34 0.68 0 0 Z " fill="#7EE4E4" transform="translate(75,135)"/>
<path d="M0 0 C2.96865509 2.54456151 4.3619751 5.48994665 6 9 C5.01 9.33 4.02 9.66 3 10 C2.67 10.66 2.34 11.32 2 12 C2 11.01 2 10.02 2 9 C0.02 9 -1.96 9 -4 9 C-4.66 10.32 -5.32 11.64 -6 13 C-7.65 13 -9.3 13 -11 13 C-8 11 -8 11 -6 11 C-6.33 9.68 -6.66 8.36 -7 7 C-4.36 6.01 -1.72 5.02 1 4 C0.67 2.68 0.34 1.36 0 0 Z " fill="#2C3B4A" transform="translate(135,134)"/>
<path d="M0 0 C1.98 0 3.96 0 6 0 C5.67 1.32 5.34 2.64 5 4 C5.928125 4.0928125 5.928125 4.0928125 6.875 4.1875 C9 5 9 5 10.25 7.5625 C10.4975 8.366875 10.745 9.17125 11 10 C10.01 10.99 9.02 11.98 8 13 C4.78097174 10.85398116 3.70544246 9.41088492 2 6 C2 4.68 2 3.36 2 2 C1.34 1.34 0.68 0.68 0 0 Z " fill="#262D33" transform="translate(94,142)"/>
<path d="M0 0 C1.52287569 3.04575138 0.39938908 5.231936 -0.375 8.5 C-1.69335684 14.33929744 -2.60113269 20.03074446 -3 26 C-3.33 26 -3.66 26 -4 26 C-4.19696449 22.89635771 -4.38093262 19.79207808 -4.5625 16.6875 C-4.61857422 15.80642578 -4.67464844 14.92535156 -4.73242188 14.01757812 C-4.78076172 13.17001953 -4.82910156 12.32246094 -4.87890625 11.44921875 C-4.94960327 10.27879028 -4.94960327 10.27879028 -5.02172852 9.0847168 C-5 7 -5 7 -4 4 C-3.34 4 -2.68 4 -2 4 C-1.34 2.68 -0.68 1.36 0 0 Z " fill="#2998C3" transform="translate(47,112)"/>
<path d="M0 0 C0.33 0 0.66 0 1 0 C1.2295086 6.59199704 0.82968517 12.61524854 -0.48828125 19.07421875 C-1.40928803 24.34012774 -1.67794074 29.66907172 -2 35 C-2.33 35 -2.66 35 -3 35 C-3.33768469 22.90222955 -3.31358755 11.73562257 0 0 Z " fill="#71C0DB" transform="translate(34,106)"/>
<path d="M0 0 C9.32614555 3.65229111 9.32614555 3.65229111 11 7 C9.5608866 6.71640113 8.12374482 6.42278601 6.6875 6.125 C5.88699219 5.96257813 5.08648437 5.80015625 4.26171875 5.6328125 C2 5 2 5 -1 3 C-6.26180564 2.29842592 -8.85352775 3.84078305 -13 7 C-13 4 -13 4 -11 1.8125 C-7.19113309 -0.48869043 -4.27738867 -0.87760216 0 0 Z " fill="#74D1ED" transform="translate(84,29)"/>
<path d="M0 0 C-4.22105947 3.59571732 -7.5325271 4 -13 4 C-15.33634657 4.31151288 -17.67038557 4.64159778 -20 5 C-20 3.35 -20 1.7 -20 0 C-19.11957031 0.01160156 -18.23914063 0.02320313 -17.33203125 0.03515625 C-16.17058594 0.04417969 -15.00914062 0.05320313 -13.8125 0.0625 C-12.66394531 0.07410156 -11.51539063 0.08570313 -10.33203125 0.09765625 C-7.06851088 0.09617381 -7.06851088 0.09617381 -4.19921875 -0.56640625 C-2 -1 -2 -1 0 0 Z " fill="#232F36" transform="translate(164,146)"/>
<path d="M0 0 C0.66 0.33 1.32 0.66 2 1 C1.33333333 4.33333333 0.66666667 7.66666667 0 11 C-0.99 10.34 -1.98 9.68 -3 9 C-4.56586008 10.56586008 -4.61094693 12.4251488 -5.0625 14.5625 C-5.23910156 15.38878906 -5.41570312 16.21507812 -5.59765625 17.06640625 C-5.73042969 17.70449219 -5.86320313 18.34257812 -6 19 C-6.33 19 -6.66 19 -7 19 C-7.45490918 12.63127145 -6.55349016 8.35994669 -3 3 C-2.02821881 1.97255593 -1.03495238 0.96378087 0 0 Z " fill="#7EB2D4" transform="translate(142,115)"/>
<path d="M0 0 C-1.32968718 2.52640565 -2.54324455 4.59399516 -4.6875 6.5 C-8.4676873 7.3173378 -11.56561469 5.55047492 -15 4 C-10.50703709 0.02545589 -5.80876412 -0.170846 0 0 Z " fill="#454E56" transform="translate(97,81)"/>
<path d="M0 0 C0.99 0.33 1.98 0.66 3 1 C5.06145107 1.068991 7.12501401 1.08467727 9.1875 1.0625 C10.27417969 1.05347656 11.36085937 1.04445312 12.48046875 1.03515625 C13.31191406 1.02355469 14.14335937 1.01195312 15 1 C15 2.65 15 4.3 15 6 C12.69 5.67 10.38 5.34 8 5 C7.67 5.66 7.34 6.32 7 7 C6.4225 6.525625 5.845 6.05125 5.25 5.5625 C3.07417916 4.0515133 1.57397552 3.45963849 -1 3 C-0.67 2.01 -0.34 1.02 0 0 Z " fill="#272930" transform="translate(121,153)"/>
<path d="M0 0 C0.9075 0.103125 1.815 0.20625 2.75 0.3125 C2.75 0.9725 2.75 1.6325 2.75 2.3125 C1.41666667 3.64583333 0.08333333 4.97916667 -1.25 6.3125 C-2.48512079 8.44559192 -2.48512079 8.44559192 -3.25 10.3125 C-3.91 10.3125 -4.57 10.3125 -5.25 10.3125 C-5.58 10.9725 -5.91 11.6325 -6.25 12.3125 C-7.25 11.3125 -7.25 11.3125 -7.5625 8.5625 C-7.06710095 3.41034989 -5.3273699 0.51224711 0 0 Z " fill="#25B2E2" transform="translate(55.25,95.6875)"/>
<path d="M0 0 C2.52480693 2.52480693 2.55738633 4.13823034 3.125 7.625 C3.29257813 8.62789062 3.46015625 9.63078125 3.6328125 10.6640625 C3.75398437 11.43492187 3.87515625 12.20578125 4 13 C1.69 13 -0.62 13 -3 13 C-2.88610125 11.20759337 -2.75852313 9.41605165 -2.625 7.625 C-2.55539063 6.62726563 -2.48578125 5.62953125 -2.4140625 4.6015625 C-2 2 -2 2 0 0 Z " fill="#7ECEE1" transform="translate(139,123)"/>
<path d="M0 0 C0.33 1.32 0.66 2.64 1 4 C-1.40545638 5.20272819 -2.94996953 5.10071472 -5.625 5.0625 C-6.85089844 5.04896484 -6.85089844 5.04896484 -8.1015625 5.03515625 C-9.04128906 5.01775391 -9.04128906 5.01775391 -10 5 C-10 4.34 -10 3.68 -10 3 C-10.66 2.67 -11.32 2.34 -12 2 C-7.8794254 0.00214565 -4.54805635 -0.17835515 0 0 Z " fill="#0794D0" transform="translate(90,177)"/>
<path d="M0 0 C1.98 0 3.96 0 6 0 C6.2475 0.61875 6.495 1.2375 6.75 1.875 C8.20628639 4.35068687 9.37812506 4.95125002 12 6 C8.92382812 6.29296875 8.92382812 6.29296875 5.84765625 6.5859375 C5.23792969 6.72257813 4.62820312 6.85921875 4 7 C3.67 7.66 3.34 8.32 3 9 C0.70620251 5.55930376 0 4.27709699 0 0 Z " fill="#7DAAD3" transform="translate(101,141)"/>
<path d="M0 0 C2.30259931 2.85839915 3.86268345 5.60418038 5.25 9 C5.60578125 9.845625 5.9615625 10.69125 6.328125 11.5625 C7.05204912 14.18882935 6.9128421 15.47212957 6 18 C6 17.01 6 16.02 6 15 C4.68 15.33 3.36 15.66 2 16 C0.875 13.1875 0.875 13.1875 0 10 C0.66 9.01 1.32 8.02 2 7 C1.34 7 0.68 7 0 7 C0 4.69 0 2.38 0 0 Z " fill="#5AC6E7" transform="translate(198,91)"/>
<path d="M0 0 C3.89271432 2.167295 7.03709814 4.67413029 10.3125 7.6875 C11.19550781 8.49574219 12.07851562 9.30398437 12.98828125 10.13671875 C13.65214844 10.75160156 14.31601563 11.36648437 15 12 C12.3333581 13.33332095 10.83319697 12.67102033 8 12 C8 10.68 8 9.36 8 8 C6.02 8 4.04 8 2 8 C2 6.35 2 4.7 2 3 C1.34 2.67 0.68 2.34 0 2 C0 1.34 0 0.68 0 0 Z " fill="#56BDE0" transform="translate(95,36)"/>
<path d="M0 0 C0.59296875 0.20625 1.1859375 0.4125 1.796875 0.625 C-0.09669591 2.06556352 -1.99285222 3.5024901 -3.890625 4.9375 C-4.42107422 5.34162109 -4.95152344 5.74574219 -5.49804688 6.16210938 C-8.62486174 8.52160771 -11.712838 10.8340121 -15.203125 12.625 C-15.863125 12.295 -16.523125 11.965 -17.203125 11.625 C-3.6211971 -0.61637397 -3.6211971 -0.61637397 0 0 Z " fill="#63C5E1" transform="translate(151.203125,32.375)"/>
<path d="M0 0 C7.76785714 -0.66964286 7.76785714 -0.66964286 11.4375 2.3125 C15.63463216 6.71437031 15.09418275 10.25485221 15 16 C14.01 16 13.02 16 12 16 C12 12.7 12 9.4 12 6 C10.7625 5.38125 9.525 4.7625 8.25 4.125 C5.5 2.75 2.75 1.375 0 0 Z " fill="#41576E" transform="translate(149,118)"/>
<path d="M0 0 C3.96 0.33 7.92 0.66 12 1 C11.67 2.32 11.34 3.64 11 5 C3.25 5.125 3.25 5.125 1 4 C0.67 2.68 0.34 1.36 0 0 Z " fill="#7BDBE5" transform="translate(104,147)"/>
<path d="M0 0 C-1 2 -1 2 -2.92578125 2.8515625 C-4.10720703 3.23441406 -4.10720703 3.23441406 -5.3125 3.625 C-6.48232422 4.01558594 -6.48232422 4.01558594 -7.67578125 4.4140625 C-10 5 -10 5 -14 5 C-14 4.34 -14 3.68 -14 3 C-15.32 2.34 -16.64 1.68 -18 1 C-11.97403427 -0.0712828 -6.11090483 -0.09945415 0 0 Z " fill="#384557" transform="translate(178,112)"/>
<path d="M0 0 C0.99 0 1.98 0 3 0 C3 3 3 3 0.8125 5.25 C-0.5796875 6.61125 -0.5796875 6.61125 -2 8 C-2.91823282 9.25474428 -3.81426316 10.52603502 -4.6875 11.8125 C-5.450625 12.864375 -6.21375 13.91625 -7 15 C-7.66 15 -8.32 15 -9 15 C-7.63266692 9.07488999 -4.25804257 4.26752596 0 0 Z " fill="#5FC7E3" transform="translate(50,76)"/>
<path d="M0 0 C5.22459741 2.96852125 7.31352309 5.62704618 10 11 C9.34 11 8.68 11 8 11 C8 10.34 8 9.68 8 9 C7.01 9.33 6.02 9.66 5 10 C2.875 9 2.875 9 1 7 C0.25 3.3125 0.25 3.3125 0 0 Z " fill="#384F59" transform="translate(175,97)"/>
<path d="M0 0 C2.1610211 3.24153166 2.64247553 4.23692901 2 8 C-0.5 10.3125 -0.5 10.3125 -3 12 C-3.66 11.01 -4.32 10.02 -5 9 C-4.34 9 -3.68 9 -3 9 C-3.061875 8.2575 -3.12375 7.515 -3.1875 6.75 C-2.96905704 3.54616994 -2.09749995 2.35968744 0 0 Z " fill="#23A3CF" transform="translate(197,158)"/>
<path d="M0 0 C1.98 0.495 1.98 0.495 4 1 C4.125 7.75 4.125 7.75 3 10 C2.34 10 1.68 10 1 10 C0.67 11.32 0.34 12.64 0 14 C-1.10370043 10.6888987 -0.92673641 8.75251051 -0.5625 5.3125 C-0.46066406 4.31863281 -0.35882813 3.32476562 -0.25390625 2.30078125 C-0.17011719 1.54152344 -0.08632812 0.78226563 0 0 Z " fill="#17A1D3" transform="translate(201,144)"/>
<path d="M0 0 C0.33 1.32 0.66 2.64 1 4 C2.98 4 4.96 4 7 4 C7 4.33 7 4.66 7 5 C5.02 5 3.04 5 1 5 C1.33 6.98 1.66 8.96 2 11 C0.68 10.67 -0.64 10.34 -2 10 C-1.67 9.01 -1.34 8.02 -1 7 C-2.65 6.67 -4.3 6.34 -6 6 C-4.625 4.5 -4.625 4.5 -3 3 C-2.34 3 -1.68 3 -1 3 C-0.67 2.01 -0.34 1.02 0 0 Z " fill="#2B434D" transform="translate(100,136)"/>
<path d="M0 0 C0.33 0 0.66 0 1 0 C2.125 7.75 2.125 7.75 1 10 C1.66 10.66 2.32 11.32 3 12 C0.525 13.485 0.525 13.485 -2 15 C-2.05406122 13.06280622 -2.09282025 11.12518079 -2.125 9.1875 C-2.14820313 8.10855469 -2.17140625 7.02960938 -2.1953125 5.91796875 C-2 3 -2 3 0 0 Z " fill="#24AEE1" transform="translate(37,101)"/>
<path d="M0 0 C0.33 1.32 0.66 2.64 1 4 C-1.64 4.33 -4.28 4.66 -7 5 C-7 4.67 -7 4.34 -7 4 C-8.65 3.67 -10.3 3.34 -12 3 C-4.82142857 -1.78571429 -4.82142857 -1.78571429 0 0 Z " fill="#84CCF0" transform="translate(122,145)"/>
<path d="M0 0 C2.72869407 0.03287583 5.2966618 0.56397771 8 1 C8 1.66 8 2.32 8 3 C4.66666667 4.66666667 1.33333333 6.33333333 -2 8 C-2.125 5.125 -2.125 5.125 -2 2 C-1.34 1.34 -0.68 0.68 0 0 Z " fill="#8AB4ED" transform="translate(144,115)"/>
<path d="M0 0 C1.98 0.66 3.96 1.32 6 2 C5.04270084 3.12588014 4.08412105 4.2506715 3.125 5.375 C2.59132812 6.00148438 2.05765625 6.62796875 1.5078125 7.2734375 C0.38567993 8.55836651 -0.79371975 9.79371975 -2 11 C-2.05399736 9.54207116 -2.09279177 8.08357288 -2.125 6.625 C-2.15980469 5.40683594 -2.15980469 5.40683594 -2.1953125 4.1640625 C-2 2 -2 2 0 0 Z " fill="#384250" transform="translate(138,112)"/>
<path d="M0 0 C0.268125 0.5775 0.53625 1.155 0.8125 1.75 C1.93639072 4.03995273 1.93639072 4.03995273 3.5625 6 C5.03193986 8.04443806 5.56164648 9.54522028 6 12 C4.68 12.33 3.36 12.66 2 13 C1.67 12.01 1.34 11.02 1 10 C0.34 10 -0.32 10 -1 10 C-1.125 3.375 -1.125 3.375 0 0 Z " fill="#4AC7EE" transform="translate(179,66)"/>
<path d="M0 0 C0.33 0 0.66 0 1 0 C1.13277344 0.68707031 1.26554687 1.37414062 1.40234375 2.08203125 C1.57894531 2.98308594 1.75554687 3.88414063 1.9375 4.8125 C2.19853516 6.15248047 2.19853516 6.15248047 2.46484375 7.51953125 C2.97741153 10.11397171 2.97741153 10.11397171 4 13 C3.34 13 2.68 13 2 13 C1.67 13.66 1.34 14.32 1 15 C0.67 15.33 0.34 15.66 0 16 C-0.66 16 -1.32 16 -2 16 C-2.33 14.68 -2.66 13.36 -3 12 C-2.34 12 -1.68 12 -1 12 C-0.67 8.04 -0.34 4.08 0 0 Z " fill="#75BFD2" transform="translate(75,122)"/>
<path d="M0 0 C-0.33 0.99 -0.66 1.98 -1 3 C-0.01 3 0.98 3 2 3 C2 3.66 2 4.32 2 5 C-1.3 4.67 -4.6 4.34 -8 4 C-8 2.68 -8 1.36 -8 0 C-5.13822943 -1.43088528 -3.06624227 -0.59991697 0 0 Z " fill="#129FD1" transform="translate(139,48)"/>
<path d="M0 0 C-3.09868145 2.06578763 -5.34976306 2.74691358 -8.9375 3.625 C-10.49791016 4.01558594 -10.49791016 4.01558594 -12.08984375 4.4140625 C-15 5 -15 5 -19 5 C-19 4.34 -19 3.68 -19 3 C-18.15695313 2.79503906 -17.31390625 2.59007812 -16.4453125 2.37890625 C-15.34960938 2.10949219 -14.25390625 1.84007812 -13.125 1.5625 C-12.03445312 1.29566406 -10.94390625 1.02882812 -9.8203125 0.75390625 C-3.71153846 -0.87904858 -3.71153846 -0.87904858 0 0 Z " fill="#50ADCF" transform="translate(167,188)"/>
<path d="M0 0 C1 3 1 3 1 6 C-4.65735415 7.55577239 -7.79666866 6.24281523 -13 4 C-9.61682513 3.02408417 -7.4342662 3.14143345 -4 4 C-3.67 3.01 -3.34 2.02 -3 1 C-2.01 0.67 -1.02 0.34 0 0 Z " fill="#0C8EC1" transform="translate(95,184)"/>
<path d="M0 0 C4.29 0.33 8.58 0.66 13 1 C13.33 1.99 13.66 2.98 14 4 C8.34605369 4.34615998 4.96993194 3.43425238 0 1 C0 0.67 0 0.34 0 0 Z " fill="#1A252E" transform="translate(74,169)"/>
<path d="M0 0 C1.33333333 0.66666667 2.66666667 1.33333333 4 2 C4.598125 1.67 5.19625 1.34 5.8125 1 C8.59642818 -0.27265288 10.10918261 0.19699517 13 1 C13 1.99 13 2.98 13 4 C3.58997722 5.33257403 3.58997722 5.33257403 -1 4 C-0.67 2.68 -0.34 1.36 0 0 Z " fill="#3C4347" transform="translate(66,104)"/>
<path d="M0 0 C0 2.31 0 4.62 0 7 C-2.375 7.625 -2.375 7.625 -5 8 C-5.66 7.34 -6.32 6.68 -7 6 C-2.38461538 0 -2.38461538 0 0 0 Z " fill="#80E2EF" transform="translate(166,134)"/>
<path d="M0 0 C-2.64738916 1.4606285 -3.89448334 2 -7 2 C-7.33 2.33 -7.66 2.66 -8 3 C-9.2065625 3.9590625 -9.2065625 3.9590625 -10.4375 4.9375 C-12.97956725 6.90791269 -12.97956725 6.90791269 -15 9 C-14.72608098 5.7129718 -14.18168017 4.21006769 -12 1.6875 C-7.92905632 -0.60240582 -4.56618517 -0.35813217 0 0 Z " fill="#394A5C" transform="translate(91,115)"/>
<path d="M0 0 C1.65 1.32 3.3 2.64 5 4 C4.67 4.66 4.34 5.32 4 6 C3.01 6 2.02 6 1 6 C1 6.66 1 7.32 1 8 C0.34 8 -0.32 8 -1 8 C-1 7.34 -1 6.68 -1 6 C-3.475 5.01 -3.475 5.01 -6 4 C-6 3.67 -6 3.34 -6 3 C-4.02 3 -2.04 3 0 3 C0 2.01 0 1.02 0 0 Z " fill="#83A3D7" transform="translate(97,112)"/>
<path d="M0 0 C-1.57934639 0.98558449 -3.16365173 1.96322541 -4.75 2.9375 C-6.07257813 3.75541016 -6.07257813 3.75541016 -7.421875 4.58984375 C-9.68399917 5.82715712 -11.48566325 6.53590513 -14 7 C-14 6.01 -14 5.02 -14 4 C-12.68 4 -11.36 4 -10 4 C-10 3.34 -10 2.68 -10 2 C-4.10714286 -1.34821429 -4.10714286 -1.34821429 0 0 Z " fill="#51B0CF" transform="translate(186,179)"/>
<path d="M0 0 C3 1 3 1 4.1875 2.875 C5 5 5 5 5 8 C5.99 8.33 6.98 8.66 8 9 C4.25 10.125 4.25 10.125 2 9 C2 7.68 2 6.36 2 5 C1.34 5 0.68 5 0 5 C-0.5625 3.0625 -0.5625 3.0625 -1 1 C-0.67 0.67 -0.34 0.34 0 0 Z " fill="#242A2F" transform="translate(51,146)"/>
<path d="M0 0 C5.7097955 0.41778991 8.60957142 2.57546571 13 6 C12.01 6.495 12.01 6.495 11 7 C9.30712215 6.04504326 7.64142963 5.0409066 6 4 C5.01 3.67 4.02 3.34 3 3 C2.01 3.99 1.02 4.98 0 6 C0 5.34 0 4.68 0 4 C-0.66 3.67 -1.32 3.34 -2 3 C-1.34 2.01 -0.68 1.02 0 0 Z " fill="#3D505B" transform="translate(162,90)"/>
<path d="M0 0 C1.32 0.33 2.64 0.66 4 1 C3.34 1 2.68 1 2 1 C2 1.66 2 2.32 2 3 C0.02 3.33 -1.96 3.66 -4 4 C-4 4.66 -4 5.32 -4 6 C-6.31 7.32 -8.62 8.64 -11 10 C-10.67 8.68 -10.34 7.36 -10 6 C-9.360625 5.896875 -8.72125 5.79375 -8.0625 5.6875 C-7.381875 5.460625 -6.70125 5.23375 -6 5 C-5.67 4.01 -5.34 3.02 -5 2 C-3.35 2 -1.7 2 0 2 C0 1.34 0 0.68 0 0 Z " fill="#35AED6" transform="translate(70,85)"/>
<path d="M0 0 C0 0.66 0 1.32 0 2 C0.66 2.66 1.32 3.32 2 4 C1.67 4.66 1.34 5.32 1 6 C-2.3 6 -5.6 6 -9 6 C-6.78104821 2.67157231 -4.2307106 0 0 0 Z " fill="#27ABDB" transform="translate(140,42)"/>
<path d="M0 0 C0.80566406 0.17144531 1.61132812 0.34289062 2.44140625 0.51953125 C4.4375 1.1875 4.4375 1.1875 5.4375 3.1875 C4.1175 3.5175 2.7975 3.8475 1.4375 4.1875 C1.4375 4.8475 1.4375 5.5075 1.4375 6.1875 C-0.2125 5.8575 -1.8625 5.5275 -3.5625 5.1875 C-3.8925 4.1975 -4.2225 3.2075 -4.5625 2.1875 C-5.2225 1.5275 -5.8825 0.8675 -6.5625 0.1875 C-3.9640401 -1.11172995 -2.80288549 -0.62536289 0 0 Z " fill="#8CB4F5" transform="translate(165.5625,117.8125)"/>
<path d="M0 0 C0.680625 -0.01417969 1.36125 -0.02835937 2.0625 -0.04296875 C4 0.1875 4 0.1875 7 2.1875 C4.02148438 2.52929688 4.02148438 2.52929688 1.04296875 2.87109375 C-1.19396393 3.15920735 -1.19396393 3.15920735 -4 4.1875 C-6.6875 3.75 -6.6875 3.75 -9 3.1875 C-6.21122917 0.39872917 -3.79375187 0.03592568 0 0 Z " fill="#809AD4" transform="translate(153,111.8125)"/>
<path d="M0 0 C0.99 0 1.98 0 3 0 C3 0.66 3 1.32 3 2 C0.6640625 3.76171875 0.6640625 3.76171875 -2.375 5.6875 C-3.37273437 6.33074219 -4.37046875 6.97398437 -5.3984375 7.63671875 C-6.25695312 8.08660156 -7.11546875 8.53648437 -8 9 C-8.66 8.67 -9.32 8.34 -10 8 C-7.74259377 5.66475218 -5.7194239 3.81294927 -3 2 C-2.01 2 -1.02 2 0 2 C0 1.34 0 0.68 0 0 Z " fill="#113848" transform="translate(176,163)"/>
<path d="M0 0 C1.65 0 3.3 0 5 0 C4.0919838 1.13199353 3.17316174 2.25532363 2.25 3.375 C1.73953125 4.00148437 1.2290625 4.62796875 0.703125 5.2734375 C-1.08199481 7.08312318 -2.67949644 8.00117455 -5 9 C-4.67 7.35 -4.34 5.7 -4 4 C-3.34 4 -2.68 4 -2 4 C-1.34 2.68 -0.68 1.36 0 0 Z " fill="#4DB2DC" transform="translate(191,169)"/>
<path d="M0 0 C0.66 0 1.32 0 2 0 C2.33 0.66 2.66 1.32 3 2 C3.99 2.33 4.98 2.66 6 3 C8.01430083 6.71055417 8.19402245 9.82851735 8 14 C5.47084521 10.8686655 3.73671476 7.6244482 2 4 C1.608125 3.21625 1.21625 2.4325 0.8125 1.625 C0.544375 1.08875 0.27625 0.5525 0 0 Z " fill="#2FA6CE" transform="translate(183,104)"/>
<path d="M0 0 C0.33 0 0.66 0 1 0 C1 7.26 1 14.52 1 22 C0.67 22 0.34 22 0 22 C-2.24817532 14.18326735 -1.76273292 7.89161968 0 0 Z " fill="#21AAD9" transform="translate(205,116)"/>
<path d="M0 0 C2 1 2 1 2.88671875 3.36328125 C3.15097656 4.33652344 3.41523438 5.30976562 3.6875 6.3125 C3.95949219 7.27800781 4.23148438 8.24351563 4.51171875 9.23828125 C4.99152353 11.95205711 4.90721887 13.43665005 4 16 C2.10361315 13.15541973 1.57423245 11.68537055 0.9375 8.4375 C0.46509229 6.05984465 0.08564836 4.17129671 -1 2 C-0.67 1.34 -0.34 0.68 0 0 Z " fill="#5FBCDD" transform="translate(174,48)"/>
<path d="M0 0 C1.60517097 0.08733576 3.20921662 0.19552224 4.8125 0.3125 C6.15248047 0.39951172 6.15248047 0.39951172 7.51953125 0.48828125 C10.36080887 1.07443459 11.18988181 1.79850491 13 4 C13.66 4.66 14.32 5.32 15 6 C9.45949887 5.43174347 4.96284034 3.37113483 0 1 C0 0.67 0 0.34 0 0 Z " fill="#62B7D8" transform="translate(65,182)"/>
<path d="M0 0 C2.90025094 1.45012547 3.08706855 3.31312909 4.1875 6.3125 C4.55230469 7.27800781 4.91710937 8.24351563 5.29296875 9.23828125 C6.008904 12.0347797 5.99249531 13.33859538 5 16 C4 15 4 15 3.9375 12.4375 C3.958125 11.633125 3.97875 10.82875 4 10 C3.34 10 2.68 10 2 10 C2 8.35 2 6.7 2 5 C1.34 5 0.68 5 0 5 C0 3.35 0 1.7 0 0 Z " fill="#2A4E5D" transform="translate(185,108)"/>
<path d="M0 0 C6.75 0.875 6.75 0.875 9 2 C9 2.66 9 3.32 9 4 C5.37 4 1.74 4 -2 4 C-1.34 3.67 -0.68 3.34 0 3 C0 2.01 0 1.02 0 0 Z " fill="#139FD1" transform="translate(101,47)"/>
<path d="M0 0 C5.52147239 -0.36809816 5.52147239 -0.36809816 7.625 1.25 C8.07875 1.8275 8.5325 2.405 9 3 C9.721875 3.721875 10.44375 4.44375 11.1875 5.1875 C11.785625 5.785625 12.38375 6.38375 13 7 C9.30581799 7 7.22163822 5.71820705 4 4 C4 3.34 4 2.68 4 2 C2.68 1.67 1.36 1.34 0 1 C0 0.67 0 0.34 0 0 Z " fill="#13354A" transform="translate(62,163)"/>
<path d="M0 0 C1.32 0.66 2.64 1.32 4 2 C0.06393081 4.62404613 -3.42590939 4.36302306 -8 4 C-8.99 3.01 -9.98 2.02 -11 1 C-7.37 1.33 -3.74 1.66 0 2 C0 1.34 0 0.68 0 0 Z " fill="#294C55" transform="translate(90,133)"/>
<path d="M0 0 C2.61881031 3.92821547 2.28987737 7.43443139 2 12 C1.34 12.99 0.68 13.98 0 15 C-0.19601608 13.25093341 -0.38147403 11.50068154 -0.5625 9.75 C-0.66691406 8.77546875 -0.77132812 7.8009375 -0.87890625 6.796875 C-0.98974468 4.2368648 -0.77738092 2.41851841 0 0 Z " fill="#83C3DF" transform="translate(102,118)"/>
<path d="M0 0 C1.32 1.32 2.64 2.64 4 4 C2.02 4.99 2.02 4.99 0 6 C0 5.34 0 4.68 0 4 C-1.32 5.32 -2.64 6.64 -4 8 C-4.99 7.67 -5.98 7.34 -7 7 C-5.47005208 5.76302083 -3.94010417 4.52604167 -2.41015625 3.2890625 C-0.86733563 2.0333609 -0.86733563 2.0333609 0 0 Z " fill="#66D0EE" transform="translate(60,66)"/>
<path d="M0 0 C1.98 0 3.96 0 6 0 C6 0.66 6 1.32 6 2 C6.99 2.33 7.98 2.66 9 3 C8.34 3 7.68 3 7 3 C6.67 4.32 6.34 5.64 6 7 C5.34 7 4.68 7 4 7 C3.67 5.35 3.34 3.7 3 2 C2.01 1.67 1.02 1.34 0 1 C0 0.67 0 0.34 0 0 Z " fill="#33C0EE" transform="translate(157,30)"/>
<path d="M0 0 C2.9719385 1.12451727 5.33440687 2.22293791 8 4 C8 4.66 8 5.32 8 6 C8.66 6 9.32 6 10 6 C10.33 6.99 10.66 7.98 11 9 C6.56029258 7.60466338 4.09484321 5.43871468 1 2 C0.67 1.34 0.34 0.68 0 0 Z " fill="#47AACE" transform="translate(54,173)"/>
<path d="M0 0 C0.33 0 0.66 0 1 0 C0.88628503 2.29225435 0.75869036 4.58382388 0.625 6.875 C0.52058594 8.78925781 0.52058594 8.78925781 0.4140625 10.7421875 C0 14 0 14 -2 16 C-2 3 -2 3 0 0 Z " fill="#2F3D47" transform="translate(135,120)"/>
<path d="M0 0 C0.9659657 2.60810739 1.02770914 3.89420147 0.3125 6.625 C-1.19440032 9.35177201 -2.23242304 9.77121838 -5 11 C-4.55123384 9.35153231 -4.09069512 7.70626545 -3.625 6.0625 C-3.36976562 5.14597656 -3.11453125 4.22945313 -2.8515625 3.28515625 C-2 1 -2 1 0 0 Z " fill="#61C5E6" transform="translate(40,93)"/>
<path d="M0 0 C2 3 2 3 1.625 6.1875 C1.41875 7.115625 1.2125 8.04375 1 9 C0.67 8.34 0.34 7.68 0 7 C-0.66 7 -1.32 7 -2 7 C-2.33 8.32 -2.66 9.64 -3 11 C-3.33 10.34 -3.66 9.68 -4 9 C-3.22265625 6.8359375 -3.22265625 6.8359375 -2.0625 4.375 C-1.68222656 3.55773438 -1.30195312 2.74046875 -0.91015625 1.8984375 C-0.60980469 1.27195313 -0.30945313 0.64546875 0 0 Z " fill="#65CBEF" transform="translate(69,36)"/>
<path d="M0 0 C0.33 0.99 0.66 1.98 1 3 C-0.21484375 4.82421875 -0.21484375 4.82421875 -1.9375 6.6875 C-2.50339844 7.31011719 -3.06929687 7.93273437 -3.65234375 8.57421875 C-4.09707031 9.04472656 -4.54179687 9.51523438 -5 10 C-5.33 9.34 -5.66 8.68 -6 8 C-5.0625 5.375 -5.0625 5.375 -4 3 C-3.34 3 -2.68 3 -2 3 C-2 2.34 -2 1.68 -2 1 C-1.34 0.67 -0.68 0.34 0 0 Z " fill="#263038" transform="translate(140,143)"/>
<path d="M0 0 C0.33 0 0.66 0 1 0 C1.05410687 1.77049689 1.09284119 3.54146849 1.125 5.3125 C1.14820313 6.29863281 1.17140625 7.28476563 1.1953125 8.30078125 C1 11 1 11 -1 14 C-2.33500455 8.65998179 -1.512545 5.16044765 0 0 Z " fill="#5FC0E0" transform="translate(34,106)"/>
<path d="M0 0 C0.928125 0.0825 1.85625 0.165 2.8125 0.25 C3.4725 1.9 4.1325 3.55 4.8125 5.25 C3.8225 5.745 3.8225 5.745 2.8125 6.25 C2.8125 5.26 2.8125 4.27 2.8125 3.25 C-1.6425 3.745 -1.6425 3.745 -6.1875 4.25 C-4.36434338 1.00883268 -3.82500054 0.30000004 0 0 Z " fill="#82A0D1" transform="translate(119.1875,141.75)"/>
<path d="M0 0 C2.31 0.33 4.62 0.66 7 1 C7 1.66 7 2.32 7 3 C4.29120665 4.35439668 1.99066732 4.06501451 -1 4 C-0.67 2.68 -0.34 1.36 0 0 Z " fill="#7DE2F3" transform="translate(124,148)"/>
<path d="M0 0 C3 3 3 3 3.1875 6.1875 C3.125625 7.115625 3.06375 8.04375 3 9 C1.68 9 0.36 9 -1 9 C-0.67 6.03 -0.34 3.06 0 0 Z " fill="#7EDBEF" transform="translate(137,125)"/>
<path d="M0 0 C1.65 0 3.3 0 5 0 C5.33 0.66 5.66 1.32 6 2 C4.68 2 3.36 2 2 2 C2.33 3.65 2.66 5.3 3 7 C1.68 6.67 0.36 6.34 -1 6 C-0.67 4.02 -0.34 2.04 0 0 Z " fill="#798DC0" transform="translate(65,108)"/>
<path d="M0 0 C2.97 0.495 2.97 0.495 6 1 C5.67 1.99 5.34 2.98 5 4 C2.69 4 0.38 4 -2 4 C-2 3.34 -2 2.68 -2 2 C-1.34 2 -0.68 2 0 2 C0 1.34 0 0.68 0 0 Z M6 0 C8 1 8 1 8 1 Z " fill="#40484F" transform="translate(64,92)"/>
<path d="M0 0 C0.66 0 1.32 0 2 0 C2.33 2.31 2.66 4.62 3 7 C-2.875 4.25 -2.875 4.25 -4 2 C-3.01 2 -2.02 2 -1 2 C-0.67 1.34 -0.34 0.68 0 0 Z " fill="#1C9DC9" transform="translate(176,62)"/>
<path d="M0 0 C1 3 1 3 0.00390625 5.26171875 C-0.47175781 6.06222656 -0.94742188 6.86273438 -1.4375 7.6875 C-1.91058594 8.49574219 -2.38367188 9.30398437 -2.87109375 10.13671875 C-3.24363281 10.75160156 -3.61617187 11.36648437 -4 12 C-5.125 8.25 -5.125 8.25 -4 6 C-3.34 6 -2.68 6 -2 6 C-2 4.68 -2 3.36 -2 2 C-1.34 2 -0.68 2 0 2 C0 1.34 0 0.68 0 0 Z " fill="#5FBBDB" transform="translate(204,152)"/>
<path d="M0 0 C0.66 0 1.32 0 2 0 C2.75 2.75 2.75 2.75 3 6 C1.0625 8.375 1.0625 8.375 -1 10 C-1.33 9.01 -1.66 8.02 -2 7 C-1.34 7 -0.68 7 0 7 C0 4.69 0 2.38 0 0 Z " fill="#81D9F2" transform="translate(99,124)"/>
<path d="M0 0 C-2.28176413 2.07384637 -3.44323483 2.98397191 -6.578125 3.07421875 C-7.90070313 2.88279297 -7.90070313 2.88279297 -9.25 2.6875 C-10.14203125 2.56761719 -11.0340625 2.44773438 -11.953125 2.32421875 C-12.62859375 2.21722656 -13.3040625 2.11023438 -14 2 C-14 1.67 -14 1.34 -14 1 C-12.04310963 0.63794536 -10.08442332 0.28558579 -8.125 -0.0625 C-7.03445312 -0.25972656 -5.94390625 -0.45695313 -4.8203125 -0.66015625 C-2 -1 -2 -1 0 0 Z " fill="#1F363C" transform="translate(164,146)"/>
<path d="M0 0 C1.98 0 3.96 0 6 0 C5.67 1.65 5.34 3.3 5 5 C4.34 4.67 3.68 4.34 3 4 C3 3.34 3 2.68 3 2 C1.35 2.66 -0.3 3.32 -2 4 C-1.34 2.68 -0.68 1.36 0 0 Z " fill="#7FA1CB" transform="translate(131,143)"/>
<path d="M0 0 C0.66 0.33 1.32 0.66 2 1 C1.67 1.66 1.34 2.32 1 3 C2.32 2.67 3.64 2.34 5 2 C5 2.66 5 3.32 5 4 C3.02 4.99 1.04 5.98 -1 7 C-1.33 5.35 -1.66 3.7 -2 2 C-1.34 2 -0.68 2 0 2 C0 1.34 0 0.68 0 0 Z " fill="#2B3235" transform="translate(169,137)"/>
<path d="M0 0 C0.66 0.33 1.32 0.66 2 1 C1.01 1.66 0.02 2.32 -1 3 C-1.25030977 5.58380177 -1.25030977 5.58380177 -1 8 C-1.66 8 -2.32 8 -3 8 C-3.33 8.66 -3.66 9.32 -4 10 C-4.8125 7.8125 -4.8125 7.8125 -5 5 C-2.5625 2.1875 -2.5625 2.1875 0 0 Z " fill="#3E4F60" transform="translate(147,119)"/>
<path d="M0 0 C1.98 0 3.96 0 6 0 C6.33 1.32 6.66 2.64 7 4 C5.68 4 4.36 4 3 4 C3 3.34 3 2.68 3 2 C2.01 2.33 1.02 2.66 0 3 C0 2.01 0 1.02 0 0 Z " fill="#35C8FB" transform="translate(105,52)"/>
<path d="M0 0 C1.65 0 3.3 0 5 0 C5.66 1.65 6.32 3.3 7 5 C4.69 4.34 2.38 3.68 0 3 C0 2.01 0 1.02 0 0 Z " fill="#56CAEE" transform="translate(164,33)"/>
<path d="M0 0 C0 0.66 0 1.32 0 2 C-3.3 2 -6.6 2 -10 2 C-6.64608848 -1.35391152 -4.35183427 -1.05855428 0 0 Z " fill="#108FBA" transform="translate(148,191)"/>
<path d="M0 0 C1.093125 0.0825 2.18625 0.165 3.3125 0.25 C0.10913178 3.08374881 -2.46837253 3.7705537 -6.6875 4.25 C-4.79150483 0.68106792 -4.16790733 0.28256999 0 0 Z " fill="#0D2C3B" transform="translate(160.6875,171.75)"/>
<path d="M0 0 C0 2.31 0 4.62 0 7 C-1.32 6.67 -2.64 6.34 -4 6 C-4 4.68 -4 3.36 -4 2 C-1 0 -1 0 0 0 Z " fill="#252831" transform="translate(180,156)"/>
<path d="M0 0 C0.66 0.99 1.32 1.98 2 3 C1.125 6.6875 1.125 6.6875 0 10 C-0.99 10 -1.98 10 -3 10 C-2.01 6.7 -1.02 3.4 0 0 Z " fill="#2387AE" transform="translate(191,144)"/>
<path d="M0 0 C0.33 0 0.66 0 1 0 C1 3.63 1 7.26 1 11 C-0.32 11.33 -1.64 11.66 -3 12 C-2.01 8.04 -1.02 4.08 0 0 Z " fill="#2C4B52" transform="translate(104,124)"/>
<path d="M0 0 C0.99 0 1.98 0 3 0 C3 2 3 2 1.1875 3.875 C0.465625 4.57625 -0.25625 5.2775 -1 6 C-2.02323436 7.31558703 -3.03126968 8.64377755 -4 10 C-4 8.35 -4 6.7 -4 5 C-3.34 5 -2.68 5 -2 5 C-1.7834375 4.0409375 -1.7834375 4.0409375 -1.5625 3.0625 C-1 1 -1 1 0 0 Z " fill="#31A1CD" transform="translate(55,96)"/>
<path d="M0 0 C2.9375 0.75 2.9375 0.75 6 2 C6.875 4.125 6.875 4.125 7 6 C3.62496331 4.8141763 1.35277269 3.72426311 -1 1 C-0.67 0.67 -0.34 0.34 0 0 Z " fill="#2AB8DD" transform="translate(89,34)"/>
<path d="M0 0 C0.66 0.33 1.32 0.66 2 1 C0.35 1.66 -1.3 2.32 -3 3 C-2.01 2.01 -1.02 1.02 0 0 Z M-4 3 C-4 3.99 -4 4.98 -4 6 C-4.99 6.66 -5.98 7.32 -7 8 C-7.99 7.67 -8.98 7.34 -10 7 C-8.02 5.68 -6.04 4.36 -4 3 Z " fill="#2CBBE7" transform="translate(155,31)"/>
<path d="M0 0 C2.97 1.65 5.94 3.3 9 5 C9 5.66 9 6.32 9 7 C2.29787234 5.06382979 2.29787234 5.06382979 0 2 C0 1.34 0 0.68 0 0 Z " fill="#203A3F" transform="translate(72,137)"/>
<path d="M0 0 C1.65 1.65 3.3 3.3 5 5 C3.68 5.99 2.36 6.98 1 8 C0.17361624 5.10765685 0 3.11257569 0 0 Z " fill="#178DBB" transform="translate(50,152)"/>
<path d="M0 0 C2.31 0.66 4.62 1.32 7 2 C7 2.33 7 2.66 7 3 C5.02 3 3.04 3 1 3 C0.67 3.99 0.34 4.98 0 6 C-1.125 2.25 -1.125 2.25 0 0 Z " fill="#2B394D" transform="translate(115,139)"/>
<path d="M0 0 C0.66 0.33 1.32 0.66 2 1 C2 3.64 2 6.28 2 9 C1.01 9 0.02 9 -1 9 C-0.67 6.03 -0.34 3.06 0 0 Z " fill="#364C5B" transform="translate(162,125)"/>
<path d="M0 0 C0.33 0 0.66 0 1 0 C1.1953125 6.0546875 1.1953125 6.0546875 1 8 C0.34 8.66 -0.32 9.32 -1 10 C-2.23076923 4.58461538 -2.23076923 4.58461538 -1.0625 1.625 C-0.5365625 0.820625 -0.5365625 0.820625 0 0 Z " fill="#30AED7" transform="translate(67,43)"/>
<path d="M0 0 C0.33 0 0.66 0 1 0 C1.125 3.375 1.125 3.375 1 7 C0.34 7.66 -0.32 8.32 -1 9 C-1.66 9 -2.32 9 -3 9 C-3 7.35 -3 5.7 -3 4 C-2.34 4 -1.68 4 -1 4 C-0.67 2.68 -0.34 1.36 0 0 Z " fill="#24B6E7" transform="translate(71,39)"/>
<path d="M0 0 C1.9375 0.3125 1.9375 0.3125 4 1 C4.33 1.99 4.66 2.98 5 4 C6.49985609 5.66710346 6.49985609 5.66710346 8 7 C7.01 7 6.02 7 5 7 C0 1.53488372 0 1.53488372 0 0 Z " fill="#62B9D9" transform="translate(40,161)"/>
<path d="M0 0 C1.98 0.99 1.98 0.99 4 2 C3.67 3.32 3.34 4.64 3 6 C2.01 6 1.02 6 0 6 C0 4.02 0 2.04 0 0 Z " fill="#81C9F2" transform="translate(165,126)"/>
<path d="M0 0 C3.63 0 7.26 0 11 0 C10.67 0.66 10.34 1.32 10 2 C6.35526801 2.89093449 3.57257469 3.23666047 0 2 C0 1.34 0 0.68 0 0 Z " fill="#3F444E" transform="translate(167,112)"/>
<path d="M0 0 C0.33 0.66 0.66 1.32 1 2 C1.66 2 2.32 2 3 2 C3 1.34 3 0.68 3 0 C4.32 0.33 5.64 0.66 7 1 C6.01 1.495 6.01 1.495 5 2 C4.67 2.99 4.34 3.98 4 5 C4 4.34 4 3.68 4 3 C2.35 3 0.7 3 -1 3 C-0.67 2.01 -0.34 1.02 0 0 Z " fill="#283132" transform="translate(103,137)"/>
<path d="M0 0 C0.99 0.495 0.99 0.495 2 1 C2.40729228 3.32156597 2.74438677 5.6568787 3 8 C2.01 8.33 1.02 8.66 0 9 C0 6.03 0 3.06 0 0 Z " fill="#1BA9D7" transform="translate(194,128)"/>
<path d="M0 0 C0.33 0.66 0.66 1.32 1 2 C1.66 2 2.32 2 3 2 C3 2.66 3 3.32 3 4 C1.02 4 -0.96 4 -3 4 C-3 3.01 -3 2.02 -3 1 C-2.01 0.67 -1.02 0.34 0 0 Z " fill="#8CA6F4" transform="translate(174,115)"/>
<path d="M0 0 C0.66 0 1.32 0 2 0 C2.33 0.66 2.66 1.32 3 2 C3.66 2.33 4.32 2.66 5 3 C4.67 3.99 4.34 4.98 4 6 C2.02 5.01 0.04 4.02 -2 3 C-1.34 2.67 -0.68 2.34 0 2 C0 1.34 0 0.68 0 0 Z " fill="#454F64" transform="translate(94,107)"/>
</svg>
