<?xml version="1.0" encoding="UTF-8"?>
<svg version="1.1" xmlns="http://www.w3.org/2000/svg" width="408" height="612">
<path d="M0 0 C9.64051024 0.79020576 16.81087853 6.75214937 23 13.8125 C28.18606026 20.30634938 32.18838055 27.52576822 36.20776367 34.78320312 C36.99437378 36.17442383 36.99437378 36.17442383 37.796875 37.59375 C38.25803711 38.42970703 38.71919922 39.26566406 39.19433594 40.12695312 C42.89610737 45.12669028 48.07692777 45.97897479 53.875 47.125 C65.51300228 49.66395097 74.7830095 54.54330941 83.8125 62.3125 C84.62460937 62.99183594 85.43671875 63.67117187 86.2734375 64.37109375 C105.22058511 80.72393961 116.92631337 103.06915423 124.77490234 126.50195312 C126.41258651 131.355896 128.37609176 135.84139755 130.83203125 140.33203125 C136.58502245 151.95261506 133.99656665 172.10384977 130.14453125 184.0546875 C127.81050376 189.7631301 125.04567744 195.06485945 121.8125 200.3125 C121.38582031 201.04984375 120.95914063 201.7871875 120.51953125 202.546875 C117.92928944 206.53186241 115.04038031 208.91636411 111.05761719 211.50854492 C101.80598365 217.54259926 96.34227373 225.07365564 90.24951172 234.18261719 C79.09943753 250.70882297 66.89946467 265.44533948 46.63671875 270.03125 C21.00145242 274.44411578 0.15219831 265.44099089 -21.0625 252 C-29.10517182 246.98948505 -36.62795214 244.50541214 -45.9375 242.9375 C-57.9642103 240.88531188 -69.21623855 236.87838028 -78.1875 228.3125 C-78.89519531 227.64476562 -79.60289063 226.97703125 -80.33203125 226.2890625 C-90.75277662 215.57831493 -93.67765823 201.5713214 -93.61254883 187.109375 C-93.12379546 165.62602978 -85.95659167 144.96882648 -79.7109375 124.6015625 C-78.86712167 121.83934781 -78.02628902 119.07624489 -77.1875 116.3125 C-76.86015869 115.23653564 -76.53281738 114.16057129 -76.19555664 113.05200195 C-74.61648799 107.61807929 -73.8012965 102.91383035 -73.875 97.25 C-73.88337891 96.53448975 -73.89175781 95.81897949 -73.90039062 95.08178711 C-74.01516825 89.80259025 -74.54048834 84.61214287 -75.1875 79.375 C-79.01161321 48.34033172 -79.01161321 48.34033172 -70.875 37.125 C-67.65263142 34.95177468 -66.09379272 34.23737899 -62.1875 34.3125 C-55.63908535 36.28432746 -50.43376321 40.05061027 -45.1875 44.3125 C-44.1975 45.055 -43.2075 45.7975 -42.1875 46.5625 C-35.20372059 52.48353037 -30.0695616 60.65653977 -25.1875 68.3125 C-18.38687632 66.66234867 -12.27570651 64.80758152 -6.1875 61.3125 C-3.38371692 55.70493384 -6.11628744 46.53068684 -7.25 40.5625 C-8.34027187 33.84741645 -8.44491519 27.17041759 -8.5 20.375 C-8.52622437 18.73869629 -8.52622437 18.73869629 -8.55297852 17.06933594 C-8.54825998 10.28513004 -8.46791982 0.83018822 0 0 Z " fill="#494949" transform="translate(185.1875,162.6875)"/>
<path d="M0 0 C0 0.33 0 0.66 0 1 C-0.68707031 1.06316406 -1.37414062 1.12632812 -2.08203125 1.19140625 C-4.87779177 1.5713737 -7.35037046 2.02134651 -10 3 C-12.22285073 6.26926446 -12.22285073 6.26926446 -13 10 C-13.18087158 10.63977783 -13.36174316 11.27955566 -13.5480957 11.9387207 C-14.42913633 15.95742738 -14.19028068 20.09017062 -14.1875 24.1875 C-14.18814453 25.17202148 -14.18878906 26.15654297 -14.18945312 27.17089844 C-14.14714839 33.10317621 -13.80759251 38.87513288 -13 44.75 C-11.44052035 56.32501978 -9.96966423 68.5332613 -14.9296875 79.4453125 C-16.04855053 82.11588339 -16.71040971 84.77937379 -17.37939453 87.59082031 C-18.99502847 93.8626833 -21.10476201 100.01488129 -23.078125 106.18164062 C-25.00229823 112.31673774 -26.54747136 118.32492387 -27.59277344 124.66967773 C-28.06856903 127.39238091 -28.83352978 129.97877128 -29.625 132.625 C-33.63441129 149.77294367 -32.72430194 168.59609693 -23.75 183.875 C-14.714845 196.9807301 -1.24269553 201.95560293 14 205 C16.70979122 205.45285913 19.41537569 205.89974113 22.13671875 206.27734375 C30.31138019 208.3405257 37.17835952 212.85042356 44.1875 217.375 C63.01031091 229.23825478 82.68803481 236.37318725 105.1640625 232.34375 C128.07391028 226.93124014 139.7085967 208.72927449 152.4296875 190.53515625 C157.83452302 182.86954322 163.71214045 177.80646958 171.30078125 172.39453125 C173.26129579 170.92360888 173.26129579 170.92360888 175 168 C175.66 168 176.32 168 177 168 C177.3403125 167.01 177.3403125 167.01 177.6875 166 C179.12817147 162.70703665 180.94999239 159.92269897 182.9765625 156.96484375 C184.30797554 154.77796874 184.30797554 154.77796874 184 151 C182.82455195 152.43032837 181.65989738 153.86953242 180.5 155.3125 C179.8503125 156.11300781 179.200625 156.91351563 178.53125 157.73828125 C176.71968662 159.95881463 176.71968662 159.95881463 177 163 C175.54462432 163.83848804 174.08559627 164.67063934 172.625 165.5 C171.81289063 165.9640625 171.00078125 166.428125 170.1640625 166.90625 C168 168 168 168 166 168 C165.67 169.32 165.34 170.64 165 172 C162.50935112 172.68707555 160.62113708 173 158 173 C157.401875 173.474375 156.80375 173.94875 156.1875 174.4375 C152.40879202 177.13657713 148.37460061 177.04181785 143.875 177 C140.75182499 177 138.90588122 177.24983374 136 178 C134.63985162 178.14019914 133.27559834 178.24410599 131.91015625 178.31640625 C131.13188477 178.35862305 130.35361328 178.40083984 129.55175781 178.44433594 C128.73030273 178.48333008 127.90884766 178.52232422 127.0625 178.5625 C126.21655273 178.6027832 125.37060547 178.64306641 124.49902344 178.68457031 C121.99960708 178.79744718 119.49996899 178.90020595 117 179 C115.71480469 179.05542969 114.42960938 179.11085938 113.10546875 179.16796875 C106.9112702 179.31939852 102.45262279 179.04332435 97 176 C97 175.34 97 174.68 97 174 C94.69 173.67 92.38 173.34 90 173 C90 172.34 90 171.68 90 171 C89.01 171 88.02 171 87 171 C87 170.34 87 169.68 87 169 C85.97519531 169.03480469 84.95039063 169.06960938 83.89453125 169.10546875 C82.53387064 169.13362035 81.1731922 169.16091904 79.8125 169.1875 C79.13896484 169.21263672 78.46542969 169.23777344 77.77148438 169.26367188 C73.19743049 169.33060925 70.76711966 168.47888185 67 166 C65.68 166 64.36 166 63 166 C63 165.34 63 164.68 63 164 C62.01 164 61.02 164 60 164 C59.54625 163.21625 59.0925 162.4325 58.625 161.625 C56.68144956 158.48541852 55.32307319 158.31173942 52 157 C51.1875 154.875 51.1875 154.875 51 153 C49.68 153.33 48.36 153.66 47 154 C46.34 152.68 45.68 151.36 45 150 C44.01 150 43.02 150 42 150 C46.79567432 159.35793086 51.26807257 165.4813414 60.6328125 170.54296875 C63.15046656 172.09261391 64.99353269 173.8409672 67 176 C63.2397015 175.41892368 60.46964968 174.34800504 57.1875 172.4375 C56.39730469 171.98246094 55.60710937 171.52742187 54.79296875 171.05859375 C54.20128906 170.70925781 53.60960937 170.35992187 53 170 C53.99 171.98 54.98 173.96 56 176 C53.53199953 174.84826645 51.95216435 173.95216435 50 172 C50.99 174.475 50.99 174.475 52 177 C51.236875 176.690625 50.47375 176.38125 49.6875 176.0625 C47.81210323 175.32106407 45.91315348 174.63771783 44 174 C43.67 173.67 43.34 173.34 43 173 C42.34 173.33 41.68 173.66 41 174 C40.01 172.88625 40.01 172.88625 39 171.75 C36.26254928 168.98117449 33.29589972 167.47903716 29.76953125 165.89453125 C28 165 28 165 26 163 C25.60235737 161.01178687 25.26224651 159.01055661 25 157 C24.34 157 23.68 157 23 157 C22.67 158.65 22.34 160.3 22 162 C17.39195535 158.10088529 16.65428989 155.888609 16 150 C15.32786301 148.24404211 14.6383057 146.49471419 13.9375 144.75 C12.0019502 139.14895845 11.5591558 133.99550877 11.5 128.125 C11.48187256 127.31643555 11.46374512 126.50787109 11.44506836 125.67480469 C11.49885248 120.32744369 12.42867444 117.20748761 16 113 C21.58946695 108.06474171 27.55370466 107.3287886 34.8046875 107.6484375 C46.7496914 108.96267998 57.48065615 114.93320297 67.16015625 121.80078125 C70.46987525 123.95807156 73.39739062 124.18543113 77.25 124.25 C78.16265625 124.27578125 79.0753125 124.3015625 80.015625 124.328125 C83.71703961 123.92116318 86.6952726 122.61446345 90 121 C90.95350342 120.53859619 90.95350342 120.53859619 91.92626953 120.06787109 C93.93751126 119.08038967 95.93850644 118.07452663 97.9375 117.0625 C99.27994792 116.38671875 100.62239583 115.7109375 101.96484375 115.03515625 C104.02682729 113.99637488 106.08755165 112.95541702 108.14501953 111.90771484 C108.84095215 111.55531738 109.53688477 111.20291992 110.25390625 110.83984375 C110.87724854 110.52265381 111.50059082 110.20546387 112.14282227 109.87866211 C114.06400527 108.96971803 116.00069725 108.21897507 118 107.5 C120.67839521 106.5363994 123.1667831 105.44613045 125.6875 104.125 C131.26301414 101.26659801 137.13064185 99.16996315 143 97 C144.79824219 96.32710937 144.79824219 96.32710937 146.6328125 95.640625 C168.52060959 87.60406883 168.52060959 87.60406883 176.0546875 90.8984375 C177.74788235 91.85723458 179.38098307 92.92065538 181 94 C180.45060589 89.60484716 179.28497146 85.95374213 177.5234375 81.9296875 C176.89423742 79.61009915 177.24932215 78.25203354 178 76 C178.35191406 76.98097656 178.70382812 77.96195312 179.06640625 78.97265625 C181.94309267 86.87392865 185.04017499 94.56395769 188.72680664 102.12524414 C195.16078765 115.406465 193.78215678 134.93579099 189.33203125 148.7421875 C186.99800376 154.4506301 184.23317744 159.75235945 181 165 C180.57332031 165.73734375 180.14664063 166.4746875 179.70703125 167.234375 C177.11678944 171.21936241 174.22788031 173.60386411 170.24511719 176.19604492 C160.99348365 182.23009926 155.52977373 189.76115564 149.43701172 198.87011719 C138.28693753 215.39632297 126.08696467 230.13283948 105.82421875 234.71875 C80.18895242 239.13161578 59.33969831 230.12849089 38.125 216.6875 C30.08232818 211.67698505 22.55954786 209.19291214 13.25 207.625 C1.2232897 205.57281188 -10.02873855 201.56588028 -19 193 C-19.70769531 192.33226562 -20.41539063 191.66453125 -21.14453125 190.9765625 C-31.56527662 180.26581493 -34.49015823 166.2588214 -34.42504883 151.796875 C-33.93629546 130.31352978 -26.76909167 109.65632648 -20.5234375 89.2890625 C-19.67962167 86.52684781 -18.83878902 83.76374489 -18 81 C-17.67265869 79.92403564 -17.34531738 78.84807129 -17.00805664 77.73950195 C-15.42898799 72.30557929 -14.6137965 67.60133035 -14.6875 61.9375 C-14.69587891 61.22198975 -14.70425781 60.50647949 -14.71289062 59.76928711 C-14.82766825 54.49009025 -15.35298834 49.29964287 -16 44.0625 C-19.75335165 13.60209858 -19.75335165 13.60209858 -12.79296875 3.1953125 C-8.75473369 -1.12352499 -5.49914042 -1.09982808 0 0 Z " fill="#CCCCCC" transform="translate(126,198)"/>
<path d="M0 0 C2 3 2 3 2 5 C3.32 4.67 4.64 4.34 6 4 C6.226875 4.61875 6.45375 5.2375 6.6875 5.875 C7.8440732 8.23244106 7.8440732 8.23244106 10.5 8.9375 C13 10 13 10 14.3125 12.625 C14.6528125 13.800625 14.6528125 13.800625 15 15 C15.99 15 16.98 15 18 15 C18 15.66 18 16.32 18 17 C18.556875 16.773125 19.11375 16.54625 19.6875 16.3125 C22 16 22 16 24.26171875 17.47265625 C27.51800975 19.28893268 29.43357959 19.28227856 33.125 19.125 C38.74439462 18.91479821 38.74439462 18.91479821 42 20 C42 20.66 42 21.32 42 22 C42.99 22 43.98 22 45 22 C45 22.66 45 23.32 45 24 C47.31 24.33 49.62 24.66 52 25 C52 25.66 52 26.32 52 27 C64.97615133 29.67156057 80.10171058 30.81114755 93.08984375 27.4609375 C95.27069023 26.93468007 97.1370772 26.97219785 99.375 27.0625 C104.2648514 27.11067588 108.17995051 26.4891314 112.0625 23.3125 C114 22 114 22 116.75 22.3125 C117.4925 22.539375 118.235 22.76625 119 23 C119.24878906 22.39671875 119.49757813 21.7934375 119.75390625 21.171875 C121.19551144 18.65923399 122.47493011 17.73579636 124.9375 16.25 C125.62714844 15.82203125 126.31679688 15.3940625 127.02734375 14.953125 C129 14 129 14 132 14 C131.67 13.01 131.34 12.02 131 11 C132.6171875 8.51953125 132.6171875 8.51953125 134.875 5.8125 C135.61492187 4.91144531 136.35484375 4.01039063 137.1171875 3.08203125 C137.73851562 2.39496094 138.35984375 1.70789063 139 1 C139.33 1 139.66 1 140 1 C140.56409532 5.83120346 138.65255618 8.88997769 136.125 12.8125 C135.76019531 13.40998047 135.39539063 14.00746094 135.01953125 14.62304688 C134.07626584 16.1236964 133.04426955 17.56779899 132 19 C131.34 19 130.68 19 130 19 C129.74605469 19.59941406 129.49210938 20.19882812 129.23046875 20.81640625 C127.85379695 23.25945239 126.58647666 24.32471891 124.3125 25.9375 C123.59578125 26.44667969 122.8790625 26.95585937 122.140625 27.48046875 C121.43421875 27.98191406 120.7278125 28.48335938 120 29 C119.41734375 29.47050781 118.8346875 29.94101562 118.234375 30.42578125 C114.55063963 33.34350623 111.4645484 34.64371681 106.85546875 35.46875 C102.2907629 36.3179976 97.79841285 37.47992663 93.29150391 38.59204102 C92.59589355 38.75889404 91.9002832 38.92574707 91.18359375 39.09765625 C90.57056396 39.24726807 89.95753418 39.39687988 89.32592773 39.55102539 C83.24150868 40.72550284 77.27743054 41.15130694 71.08984375 41.1328125 C70.35987686 41.13376923 69.62990997 41.13472595 68.87782288 41.13571167 C67.3408296 41.13638762 65.80383338 41.13457449 64.2668457 41.13037109 C61.96754179 41.12506927 59.66843813 41.13030784 57.36914062 41.13671875 C44.40988538 41.14394766 31.6672753 40.96837325 19.0390625 37.7421875 C16.23226677 37.05672325 13.48194353 36.60045054 10.625 36.1875 C-2.58467012 33.79974622 -15.67603996 27.80766298 -23.6875 16.625 C-25 14 -25 14 -25 11 C-24.34 11.33 -23.68 11.66 -23 12 C-23 10.35 -23 8.7 -23 7 C-22.01 7.33 -21.02 7.66 -20 8 C-19.67 9.051875 -19.34 10.10375 -19 11.1875 C-17.16131821 16.09065143 -13.01918758 17.45862139 -8.49609375 19.54296875 C-5.79558287 21.1193233 -5.04633127 22.10865856 -4 25 C-3.67 23.35 -3.34 21.7 -3 20 C-1 22 -1 22 -1 25 C-0.4225 25.12375 0.155 25.2475 0.75 25.375 C3.02335767 26.00648824 4.9253529 26.88858191 7 28 C6.484375 27.21625 5.96875 26.4325 5.4375 25.625 C4.963125 24.75875 4.48875 23.8925 4 23 C4.33 22.34 4.66 21.68 5 21 C6.65 22.65 8.3 24.3 10 26 C9.34 24.35 8.68 22.7 8 21 C12.06962402 22.23035145 15.38325151 23.78976481 19 26 C19.66 26 20.32 26 21 26 C20.0821875 25.46632813 19.164375 24.93265625 18.21875 24.3828125 C8.99131263 18.84383579 3.00995454 13.01493181 -3 4 C-3 3.01 -3 2.02 -3 1 C-2.01 0.67 -1.02 0.34 0 0 Z " fill="#656565" transform="translate(171,347)"/>
<path d="M0 0 C2.76576624 2.02822857 4.66488509 3.53820567 5.453125 6.9765625 C5.89719402 15.95310046 1.81046849 23.48671453 -3.53515625 30.40625 C-5.47054709 32.51195523 -7.2101801 33.8576226 -10.05859375 34.37109375 C-20.73427597 34.6691013 -30.6079179 29.9663914 -38.375 22.8125 C-40.71718311 18.75872154 -41.06557439 15.55913614 -40 11 C-37.39241739 5.5610497 -33.34394842 2.83271131 -27.80053711 0.66723633 C-18.82800882 -2.44192049 -8.87888112 -4.23662348 0 0 Z " fill="#202020" transform="translate(297,299)"/>
<path d="M0 0 C2.87378669 2.23516742 4.97058844 4.21183059 5.63818359 7.88696289 C5.64156738 8.6577417 5.64495117 9.42852051 5.6484375 10.22265625 C5.65447998 11.10953125 5.66052246 11.99640625 5.66674805 12.91015625 C5.65297119 13.86792969 5.63919434 14.82570313 5.625 15.8125 C5.61702393 16.81023437 5.60904785 17.80796875 5.60083008 18.8359375 C5.45145515 27.01437223 4.80013722 35.1182287 3.9375 43.25 C3.82003418 44.38832275 3.70256836 45.52664551 3.58154297 46.69946289 C2.89663659 52.55615596 2.09576735 57.54836955 -0.75 62.75 C-3.125 64.375 -3.125 64.375 -5.75 64.75 C-9.22639682 63.2907717 -10.49779666 62.33429718 -12.0078125 58.8359375 C-20.57142982 22.18982733 -20.57142982 22.18982733 -17.75 5.75 C-13.26816016 -0.82641397 -7.78171963 -3.53714528 0 0 Z " fill="#373334" transform="translate(248.75,103.25)"/>
<path d="M0 0 C3.02089981 1.7475743 5.41608883 3.83217766 7 7 C7.30859375 8.91796875 7.30859375 8.91796875 7.4375 11.1875 C7.49808594 11.92355469 7.55867188 12.65960938 7.62109375 13.41796875 C6.21585046 19.25989211 1.44759331 22.91183532 -3.43359375 26.02734375 C-5.09332827 27.011418 -6.76169924 27.98104163 -8.4375 28.9375 C-9.3147876 29.45038574 -10.1920752 29.96327148 -11.09594727 30.49169922 C-36.63364607 45.3188421 -36.63364607 45.3188421 -43.75 45.1875 C-44.52859375 45.18105469 -45.3071875 45.17460937 -46.109375 45.16796875 C-48 45 -48 45 -49 44 C-49.5 41.4375 -49.5 41.4375 -49 38 C-44.42565251 31.60659293 -38.29618091 26.10312194 -32.75 20.5625 C-31.4969104 19.3106189 -31.4969104 19.3106189 -30.21850586 18.03344727 C-10.03938054 -1.94621389 -10.03938054 -1.94621389 0 0 Z " fill="#312B2D" transform="translate(361,160)"/>
<path d="M0 0 C3.61663508 2.08652024 5.67529536 3.51294304 8 7 C9.1690487 13.7711976 7.21988359 18.81493454 3.9375 24.625 C3.50429443 25.41970703 3.07108887 26.21441406 2.62475586 27.03320312 C-13.14275428 55.32813758 -13.14275428 55.32813758 -20 61 C-23.0625 61.375 -23.0625 61.375 -26 61 C-28.80460084 56.79309875 -28.49433547 52.81226116 -27.64520264 47.98156738 C-27.15720883 45.89172931 -26.60620563 43.83101562 -26.0234375 41.765625 C-25.81570709 41.00634705 -25.60797668 40.24706909 -25.39395142 39.46478271 C-24.95347899 37.86669913 -24.50778921 36.27004523 -24.05712891 34.67480469 C-23.38188721 32.27448237 -22.73097492 29.86848403 -22.08203125 27.4609375 C-15.69651973 4.23991422 -15.69651973 4.23991422 -8.99755859 0.18066406 C-5.35446724 -1.25425936 -3.71971691 -1.16241153 0 0 Z " fill="#363133" transform="translate(310,115)"/>
<path d="M0 0 C0 0.33 0 0.66 0 1 C-0.68707031 1.06316406 -1.37414062 1.12632812 -2.08203125 1.19140625 C-4.87779177 1.5713737 -7.35037046 2.02134651 -10 3 C-12.22285073 6.26926446 -12.22285073 6.26926446 -13 10 C-13.18087158 10.63977783 -13.36174316 11.27955566 -13.5480957 11.9387207 C-14.42913633 15.95742738 -14.19028068 20.09017062 -14.1875 24.1875 C-14.18814453 25.17202148 -14.18878906 26.15654297 -14.18945312 27.17089844 C-14.14714839 33.10317621 -13.80759251 38.87513288 -13 44.75 C-11.44052035 56.32501978 -9.96966423 68.5332613 -14.9296875 79.4453125 C-16.04855053 82.11588339 -16.71040971 84.77937379 -17.37939453 87.59082031 C-18.99502847 93.8626833 -21.10476201 100.01488129 -23.078125 106.18164062 C-25.00229823 112.31673774 -26.54747136 118.32492387 -27.59277344 124.66967773 C-28.06856903 127.39238091 -28.83352978 129.97877128 -29.625 132.625 C-33.63441129 149.77294367 -32.72430194 168.59609693 -23.75 183.875 C-14.714845 196.9807301 -1.24269553 201.95560293 14 205 C16.70979122 205.45285913 19.41537569 205.89974113 22.13671875 206.27734375 C30.31138019 208.3405257 37.17835952 212.85042356 44.1875 217.375 C63.01031091 229.23825478 82.68803481 236.37318725 105.1640625 232.34375 C128.07391028 226.93124014 139.7085967 208.72927449 152.4296875 190.53515625 C157.83452302 182.86954322 163.71214045 177.80646958 171.30078125 172.39453125 C173.26129579 170.92360888 173.26129579 170.92360888 175 168 C175.66 168 176.32 168 177 168 C177.26554688 167.27425781 177.53109375 166.54851562 177.8046875 165.80078125 C179.00072948 162.99829072 180.40329107 160.69520648 182.125 158.1875 C182.66382813 157.39730469 183.20265625 156.60710937 183.7578125 155.79296875 C184.16773438 155.20128906 184.57765625 154.60960937 185 154 C185.33 154.66 185.66 155.32 186 156 C184.67317734 159.18173393 182.80340532 162.06828611 181 165 C180.61070312 165.66644531 180.22140625 166.33289063 179.8203125 167.01953125 C177.16902817 171.06232816 174.30277192 173.57193887 170.24072266 176.20483398 C160.98049932 182.2140745 155.52347113 189.77057832 149.43701172 198.87011719 C138.28693753 215.39632297 126.08696467 230.13283948 105.82421875 234.71875 C80.18895242 239.13161578 59.33969831 230.12849089 38.125 216.6875 C30.08232818 211.67698505 22.55954786 209.19291214 13.25 207.625 C1.2232897 205.57281188 -10.02873855 201.56588028 -19 193 C-19.70769531 192.33226562 -20.41539063 191.66453125 -21.14453125 190.9765625 C-31.56527662 180.26581493 -34.49015823 166.2588214 -34.42504883 151.796875 C-33.93629546 130.31352978 -26.76909167 109.65632648 -20.5234375 89.2890625 C-19.67962167 86.52684781 -18.83878902 83.76374489 -18 81 C-17.67265869 79.92403564 -17.34531738 78.84807129 -17.00805664 77.73950195 C-15.42898799 72.30557929 -14.6137965 67.60133035 -14.6875 61.9375 C-14.69587891 61.22198975 -14.70425781 60.50647949 -14.71289062 59.76928711 C-14.82766825 54.49009025 -15.35298834 49.29964287 -16 44.0625 C-19.75335165 13.60209858 -19.75335165 13.60209858 -12.79296875 3.1953125 C-8.75473369 -1.12352499 -5.49914042 -1.09982808 0 0 Z " fill="#D4D4D4" transform="translate(126,198)"/>
<path d="M0 0 C2 3 2 3 2 5 C3.32 4.67 4.64 4.34 6 4 C6.226875 4.61875 6.45375 5.2375 6.6875 5.875 C7.8440732 8.23244106 7.8440732 8.23244106 10.5 8.9375 C13 10 13 10 14.3125 12.625 C14.6528125 13.800625 14.6528125 13.800625 15 15 C15.99 15 16.98 15 18 15 C18 15.66 18 16.32 18 17 C18.556875 16.773125 19.11375 16.54625 19.6875 16.3125 C22 16 22 16 24.26171875 17.47265625 C27.51800975 19.28893268 29.43357959 19.28227856 33.125 19.125 C38.74439462 18.91479821 38.74439462 18.91479821 42 20 C42 20.66 42 21.32 42 22 C42.99 22 43.98 22 45 22 C45 22.66 45 23.32 45 24 C47.31 24.33 49.62 24.66 52 25 C52 25.66 52 26.32 52 27 C64.97615133 29.67156057 80.10171058 30.81114755 93.08984375 27.4609375 C95.27069023 26.93468007 97.1370772 26.97219785 99.375 27.0625 C104.2648514 27.11067588 108.17995051 26.4891314 112.0625 23.3125 C114 22 114 22 116.75 22.3125 C117.4925 22.539375 118.235 22.76625 119 23 C119.24878906 22.39671875 119.49757813 21.7934375 119.75390625 21.171875 C121.19551144 18.65923399 122.47493011 17.73579636 124.9375 16.25 C125.62714844 15.82203125 126.31679688 15.3940625 127.02734375 14.953125 C129 14 129 14 132 14 C131.67 13.01 131.34 12.02 131 11 C132.6171875 8.51953125 132.6171875 8.51953125 134.875 5.8125 C135.61492187 4.91144531 136.35484375 4.01039063 137.1171875 3.08203125 C137.73851562 2.39496094 138.35984375 1.70789063 139 1 C139.33 1 139.66 1 140 1 C140.56409532 5.83120346 138.65255618 8.88997769 136.125 12.8125 C135.76019531 13.40998047 135.39539063 14.00746094 135.01953125 14.62304688 C134.07626584 16.1236964 133.04426955 17.56779899 132 19 C131.34 19 130.68 19 130 19 C129.62101562 19.8971875 129.62101562 19.8971875 129.234375 20.8125 C127.84544835 23.27388901 126.53851724 24.36787918 124.25 26 C123.54359375 26.50789063 122.8371875 27.01578125 122.109375 27.5390625 C119.42804568 29.39613132 116.73477647 31.22239529 114 33 C113.67 32.34 113.34 31.68 113 31 C111.1128125 30.9690625 111.1128125 30.9690625 109.1875 30.9375 C108.12595703 30.92009766 108.12595703 30.92009766 107.04296875 30.90234375 C104.79694539 30.91736783 104.79694539 30.91736783 102 32 C97.29660629 32.24492554 92.5841476 32.19435163 87.875 32.1875 C86.84072372 32.18709213 86.84072372 32.18709213 85.78555298 32.18667603 C76.22933399 32.16938734 66.72048422 31.90996141 57.1875 31.1875 C56.20056152 31.11748779 55.21362305 31.04747559 54.19677734 30.9753418 C45.27137001 30.20612169 37.32028385 27.55898077 28.9375 24.5 C19.68188814 20.67187044 19.68188814 20.67187044 10 19 C6.09536666 16.33172875 3.44404324 13.2530542 0.6875 9.4375 C-0.00988281 8.48746094 -0.70726562 7.53742188 -1.42578125 6.55859375 C-3 4 -3 4 -3 1 C-2.01 0.67 -1.02 0.34 0 0 Z " fill="#777777" transform="translate(171,347)"/>
<path d="M0 0 C0.268125 1.134375 0.53625 2.26875 0.8125 3.4375 C1.204375 4.613125 1.59625 5.78875 2 7 C2.99 7.33 3.98 7.66 5 8 C5.72125123 9.64378188 6.38147161 11.31487542 7 13 C7.92063443 14.44145048 8.88038331 15.85856733 9.875 17.25 C14.48610024 24.06493492 18.4037157 30.57770578 17 39 C13.65019817 43.03694067 11.30145278 44.20735386 6.125 44.8125 C4.75113867 44.89638262 3.37600868 44.96636423 2 45 C2 44.34 2 43.68 2 43 C1.38125 42.95875 0.7625 42.9175 0.125 42.875 C-2 42 -2 42 -3.06640625 39.47265625 C-4.13482074 35.49851196 -4.64713557 31.64751883 -5.0625 27.5625 C-5.21922144 26.10537917 -5.37676472 24.64834648 -5.53515625 23.19140625 C-5.61016357 22.48459717 -5.6851709 21.77778809 -5.76245117 21.04956055 C-5.98263399 19.14983315 -6.26602532 17.2577215 -6.5546875 15.3671875 C-6.99323484 12.05115408 -7.10004832 8.90430024 -7.0625 5.5625 C-7.05347656 4.51191406 -7.04445312 3.46132812 -7.03515625 2.37890625 C-7.02355469 1.59386719 -7.01195312 0.80882812 -7 0 C-3.86650268 -1.04449911 -3.01031744 -0.93423645 0 0 Z " fill="#696568" transform="translate(202,177)"/>
<path d="M0 0 C1.53790182 4.61370546 1.52406339 9.18152831 1 14 C-0.6875 16.3125 -0.6875 16.3125 -3 18 C-3.763125 19.051875 -4.52625 20.10375 -5.3125 21.1875 C-8 24 -8 24 -11.5625 25 C-14.95749067 25 -16.15167371 24.59556134 -19 23 C-19.08153933 21.41753293 -19.13943557 19.83383727 -19.1875 18.25 C-19.22230469 17.36828125 -19.25710937 16.4865625 -19.29296875 15.578125 C-18.94539177 12.51944756 -17.95957904 11.31586613 -16 9 C-15.690625 8.175 -15.38125 7.35 -15.0625 6.5 C-11.90356423 -0.93279005 -7.268892 -0.49938953 0 0 Z " fill="#CECECE" transform="translate(192,266)"/>
<path d="M0 0 C0.33 0.66 0.66 1.32 1 2 C-0.32682266 5.18173393 -2.19659468 8.06828611 -4 11 C-4.38929688 11.66644531 -4.77859375 12.33289063 -5.1796875 13.01953125 C-7.83097183 17.06232816 -10.69722808 19.57193887 -14.75927734 22.20483398 C-24.01950068 28.2140745 -29.47652887 35.77057832 -35.56298828 44.87011719 C-46.71306247 61.39632297 -58.91303533 76.13283948 -79.17578125 80.71875 C-107.24819459 85.55114731 -130.14730043 73.96428623 -153 59 C-154.34422091 58.01468384 -155.68222491 57.02041491 -157 56 C-153.13016858 55.73888681 -151.2322961 56.1351059 -148.125 58.4375 C-128.01531615 72.49765912 -106.93151458 82.07035005 -81.84472656 78.71142578 C-57.82767087 74.39577057 -45.59613863 55.16511688 -32.5703125 36.53515625 C-27.16547698 28.86954322 -21.28785955 23.80646958 -13.69921875 18.39453125 C-11.73870421 16.92360888 -11.73870421 16.92360888 -10 14 C-9.34 14 -8.68 14 -8 14 C-7.73445312 13.27425781 -7.46890625 12.54851562 -7.1953125 11.80078125 C-5.99927052 8.99829072 -4.59670893 6.69520648 -2.875 4.1875 C-2.33617187 3.39730469 -1.79734375 2.60710937 -1.2421875 1.79296875 C-0.83226562 1.20128906 -0.42234375 0.60960937 0 0 Z " fill="#D0D0D0" transform="translate(311,352)"/>
<path d="M0 0 C9.64051024 0.79020576 16.81087853 6.75214937 23 13.8125 C28.18606026 20.30634938 32.18838055 27.52576822 36.20776367 34.78320312 C36.73217041 35.71068359 37.25657715 36.63816406 37.796875 37.59375 C38.25803711 38.42970703 38.71919922 39.26566406 39.19433594 40.12695312 C42.89565294 45.12607652 48.0769859 45.98028879 53.875 47.125 C63.27732479 49.15881107 72.12229749 52.07647677 78.8125 59.3125 C75.36480208 58.56332761 72.62505716 57.18141058 69.5324707 55.48168945 C61.88120263 51.31553952 55.80582129 49.36636004 47.01953125 48.95703125 C42.25493566 47.99946941 40.21333956 45.24015102 37.44140625 41.42578125 C37.08949219 40.83152344 36.73757812 40.23726562 36.375 39.625 C35.97023437 38.94824219 35.56546875 38.27148438 35.1484375 37.57421875 C34.70757812 36.82785156 34.26671875 36.08148438 33.8125 35.3125 C33.26851562 34.43207031 32.72453125 33.55164063 32.1640625 32.64453125 C27.8125 25.56558099 27.8125 25.56558099 27.8125 23.3125 C27.1525 23.3125 26.4925 23.3125 25.8125 23.3125 C25.2246875 21.9821875 25.2246875 21.9821875 24.625 20.625 C21.28959432 14.52925858 16.10560319 10.90987282 10.60546875 6.86328125 C10.01378906 6.35152344 9.42210937 5.83976563 8.8125 5.3125 C8.8125 4.6525 8.8125 3.9925 8.8125 3.3125 C4.8525 3.3125 0.8925 3.3125 -3.1875 3.3125 C-5.11059135 9.77622372 -5.4999859 15.65051293 -5.4375 22.375 C-5.43363281 23.38925049 -5.42976562 24.40350098 -5.42578125 25.44848633 C-5.34590776 32.43464324 -4.70820273 39.09452812 -3.65234375 46 C-2.93576665 51.10636453 -2.35908005 56.19286469 -3.1875 61.3125 C-5.5 64.125 -5.5 64.125 -8.1875 65.3125 C-9.1775 64.9825 -10.1675 64.6525 -11.1875 64.3125 C-10.383125 63.85875 -9.57875 63.405 -8.75 62.9375 C-6.09893428 61.56524335 -6.09893428 61.56524335 -5.1875 59.3125 C-5.3118185 52.99138264 -6.07154357 46.76623136 -7.25 40.5625 C-8.34027187 33.84741645 -8.44491519 27.17041759 -8.5 20.375 C-8.51748291 19.28413086 -8.53496582 18.19326172 -8.55297852 17.06933594 C-8.54825998 10.28513004 -8.46791982 0.83018822 0 0 Z " fill="#D3D3D3" transform="translate(185.1875,162.6875)"/>
<path d="M0 0 C2 1.125 2 1.125 4 3.125 C4.3359375 5.18359375 4.3359375 5.18359375 4.375 7.5625 C4.40335937 8.34496094 4.43171875 9.12742188 4.4609375 9.93359375 C4 12.125 4 12.125 2.34765625 13.890625 C-0.59213097 15.43633675 -2.62749516 15.49176237 -5.9375 15.4375 C-6.95714844 15.43363281 -7.97679687 15.42976563 -9.02734375 15.42578125 C-12.06863672 15.11805515 -14.27895772 14.50255807 -17 13.125 C-18.58770472 9.94959056 -18.41100302 6.58309441 -18 3.125 C-13.96275715 -2.56384219 -6.06236731 -1.76819046 0 0 Z " fill="#CFCFCF" transform="translate(266,241.875)"/>
<path d="M0 0 C3.02089981 1.7475743 5.41608883 3.83217766 7 7 C7.30859375 8.91796875 7.30859375 8.91796875 7.4375 11.1875 C7.49808594 11.92355469 7.55867188 12.65960938 7.62109375 13.41796875 C6.21585046 19.25989211 1.44759331 22.91183532 -3.43359375 26.02734375 C-5.09332827 27.011418 -6.76169924 27.98104163 -8.4375 28.9375 C-9.3147876 29.45038574 -10.1920752 29.96327148 -11.09594727 30.49169922 C-36.63364607 45.3188421 -36.63364607 45.3188421 -43.75 45.1875 C-44.52859375 45.18105469 -45.3071875 45.17460937 -46.109375 45.16796875 C-48 45 -48 45 -49 44 C-49.5 41.4375 -49.5 41.4375 -49 38 C-44.42565251 31.60659293 -38.29618091 26.10312194 -32.75 20.5625 C-31.4969104 19.3106189 -31.4969104 19.3106189 -30.21850586 18.03344727 C-10.03938054 -1.94621389 -10.03938054 -1.94621389 0 0 Z M-22.5625 12.875 C-23.2548877 13.53902832 -23.94727539 14.20305664 -24.66064453 14.88720703 C-26.08321545 16.25505116 -27.50281421 17.62599305 -28.91943359 19 C-30.87700691 20.88176961 -32.86359315 22.72570348 -34.86328125 24.5625 C-43.20072144 32.2630452 -43.20072144 32.2630452 -46 43 C-39.01171477 42.59177344 -34.20621075 41.07970474 -28.125 37.6875 C-27.32070557 37.25034668 -26.51641113 36.81319336 -25.68774414 36.36279297 C-19.50452945 32.95157076 -13.44153281 29.34142613 -7.4375 25.625 C-6.6223291 25.12572998 -5.8071582 24.62645996 -4.96728516 24.11206055 C-4.21366699 23.63422119 -3.46004883 23.15638184 -2.68359375 22.6640625 C-2.01900146 22.24592285 -1.35440918 21.8277832 -0.66967773 21.39697266 C1.25238009 19.78884064 2.03772383 18.29200573 3 16 C3.66 16 4.32 16 5 16 C6.44430855 13.11138291 6.37688506 11.20352299 6 8 C4.2539921 4.91911456 4.2539921 4.91911456 1 3 C-9.34424281 1.17555784 -15.48038248 6.02751537 -22.5625 12.875 Z " fill="#DDDADC" transform="translate(361,160)"/>
<path d="M0 0 C2.89000361 2.11933598 4.75743652 3.59164676 5.3828125 7.22265625 C5.47836308 11.42005675 5.38958321 13.41562519 3 17 C3 14.36 3 11.72 3 9 C-0.24514077 9.3605712 -1.02748582 10.03130329 -3.25 12.5625 C-6.09225757 15.08177376 -6.57267855 15.38939658 -10.125 15.5 C-14 15 -14 15 -16 13.5 C-16.33 13.005 -16.66 12.51 -17 12 C-16.39816251 9.97954558 -15.72693904 7.97888961 -15 6 C-14.34 5.67 -13.68 5.34 -13 5 C-13 3.68 -13 2.36 -13 1 C-21.53651444 1.70583522 -21.53651444 1.70583522 -30 3 C-23.12483087 -3.87516913 -8.29607468 -4.02062322 0 0 Z " fill="#363535" transform="translate(297,299)"/>
<path d="M0 0 C2.87378669 2.23516742 4.97058844 4.21183059 5.63818359 7.88696289 C5.64156738 8.6577417 5.64495117 9.42852051 5.6484375 10.22265625 C5.65447998 11.10953125 5.66052246 11.99640625 5.66674805 12.91015625 C5.65297119 13.86792969 5.63919434 14.82570313 5.625 15.8125 C5.61702393 16.81023437 5.60904785 17.80796875 5.60083008 18.8359375 C5.45145515 27.01437223 4.80013722 35.1182287 3.9375 43.25 C3.82003418 44.38832275 3.70256836 45.52664551 3.58154297 46.69946289 C2.89663659 52.55615596 2.09576735 57.54836955 -0.75 62.75 C-3.125 64.375 -3.125 64.375 -5.75 64.75 C-9.22639682 63.2907717 -10.49779666 62.33429718 -12.0078125 58.8359375 C-20.57142982 22.18982733 -20.57142982 22.18982733 -17.75 5.75 C-13.26816016 -0.82641397 -7.78171963 -3.53714528 0 0 Z M-15.75 4.75 C-16.55867057 15.01389574 -15.4806413 25.34985828 -14.5 35.5625 C-14.39075195 36.78936523 -14.28150391 38.01623047 -14.16894531 39.28027344 C-13.1898017 51.33655297 -13.1898017 51.33655297 -7.75 61.75 C-4.20537103 62.12795331 -4.20537103 62.12795331 -1.12939453 60.56494141 C0.69928961 58.1588462 0.7485305 56.46301897 0.9453125 53.4609375 C1.02136719 52.43742187 1.09742188 51.41390625 1.17578125 50.359375 C1.24152344 49.29203125 1.30726563 48.2246875 1.375 47.125 C1.51971747 45.00755497 1.66795918 42.89034682 1.8203125 40.7734375 C1.87977051 39.83419434 1.93922852 38.89495117 2.00048828 37.92724609 C2.25 35.75 2.25 35.75 3.25 34.75 C3.56408937 30.53091646 3.6067323 26.30606252 3.6550293 22.0769043 C3.67659867 20.6557585 3.71069083 19.23474519 3.75756836 17.81420898 C3.82459981 15.76485964 3.85202602 13.71825976 3.87109375 11.66796875 C3.8961499 10.43844482 3.92120605 9.2089209 3.94702148 7.94213867 C3.53242745 4.50062586 3.53242745 4.50062586 0.43383789 2.3449707 C-5.54944529 -0.65240596 -10.93842421 -0.06157579 -15.75 4.75 Z " fill="#CDCCCC" transform="translate(248.75,103.25)"/>
<path d="M0 0 C0.66 0 1.32 0 2 0 C2.18175781 0.62648438 2.36351562 1.25296875 2.55078125 1.8984375 C2.80214844 2.71570313 3.05351562 3.53296875 3.3125 4.375 C3.55613281 5.18710937 3.79976562 5.99921875 4.05078125 6.8359375 C4.91368185 9.33184629 4.91368185 9.33184629 8 11 C8.69658363 12.65438613 9.36096883 14.32254318 10 16 C10.99387334 17.33790641 11.9926892 18.67218122 13 20 C13 20.66 13 21.32 13 22 C13.58265625 22.26296875 14.1653125 22.5259375 14.765625 22.796875 C17.10026263 24.05398757 18.77103595 25.49267993 20.75 27.25 C26.52994129 31.85094829 33.07610548 33.95655967 39.98486328 36.30273438 C43.34909852 37.46680705 46.67132435 38.73829463 50 40 C50 40.66 50 41.32 50 42 C50.99 42.495 50.99 42.495 52 43 C52 43.66 52 44.32 52 45 C52.99 45.33 53.98 45.66 55 46 C44.46183029 45.29745535 35.28812567 41.89737535 26 37 C24.515 36.505 24.515 36.505 23 36 C23 35.34 23 34.68 23 34 C21.35 33.34 19.7 32.68 18 32 C18 31.34 18 30.68 18 30 C17.13375 29.690625 17.13375 29.690625 16.25 29.375 C13.18061157 27.49926262 11.90685262 25.01405737 10 22 C9.52949219 21.57203125 9.05898437 21.1440625 8.57421875 20.703125 C6.35173314 18.29864925 5.23778399 15.65617768 3.875 12.6875 C3.35679687 11.57761719 2.83859375 10.46773438 2.3046875 9.32421875 C1.0662636 6.1688333 0.41593048 3.35280545 0 0 Z " fill="#2C2C2C" transform="translate(137,345)"/>
<path d="M0 0 C2.67195351 1.96880785 3.75034256 3.35089065 4.9375 6.4375 C5.0193592 9.79372707 3.95463467 11.32142656 2 14 C-0.39286884 16.39286884 -1.09447094 16.32050616 -4.375 16.375 C-7.6192733 16.2967619 -8.74554414 16.17175771 -11.5 14.3125 C-13.21981795 11.661114 -13.92452532 10.16993644 -14 7 C-12.83112984 3.86250641 -11.85573818 1.70292779 -9.25 -0.4375 C-5.86232946 -1.28441764 -3.36855977 -0.84213994 0 0 Z " fill="#3D383A" transform="translate(249,175)"/>
<path d="M0 0 C0.33 0 0.66 0 1 0 C1.56409532 4.83120346 -0.34744382 7.88997769 -2.875 11.8125 C-3.23980469 12.40998047 -3.60460937 13.00746094 -3.98046875 13.62304688 C-4.92373416 15.1236964 -5.95573045 16.56779899 -7 18 C-7.66 18 -8.32 18 -9 18 C-9.20625 18.556875 -9.4125 19.11375 -9.625 19.6875 C-11.55000774 22.92501302 -14.03850902 24.68231141 -17 27 C-17.495 26.01 -17.495 26.01 -18 25 C-18.7425 25.28875 -19.485 25.5775 -20.25 25.875 C-28.84036597 28.45210979 -37.51910516 29.20889293 -46.4375 29.6875 C-47.73421631 29.76013062 -47.73421631 29.76013062 -49.05712891 29.83422852 C-53.20805463 30.02504308 -56.94747795 30.10674627 -61 29 C-61 28.67 -61 28.34 -61 28 C-60.10796875 27.93941406 -59.2159375 27.87882812 -58.296875 27.81640625 C-56.54117188 27.69072266 -56.54117188 27.69072266 -54.75 27.5625 C-53.58984375 27.48128906 -52.4296875 27.40007812 -51.234375 27.31640625 C-48.157933 27.09587232 -48.157933 27.09587232 -45.8515625 26.4609375 C-43.69431557 25.92390134 -41.84252727 25.97302083 -39.625 26.0625 C-34.7351486 26.11067588 -30.82004949 25.4891314 -26.9375 22.3125 C-25 21 -25 21 -22.25 21.3125 C-21.5075 21.539375 -20.765 21.76625 -20 22 C-19.75121094 21.39671875 -19.50242187 20.7934375 -19.24609375 20.171875 C-17.80448856 17.65923399 -16.52506989 16.73579636 -14.0625 15.25 C-13.37285156 14.82203125 -12.68320312 14.3940625 -11.97265625 13.953125 C-10 13 -10 13 -7 13 C-7.495 11.515 -7.495 11.515 -8 10 C-6.3828125 7.51953125 -6.3828125 7.51953125 -4.125 4.8125 C-3.38507813 3.91144531 -2.64515625 3.01039063 -1.8828125 2.08203125 C-1.26148438 1.39496094 -0.64015625 0.70789063 0 0 Z " fill="#878787" transform="translate(310,348)"/>
<path d="M0 0 C2.81690147 2.90226212 2.99172712 4.5284459 3.0625 8.5625 C2 12 2 12 -0.6875 14.5 C-4.48779775 16.22088955 -6.06508482 16.22419583 -10 15 C-13 13 -13 13 -13.8125 10.1875 C-14.06940064 5.82018907 -13.22885572 3.41791045 -10.375 0.125 C-6.79623844 -1.57020284 -3.71516148 -1.27511898 0 0 Z " fill="#423D3F" transform="translate(306,207)"/>
<path d="M0 0 C-0.56589844 0.26554687 -1.13179688 0.53109375 -1.71484375 0.8046875 C-2.44832031 1.15789062 -3.18179688 1.51109375 -3.9375 1.875 C-4.66839844 2.22304688 -5.39929688 2.57109375 -6.15234375 2.9296875 C-8.16332459 3.8684977 -8.16332459 3.8684977 -9 6 C-7.35 6 -5.7 6 -4 6 C-4 6.33 -4 6.66 -4 7 C-5.23363281 7.16435547 -5.23363281 7.16435547 -6.4921875 7.33203125 C-11.92650272 8.10387972 -17.10641857 8.91694501 -22.3125 10.6875 C-26.94907516 12.20520054 -30.24435491 11.96874252 -35 11 C-35.24234375 11.61746094 -35.4846875 12.23492187 -35.734375 12.87109375 C-37.29175397 15.490759 -38.44593775 15.96090411 -41.25 17.0625 C-42.05179688 17.38992188 -42.85359375 17.71734375 -43.6796875 18.0546875 C-44.44539062 18.36664063 -45.21109375 18.67859375 -46 19 C-47.11375 19.556875 -48.2275 20.11375 -49.375 20.6875 C-53.47794061 22.7389703 -55.58644614 23.07356716 -60 22 C-55.44815773 18.96543848 -51.2206092 16.65058564 -46.0859375 14.80859375 C-44.07470859 14.02896007 -42.22082379 13.12747389 -40.3125 12.125 C-34.73734684 9.26678308 -28.87007309 7.16711124 -23 5 C-22.38157227 4.77103027 -21.76314453 4.54206055 -21.12597656 4.30615234 C-4.96577563 -1.65525854 -4.96577563 -1.65525854 0 0 Z " fill="#A7A7A7" transform="translate(292,290)"/>
<path d="M0 0 C1.90625 0.4140625 1.90625 0.4140625 4.40625 1.9765625 C6.51631839 5.40542364 6.53116523 7.45626601 5.90625 11.4140625 C3.84375 14.3515625 3.84375 14.3515625 0.90625 16.4140625 C-3.08423721 17.04413943 -5.11060857 17.04428137 -8.53125 14.8515625 C-10.70723954 11.45701882 -10.65002159 9.3774976 -10.09375 5.4140625 C-7.62708109 0.58350255 -5.16411242 -0.36611245 0 0 Z " fill="#3E3A3B" transform="translate(281.09375,182.5859375)"/>
<path d="M0 0 C2.475 0.495 2.475 0.495 5 1 C5.4375 3.125 5.4375 3.125 5 6 C1.25229722 10.32997298 -3.25709365 13.60335289 -9.02734375 14.21484375 C-14.68867093 14.45678081 -18.82883189 13.25650972 -24 11 C-23.67 9.35 -23.34 7.7 -23 6 C-21.60587891 6.05220703 -21.60587891 6.05220703 -20.18359375 6.10546875 C-10.64213189 6.42846766 -10.64213189 6.42846766 -2 3 C-1.34 2.01 -0.68 1.02 0 0 Z " fill="#222222" transform="translate(218,296)"/>
<path d="M0 0 C2 3 2 3 2 5 C3.32 4.67 4.64 4.34 6 4 C6.226875 4.61875 6.45375 5.2375 6.6875 5.875 C7.8440732 8.23244106 7.8440732 8.23244106 10.5 8.9375 C13 10 13 10 14.3125 12.625 C14.6528125 13.800625 14.6528125 13.800625 15 15 C15.99 15 16.98 15 18 15 C18 15.66 18 16.32 18 17 C18.556875 16.773125 19.11375 16.54625 19.6875 16.3125 C22 16 22 16 24.26171875 17.47265625 C27.51800975 19.28893268 29.43357959 19.28227856 33.125 19.125 C38.74439462 18.91479821 38.74439462 18.91479821 42 20 C42 20.66 42 21.32 42 22 C42.99 22 43.98 22 45 22 C45 22.66 45 23.32 45 24 C47.31 24.33 49.62 24.66 52 25 C52 25.66 52 26.32 52 27 C53.32 27.33 54.64 27.66 56 28 C52.31597622 29.35999009 50.30913977 28.59950076 46.75 27.125 C42.82319964 25.50207384 39.34505346 24.77453542 35.12353516 24.32226562 C31.36662256 23.75212023 27.87672181 22.47112948 24.3125 21.1875 C23.57966797 20.93935547 22.84683594 20.69121094 22.09179688 20.43554688 C17.69064187 18.87589501 14.56513575 17.09336737 11 14 C8.20283929 12.17831971 5.3666082 10.43233847 2.5234375 8.68359375 C0.35747593 7.23850174 -1.39010151 6.03668366 -3 4 C-3 3.01 -3 2.02 -3 1 C-2.01 0.67 -1.02 0.34 0 0 Z " fill="#8E8E8E" transform="translate(171,347)"/>
<path d="M0 0 C2.171875 0.31640625 2.171875 0.31640625 4 1 C3.63370166 7.34917127 3.63370166 7.34917127 0.6875 10.375 C-3.68322384 13.01776325 -7.42136474 13.18011052 -12.5 13.25 C-14.18609375 13.28867187 -14.18609375 13.28867187 -15.90625 13.328125 C-19.29521656 12.96868915 -20.70238492 12.50034582 -23 10 C-23 8.68 -23 7.36 -23 6 C-21.92621094 6.06960938 -20.85242188 6.13921875 -19.74609375 6.2109375 C-11.86665433 6.82764235 -11.86665433 6.82764235 -4.51953125 4.62890625 C-2.73953165 2.99999476 -2.73953165 2.99999476 -1.359375 1.21484375 C-0.68648438 0.61349609 -0.68648438 0.61349609 0 0 Z " fill="#232323" transform="translate(266,282)"/>
<path d="M0 0 C2 2 2 2 2 5 C2.5775 5.12375 3.155 5.2475 3.75 5.375 C6.02335767 6.00648824 7.9253529 6.88858191 10 8 C9.2265625 6.824375 9.2265625 6.824375 8.4375 5.625 C7.963125 4.75875 7.48875 3.8925 7 3 C7.33 2.34 7.66 1.68 8 1 C9.65 2.65 11.3 4.3 13 6 C12.34 4.35 11.68 2.7 11 1 C14.07853154 1.93071884 16.71985579 2.82042038 19.4375 4.5625 C21.97818976 6.21338055 21.97818976 6.21338055 25.1875 6.3125 C30.55806836 7.28096315 34.48803811 10.03136512 39 13 C38.67 13.66 38.34 14.32 38 15 C36.02 15 34.04 15 32 15 C31.67 14.34 31.34 13.68 31 13 C28.93626805 12.72483574 26.86974251 12.46427517 24.796875 12.26953125 C15.9086343 11.41298291 7.95009591 10.231834 0 6 C0 4.02 0 2.04 0 0 Z " fill="#7C7C7C" transform="translate(168,367)"/>
<path d="M0 0 C2.97 0.495 2.97 0.495 6 1 C6 1.66 6 2.32 6 3 C6.66 3 7.32 3 8 3 C9.23178862 4.43153813 10.45729357 5.86956293 11.6328125 7.34765625 C13.143449 9.23264727 13.143449 9.23264727 15.6875 11.625 C17.7395395 13.73250003 18.90351048 15.30861664 20 18 C19.01 18.66 18.02 19.32 17 20 C17 18.68 17 17.36 17 16 C16.01 16.33 15.02 16.66 14 17 C13.67 16.34 13.34 15.68 13 15 C12.01 15.495 12.01 15.495 11 16 C11.33 17.65 11.66 19.3 12 21 C11.34 21 10.68 21 10 21 C9.34 18.36 8.68 15.72 8 13 C7.01 13 6.02 13 5 13 C5 12.34 5 11.68 5 11 C4.34 11 3.68 11 3 11 C0.84694043 7.14243493 -0.39253254 4.44870215 0 0 Z " fill="#7B787B" transform="translate(128,213)"/>
<path d="M0 0 C0.33 0 0.66 0 1 0 C0.46878039 6.62696461 -0.90094226 12.33895907 -3 18.625 C-5.73611378 27.19120254 -6.97274585 35.00613093 -7 44 C-5.35 44.33 -3.7 44.66 -2 45 C-1.7525 44.30132812 -1.505 43.60265625 -1.25 42.8828125 C0.17750967 39.59061833 1.97952446 36.83885934 4 33.875 C4.70125 32.84117187 5.4025 31.80734375 6.125 30.7421875 C6.74375 29.83726562 7.3625 28.93234375 8 28 C8.66 27.01 9.32 26.02 10 25 C10.66 25 11.32 25 12 25 C12.33 24.01 12.66 23.02 13 22 C13.33 22.66 13.66 23.32 14 24 C12.96777344 26.01538086 12.96777344 26.01538086 11.359375 28.46484375 C10.78316406 29.34720703 10.20695312 30.22957031 9.61328125 31.13867188 C8.99839844 32.06228516 8.38351562 32.98589844 7.75 33.9375 C7.15058594 34.85724609 6.55117188 35.77699219 5.93359375 36.72460938 C0.5765792 44.86703393 0.5765792 44.86703393 -2 47 C-5.0625 47.375 -5.0625 47.375 -8 47 C-10.82631858 42.76052214 -10.51974941 38.75736356 -9.60400391 33.89916992 C-9.0594648 31.69579863 -8.45097132 29.52172501 -7.8125 27.34375 C-7.59053955 26.55601196 -7.3685791 25.76827393 -7.13989258 24.95666504 C-6.43632763 22.46822135 -5.71844586 19.98418327 -5 17.5 C-4.5172727 15.80235501 -4.03549256 14.1044404 -3.5546875 12.40625 C-2.3807152 8.26763658 -1.19389479 4.13290815 0 0 Z " fill="#D6D3D4" transform="translate(292,129)"/>
<path d="M0 0 C2.87378669 2.23516742 4.97058844 4.21183059 5.63818359 7.88696289 C5.64156738 8.6577417 5.64495117 9.42852051 5.6484375 10.22265625 C5.65423828 11.11009521 5.66003906 11.99753418 5.66601562 12.91186523 C5.64571289 14.34767944 5.64571289 14.34767944 5.625 15.8125 C5.61919922 16.80515869 5.61339844 17.79781738 5.60742188 18.82055664 C5.40046843 31.20614539 3.84886358 43.47928896 2.25 55.75 C1.92 55.75 1.59 55.75 1.25 55.75 C1.2221976 54.12510429 1.2032554 52.50005717 1.1875 50.875 C1.17589844 49.97007812 1.16429687 49.06515625 1.15234375 48.1328125 C1.22895302 45.47906755 1.43158485 42.96259275 1.73046875 40.33203125 C2.39281 34.01103062 2.54301219 27.69570449 2.60009766 21.34301758 C2.61685501 19.97663579 2.644396 18.61034825 2.68212891 17.24438477 C2.73667946 15.24807182 2.75559849 13.25088469 2.7734375 11.25390625 C2.79325684 10.07642822 2.81307617 8.8989502 2.83349609 7.68579102 C2.54000838 4.57719657 2.54000838 4.57719657 -0.06396484 2.86694336 C-3.54371719 1.41994582 -6.01003197 1.34928914 -9.75 1.75 C-13.47803465 3.49728778 -13.47803465 3.49728778 -15.75 6.75 C-15.98029956 9.12123246 -16.16119942 11.49741943 -16.3125 13.875 C-16.39628906 15.15632813 -16.48007813 16.43765625 -16.56640625 17.7578125 C-16.65728516 19.23894531 -16.65728516 19.23894531 -16.75 20.75 C-17.08 20.75 -17.41 20.75 -17.75 20.75 C-17.85854617 18.35293877 -17.93753157 15.96084162 -18 13.5625 C-18.03351563 12.88896484 -18.06703125 12.21542969 -18.1015625 11.52148438 C-18.17306788 7.85683362 -17.87391409 5.93930613 -15.84765625 2.84375 C-11.23367388 -1.76164022 -6.12452946 -2.78387703 0 0 Z " fill="#E0DFDF" transform="translate(248.75,103.25)"/>
<path d="M0 0 C2.5 1.6875 2.5 1.6875 4 4 C3.80398092 6.74426716 3.22394754 8.55210492 2 11 C0.22825181 10.91276622 -1.54247377 10.80458345 -3.3125 10.6875 C-4.29863281 10.62949219 -5.28476562 10.57148438 -6.30078125 10.51171875 C-9 10 -9 10 -10.85546875 8.70703125 C-12 7 -12 7 -12 3 C-8.19571489 -0.22787827 -4.87544825 -0.6205116 0 0 Z " fill="#EBEBEB" transform="translate(265,242)"/>
<path d="M0 0 C0.66 0.33 1.32 0.66 2 1 C1.50628906 1.55429687 1.01257813 2.10859375 0.50390625 2.6796875 C-0.45708984 3.76636719 -0.45708984 3.76636719 -1.4375 4.875 C-2.07558594 5.59429687 -2.71367187 6.31359375 -3.37109375 7.0546875 C-7.36693103 11.82669461 -5.92810053 17.45556775 -5.6875 23.375 C-5.65205078 24.52484375 -5.61660156 25.6746875 -5.58007812 26.859375 C-5.53689453 27.96539062 -5.49371094 29.07140625 -5.44921875 30.2109375 C-5.41143311 31.22462402 -5.37364746 32.23831055 -5.3347168 33.28271484 C-5.15501339 35.99450007 -5.15501339 35.99450007 -3.90942383 38.17431641 C-3 40 -3 40 -4 43 C-10.06596577 36.93403423 -10.41075433 27.24713872 -10.5 19.125 C-10.51820801 18.31683838 -10.53641602 17.50867676 -10.55517578 16.67602539 C-10.50086005 11.32814258 -9.5555947 8.22066997 -6 4 C-4.08452741 2.35691113 -2.18881487 1.29339061 0 0 Z " fill="#A0A0A0" transform="translate(148,307)"/>
<path d="M0 0 C1.73152958 1.07955259 3.46011684 2.16382512 5.1875 3.25 C6.15042969 3.85328125 7.11335937 4.4565625 8.10546875 5.078125 C11 7 11 7 13.5 9.10546875 C16.23768204 11.18011842 18.53661248 12.07071754 21.8125 13.0625 C25.33744808 14.15704378 28.77731557 15.27686146 32.1875 16.6875 C35.80450392 18.10548686 39.25148565 18.43211787 43.1171875 18.59375 C45 19 45 19 47 22 C38.46651441 21.05183493 30.5684229 20.09500474 22.94921875 15.953125 C18.87257782 13.95973745 14.53639907 13 10 13 C5.67788826 10.15650544 2.57720053 6.45252517 0 2 C0 1.34 0 0.68 0 0 Z " fill="#818181" transform="translate(171,353)"/>
<path d="M0 0 C1.11503906 0.33902344 2.23007813 0.67804688 3.37890625 1.02734375 C5.88744578 1.87633861 8.11947032 2.79863541 10.4375 4.0625 C10.4375 4.7225 10.4375 5.3825 10.4375 6.0625 C11.0975 6.3925 11.7575 6.7225 12.4375 7.0625 C12.4375 7.7225 12.4375 8.3825 12.4375 9.0625 C13.4275 9.3925 14.4175 9.7225 15.4375 10.0625 C7.04542315 9.50302821 -1.47341813 7.78855458 -8.5625 3.0625 C-8.5625 2.4025 -8.5625 1.7425 -8.5625 1.0625 C-9.5525 1.0625 -10.5425 1.0625 -11.5625 1.0625 C-11.5625 0.4025 -11.5625 -0.2575 -11.5625 -0.9375 C-12.2225 -1.2675 -12.8825 -1.5975 -13.5625 -1.9375 C-9.43914196 -3.99917902 -4.17661468 -1.28250625 0 0 Z " fill="#282828" transform="translate(176.5625,380.9375)"/>
<path d="M0 0 C17.67003877 7.61994679 29.75367715 30.25388205 38.1015625 46.57421875 C39 49 39 49 38 52 C38 51.34 38 50.68 38 50 C37.01 49.67 36.02 49.34 35 49 C34.05078125 47.00390625 34.05078125 47.00390625 33.3125 44.5625 C33.06113281 43.75941406 32.80976563 42.95632813 32.55078125 42.12890625 C32 40 32 40 32 38 C31.34 38 30.68 38 30 38 C28.59765625 35.91796875 28.59765625 35.91796875 27.0625 33.1875 C25.27061831 30.01160738 23.60296465 27.5318454 21 25 C20.00884968 23.2415075 19.01869264 21.48232745 18.05078125 19.7109375 C16.6772367 17.47445976 14.88097308 15.81379547 13 14 C13 13.34 13 12.68 13 12 C12.41476562 11.74347656 11.82953125 11.48695313 11.2265625 11.22265625 C8.80765392 9.89437838 7.26801128 8.43475199 5.375 6.4375 C2.95478041 3.85984611 2.95478041 3.85984611 0 2 C0 1.34 0 0.68 0 0 Z " fill="#D2D2D2" transform="translate(264,222)"/>
<path d="M0 0 C3.86983142 -0.26111319 5.7677039 0.1351059 8.875 2.4375 C26.47599665 14.74365138 43.81782584 22.93423603 65.5625 23.625 C66.57119141 23.66367187 67.57988281 23.70234375 68.61914062 23.7421875 C71.0792564 23.83546203 73.53938366 23.92125516 76 24 C76 24.33 76 24.66 76 25 C53.29073755 27.3327584 35.62866702 21.66176587 16.02392578 10.18164062 C13.32609143 8.60654795 10.61136819 7.06187401 7.89624023 5.5168457 C5.26094249 4.01682622 2.63049421 2.50842402 0 1 C0 0.67 0 0.34 0 0 Z " fill="#E5E5E5" transform="translate(154,408)"/>
<path d="M0 0 C1 3 1 3 1 7 C1.99 6.67 2.98 6.34 4 6 C4 6.66 4 7.32 4 8 C2.515625 9.1171875 2.515625 9.1171875 0 10 C-2.85954576 9.5004408 -5.47495794 8.91436709 -8.25 8.125 C-9.36761719 7.82529297 -9.36761719 7.82529297 -10.5078125 7.51953125 C-12.34200518 7.02571014 -14.17150829 6.51452906 -16 6 C-14.85923406 2.57770218 -14.43315842 2.33221324 -11.375 0.75 C-7.11856918 -1.27833527 -4.51535265 -1.12883816 0 0 Z " fill="#DDDDDD" transform="translate(299,290)"/>
<path d="M0 0 C3.61663508 2.08652024 5.67529536 3.51294304 8 7 C9.40402251 14.31362989 6.65298141 19.77014853 3.125 26 C2.66480469 26.85722656 2.20460938 27.71445313 1.73046875 28.59765625 C-1.68349577 34.84174789 -1.68349577 34.84174789 -4 36 C-3.67 34.35 -3.34 32.7 -3 31 C-2.34 31 -1.68 31 -1 31 C-0.80664062 30.40832031 -0.61328125 29.81664062 -0.4140625 29.20703125 C0.94414719 25.0853355 2.32050585 21.0049476 4 17 C4.66 17 5.32 17 6 17 C6.30500725 10.23567069 6.30500725 10.23567069 3.5859375 4.37890625 C-0.19682828 2.10424753 -3.58091112 1.49783081 -8 2 C-8.99 2.33 -9.98 2.66 -11 3 C-12.07254351 5.26225382 -12.07254351 5.26225382 -13 8 C-13.98482022 10.00751815 -14.98152514 12.00934459 -16 14 C-17 11 -17 11 -16.21484375 8.84375 C-14.14711531 5.04975286 -12.60797927 2.43981479 -9.0625 -0.125 C-5.44283317 -1.15919052 -3.59008067 -1.12190021 0 0 Z " fill="#E5E3E3" transform="translate(310,115)"/>
<path d="M0 0 C-0.56589844 0.26554687 -1.13179688 0.53109375 -1.71484375 0.8046875 C-2.44832031 1.15789062 -3.18179687 1.51109375 -3.9375 1.875 C-4.66839844 2.22304688 -5.39929688 2.57109375 -6.15234375 2.9296875 C-8.16332459 3.8684977 -8.16332459 3.8684977 -9 6 C-7.35 6 -5.7 6 -4 6 C-4 6.33 -4 6.66 -4 7 C-17.6332574 9.11161731 -17.6332574 9.11161731 -24 10 C-21 4 -21 4 -18.453125 2.96484375 C-17.39609375 2.62582031 -16.3390625 2.28679687 -15.25 1.9375 C-14.20328125 1.59589844 -13.1565625 1.25429688 -12.078125 0.90234375 C-4.21134369 -1.40378123 -4.21134369 -1.40378123 0 0 Z " fill="#B1B1B1" transform="translate(292,290)"/>
<path d="M0 0 C-24.81646548 14.25043662 -24.81646548 14.25043662 -34 13 C-35 12 -35 12 -35.375 9.125 C-35.25125 8.09375 -35.1275 7.0625 -35 6 C-32.5 4.125 -32.5 4.125 -30 3 C-30.66 5.64 -31.32 8.28 -32 11 C-23.86098911 9.58487549 -17.77893438 6.44074943 -10.66601562 2.36914062 C-9.86228516 1.92376953 -9.05855469 1.47839844 -8.23046875 1.01953125 C-7.15381958 0.40235229 -7.15381958 0.40235229 -6.05541992 -0.22729492 C-3.60442267 -1.14871152 -2.42488769 -0.87492431 0 0 Z " fill="#C7C4C5" transform="translate(347,192)"/>
<path d="M0 0 C3.80960265 4.54221854 3.80960265 4.54221854 4.8984375 7.16015625 C6.59557589 10.76507076 8.19690723 13.29303197 12.03613281 14.79833984 C15.43236342 15.77257684 18.85675403 16.52509917 22.3125 17.25561523 C31.42871812 19.18796609 39.49366245 21.99665055 46 29 C42.55230208 28.25082761 39.81255716 26.86891058 36.7199707 25.16918945 C29.06870263 21.00303952 22.99332129 19.05386004 14.20703125 18.64453125 C9.34881186 17.66815342 7.3284675 14.77129 4.453125 10.9375 C2.21232167 7.32893359 0.40588702 4.3294615 0 0 Z " fill="#E0E0E0" transform="translate(218,193)"/>
<path d="M0 0 C2 1 2 1 2 1 Z M2.6875 1.1875 C6 2 6 2 9 3 C-7.70842825 9.33485194 -7.70842825 9.33485194 -16 12 C-16.66 10.02 -17.32 8.04 -18 6 C-17.27554688 5.97421875 -16.55109375 5.9484375 -15.8046875 5.921875 C-8.89359556 5.51642427 -3.52540536 0.87158956 2.6875 1.1875 Z " fill="#5A5A5A" transform="translate(268,290)"/>
<path d="M0 0 C2.67195351 1.96880785 3.75034256 3.35089065 4.9375 6.4375 C5.0193592 9.79372707 3.95463467 11.32142656 2 14 C-0.39286884 16.39286884 -1.09447094 16.32050616 -4.375 16.375 C-7.6192733 16.2967619 -8.74554414 16.17175771 -11.5 14.3125 C-13.21981795 11.661114 -13.92452532 10.16993644 -14 7 C-12.83112984 3.86250641 -11.85573818 1.70292779 -9.25 -0.4375 C-5.86232946 -1.28441764 -3.36855977 -0.84213994 0 0 Z M-12 5 C-12.83333333 8 -12.83333333 8 -12 11 C-9.9901643 13.59121904 -9.9901643 13.59121904 -7 15 C-3.78617168 14.93572343 -1.83862565 14.53112958 0.875 12.8125 C2.56589731 10.08827656 2.38457172 8.14066901 2 5 C1.02896212 2.53813421 1.02896212 2.53813421 -1 1 C-5.96111211 0.13719789 -8.66151655 1.26875379 -12 5 Z " fill="#E0DEDF" transform="translate(249,175)"/>
<path d="M0 0 C0.33 0.99 0.66 1.98 1 3 C-4.44058747 7.66336069 -8.52465596 9.40086625 -15.640625 9.26953125 C-19.41855386 8.83794666 -22.52477332 7.51646255 -26 6 C-25.67 4.35 -25.34 2.7 -25 1 C-23.35 1.33 -21.7 1.66 -20 2 C-20 2.66 -20 3.32 -20 4 C-15.37107161 5.54297613 -10.82846242 5.64654625 -6 5 C-3.41668974 3.59538643 -2.02594419 2.19020993 0 0 Z " fill="#1A1A1A" transform="translate(220,301)"/>
<path d="M0 0 C1.90625 0.4140625 1.90625 0.4140625 4.40625 1.9765625 C6.51631839 5.40542364 6.53116523 7.45626601 5.90625 11.4140625 C3.84375 14.3515625 3.84375 14.3515625 0.90625 16.4140625 C-3.08423721 17.04413943 -5.11060857 17.04428137 -8.53125 14.8515625 C-10.70723954 11.45701882 -10.65002159 9.3774976 -10.09375 5.4140625 C-7.62708109 0.58350255 -5.16411242 -0.36611245 0 0 Z M-8.09375 4.4140625 C-8.4113746 6.32412556 -8.4113746 6.32412556 -8.34375 8.4140625 C-8.34890625 9.1153125 -8.3540625 9.8165625 -8.359375 10.5390625 C-8.25080515 12.6576294 -8.25080515 12.6576294 -6.09375 14.4140625 C-3.40535615 14.68398156 -0.80233064 14.50143607 1.90625 14.4140625 C3.99526197 11.01941804 4.24986606 8.36564721 3.90625 4.4140625 C2.1498169 2.25700735 2.1498169 2.25700735 0.03125 2.1484375 C-0.67 2.15359375 -1.37125 2.15875 -2.09375 2.1640625 C-2.795 2.15890625 -3.49625 2.15375 -4.21875 2.1484375 C-6.3373169 2.25700735 -6.3373169 2.25700735 -8.09375 4.4140625 Z " fill="#D6D4D5" transform="translate(281.09375,182.5859375)"/>
<path d="M0 0 C0.33 0 0.66 0 1 0 C1.08166849 3.00056084 1.14081551 5.9988539 1.1875 9 C1.22520508 10.25876953 1.22520508 10.25876953 1.26367188 11.54296875 C1.32231327 16.58612852 0.75802374 20.43689031 -1.2175293 25.07592773 C-2.00444405 27.01092779 -2.52345724 28.87823437 -3 30.91015625 C-4.08733008 35.50322721 -5.51797224 39.95840125 -7 44.4375 C-7.39058594 45.65856445 -7.39058594 45.65856445 -7.7890625 46.90429688 C-8.04429688 47.67708984 -8.29953125 48.44988281 -8.5625 49.24609375 C-8.79066406 49.94404053 -9.01882812 50.6419873 -9.25390625 51.36108398 C-10 53 -10 53 -12 54 C-10.24736715 46.60529548 -8.21778744 39.35240145 -5.94140625 32.1027832 C-2.58112286 21.3411064 0.30398445 11.34241978 0 0 Z " fill="#DEDEDE" transform="translate(112,253)"/>
<path d="M0 0 C1.98 1.65 3.96 3.3 6 5 C5.34 3.35 4.68 1.7 4 0 C7.07853154 0.93071884 9.71985579 1.82042038 12.4375 3.5625 C15.05348037 5.24509973 15.05348037 5.24509973 18.6875 5.4375 C19.780625 5.623125 20.87375 5.80875 22 6 C23.20703125 8.03515625 23.20703125 8.03515625 24 10 C20.55759636 9.64105309 17.12305964 9.23158001 13.6875 8.8125 C12.71103516 8.71130859 11.73457031 8.61011719 10.72851562 8.50585938 C3.51263559 7.58837635 3.51263559 7.58837635 0.83203125 4.51171875 C0 2 0 2 0 0 Z " fill="#919191" transform="translate(175,368)"/>
<path d="M0 0 C2.81690147 2.90226212 2.99172712 4.5284459 3.0625 8.5625 C2 12 2 12 -0.6875 14.5 C-4.48779775 16.22088955 -6.06508482 16.22419583 -10 15 C-13 13 -13 13 -13.8125 10.1875 C-14.06940064 5.82018907 -13.22885572 3.41791045 -10.375 0.125 C-6.79623844 -1.57020284 -3.71516148 -1.27511898 0 0 Z M-10.9375 2.0625 C-12.63335287 5.15493758 -12.43060657 7.55514741 -12 11 C-9.77728061 13.65016543 -8.3541854 13.94940209 -4.9375 14.4375 C-1.97498771 14.24961653 -1.97498771 14.24961653 -0.0625 12.4375 C1.44640049 8.97590475 0.8701627 6.61452199 0 3 C-1.93731528 0.63589512 -1.93731528 0.63589512 -5.4375 0.6875 C-8.84426951 0.74559145 -8.84426951 0.74559145 -10.9375 2.0625 Z " fill="#E3E1E2" transform="translate(306,207)"/>
<path d="M0 0 C0.33 0 0.66 0 1 0 C1.58714628 4.87147926 -0.41442784 7.89483408 -3 11.8125 C-3.3815625 12.40998047 -3.763125 13.00746094 -4.15625 13.62304688 C-5.09413859 15.0884978 -6.0457295 16.5451635 -7 18 C-9.31 17.67 -11.62 17.34 -14 17 C-12.1875 15 -12.1875 15 -10 13 C-9.01 13 -8.02 13 -7 13 C-7.33 12.01 -7.66 11.02 -8 10 C-6.3828125 7.51953125 -6.3828125 7.51953125 -4.125 4.8125 C-3.38507813 3.91144531 -2.64515625 3.01039063 -1.8828125 2.08203125 C-1.26148438 1.39496094 -0.64015625 0.70789063 0 0 Z " fill="#A2A2A2" transform="translate(310,348)"/>
<path d="M0 0 C6.33988237 4.43791766 9.9261388 10.51697723 14 17 C14.75925781 16.77183594 15.51851562 16.54367188 16.30078125 16.30859375 C17.29464844 16.02113281 18.28851563 15.73367187 19.3125 15.4375 C20.29863281 15.14746094 21.28476563 14.85742188 22.30078125 14.55859375 C25 14 25 14 28 15 C17.62642369 19.59225513 17.62642369 19.59225513 12 19 C11.7525 18.4225 11.505 17.845 11.25 17.25 C9.80852544 14.6553458 8.13082069 13.07163123 6 11 C4.90012971 9.84891027 3.81768679 8.6810026 2.75 7.5 C2.22921875 6.9328125 1.7084375 6.365625 1.171875 5.78125 C0 4 0 4 0 0 Z " fill="#E4E4E4" transform="translate(146,214)"/>
<path d="M0 0 C1.2375 0.4125 2.475 0.825 3.75 1.25 C10.02640693 3.1527613 16.42777132 4.34485124 22.86621094 5.55371094 C27.38299808 6.41513301 31.66891655 7.40768991 36 9 C36 9.33 36 9.66 36 10 C30.30875794 10.2136123 25.18188256 9.44966859 19.625 8.25 C18.78662598 8.07098145 17.94825195 7.89196289 17.08447266 7.70751953 C11.33071571 6.42404949 6.18366755 4.8798153 1 2 C0.67 1.34 0.34 0.68 0 0 Z " fill="#D4D4D4" transform="translate(121,398)"/>
<path d="M0 0 C0.33 0.66 0.66 1.32 1 2 C-0.32682266 5.18173393 -2.19659468 8.06828611 -4 11 C-4.38929688 11.66644531 -4.77859375 12.33289063 -5.1796875 13.01953125 C-9.18418134 19.12576254 -14.90555273 22.77557598 -20.85546875 26.80078125 C-23.19979377 28.44035266 -25.11567844 29.88270778 -27 32 C-26.75960249 28.75463364 -25.87212687 27.88148344 -23.4375 25.625 C-21.61624295 24.19621723 -19.76003016 22.82369563 -17.89453125 21.453125 C-17.18683594 20.93234375 -16.47914063 20.4115625 -15.75 19.875 C-15.08484375 19.39804687 -14.4196875 18.92109375 -13.734375 18.4296875 C-11.74410663 16.92946495 -11.74410663 16.92946495 -10 14 C-9.34 14 -8.68 14 -8 14 C-7.73445313 13.27425781 -7.46890625 12.54851562 -7.1953125 11.80078125 C-5.99927052 8.99829072 -4.59670893 6.69520648 -2.875 4.1875 C-2.33617187 3.39730469 -1.79734375 2.60710937 -1.2421875 1.79296875 C-0.83226562 1.20128906 -0.42234375 0.60960937 0 0 Z " fill="#E4E4E4" transform="translate(311,352)"/>
<path d="M0 0 C0.6875 1.75 0.6875 1.75 1 4 C0.5153125 4.598125 0.030625 5.19625 -0.46875 5.8125 C-2.35993362 8.51419088 -2.31599418 9.99481412 -2.1875 13.25 C-2.14689453 14.58804687 -2.14689453 14.58804687 -2.10546875 15.953125 C-2.05326172 16.96632813 -2.05326172 16.96632813 -2 18 C-0.72125 18.144375 0.5575 18.28875 1.875 18.4375 C4.25692894 18.70642746 5.84452691 18.92226346 8 20 C6 22 6 22 3.90625 22.265625 C3.1121875 22.26046875 2.318125 22.2553125 1.5 22.25 C0.7059375 22.25515625 -0.088125 22.2603125 -0.90625 22.265625 C-3 22 -3 22 -5 20 C-6.06738308 12.62760988 -4.83813074 7.28057758 -1 1 C-0.67 0.67 -0.34 0.34 0 0 Z " fill="#898989" transform="translate(176,271)"/>
<path d="M0 0 C0.66 0 1.32 0 2 0 C2.18175781 0.62648438 2.36351562 1.25296875 2.55078125 1.8984375 C2.80214844 2.71570313 3.05351562 3.53296875 3.3125 4.375 C3.55613281 5.18710937 3.79976562 5.99921875 4.05078125 6.8359375 C4.91368185 9.33184629 4.91368185 9.33184629 8 11 C9.0625 13.375 9.0625 13.375 10 16 C10.65213539 17.34050052 11.31379969 18.67661368 12 20 C11.34 20.66 10.68 21.32 10 22 C6.91046332 19.38221892 5.54830896 16.33262279 3.875 12.6875 C3.35679687 11.57761719 2.83859375 10.46773438 2.3046875 9.32421875 C1.0662636 6.1688333 0.41593048 3.35280545 0 0 Z " fill="#303030" transform="translate(137,345)"/>
<path d="M0 0 C0.33 0 0.66 0 1 0 C1.02578125 0.94359375 1.0515625 1.8871875 1.078125 2.859375 C1.42218912 10.64773561 2.38617087 17.02172 5.14453125 24.390625 C6.26136533 27.79722392 6.3221896 30.45591441 6 34 C4 33 4 33 2.9296875 30.5078125 C-0.29138967 20.17650572 -0.41199588 10.73478165 0 0 Z " fill="#707070" transform="translate(137,321)"/>
<path d="M0 0 C1.9375 0.8125 1.9375 0.8125 4 2 C4.33 2.99 4.66 3.98 5 5 C5.99 5.33 6.98 5.66 8 6 C9.89083385 10.57780828 10 14.08760636 10 19 C9.34 19 8.68 19 8 19 C7.75765625 18.33613281 7.5153125 17.67226562 7.265625 16.98828125 C5.35387766 11.9515623 3.44411825 8.18214359 0 4 C0 2.68 0 1.36 0 0 Z " fill="#999699" transform="translate(130,215)"/>
<path d="M0 0 C3.06270989 2.88653631 5.39196899 5.89641706 7.75 9.375 C11.30948914 14.34372927 14.88156762 17.72462455 20 21 C20.60585937 21.41121094 21.21171875 21.82242187 21.8359375 22.24609375 C23.21305707 23.18033684 24.60473599 24.09307839 26 25 C25.34 25.33 24.68 25.66 24 26 C13.09801856 20.50381035 5.43264191 12.88518361 0 2 C0 1.34 0 0.68 0 0 Z " fill="#DEDEDE" transform="translate(96,374)"/>
<path d="M0 0 C2.64 0 5.28 0 8 0 C6.35 1.98 4.7 3.96 3 6 C2.67 5.01 2.34 4.02 2 3 C0.948125 3.8971875 0.948125 3.8971875 -0.125 4.8125 C-4.59252099 8.21170075 -8.26853575 10.50571743 -14 10 C-11.60578294 7.28074022 -9.14304439 5.95718828 -5.875 4.4375 C-2.23783085 2.95747651 -2.23783085 2.95747651 0 0 Z " fill="#BDBDBD" transform="translate(257,301)"/>
<path d="M0 0 C9.48192118 4.08894037 18.3057876 14.55006999 24 23 C24 23.99 24 24.98 24 26 C22.16056628 24.04709472 20.32840869 22.08818082 18.5 20.125 C17.97535156 19.56941406 17.45070313 19.01382813 16.91015625 18.44140625 C13 14.2265625 13 14.2265625 13 12 C12.41476562 11.74347656 11.82953125 11.48695313 11.2265625 11.22265625 C8.80765392 9.89437838 7.26801128 8.43475199 5.375 6.4375 C2.95478041 3.85984611 2.95478041 3.85984611 0 2 C0 1.34 0 0.68 0 0 Z " fill="#E0E0E0" transform="translate(264,222)"/>
<path d="M0 0 C0.33 0 0.66 0 1 0 C2.36834441 13.0411229 3.31309834 25.88465846 3 39 C2.67 39 2.34 39 2 39 C-0.33184791 26.00827595 -0.21258186 13.16208764 0 0 Z " fill="#C5C2C2" transform="translate(232,110)"/>
<path d="M0 0 C2 3 2 3 2 5 C3.32 4.67 4.64 4.34 6 4 C6.226875 4.61875 6.45375 5.2375 6.6875 5.875 C8.38416443 8.6219805 10.05251711 8.86635273 13 10 C13.33 10.99 13.66 11.98 14 13 C13.34 13 12.68 13 12 13 C12 12.34 12 11.68 12 11 C11.39671875 10.87882812 10.7934375 10.75765625 10.171875 10.6328125 C8.97304687 10.38144531 8.97304687 10.38144531 7.75 10.125 C6.96109375 9.96257812 6.1721875 9.80015625 5.359375 9.6328125 C1.20502454 8.51856618 -0.56884892 7.64672662 -3 4 C-3 3.01 -3 2.02 -3 1 C-2.01 0.67 -1.02 0.34 0 0 Z " fill="#A4A4A4" transform="translate(171,347)"/>
<path d="M0 0 C0.66 0.33 1.32 0.66 2 1 C0.56351736 2.12629875 -0.87422585 3.2509899 -2.3125 4.375 C-3.11300781 5.00148438 -3.91351563 5.62796875 -4.73828125 6.2734375 C-8.60281599 9.22356592 -10.86264629 10.28442209 -15.6875 10.625 C-16.68136719 10.69976562 -17.67523438 10.77453125 -18.69921875 10.8515625 C-19.45847656 10.90054687 -20.21773437 10.94953125 -21 11 C-17.80876148 8.87250766 -14.49325592 7.19236463 -11.0625 5.5 C-10.44181641 5.19191406 -9.82113281 4.88382812 -9.18164062 4.56640625 C-7.45510351 3.70957313 -5.72758388 2.85472061 -4 2 C-3.23558594 1.5771875 -2.47117188 1.154375 -1.68359375 0.71875 C-1.12800781 0.4815625 -0.57242188 0.244375 0 0 Z " fill="#9D9D9D" transform="translate(230,312)"/>
<path d="M0 0 C0.33 0.66 0.66 1.32 1 2 C0.33333333 4 -0.33333333 6 -1 8 C-1.3365728 9.682864 -1.64656776 11.37114819 -1.9375 13.0625 C-3.03498203 19.43667566 -4.50003746 25.7101571 -6 32 C-6.33 32 -6.66 32 -7 32 C-7.26538908 25.11385182 -6.38729174 19.26824583 -4.625 12.625 C-4.40328125 11.73683594 -4.1815625 10.84867187 -3.953125 9.93359375 C-2.96793784 6.10295426 -2.21959802 3.32939703 0 0 Z " fill="#CDCDCD" transform="translate(101,306)"/>
<path d="M0 0 C1.07421301 3.41944143 0.97545166 6.37458406 0.8125 9.9375 C0.74217161 16.1756284 1.9824351 21.26146265 4.02734375 27.125 C4.91512507 29.7491247 5.5241497 32.27513089 6 35 C1.01553061 31.67702041 0.16704603 26.70234865 -1 21 C-2.3163355 4.632671 -2.3163355 4.632671 0 0 Z " fill="#898989" transform="translate(139,315)"/>
<path d="M0 0 C0.33 0.66 0.66 1.32 1 2 C-0.98 4.31 -2.96 6.62 -5 9 C-5.33 8.01 -5.66 7.02 -6 6 C-7.65 6.33 -9.3 6.66 -11 7 C-10.5625 4.625 -10.5625 4.625 -9 2 C-6.05880129 0.92998438 -3.09415757 0.42656082 0 0 Z " fill="#8F8F8F" transform="translate(301,364)"/>
<path d="M0 0 C1.41791408 0.45445964 2.83428046 0.91374944 4.25 1.375 C5.43335938 1.75785156 5.43335938 1.75785156 6.640625 2.1484375 C8.86627958 2.95173667 10.90931672 3.89711662 13 5 C12.67 6.32 12.34 7.64 12 9 C6.73829306 7.58832253 3.27828642 5.25149768 -1 2 C-0.67 1.34 -0.34 0.68 0 0 Z " fill="#707070" transform="translate(184,365)"/>
<path d="M0 0 C-0.375 1.9375 -0.375 1.9375 -1 4 C-3.73905345 5.36952673 -5.97087332 5.12621361 -9 5 C-9.66 4.67 -10.32 4.34 -11 4 C-10.67 2.68 -10.34 1.36 -10 0 C-6.30458414 -0.95024979 -3.69541586 -0.95024979 0 0 Z " fill="#545554" transform="translate(291,307)"/>
<path d="M0 0 C-0.56589844 0.26554687 -1.13179688 0.53109375 -1.71484375 0.8046875 C-2.44832031 1.15789062 -3.18179687 1.51109375 -3.9375 1.875 C-5.03384766 2.39707031 -5.03384766 2.39707031 -6.15234375 2.9296875 C-8.16332459 3.8684977 -8.16332459 3.8684977 -9 6 C-7.35 6 -5.7 6 -4 6 C-4 6.33 -4 6.66 -4 7 C-7.96 7 -11.92 7 -16 7 C-14.37660195 5.29115995 -12.70680947 3.62553283 -11 2 C-10.34 2 -9.68 2 -9 2 C-9 1.34 -9 0.68 -9 0 C-5.5657338 -0.85856655 -3.38317487 -0.97591583 0 0 Z " fill="#CACACA" transform="translate(292,290)"/>
<path d="M0 0 C0.33 0 0.66 0 1 0 C2.14555447 4.81132876 1.6236274 7.39972237 0 12 C-0.45177298 14.99054068 -0.74554989 17.98677498 -1 21 C-1.33 21 -1.66 21 -2 21 C-3.27296741 13.36219554 -4.17946284 6.9657714 0 0 Z " fill="#5C595A" transform="translate(127,213)"/>
<path d="M0 0 C0.86625 0.33064453 0.86625 0.33064453 1.75 0.66796875 C-3.3298005 7.35375429 -3.3298005 7.35375429 -6.8125 8.54296875 C-7.616875 8.58421875 -8.42125 8.62546875 -9.25 8.66796875 C-10.178125 8.85359375 -11.10625 9.03921875 -12.0625 9.23046875 C-12.784375 9.37484375 -13.50625 9.51921875 -14.25 9.66796875 C-11.77424786 6.98590393 -9.09519596 4.63268716 -6.25 2.35546875 C-5.59 1.82308594 -4.93 1.29070312 -4.25 0.7421875 C-2.25 -0.33203125 -2.25 -0.33203125 0 0 Z " fill="#B9B9B9" transform="translate(234.25,312.33203125)"/>
<path d="M0 0 C0.66 0.33 1.32 0.66 2 1 C1.08486681 3.28783297 0.34515354 4.73449728 -1.625 6.25 C-4.46595291 7.14714303 -7.06802849 7.08687771 -10.02734375 7.00390625 C-12.44526904 6.99911828 -14.65928174 7.41482044 -17 8 C-15.42183864 4.84367728 -12.23690361 4.49773193 -9.0625 3.4375 C-4.44966997 1.9204475 -4.44966997 1.9204475 0 0 Z " fill="#9B9B9B" transform="translate(269,295)"/>
<path d="M0 0 C0.99 0.33 1.98 0.66 3 1 C0.730384 2.14829977 -1.54060778 3.29371978 -3.8125 4.4375 C-4.45509766 4.76298828 -5.09769531 5.08847656 -5.75976562 5.42382812 C-10.03307488 7.5715535 -13.38584258 9.1412157 -18.1875 9.0625 C-20.0746875 9.0315625 -20.0746875 9.0315625 -22 9 C-18.89256779 6.92837853 -16.85675273 6.40310655 -13.25 5.625 C-9.44072324 4.73140908 -6.26610153 3.81701165 -2.9375 1.75 C-1.968125 1.1725 -0.99875 0.595 0 0 Z " fill="#D3D3D3" transform="translate(249,423)"/>
<path d="M0 0 C0.33 0 0.66 0 1 0 C1 1.65 1 3.3 1 5 C1.99 5 2.98 5 4 5 C4 5.66 4 6.32 4 7 C4.99 7.33 5.98 7.66 7 8 C7 8.99 7 9.98 7 11 C10.63 11 14.26 11 18 11 C18 11.33 18 11.66 18 12 C16.10448978 12.05441656 14.2085208 12.09298035 12.3125 12.125 C11.25675781 12.14820313 10.20101563 12.17140625 9.11328125 12.1953125 C5.94477177 11.99653524 3.81137662 11.44874543 1 10 C-0.60725635 6.78548731 -0.05748185 3.56387464 0 0 Z " fill="#9D9D9D" transform="translate(248,245)"/>
<path d="M0 0 C2.475 0.495 2.475 0.495 5 1 C5 1.66 5 2.32 5 3 C5.99 3 6.98 3 8 3 C8 3.66 8 4.32 8 5 C8.99 5 9.98 5 11 5 C11 5.66 11 6.32 11 7 C11.8353125 6.6596875 11.8353125 6.6596875 12.6875 6.3125 C15.92123084 5.87550935 17.39073978 7.18801373 20 9 C15.44765678 10.46037559 12.13300358 9.08880217 8 7 C5.19454687 5.16309617 2.50869751 3.22847066 0 1 C0 0.67 0 0.34 0 0 Z " fill="#959595" transform="translate(178,357)"/>
<path d="M0 0 C1 2 1 2 0.0625 5.125 C-0.288125 6.07375 -0.63875 7.0225 -1 8 C1.64 7.67 4.28 7.34 7 7 C6.67 7.99 6.34 8.98 6 10 C4.52093108 10.02689216 3.04172517 10.04634621 1.5625 10.0625 C0.32693359 10.07990234 0.32693359 10.07990234 -0.93359375 10.09765625 C-3 10 -3 10 -4 9 C-4.3125 6.125 -4.3125 6.125 -4 3 C-2 1.125 -2 1.125 0 0 Z " fill="#A6A2A3" transform="translate(316,195)"/>
<path d="M0 0 C0 0.33 0 0.66 0 1 C-1.65 1 -3.3 1 -5 1 C-5 1.99 -5 2.98 -5 4 C-6.65 4.66 -8.3 5.32 -10 6 C-9.938125 6.94875 -9.87625 7.8975 -9.8125 8.875 C-9.874375 9.90625 -9.93625 10.9375 -10 12 C-10.99 12.66 -11.98 13.32 -13 14 C-13.66 14.99 -14.32 15.98 -15 17 C-14.39388547 13.24882452 -13.32064728 10.20893288 -11.625 6.8125 C-11.20476562 5.95269531 -10.78453125 5.09289062 -10.3515625 4.20703125 C-7.63167907 -0.2343969 -4.82012036 -0.21422757 0 0 Z " fill="#696566" transform="translate(308,116)"/>
<path d="M0 0 C0.66 0.66 1.32 1.32 2 2 C4.72469786 2.46659731 7.38179802 2.83599254 10.125 3.125 C11.25615234 3.25455078 11.25615234 3.25455078 12.41015625 3.38671875 C14.27257127 3.59889261 16.13618931 3.80045763 18 4 C16 6 16 6 13.06640625 6.265625 C11.91011719 6.26046875 10.75382813 6.2553125 9.5625 6.25 C7.83193359 6.25773437 7.83193359 6.25773437 6.06640625 6.265625 C3 6 3 6 0 4 C0 2.68 0 1.36 0 0 Z " fill="#161616" transform="translate(244,289)"/>
<path d="M0 0 C4.60470588 1.45411765 4.60470588 1.45411765 6.3125 3.8125 C7.09802451 6.31189617 7.14472595 8.39493282 7 11 C6.34 11 5.68 11 5 11 C5 10.34 5 9.68 5 9 C4.34 9 3.68 9 3 9 C3 8.34 3 7.68 3 7 C2.34 7 1.68 7 1 7 C0.67 4.69 0.34 2.38 0 0 Z " fill="#949296" transform="translate(197,180)"/>
<path d="M0 0 C4.04097493 0.53974358 6.29844228 1.67608458 9.4375 4.25 C10.20835937 4.87777344 10.97921875 5.50554687 11.7734375 6.15234375 C12.87558594 7.06693359 12.87558594 7.06693359 14 8 C14.63164062 8.49628906 15.26328125 8.99257812 15.9140625 9.50390625 C17.31798051 10.61839092 18.66594454 11.80277074 20 13 C20 13.66 20 14.32 20 15 C16.51327545 13.4512456 13.81445969 11.35487655 10.875 8.9375 C7.61448977 6.19551253 7.61448977 6.19551253 4 4 C4 3.34 4 2.68 4 2 C2.68 1.34 1.36 0.68 0 0 Z " fill="#E0E0E0" transform="translate(126,199)"/>
<path d="M0 0 C2 1 2 1 2 1 Z M2.625 1.0625 C4.76494827 1.65693007 6.89299902 2.29766634 9 3 C6.87875034 3.86343824 4.75286928 4.71550648 2.625 5.5625 C0.84996094 6.27599609 0.84996094 6.27599609 -0.9609375 7.00390625 C-4 8 -4 8 -6 7 C-1.94817391 0.98365217 -1.94817391 0.98365217 2.625 1.0625 Z " fill="#606060" transform="translate(268,290)"/>
<path d="M0 0 C3.875 1.875 3.875 1.875 5 3 C5.16796875 4.99609375 5.16796875 4.99609375 5.1875 7.4375 C5.20167969 8.24058594 5.21585937 9.04367188 5.23046875 9.87109375 C5 12 5 12 3 14 C-0.0390625 14.1953125 -0.0390625 14.1953125 -3.625 14.125 C-4.81351562 14.10695313 -6.00203125 14.08890625 -7.2265625 14.0703125 C-8.14179688 14.04710937 -9.05703125 14.02390625 -10 14 C-10 13.67 -10 13.34 -10 13 C-6.37 13 -2.74 13 1 13 C3.15705823 7.85771266 3.15705823 7.85771266 2 3 C1.34 2.01 0.68 1.02 0 0 Z " fill="#B8B8B8" transform="translate(265,242)"/>
<path d="M0 0 C-0.99 0.33 -1.98 0.66 -3 1 C-3 1.66 -3 2.32 -3 3 C-3.99 3.495 -3.99 3.495 -5 4 C-6.13350534 6.01669827 -6.13350534 6.01669827 -7 8 C-8.98 8 -10.96 8 -13 8 C-4.87776708 -2.43888354 -4.87776708 -2.43888354 0 0 Z " fill="#4C4648" transform="translate(354,164)"/>
<path d="M0 0 C0.33 0.66 0.66 1.32 1 2 C0.23447322 3.89717505 -0.53108565 5.79433717 -1.296875 7.69140625 C-2.44014413 11.4451399 -2.24266521 15.11735657 -2 19 C-2.99 19 -3.98 19 -5 19 C-5.08153933 17.41753293 -5.13943557 15.83383727 -5.1875 14.25 C-5.22230469 13.36828125 -5.25710937 12.4865625 -5.29296875 11.578125 C-4.94477511 8.51402096 -3.96559921 7.31940707 -2 5 C-1.28837557 3.35202764 -0.60968047 1.68834592 0 0 Z " fill="#B2B2B2" transform="translate(178,270)"/>
<path d="M0 0 C0.89203125 0.01804688 1.7840625 0.03609375 2.703125 0.0546875 C3.71632813 0.08949219 3.71632813 0.08949219 4.75 0.125 C4.75 0.455 4.75 0.785 4.75 1.125 C3.88375 1.393125 3.0175 1.66125 2.125 1.9375 C-4.53154157 4.21082216 -4.53154157 4.21082216 -9.25 9.125 C-9.25 6.815 -9.25 4.505 -9.25 2.125 C-6.03817851 0.21891902 -3.71117397 -0.09766247 0 0 Z " fill="#BEBEBE" transform="translate(258.25,240.875)"/>
<path d="M0 0 C0.33 0 0.66 0 1 0 C0.8902743 3.93808228 0.75960869 7.87519589 0.625 11.8125 C0.57859375 13.49182617 0.57859375 13.49182617 0.53125 15.20507812 C0.47324219 16.81479492 0.47324219 16.81479492 0.4140625 18.45703125 C0.3826416 19.44678955 0.3512207 20.43654785 0.31884766 21.45629883 C0 24 0 24 -2 27 C-5.625 27.1875 -5.625 27.1875 -9 27 C-9 26.67 -9 26.34 -9 26 C-7.5459375 25.5359375 -7.5459375 25.5359375 -6.0625 25.0625 C-3.15934208 24.30476658 -3.15934208 24.30476658 -2 23 C-1.77246643 21.2962092 -1.60526762 19.58426501 -1.46484375 17.87109375 C-1.37783203 16.83662109 -1.29082031 15.80214844 -1.20117188 14.73632812 C-1.11416016 13.64771484 -1.02714844 12.55910156 -0.9375 11.4375 C-0.84662109 10.34501953 -0.75574219 9.25253906 -0.66210938 8.12695312 C-0.43737189 5.41827508 -0.21685911 2.70931834 0 0 Z " fill="#A2A0A1" transform="translate(250,139)"/>
<path d="M0 0 C0.66 0.33 1.32 0.66 2 1 C1.34 2.65 0.68 4.3 0 6 C-0.66 6 -1.32 6 -2 6 C-1.9278125 6.67804688 -1.855625 7.35609375 -1.78125 8.0546875 C-1.14886291 14.39612473 -0.87561778 20.62886647 -1 27 C-1.33 27 -1.66 27 -2 27 C-2.90448936 21.57306383 -3.16604151 16.1843119 -3.25 10.6875 C-3.27126953 9.98173828 -3.29253906 9.27597656 -3.31445312 8.54882812 C-3.34863611 3.45556317 -3.34863611 3.45556317 -1.484375 1.01953125 C-0.99453125 0.68308594 -0.5046875 0.34664063 0 0 Z " fill="#4E484A" transform="translate(236,105)"/>
<path d="M0 0 C4.95371163 2.09432982 9.49391962 4.88416651 13 9 C9.14974121 8.39644592 6.13898841 7.23227397 2.6875 5.4375 C1.80449219 4.98246094 0.92148438 4.52742188 0.01171875 4.05859375 C-0.65214844 3.70925781 -1.31601563 3.35992187 -2 3 C-2 2.34 -2 1.68 -2 1 C-1.34 0.67 -0.68 0.34 0 0 Z " fill="#B1B1B1" transform="translate(180,365)"/>
<path d="M0 0 C2.5 1 2.5 1 4 2 C4 2.66 4 3.32 4 4 C4.66 4.33 5.32 4.66 6 5 C3.43103446 4.38344827 0.91226252 3.68118039 -1.625 2.9375 C-4.73737446 1.91078538 -4.73737446 1.91078538 -7 2 C-7.33 2.66 -7.66 3.32 -8 4 C-10.0625 4.625 -10.0625 4.625 -12 5 C-9.41105375 -0.73266669 -5.94656359 -0.50534038 0 0 Z " fill="#828282" transform="translate(126,199)"/>
<path d="M0 0 C1.258125 -0.04125 2.51625 -0.0825 3.8125 -0.125 C4.52019531 -0.14820313 5.22789062 -0.17140625 5.95703125 -0.1953125 C8 0 8 0 11 2 C10.67 2.99 10.34 3.98 10 5 C9.67 4.67 9.34 4.34 9 4 C6.98035801 3.92755947 4.95832876 3.91622812 2.9375 3.9375 C1.83277344 3.94652344 0.72804688 3.95554688 -0.41015625 3.96484375 C-1.26480469 3.97644531 -2.11945313 3.98804688 -3 4 C-2.67 3.34 -2.34 2.68 -2 2 C-1.34 2 -0.68 2 0 2 C0 1.34 0 0.68 0 0 Z " fill="#B4B1B2" transform="translate(353,160)"/>
<path d="M0 0 C0.99 0.33 1.98 0.66 3 1 C3.6875 3.75 3.6875 3.75 4 7 C2.5625 9.375 2.5625 9.375 1 11 C-0.32 9.35 -1.64 7.7 -3 6 C-2.67 5.34 -2.34 4.68 -2 4 C-1.34 4.33 -0.68 4.66 0 5 C0 3.35 0 1.7 0 0 Z " fill="#6E6E6E" transform="translate(148,354)"/>
<path d="M0 0 C2.125 0.375 2.125 0.375 4 1 C3.278125 1.391875 2.55625 1.78375 1.8125 2.1875 C-4.42928078 6.20998095 -6.7838174 10.11816982 -9 17 C-9.33 17 -9.66 17 -10 17 C-9.83571629 9.11438198 -5.33462495 5.33462495 0 0 Z " fill="#BBBBBB" transform="translate(151,306)"/>
<path d="M0 0 C0.99 0 1.98 0 3 0 C2.67 3.63 2.34 7.26 2 11 C-2 6.5 -2 6.5 -2 2 C-1.34 2 -0.68 2 0 2 C0 1.34 0 0.68 0 0 Z " fill="#282526" transform="translate(298,307)"/>
<path d="M0 0 C0.33 0 0.66 0 1 0 C0.69418124 6.88092215 -2.27114088 12.2830754 -6 18 C-6.66 18.33 -7.32 18.66 -8 19 C-7.67 17.35 -7.34 15.7 -7 14 C-6.34 14 -5.68 14 -5 14 C-4.70996094 13.11248047 -4.70996094 13.11248047 -4.4140625 12.20703125 C-3.05585281 8.0853355 -1.67949415 4.0049476 0 0 Z " fill="#CCC8CB" transform="translate(314,132)"/>
<path d="M0 0 C0.66 0.33 1.32 0.66 2 1 C-0.97 4.63 -3.94 8.26 -7 12 C-8.32 11.67 -9.64 11.34 -11 11 C-7.37 7.37 -3.74 3.74 0 0 Z " fill="#686364" transform="translate(339,172)"/>
<path d="M0 0 C-0.375 1.9375 -0.375 1.9375 -1 4 C-1.99 4.495 -1.99 4.495 -3 5 C-3 4.34 -3 3.68 -3 3 C-3.9075 3.350625 -4.815 3.70125 -5.75 4.0625 C-8.87758436 4.96468779 -10.05208081 5.13381507 -13 4 C-8.78654111 1.14971899 -5.09630931 0 0 0 Z " fill="#848484" transform="translate(295,370)"/>
<path d="M0 0 C4.50802601 1.25805377 7.4912812 2.90407165 11 6 C5.67988107 6.34886026 5.67988107 6.34886026 3 6 C1 4.125 1 4.125 0 2 C0 1.34 0 0.68 0 0 Z " fill="#9F9F9F" transform="translate(179,368)"/>
<path d="M0 0 C0.556875 0.226875 1.11375 0.45375 1.6875 0.6875 C-0.375 3.25 -0.375 3.25 -3.3125 5.6875 C-7.125 5.5 -7.125 5.5 -10.3125 4.6875 C-9.3225 4.0275 -8.3325 3.3675 -7.3125 2.6875 C-6.508125 2.130625 -5.70375 1.57375 -4.875 1 C-2.3125 -0.3125 -2.3125 -0.3125 0 0 Z " fill="#9A9A9A" transform="translate(242.3125,307.3125)"/>
<path d="M0 0 C2.64 0 5.28 0 8 0 C6.35 1.98 4.7 3.96 3 6 C2.67 5.01 2.34 4.02 2 3 C0.68 3.33 -0.64 3.66 -2 4 C-1.34 2.68 -0.68 1.36 0 0 Z " fill="#B5B5B5" transform="translate(257,301)"/>
<path d="M0 0 C4.15735978 2.49441587 7.07040806 4.45978368 9 9 C8.56640625 11.15625 8.56640625 11.15625 8 13 C7.67386719 12.45730469 7.34773438 11.91460937 7.01171875 11.35546875 C6.57472656 10.64003906 6.13773437 9.92460937 5.6875 9.1875 C5.25824219 8.47980469 4.82898438 7.77210938 4.38671875 7.04296875 C3.07499292 4.96597433 3.07499292 4.96597433 1.33203125 3.36328125 C0 2 0 2 0 0 Z " fill="#B8B8B8" transform="translate(285,245)"/>
<path d="M0 0 C1.17571451 3.67410785 1.07366746 7.16929183 1 11 C2.32 11.66 3.64 12.32 5 13 C3.02 13 1.04 13 -1 13 C-2.5635348 9.87293041 -2.39958487 6.42017557 -2 3 C-1.34 2.01 -0.68 1.02 0 0 Z " fill="#C3C1C2" transform="translate(284,162)"/>
<path d="M0 0 C0.66 0 1.32 0 2 0 C2.18175781 0.62648438 2.36351562 1.25296875 2.55078125 1.8984375 C2.80214844 2.71570313 3.05351562 3.53296875 3.3125 4.375 C3.55613281 5.18710937 3.79976562 5.99921875 4.05078125 6.8359375 C4.91368185 9.33184629 4.91368185 9.33184629 8 11 C7.67 11.66 7.34 12.32 7 13 C5.1875 12.5 5.1875 12.5 3 11 C1.14053309 7.39776912 0 4.06166652 0 0 Z " fill="#373737" transform="translate(137,345)"/>
<path d="M0 0 C2.41674224 -0.02705308 4.8331794 -0.04686438 7.25 -0.0625 C7.93191406 -0.07087891 8.61382812 -0.07925781 9.31640625 -0.08789062 C12.69342554 -0.10428392 15.77291639 -0.05628768 19 1 C19 1.99 19 2.98 19 4 C17.081875 3.5359375 17.081875 3.5359375 15.125 3.0625 C10.11241278 1.93885167 5.11489044 1.40577419 0 1 C0 0.67 0 0.34 0 0 Z " fill="#757575" transform="translate(154,305)"/>
<path d="M0 0 C2 1 2 1 3.125 3.875 C4.12006657 7.42880919 4 10.29995578 4 14 C3.34 14 2.68 14 2 14 C-0.29612756 4.58997722 -0.29612756 4.58997722 0 0 Z " fill="#8D898D" transform="translate(136,220)"/>
<path d="M0 0 C0.99 0 1.98 0 3 0 C4.88838279 2.77703351 4.99354164 4.18729234 4.875 7.625 C4 11 4 11 1.9375 12.4375 C0.9784375 12.7159375 0.9784375 12.7159375 0 13 C0.350625 12.484375 0.70125 11.96875 1.0625 11.4375 C2.37275033 8.03084913 1.7181044 5.52523976 1 2 C0.67 1.34 0.34 0.68 0 0 Z " fill="#D4D2D2" transform="translate(304,208)"/>
<path d="M0 0 C0.33 0 0.66 0 1 0 C2.58444052 6.39014027 3.20287276 11.50448709 2 18 C1.67 18 1.34 18 1 18 C0.04380267 14.00204108 -0.1039592 10.29196078 -0.0625 6.1875 C-0.05347656 5.02605469 -0.04445312 3.86460937 -0.03515625 2.66796875 C-0.02355469 1.78753906 -0.01195312 0.90710938 0 0 Z " fill="#565457" transform="translate(194,182)"/>
<path d="M0 0 C0.99 0.33 1.98 0.66 3 1 C-1.67460782 5.55774263 -4.48277089 6.66290194 -11 7 C-10.67 6.34 -10.34 5.68 -10 5 C-8 4.33333333 -6 3.66666667 -4 3 C-3.278125 2.443125 -2.55625 1.88625 -1.8125 1.3125 C-1.214375 0.879375 -0.61625 0.44625 0 0 Z " fill="#909090" transform="translate(285,369)"/>
<path d="M0 0 C1.46489049 0.56666546 2.92178003 1.15404228 4.375 1.75 C5.18710938 2.07484375 5.99921875 2.3996875 6.8359375 2.734375 C9.33315139 4.19483944 9.98244259 5.33869601 11 8 C10.01 7.67 9.02 7.34 8 7 C8 6.34 8 5.68 8 5 C7.236875 4.855625 6.47375 4.71125 5.6875 4.5625 C3 4 3 4 0 3 C0 2.01 0 1.02 0 0 Z " fill="#7C7C7C" transform="translate(156,364)"/>
<path d="M0 0 C0.66 0 1.32 0 2 0 C3.2890625 1.53125 3.2890625 1.53125 4.625 3.5 C5.07101563 4.1496875 5.51703125 4.799375 5.9765625 5.46875 C6.31429687 5.9740625 6.65203125 6.479375 7 7 C6.01 7.99 5.02 8.98 4 10 C4 8.68 4 7.36 4 6 C3.01 6.33 2.02 6.66 1 7 C0.67 4.69 0.34 2.38 0 0 Z " fill="#6F6D6F" transform="translate(141,223)"/>
<path d="M0 0 C6.16456476 0.37742233 9.17375515 2.15870308 14 6 C11 7 11 7 8.30078125 5.78515625 C7.31464844 5.21667969 6.32851563 4.64820313 5.3125 4.0625 C4.31863281 3.49660156 3.32476562 2.93070313 2.30078125 2.34765625 C1.54152344 1.90292969 0.78226563 1.45820313 0 1 C0 0.67 0 0.34 0 0 Z " fill="#D9D9D9" transform="translate(250,215)"/>
<path d="M0 0 C0.33 0 0.66 0 1 0 C1.29787234 8.78723404 1.29787234 8.78723404 -1 13 C-1.99 13.495 -1.99 13.495 -3 14 C-2.40380045 9.13103697 -1.43023178 4.67209049 0 0 Z " fill="#676163" transform="translate(288,148)"/>
<path d="M0 0 C-3.95523655 2.75668002 -7.22423661 3.5317879 -12 4 C-11.67 3.34 -11.34 2.68 -11 2 C-10.34 2 -9.68 2 -9 2 C-9 1.34 -9 0.68 -9 0 C-5.62182575 -0.84454356 -3.32534757 -1.10844919 0 0 Z " fill="#BEBEBE" transform="translate(292,290)"/>
<path d="M0 0 C4.65181712 5.4021102 4.65181712 5.4021102 5 9 C4.69168078 10.3393387 4.36115371 11.67393179 4 13 C3.32694982 11.39850114 2.66177773 9.79368971 2 8.1875 C1.62875 7.29417969 1.2575 6.40085937 0.875 5.48046875 C0 3 0 3 0 0 Z " fill="#626262" transform="translate(138,342)"/>
<path d="M0 0 C1.98 1.65 3.96 3.3 6 5 C5.67 6.32 5.34 7.64 5 9 C2.5 6.75 2.5 6.75 0 4 C0 2.68 0 1.36 0 0 Z " fill="#BABABA" transform="translate(146,214)"/>
<path d="M0 0 C1.5 1.375 1.5 1.375 3 3 C3 3.66 3 4.32 3 5 C1 6.625 1 6.625 -1 8 C-1 7.34 -1 6.68 -1 6 C-2.32 5.34 -3.64 4.68 -5 4 C-4.67 3.01 -4.34 2.02 -4 1 C-4 1.66 -4 2.32 -4 3 C-3.34 3 -2.68 3 -2 3 C-2 3.66 -2 4.32 -2 5 C-1.34 5 -0.68 5 0 5 C0 3.35 0 1.7 0 0 Z " fill="#7B777C" transform="translate(204,186)"/>
<path d="M0 0 C-0.33 0.99 -0.66 1.98 -1 3 C-2.98 3 -4.96 3 -7 3 C-7.33 2.01 -7.66 1.02 -8 0 C-4.71303767 -0.79953138 -3.28976808 -1.09658936 0 0 Z " fill="#5E5E5E" transform="translate(285,378)"/>
<path d="M0 0 C0.33 0.66 0.66 1.32 1 2 C0.34 2.66 -0.32 3.32 -1 4 C-1 3.34 -1 2.68 -1 2 C-2.65 2.33 -4.3 2.66 -6 3 C-6 3.66 -6 4.32 -6 5 C-6.99 5 -7.98 5 -9 5 C-9 4.01 -9 3.02 -9 2 C-6.03 1.34 -3.06 0.68 0 0 Z " fill="#9B9B9B" transform="translate(301,364)"/>
<path d="M0 0 C4.43379675 2.21689838 6.46636932 4.77728219 9 9 C4.5937814 7.65365543 2.56922298 5.80625626 0 2 C0 1.34 0 0.68 0 0 Z " fill="#7B7B7B" transform="translate(171,353)"/>
<path d="M0 0 C2.29633824 3.44450737 2.54016485 5.93812283 3 10 C0.36 8.68 -2.28 7.36 -5 6 C-3.68 5.67 -2.36 5.34 -1 5 C-0.67 4.67 -0.34 4.34 0 4 C0 2.68 0 1.36 0 0 Z " fill="#808080" transform="translate(305,283)"/>
<path d="M0 0 C0.33 0.99 0.66 1.98 1 3 C-0.65 4.65 -2.3 6.3 -4 8 C-4.99 7.67 -5.98 7.34 -7 7 C-4.69 4.69 -2.38 2.38 0 0 Z " fill="#5C5658" transform="translate(327,184)"/>
<path d="M0 0 C4.571279 0.54855348 8.67435795 1.41744803 13 3 C13 3.33 13 3.66 13 4 C6.375 4.125 6.375 4.125 3 3 C3 2.34 3 1.68 3 1 C2.01 0.67 1.02 0.34 0 0 Z " fill="#BEBEBE" transform="translate(144,404)"/>
<path d="M0 0 C0.33 0 0.66 0 1 0 C1.26218749 3.14624993 1.24754367 4.61837017 -0.5 7.3125 C-1.2425 8.1478125 -1.2425 8.1478125 -2 9 C-2 8.01 -2 7.02 -2 6 C-2.66 5.67 -3.32 5.34 -4 5 C-2.69254251 3.31295807 -1.35827971 1.64639965 0 0 Z " fill="#B6B6B6" transform="translate(310,348)"/>
<path d="M0 0 C3.81287042 1.44626119 5.32707177 3.30194812 7 7 C6.6875 9.3125 6.6875 9.3125 6 11 C2 4.25 2 4.25 2 2 C1.34 2 0.68 2 0 2 C0 1.34 0 0.68 0 0 Z " fill="#CDCDCD" transform="translate(211,184)"/>
<path d="M0 0 C0.33 0.99 0.66 1.98 1 3 C0.07421875 4.82421875 0.07421875 4.82421875 -1.3125 6.6875 C-1.76238281 7.31011719 -2.21226562 7.93273437 -2.67578125 8.57421875 C-3.11277344 9.04472656 -3.54976563 9.51523437 -4 10 C-4.66 10 -5.32 10 -6 10 C-4.34832443 6.4213696 -2.21713508 3.25179812 0 0 Z " fill="#C1C1C1" transform="translate(283,382)"/>
<path d="M0 0 C0.103125 0.639375 0.20625 1.27875 0.3125 1.9375 C0.539375 2.618125 0.76625 3.29875 1 4 C1.99 4.33 2.98 4.66 4 5 C3.67 5.66 3.34 6.32 3 7 C2.01 7 1.02 7 0 7 C0 6.34 0 5.68 0 5 C-0.66 5 -1.32 5 -2 5 C-1.125 1.125 -1.125 1.125 0 0 Z " fill="#D9D9D9" transform="translate(252,245)"/>
<path d="M0 0 C2.33524782 2.25740623 4.18705073 4.2805761 6 7 C5.625 9.1875 5.625 9.1875 5 11 C4.67 10.01 4.34 9.02 4 8 C3.319375 7.360625 2.63875 6.72125 1.9375 6.0625 C0 4 0 4 0 0 Z " fill="#D0CFCF" transform="translate(152,221)"/>
<path d="M0 0 C5.625 -0.25 5.625 -0.25 9 2 C9.40843923 4.71203652 9.13336867 7.2437142 9 10 C8.67 10 8.34 10 8 10 C7.79375 8.88625 7.5875 7.7725 7.375 6.625 C6.38371699 2.73400805 6.38371699 2.73400805 2.875 1.5625 C1.92625 1.376875 0.9775 1.19125 0 1 C0 0.67 0 0.34 0 0 Z " fill="#C5C4C5" transform="translate(243,175)"/>
<path d="M0 0 C3.26460973 1.80412643 4.88929795 2.83394693 7 6 C5.68 6.33 4.36 6.66 3 7 C2.67 5.68 2.34 4.36 2 3 C1.34 3 0.68 3 0 3 C0 2.01 0 1.02 0 0 Z " fill="#E0E0E0" transform="translate(257,321)"/>
<path d="M0 0 C2.08304538 -0.05418326 4.16649768 -0.09287551 6.25 -0.125 C7.99023438 -0.15980469 7.99023438 -0.15980469 9.765625 -0.1953125 C12.82786046 -0.0103949 14.44202751 0.39176977 17 2 C15.34385343 2.38218767 13.67542976 2.71395102 12 3 C11.67 2.67 11.34 2.34 11 2 C9.15108054 1.76636119 7.29511969 1.58696365 5.4375 1.4375 C4.42558594 1.35371094 3.41367187 1.26992188 2.37109375 1.18359375 C1.19740234 1.09271484 1.19740234 1.09271484 0 1 C0 0.67 0 0.34 0 0 Z " fill="#606060" transform="translate(279,297)"/>
<path d="M0 0 C-2.97 1.65 -5.94 3.3 -9 5 C-9 4.01 -9 3.02 -9 2 C-5.3823098 -0.81375904 -4.61553765 -1.15388441 0 0 Z " fill="#D1CDCE" transform="translate(347,192)"/>
<path d="M0 0 C3 3 3 3 3.3125 6.0625 C3 9 3 9 1 11 C0.67 7.37 0.34 3.74 0 0 Z " fill="#7D7B7C" transform="translate(364,165)"/>
<path d="M0 0 C0.66 0 1.32 0 2 0 C1.67 1.98 1.34 3.96 1 6 C-0.65 5.67 -2.3 5.34 -4 5 C-2.71937515 3.2925002 -1.38232443 1.62626404 0 0 Z " fill="#ABABAB" transform="translate(306,354)"/>
<path d="M0 0 C0.66 0.33 1.32 0.66 2 1 C-0.06756277 3.7972908 -1.14440371 4.02692273 -4.6875 4.6875 C-5.780625 4.790625 -6.87375 4.89375 -8 5 C-5.31158141 2.74754119 -3.35358125 1.11786042 0 0 Z " fill="#8D8D8D" transform="translate(230,312)"/>
<path d="M0 0 C0.33 0.99 0.66 1.98 1 3 C-1.3125 5.0625 -1.3125 5.0625 -4 7 C-4.99 6.67 -5.98 6.34 -7 6 C-4.69 4.02 -2.38 2.04 0 0 Z " fill="#CACACA" transform="translate(257,416)"/>
<path d="M0 0 C-1.24976756 3.65316671 -1.67098753 4.78065836 -5 7 C-5 5.02 -5 3.04 -5 1 C-3 0 -3 0 0 0 Z " fill="#3A3A3A" transform="translate(284,380)"/>
<path d="M0 0 C0.66 0.33 1.32 0.66 2 1 C1.01 1.33 0.02 1.66 -1 2 C-1 2.66 -1 3.32 -1 4 C-2.98 4.33 -4.96 4.66 -7 5 C-4.63707344 2.47411298 -3.33537489 1.11179163 0 0 Z " fill="#585355" transform="translate(352,163)"/>
<path d="M0 0 C2.32947183 2.11770166 3.88750845 4.03335588 5 7 C4.67 7.99 4.34 8.98 4 10 C1.04816899 7.04816899 0.91336012 4.04488053 0 0 Z " fill="#808080" transform="translate(140,340)"/>
<path d="M0 0 C2.475 0.99 2.475 0.99 5 2 C4.67 2.66 4.34 3.32 4 4 C3.34 3.67 2.68 3.34 2 3 C2.33 4.32 2.66 5.64 3 7 C2.34 7 1.68 7 1 7 C0.67 4.69 0.34 2.38 0 0 Z " fill="#8B898D" transform="translate(197,180)"/>
<path d="M0 0 C0.66 0.33 1.32 0.66 2 1 C1.34 2.32 0.68 3.64 0 5 C-0.66 5 -1.32 5 -2 5 C-2.33 6.32 -2.66 7.64 -3 9 C-3.36923077 3.46153846 -3.36923077 3.46153846 -1.5 1.125 C-1.005 0.75375 -0.51 0.3825 0 0 Z " fill="#605D5E" transform="translate(240,177)"/>
<path d="M0 0 C0 3 0 3 -1.125 4.6875 C-3.76459098 6.53521368 -5.85804073 6.20946395 -9 6 C-9 5.67 -9 5.34 -9 5 C-8.2575 4.9175 -7.515 4.835 -6.75 4.75 C-3.48778646 3.8603054 -2.19045122 2.51496251 0 0 Z " fill="#E4E1E2" transform="translate(293,170)"/>
<path d="M0 0 C0.66 0 1.32 0 2 0 C2.1875 2.375 2.1875 2.375 2 5 C1.01 5.66 0.02 6.32 -1 7 C-1.04254356 5.00045254 -1.04080783 2.99958364 -1 1 C-0.67 0.67 -0.34 0.34 0 0 Z " fill="#575455" transform="translate(247,157)"/>
<path d="" fill="#FFFFFF" transform="translate(0,0)"/>
<path d="" fill="#FFFFFF" transform="translate(0,0)"/>
<path d="" fill="#FFFFFF" transform="translate(0,0)"/>
<path d="" fill="#FFFFFF" transform="translate(0,0)"/>
<path d="" fill="#FFFFFF" transform="translate(0,0)"/>
<path d="" fill="#FFFFFF" transform="translate(0,0)"/>
<path d="" fill="#FFFFFF" transform="translate(0,0)"/>
<path d="" fill="#FFFFFF" transform="translate(0,0)"/>
<path d="" fill="#FFFFFF" transform="translate(0,0)"/>
<path d="" fill="#FFFFFF" transform="translate(0,0)"/>
<path d="" fill="#FFFFFF" transform="translate(0,0)"/>
<path d="" fill="#FFFFFF" transform="translate(0,0)"/>
<path d="" fill="#FFFFFF" transform="translate(0,0)"/>
<path d="" fill="#FFFFFF" transform="translate(0,0)"/>
<path d="" fill="#FFFFFF" transform="translate(0,0)"/>
<path d="" fill="#FFFFFF" transform="translate(0,0)"/>
<path d="" fill="#FFFFFF" transform="translate(0,0)"/>
<path d="" fill="#FFFFFF" transform="translate(0,0)"/>
<path d="" fill="#FFFFFF" transform="translate(0,0)"/>
<path d="" fill="#FFFFFF" transform="translate(0,0)"/>
<path d="" fill="#FFFFFF" transform="translate(0,0)"/>
<path d="" fill="#FFFFFF" transform="translate(0,0)"/>
<path d="" fill="#FFFFFF" transform="translate(0,0)"/>
<path d="" fill="#FFFFFF" transform="translate(0,0)"/>
<path d="" fill="#FFFFFF" transform="translate(0,0)"/>
<path d="" fill="#FFFFFF" transform="translate(0,0)"/>
<path d="" fill="#FFFFFF" transform="translate(0,0)"/>
<path d="" fill="#FFFFFF" transform="translate(0,0)"/>
<path d="" fill="#FFFFFF" transform="translate(0,0)"/>
<path d="" fill="#FFFFFF" transform="translate(0,0)"/>
<path d="" fill="#FFFFFF" transform="translate(0,0)"/>
<path d="" fill="#FFFFFF" transform="translate(0,0)"/>
<path d="" fill="#FFFFFF" transform="translate(0,0)"/>
<path d="" fill="#FFFFFF" transform="translate(0,0)"/>
<path d="" fill="#FFFFFF" transform="translate(0,0)"/>
<path d="" fill="#FFFFFF" transform="translate(0,0)"/>
<path d="" fill="#FFFFFF" transform="translate(0,0)"/>
<path d="" fill="#FFFFFF" transform="translate(0,0)"/>
<path d="" fill="#FFFFFF" transform="translate(0,0)"/>
<path d="" fill="#FFFFFF" transform="translate(0,0)"/>
<path d="" fill="#FFFFFF" transform="translate(0,0)"/>
<path d="" fill="#FFFFFF" transform="translate(0,0)"/>
<path d="" fill="#FFFFFF" transform="translate(0,0)"/>
<path d="" fill="#FFFFFF" transform="translate(0,0)"/>
<path d="" fill="#FFFFFF" transform="translate(0,0)"/>
<path d="" fill="#FFFFFF" transform="translate(0,0)"/>
<path d="" fill="#FFFFFF" transform="translate(0,0)"/>
<path d="" fill="#FFFFFF" transform="translate(0,0)"/>
<path d="" fill="#FFFFFF" transform="translate(0,0)"/>
<path d="" fill="#FFFFFF" transform="translate(0,0)"/>
</svg>
