<?xml version="1.0" encoding="UTF-8"?>
<svg version="1.1" xmlns="http://www.w3.org/2000/svg" width="296" height="296">
<path d="M0 0 C1.83080823 -0.00599115 3.66161395 -0.01279804 5.49241638 -0.02035522 C10.4472245 -0.03796431 15.40196345 -0.0427085 20.35679984 -0.0439868 C23.45840717 -0.04541202 26.55999712 -0.04968868 29.66160011 -0.05498123 C40.49934625 -0.07346579 51.33704331 -0.08165396 62.17480469 -0.08007812 C72.24894383 -0.07887767 82.3228684 -0.09996526 92.39695328 -0.13156545 C101.06905418 -0.15779054 109.74108527 -0.16844279 118.41322547 -0.16716731 C123.58244717 -0.16665944 128.75147811 -0.17224515 133.92066002 -0.19352341 C138.78732182 -0.21301068 143.65361293 -0.2129591 148.52028847 -0.19849014 C150.29629692 -0.19641379 152.07232922 -0.2010321 153.84829712 -0.21321106 C172.80776403 -0.33470345 187.97402096 3.65917247 202.25512695 16.91552734 C213.13347633 28.44941243 218.34632543 42.08355412 218.44995117 57.87109375 C218.46761158 58.86945629 218.48527199 59.86781883 218.50346756 60.89643478 C218.55742011 64.18661837 218.59037809 67.47662442 218.62231445 70.76708984 C218.65489157 73.11765618 218.68826493 75.46821161 218.72238159 77.8187561 C219.07342426 103.8438032 219.09336564 129.87181129 219.06958008 155.89874268 C219.06694147 160.98754704 219.07182592 166.07633434 219.07657051 171.16513634 C219.0802112 176.16714788 219.07902311 181.16914979 219.07644272 186.17116165 C219.07578794 188.50782908 219.07654941 190.84449747 219.07892227 193.18116379 C219.08815387 204.7743067 218.98933346 216.35216483 218.53588867 227.9375 C218.50240389 228.87607534 218.46891911 229.81465069 218.43441963 230.78166771 C217.73382725 246.5191119 211.31804584 260.09235744 199.8137207 270.96630859 C186.02536258 282.12831279 171.40730093 285.36659586 154.02587891 285.51171875 C153.07254889 285.52319065 152.11921888 285.53466255 151.13700008 285.54648209 C147.98500128 285.58300319 144.83298167 285.6127734 141.6809082 285.64208984 C139.43894229 285.66581763 137.19697861 285.68975822 134.95501709 285.71389771 C127.72178845 285.78935091 120.48847808 285.85311485 113.25512695 285.91552734 C111.41874727 285.93187981 111.41874727 285.93187981 109.54526901 285.94856262 C78.42545447 286.22505679 47.30655791 286.45178568 16.18685532 286.06603241 C14.02315947 286.04073815 11.85947014 286.02059891 9.69570923 286.00177002 C5.72688305 285.96576027 1.75872176 285.90396566 -2.2097168 285.83740234 C-3.32260071 285.82782501 -4.43548462 285.81824768 -5.58209229 285.80838013 C-23.58595907 285.41549395 -39.57989565 280.20368806 -52.36206055 267.30224609 C-65.46654464 253.16514718 -67.66883457 237.07705538 -67.55908203 218.6496582 C-67.56287379 216.81648851 -67.56838084 214.98332171 -67.57545471 213.15016174 C-67.58931391 208.21213489 -67.57830753 203.27446019 -67.5617435 198.3364532 C-67.54779924 193.1455697 -67.55436361 187.95470472 -67.55787659 182.7638092 C-67.5605711 174.0512226 -67.54716777 165.33877437 -67.52392578 156.6262207 C-67.49731255 146.58094755 -67.4955745 136.53590545 -67.50731415 126.49060911 C-67.51812596 116.7900461 -67.51187873 107.08956593 -67.49775887 97.38900948 C-67.49202938 93.27729882 -67.49205766 89.16564939 -67.49682426 85.05393791 C-67.50162749 80.20528979 -67.49135502 75.35689187 -67.46986961 70.50829124 C-67.46434718 68.73832289 -67.46379416 66.96833027 -67.46882248 65.19836044 C-67.51503522 46.5852418 -64.46270001 30.28320111 -51.05737305 16.29052734 C-50.39737305 16.29052734 -49.73737305 16.29052734 -49.05737305 16.29052734 C-49.05737305 15.63052734 -49.05737305 14.97052734 -49.05737305 14.29052734 C-34.74960733 1.72375082 -18.13175969 -0.01185108 0 0 Z " fill="#241B50" transform="translate(73.057373046875,7.70947265625)"/>
<path d="M0 0 C1.06734375 0.5671875 2.1346875 1.134375 3.234375 1.71875 C5.8385893 3.12000236 8.42550593 4.54507549 11 6 C9.27596432 10.08324241 6.47042149 13.29419135 3.6875 16.6875 C-1.43796896 23.00805082 -6.41297615 29.42721878 -11.32641602 35.91357422 C-15.20146272 41.01005824 -19.21440586 45.94630754 -23.390625 50.80078125 C-25.29566127 53.11391882 -25.29566127 53.11391882 -26 57 C-21.38 57.99 -16.76 58.98 -12 60 C-12 79.02919741 -19.96914777 95.94499633 -32.70703125 109.70703125 C-45.95117393 122.95117393 -61.4772691 126.30239604 -79.61474609 126.31469727 C-101.78257343 126.0328039 -120.19365277 116.50434561 -136 101.3125 C-137.01095228 100.21835215 -138.01180717 99.11474614 -139 98 C-139.50402344 97.50757813 -140.00804687 97.01515625 -140.52734375 96.5078125 C-144.70728755 91.85313824 -144.65822852 87.06307868 -144.4140625 81.00390625 C-141.99543677 53.87881597 -128.25915648 29.87033555 -108 12 C-78.53775673 -12.1079426 -33.92492413 -18.50450407 0 0 Z " fill="#FD76FD" transform="translate(193,61)"/>
<path d="M0 0 C2.70811738 1.94807354 5.36223834 3.95771965 8 6 C8.70898438 6.54527344 9.41796875 7.09054688 10.1484375 7.65234375 C24.08549359 19.14915717 35.0970945 37.38488649 39 55 C39.27585938 56.13050781 39.55171875 57.26101562 39.8359375 58.42578125 C45.98960566 86.51247767 40.40299691 113.86097499 25 138 C10.14542364 159.18603513 -10.4353727 172.07367244 -35 179 C-36.29164063 179.36931641 -36.29164063 179.36931641 -37.609375 179.74609375 C-61.1701681 185.18608579 -87.59672361 179.68071792 -108.2890625 167.75 C-119.01978536 160.82296277 -130.7167032 152.30593213 -137 141 C-131.88958982 142.35762517 -126.7935747 143.75198585 -121.73046875 145.27734375 C-120.99046631 145.49946533 -120.25046387 145.72158691 -119.48803711 145.95043945 C-118.02531598 146.39131416 -116.56382398 146.8362932 -115.10375977 147.28588867 C-114.41467529 147.49318604 -113.72559082 147.7004834 -113.015625 147.9140625 C-112.41008789 148.0992041 -111.80455078 148.2843457 -111.18066406 148.47509766 C-86.70791604 154.36587332 -58.66697838 150.62250575 -37 138 C-15.98400122 124.71889717 -3.17674442 103.74677837 3 80 C4.68779277 72.05983814 5.90789156 64.04141623 7 56 C15.57142857 55.92857143 15.57142857 55.92857143 19 56.5 C19.99 56.665 20.98 56.83 22 57 C20.07447894 51.01556151 17.94325508 45.16276796 15.56640625 39.34375 C15.24719711 38.55657593 14.92798798 37.76940186 14.59910583 36.95837402 C13.92897148 35.30748413 13.25749304 33.65713924 12.5847168 32.00732422 C11.56556062 29.50750718 10.55099847 27.00586352 9.53710938 24.50390625 C8.88047861 22.88791099 8.22358622 21.272022 7.56640625 19.65625 C7.26835587 18.92160522 6.97030548 18.18696045 6.66322327 17.43005371 C4.79549194 12.8557851 2.82176906 8.34543613 0.74961853 3.85974121 C0 2 0 2 0 0 Z " fill="#DDDBEA" transform="translate(206,69)"/>
<path d="M0 0 C1.84540881 -0.00107409 3.69081728 -0.00301465 5.53622437 -0.00575256 C10.52763709 -0.01058243 15.51895983 -0.00296936 20.51036167 0.00720048 C25.73971511 0.0160079 30.96906595 0.01422304 36.19842529 0.01383972 C44.97442118 0.01477491 53.75038238 0.02344093 62.52636719 0.03710938 C72.67217735 0.05285291 82.81794961 0.05810671 92.9637711 0.05737382 C103.77259872 0.0566985 114.58141174 0.06363676 125.39023495 0.07282043 C128.50329328 0.07495142 131.61634926 0.07566155 134.72940826 0.07605934 C139.61809806 0.07706364 144.50675604 0.08316743 149.39543533 0.09322548 C151.18972962 0.09614643 152.98402756 0.09737666 154.77832413 0.09679794 C157.22621233 0.09630717 159.67401142 0.1019637 162.12188721 0.10920715 C163.1880797 0.10688425 163.1880797 0.10688425 164.27581143 0.10451442 C167.90878357 0.12228269 171.26618989 0.38293731 174.79980469 1.24291992 C172.4047113 4.14224349 170.48735226 4.74460268 166.79980469 5.24291992 C166.79980469 4.25291992 166.79980469 3.26291992 166.79980469 2.24291992 C134.8871822 2.15268388 102.97606775 2.35755758 71.06442642 2.58226585 C62.32726039 2.64377928 53.59008737 2.70176096 44.85286629 2.75491184 C38.62364027 2.79307007 32.39444666 2.83498739 26.16526496 2.87979847 C22.47196373 2.90627879 18.77866864 2.9311423 15.08533096 2.95199394 C11.01370464 2.97508777 6.9421743 3.00595313 2.87060547 3.03759766 C1.65442032 3.04335312 0.43823517 3.04910858 -0.81480408 3.05503845 C-2.46143288 3.06972168 -2.46143288 3.06972168 -4.1413269 3.08470154 C-5.1000363 3.09115409 -6.05874569 3.09760664 -7.04650688 3.10425472 C-9.18107039 3.00372409 -9.18107039 3.00372409 -10.20019531 4.24291992 C-9.54019531 4.90291992 -8.88019531 5.56291992 -8.20019531 6.24291992 C-11.48996339 7.33950928 -12.91323298 7.0424513 -16.20019531 6.24291992 C-16.53019531 6.90291992 -16.86019531 7.56291992 -17.20019531 8.24291992 C-17.20019531 7.58291992 -17.20019531 6.92291992 -17.20019531 6.24291992 C-20.7766438 5.00491852 -23.53714297 5.49365922 -27.20019531 6.24291992 C-27.20019531 5.58291992 -27.20019531 4.92291992 -27.20019531 4.24291992 C-28.85019531 4.57291992 -30.50019531 4.90291992 -32.20019531 5.24291992 C-32.20019531 6.23291992 -32.20019531 7.22291992 -32.20019531 8.24291992 C-33.16957031 8.55229492 -34.13894531 8.86166992 -35.13769531 9.18041992 C-38.04085323 9.93815334 -38.04085323 9.93815334 -39.20019531 11.24291992 C-38.87019531 12.23291992 -38.54019531 13.22291992 -38.20019531 14.24291992 C-42.03008637 16.0452216 -44.98141339 16.43914234 -49.20019531 16.24291992 C-49.20019531 15.58291992 -49.20019531 14.92291992 -49.20019531 14.24291992 C-34.83669143 1.62718753 -18.19435583 -0.06148894 0 0 Z " fill="#271D5B" transform="translate(73.2001953125,7.757080078125)"/>
<path d="M0 0 C2 3 2 3 2 5 C2.66 5 3.32 5 4 5 C3.67 5.66 3.34 6.32 3 7 C1.94250316 9.85621492 1.94250316 9.85621492 1.6875 12.375 C0.83147708 15.64345115 -0.78139721 17.49512588 -3 20 C-2.01 20.99 -1.02 21.98 0 23 C-0.66 23.99 -1.32 24.98 -2 26 C-2.16237445 28.81574194 -2.20722231 31.53016171 -2.16015625 34.34375 C-2.15459213 35.20092117 -2.14902802 36.05809235 -2.14329529 36.9412384 C-2.13080751 38.81124949 -2.11410895 40.68123602 -2.09375 42.55117798 C-2.04024089 47.60042056 -2.02107012 52.64973931 -2.00390625 57.69921875 C-1.99996857 58.76319382 -1.99603088 59.82716888 -1.99197388 60.92338562 C-1.96433506 73.72294584 -2.22581471 86.51643006 -2.5 99.3125 C-2.52409943 100.45283691 -2.54819885 101.59317383 -2.57302856 102.76806641 C-2.70925207 109.17885706 -2.85167952 115.58947823 -3 122 C-3.33 122 -3.66 122 -4 122 C-4.33 150.05 -4.66 178.1 -5 207 C-5.33 207 -5.66 207 -6 207 C-6.07018828 182.71238519 -6.12303624 158.42478566 -6.15543652 134.13708973 C-6.17088269 122.8590181 -6.19192912 111.58100961 -6.22631836 100.30297852 C-6.25628967 90.46910056 -6.27559134 80.63526836 -6.28226548 70.801346 C-6.28616466 65.59794777 -6.29528117 60.39468039 -6.31719017 55.19132423 C-6.3376776 50.28545823 -6.3438092 45.37977596 -6.33932304 40.47387123 C-6.34014279 38.68132018 -6.34603496 36.88876245 -6.35761642 35.09624863 C-6.43152309 23.0585451 -6.39239252 10.65398754 0 0 Z " fill="#634F88" transform="translate(12,38)"/>
<path d="M0 0 C5.11041018 1.35762517 10.2064253 2.75198585 15.26953125 4.27734375 C16.37953491 4.61052612 16.37953491 4.61052612 17.51196289 4.95043945 C18.97468402 5.39131416 20.43617602 5.8362932 21.89624023 6.28588867 C22.58532471 6.49318604 23.27440918 6.7004834 23.984375 6.9140625 C24.89268066 7.1917749 24.89268066 7.1917749 25.81933594 7.47509766 C33.11453286 9.23110677 40.39455831 9.18620787 47.85107422 9.18530273 C49.86317173 9.18748716 51.87471796 9.20568389 53.88671875 9.22460938 C60.95438785 9.23517917 67.16658788 8.77500335 74 7 C75.32 7 76.64 7 78 7 C78 7.66 78 8.32 78 9 C65.82194408 14.23586282 51.57664755 14.61982153 38.58203125 12.421875 C35.87788627 11.98004798 34.23145243 12.17353981 31.625 12.9375 C30.42875 13.288125 29.2325 13.63875 28 14 C27.62875 13.34 27.2575 12.68 26.875 12 C25.09105222 9.64696955 25.09105222 9.64696955 21.8125 9.75 C20.4203125 9.87375 20.4203125 9.87375 19 10 C18.67 9.01 18.34 8.02 18 7 C16.35 7.66 14.7 8.32 13 9 C12.01 7.68 11.02 6.36 10 5 C10 6.32 10 7.64 10 9 C10.66 9.33 11.32 9.66 12 10 C11.01 10.33 10.02 10.66 9 11 C7.49703315 9.35687553 5.99769719 7.71042916 4.5 6.0625 C3.6646875 5.14597656 2.829375 4.22945312 1.96875 3.28515625 C0 1 0 1 0 0 Z " fill="#B9B3D5" transform="translate(69,210)"/>
<path d="M0 0 C24.42580014 -0.02334927 48.8515986 -0.04098917 73.27740765 -0.05181217 C84.61845459 -0.05697081 95.95949461 -0.0640053 107.30053711 -0.07543945 C117.18414544 -0.08539946 127.06774875 -0.09185658 136.95136195 -0.09408849 C142.18575303 -0.09539335 147.42012974 -0.09846508 152.65451622 -0.10573006 C157.58001291 -0.11251101 162.50548931 -0.11461271 167.43099022 -0.11310768 C169.23979299 -0.11338307 171.04859643 -0.1153759 172.85739517 -0.11920547 C175.32546192 -0.12417509 177.79345189 -0.12298617 180.26152039 -0.12025452 C180.97845446 -0.12316736 181.69538853 -0.1260802 182.43404788 -0.12908131 C186.08268681 -0.11815434 189.45157971 0.13331274 193 1 C190.60490662 3.89932357 188.68754757 4.50168276 185 5 C185 4.01 185 3.02 185 2 C123.95 1.67 62.9 1.34 0 1 C0 0.67 0 0.34 0 0 Z " fill="#67608C" transform="translate(55,8)"/>
<path d="M0 0 C0.66 0.33 1.32 0.66 2 1 C0.79618552 3.49361571 -0.45428722 5.68143083 -2 8 C-2.66 8 -3.32 8 -4 8 C-4.12375 8.94875 -4.2475 9.8975 -4.375 10.875 C-5 14 -5 14 -7 16 C-7.433125 16.99 -7.433125 16.99 -7.875 18 C-9 20 -9 20 -10.875 20.8125 C-13.74166793 22.41446149 -14.54787161 24.46878774 -16.05859375 27.3125 C-17.13176091 29.23618553 -18.25312888 30.65014504 -20 32 C-20.66 32 -21.32 32 -22 32 C-21.34 33.32 -20.68 34.64 -20 36 C-21.32 36 -22.64 36 -24 36 C-23.67 36.99 -23.34 37.98 -23 39 C-22.67 39.99 -22.34 40.98 -22 42 C-21.34 42.33 -20.68 42.66 -20 43 C-20 42.34 -20 41.68 -20 41 C-19.34 41 -18.68 41 -18 41 C-18.33 41.99 -18.66 42.98 -19 44 C-22.63 43.67 -26.26 43.34 -30 43 C-30.33 41.68 -30.66 40.36 -31 39 C-29.91796875 37.31640625 -29.91796875 37.31640625 -28.1875 35.5625 C-24.9965886 32.14411769 -22.07304414 28.59927673 -19.25 24.875 C-18.4001065 23.7588351 -17.54983715 22.64295631 -16.69921875 21.52734375 C-16.26270996 20.95483887 -15.82620117 20.38233398 -15.37646484 19.79248047 C-12.50832157 16.05748438 -9.58453663 12.36587461 -6.66699219 8.66943359 C-4.40878014 5.80529863 -2.17121284 2.93077905 0 0 Z " fill="#371B61" transform="translate(197,76)"/>
<path d="M0 0 C9.12801293 2.67545207 18.06862335 6.71241557 26 12 C24.24186575 16.19649902 21.35321576 19.45117687 18.5 22.9375 C17.42084667 24.27000118 16.34274142 25.60335176 15.265625 26.9375 C14.72228516 27.61039063 14.17894531 28.28328125 13.61914062 28.9765625 C11.12111702 32.09833868 8.68083158 35.26327172 6.25 38.4375 C5.82009766 38.99880615 5.39019531 39.5601123 4.94726562 40.13842773 C3.96362149 41.4246847 2.98160508 42.71218625 2 44 C1.390625 42.203125 1.390625 42.203125 1 40 C2.75 36.75 2.75 36.75 5 34 C5.99 34 6.98 34 8 34 C7.67 31.36 7.34 28.72 7 26 C7.763125 25.87625 8.52625 25.7525 9.3125 25.625 C12.20267136 25.11897208 12.20267136 25.11897208 15 23 C14.938125 22.236875 14.87625 21.47375 14.8125 20.6875 C15 18 15 18 16.32421875 16.5625 C17.83900285 15.31960022 19.41676481 14.15444232 21 13 C19.68 12.34 18.36 11.68 17 11 C17 11.66 17 12.32 17 13 C16.34 13 15.68 13 15 13 C14.34 10.69 13.68 8.38 13 6 C11.9171875 6.0928125 11.9171875 6.0928125 10.8125 6.1875 C7.44201359 5.96280091 5.79130422 4.83638436 3 3 C2.01 2.67 1.02 2.34 0 2 C0 1.34 0 0.68 0 0 Z " fill="#E886F0" transform="translate(178,55)"/>
<path d="M0 0 C-0.845625 0.94875 -1.69125 1.8975 -2.5625 2.875 C-9.37064352 10.87895327 -14.49526886 19.48231118 -19.30078125 28.77734375 C-21 32 -21 32 -23 35 C-24.32 34.67 -25.64 34.34 -27 34 C-27 33.34 -27 32.68 -27 32 C-24.525 31.505 -24.525 31.505 -22 31 C-22 29.35 -22 27.7 -22 26 C-22.66 25.67 -23.32 25.34 -24 25 C-23.67 24.01 -23.34 23.02 -23 22 C-21.68 22 -20.36 22 -19 22 C-19 20.35 -19 18.7 -19 17 C-18.09507813 16.63261719 -18.09507813 16.63261719 -17.171875 16.2578125 C-14.61035221 14.77434067 -13.72499008 13.41526069 -12.25 10.875 C-11.82203125 10.15054688 -11.3940625 9.42609375 -10.953125 8.6796875 C-10.63859375 8.12539062 -10.3240625 7.57109375 -10 7 C-11.32 5.68 -12.64 4.36 -14 3 C-13.67 2.01 -13.34 1.02 -13 0 C-12.01 0.66 -11.02 1.32 -10 2 C-9.67 1.34 -9.34 0.68 -9 0 C-5.44307323 -0.85056945 -3.50729422 -1.16909807 0 0 Z " fill="#3E206F" transform="translate(78,80)"/>
<path d="M0 0 C0.33 0.99 0.66 1.98 1 3 C0.67 3.66 0.34 4.32 0 5 C0.969375 4.979375 1.93875 4.95875 2.9375 4.9375 C6 5 6 5 7 6 C8.8683882 6.07536862 10.73958093 6.08311641 12.609375 6.0625 C14.33027344 6.05089844 14.33027344 6.05089844 16.0859375 6.0390625 C18.51302261 6.01318739 20.94010598 5.98714788 23.3671875 5.9609375 C25.09582031 5.94933594 25.09582031 5.94933594 26.859375 5.9375 C28.44443848 5.92009766 28.44443848 5.92009766 30.06152344 5.90234375 C32.82877288 5.9943095 35.30967386 6.36931902 38 7 C38 7.33 38 7.66 38 8 C21.36538393 11.42639932 1.56915922 9.81150716 -14 3 C-9.47669209 -1.81513423 -6.01431461 -1.20548354 0 0 Z " fill="#B1ACCC" transform="translate(128,241)"/>
<path d="M0 0 C2.97 0.99 5.94 1.98 9 3 C6.11970643 5.28552297 3.2169425 6.97320422 -0.0625 8.625 C-5.44408946 11.50335683 -9.95551713 14.99741446 -14.58984375 18.94921875 C-16.6740582 20.72265892 -18.79155191 22.38593701 -21 24 C-21.33 23.01 -21.66 22.02 -22 21 C-20.35 19.35 -18.7 17.7 -17 16 C-17.33 15.34 -17.66 14.68 -18 14 C-17.67 13.34 -17.34 12.68 -17 12 C-15.02 12 -13.04 12 -11 12 C-11.33 11.01 -11.66 10.02 -12 9 C-9.10765685 8.17361624 -7.11257569 8 -4 8 C-3.67 6.68 -3.34 5.36 -3 4 C-2.34 4 -1.68 4 -1 4 C-0.67 2.68 -0.34 1.36 0 0 Z " fill="#3A226E" transform="translate(99,56)"/>
<path d="M0 0 C0.99 0.33 1.98 0.66 3 1 C1.38405168 3.04119788 -0.2856382 5.04072937 -2 7 C-2.66 7 -3.32 7 -4 7 C-4.33 7.99 -4.66 8.98 -5 10 C-6.66666667 11.66666667 -8.33333333 13.33333333 -10 15 C-10.515625 15.9075 -11.03125 16.815 -11.5625 17.75 C-13 20 -13 20 -15.0625 20.875 C-17 21 -17 21 -19 20 C-17.70159182 17.13877912 -16.3291723 15.0807105 -14.1015625 12.87109375 C-13.53953125 12.31099609 -12.9775 11.75089844 -12.3984375 11.17382812 C-11.81320313 10.60083984 -11.22796875 10.02785156 -10.625 9.4375 C-10.0475 8.86064453 -9.47 8.28378906 -8.875 7.68945312 C-2.69531134 1.57325442 -2.69531134 1.57325442 0 0 Z " fill="#EC7EF7" transform="translate(89,70)"/>
<path d="M0 0 C0.95084473 -0.00064453 1.90168945 -0.00128906 2.88134766 -0.00195312 C7.56869561 0.03444061 12.01624628 0.22413175 16.625 1.1875 C13.25088489 3.2292903 10.71142863 3.41221081 6.80078125 3.34765625 C5.69025391 3.33669922 4.57972656 3.32574219 3.43554688 3.31445312 C2.28119141 3.29318359 1.12683594 3.27191406 -0.0625 3.25 C-2.35801259 3.21573862 -4.65359104 3.18555924 -6.94921875 3.16015625 C-8.47421997 3.13320679 -8.47421997 3.13320679 -10.0300293 3.10571289 C-12.33403355 2.91919027 -12.33403355 2.91919027 -13.375 4.1875 C-14.89428038 4.25929964 -16.41667482 4.27142007 -17.9375 4.25 C-18.76378906 4.24097656 -19.59007812 4.23195313 -20.44140625 4.22265625 C-21.07949219 4.21105469 -21.71757813 4.19945312 -22.375 4.1875 C-22.705 3.5275 -23.035 2.8675 -23.375 2.1875 C-15.55925303 0.34074122 -8.00107336 -0.00528734 0 0 Z " fill="#F08DFA" transform="translate(149.375,50.8125)"/>
<path d="M0 0 C0.8971875 0.680625 0.8971875 0.680625 1.8125 1.375 C3.50590652 2.63295913 5.24477086 3.82984724 7 5 C7 5.66 7 6.32 7 7 C6.01 7.33 5.02 7.66 4 8 C3.34 7.67 2.68 7.34 2 7 C2.99 9.97 3.98 12.94 5 16 C4.01 16 3.02 16 2 16 C1.67 14.35 1.34 12.7 1 11 C-2.0745356 11.7763932 -2.0745356 11.7763932 -4 14 C-4.99 13.01 -5.98 12.02 -7 11 C-5.02 8.36 -3.04 5.72 -1 3 C-1.66 2.67 -2.32 2.34 -3 2 C-2.01 2 -1.02 2 0 2 C0 1.34 0 0.68 0 0 Z " fill="#30245A" transform="translate(205,64)"/>
<path d="M0 0 C-0.598125 0.28875 -1.19625 0.5775 -1.8125 0.875 C-4.19327792 2.04742026 -4.19327792 2.04742026 -7 4 C-7 3.34 -7 2.68 -7 2 C-8.65 2.33 -10.3 2.66 -12 3 C-12 3.99 -12 4.98 -12 6 C-12.969375 6.309375 -13.93875 6.61875 -14.9375 6.9375 C-17.84065792 7.69523342 -17.84065792 7.69523342 -19 9 C-18.67 9.99 -18.34 10.98 -18 12 C-21.82989106 13.80230168 -24.78121808 14.19622241 -29 14 C-29 13.34 -29 12.68 -29 12 C-22.32895558 6.14069771 -9.13590375 -2.83528048 0 0 Z " fill="#766E9D" transform="translate(53,10)"/>
<path d="M0 0 C0.66 0 1.32 0 2 0 C2 1.98 2 3.96 2 6 C1.40058594 6.08507812 0.80117187 6.17015625 0.18359375 6.2578125 C-2.62942445 7.21393675 -3.31568222 8.42205677 -4.9375 10.875 C-6.87772438 13.65450718 -7.89360761 14.93755229 -10.875 16.6875 C-11.57625 17.120625 -12.2775 17.55375 -13 18 C-13.41780879 20.62694422 -13.41780879 20.62694422 -13 23 C-14.65 22.67 -16.3 22.34 -18 22 C-17.42240791 18.78483863 -16.54995661 17.19117183 -14.19921875 14.94140625 C-13.35133789 14.11479492 -13.35133789 14.11479492 -12.48632812 13.27148438 C-11.89271484 12.70751953 -11.29910156 12.14355469 -10.6875 11.5625 C-9.52237971 10.44124913 -8.35957044 9.3175913 -7.19921875 8.19140625 C-6.64669434 7.65531738 -6.09416992 7.11922852 -5.52490234 6.56689453 C-3.79486402 4.84370875 -3.79486402 4.84370875 -1.70703125 2.08984375 C-0.86205078 1.05537109 -0.86205078 1.05537109 0 0 Z " fill="#1E1839" transform="translate(229,209)"/>
<path d="M0 0 C2.475 0.495 2.475 0.495 5 1 C0.77764902 5.22235098 -6.1336895 4.12971386 -11.765625 4.13671875 C-12.83296875 4.13285156 -13.9003125 4.12898437 -15 4.125 C-16.60101563 4.13080078 -16.60101563 4.13080078 -18.234375 4.13671875 C-23.26129735 4.13046636 -28.06335054 4.07989207 -33 3 C-33 2.67 -33 2.34 -33 2 C-25.42578208 1.25060741 -17.92023393 0.89332085 -10.3125 0.875 C-9.12744873 0.86823242 -9.12744873 0.86823242 -7.91845703 0.86132812 C-2.24771216 0.87614392 -2.24771216 0.87614392 0 2 C0 1.34 0 0.68 0 0 Z " fill="#F070F9" transform="translate(131,183)"/>
<path d="M0 0 C6.07190133 1.43808189 11.36476177 4.88691311 16 9 C16 9.99 16 10.98 16 12 C10.69356959 12.50537432 8.13319688 11.30655751 4 8 C1.68107047 5.44118121 0.60663905 3.39717866 0 0 Z " fill="#40386A" transform="translate(255,12)"/>
<path d="M0 0 C2 3 2 3 2 5 C2.66 5 3.32 5 4 5 C3.67 5.66 3.34 6.32 3 7 C1.93750247 9.86578949 1.93750247 9.86578949 1.6875 12.4375 C0.84260003 15.58667263 -0.57500629 16.8879087 -3 19 C-3.66 18.67 -4.32 18.34 -5 18 C-4.56699236 11.18012971 -3.09212176 6.08356979 0 0 Z " fill="#423977" transform="translate(12,38)"/>
<path d="M0 0 C0 0.66 0 1.32 0 2 C-8.44304229 5.63002202 -16.08645846 6.38630476 -25.1875 6.375 C-26.21560791 6.37628906 -27.24371582 6.37757813 -28.30297852 6.37890625 C-35.73010672 6.26989328 -35.73010672 6.26989328 -38 4 C-36.20369141 3.94392578 -36.20369141 3.94392578 -34.37109375 3.88671875 C-25.00790852 3.5303479 -16.14264064 2.71768594 -7.00390625 0.62109375 C-4 0 -4 0 0 0 Z " fill="#D1CCEA" transform="translate(147,217)"/>
<path d="M0 0 C0.99 0.66 1.98 1.32 3 2 C1.58510266 3.27280294 0.16800334 4.5431583 -1.25 5.8125 C-2.03890625 6.52019531 -2.8278125 7.22789062 -3.640625 7.95703125 C-8.10004486 11.81841633 -8.10004486 11.81841633 -10 13 C-10.99 12.67 -11.98 12.34 -13 12 C-13.33 11.01 -13.66 10.02 -14 9 C-9.25 4.125 -9.25 4.125 -7 3 C-6.34 3.66 -5.68 4.32 -5 5 C-3.35 3.35 -1.7 1.7 0 0 Z " fill="#D0CDE2" transform="translate(214,221)"/>
<path d="M0 0 C0.99 0.33 1.98 0.66 3 1 C2.34 3.64 1.68 6.28 1 9 C-0.32 9.33 -1.64 9.66 -3 10 C-4.3045656 12.99615946 -4.3045656 12.99615946 -5 16 C-5.66 16 -6.32 16 -7 16 C-7.66 14.68 -8.32 13.36 -9 12 C-8.27683594 11.07767578 -8.27683594 11.07767578 -7.5390625 10.13671875 C-6.90742188 9.32847656 -6.27578125 8.52023438 -5.625 7.6875 C-4.99851562 6.88699219 -4.37203125 6.08648437 -3.7265625 5.26171875 C-2.42243282 3.55336788 -1.19218183 1.78827274 0 0 Z " fill="#6E6595" transform="translate(22,24)"/>
<path d="M0 0 C1 3 1 3 0 6 C-1.5843317 5.91231752 -3.16753567 5.80412671 -4.75 5.6875 C-6.07257813 5.60048828 -6.07257813 5.60048828 -7.421875 5.51171875 C-10.32303774 4.9358819 -11.79225607 3.92403852 -14 2 C-9.32380218 -1.77112727 -5.55498905 -1.00449693 0 0 Z " fill="#BFBAD9" transform="translate(128,241)"/>
<path d="M0 0 C4.62 0 9.24 0 14 0 C14 2 14 2 12.77807617 3.6340332 C10.45855801 5.41595056 9.41588769 5.22081789 6.55078125 4.85546875 C5.70322266 4.75556641 4.85566406 4.65566406 3.98242188 4.55273438 C3.10134766 4.43220703 2.22027344 4.31167969 1.3125 4.1875 C0.41982422 4.07857422 -0.47285156 3.96964844 -1.39257812 3.85742188 C-3.5973241 3.58624991 -5.79901513 3.29994714 -8 3 C-8 2.67 -8 2.34 -8 2 C-5.36 2 -2.72 2 0 2 C0 1.34 0 0.68 0 0 Z " fill="#2D2361" transform="translate(224,10)"/>
<path d="M0 0 C0.66 0.66 1.32 1.32 2 2 C-4.34336001 8.17481663 -11.85213584 14.77118243 -21 16 C-21.66 15.34 -22.32 14.68 -23 14 C-22 13 -22 13 -18.9375 12.9375 C-17.4834375 12.9684375 -17.4834375 12.9684375 -16 13 C-15.34 11.68 -14.68 10.36 -14 9 C-12.35 9 -10.7 9 -9 9 C-9 8.34 -9 7.68 -9 7 C-7.68 7 -6.36 7 -5 7 C-5 6.34 -5 5.68 -5 5 C-4.34 5 -3.68 5 -3 5 C-3 4.34 -3 3.68 -3 3 C-1.5 1.375 -1.5 1.375 0 0 Z " fill="#D870E3" transform="translate(159,168)"/>
<path d="M0 0 C0.99386719 0.10183594 1.98773438 0.20367187 3.01171875 0.30859375 C3.77097656 0.39238281 4.53023437 0.47617188 5.3125 0.5625 C4.9825 1.2225 4.6525 1.8825 4.3125 2.5625 C4.9725 3.2225 5.6325 3.8825 6.3125 4.5625 C3.02273192 5.65908936 1.59946233 5.36203138 -1.6875 4.5625 C-2.0175 5.2225 -2.3475 5.8825 -2.6875 6.5625 C-2.6875 5.9025 -2.6875 5.2425 -2.6875 4.5625 C-7.1425 3.5725 -7.1425 3.5725 -11.6875 2.5625 C-7.41004526 -0.28913649 -4.98972614 -0.52832394 0 0 Z " fill="#34286F" transform="translate(58.6875,9.4375)"/>
<path d="M0 0 C4.29 0.33 8.58 0.66 13 1 C13 1.99 13 2.98 13 4 C4.09 5.485 4.09 5.485 -5 7 C-5 6.34 -5 5.68 -5 5 C-5.66 4.67 -6.32 4.34 -7 4 C-3.535 3.505 -3.535 3.505 0 3 C0 2.01 0 1.02 0 0 Z " fill="#3D2671" transform="translate(125,48)"/>
<path d="M0 0 C0.33 0 0.66 0 1 0 C1.78287497 6.10642479 -0.89174849 10.00459579 -4 15 C-6 13 -6 13 -6.3125 9.0625 C-6.25612142 6.23844574 -6.23113287 5.30817716 -4.5 3 C-4.005 2.67 -3.51 2.34 -3 2 C-2.34 2.33 -1.68 2.66 -1 3 C-0.67 2.01 -0.34 1.02 0 0 Z " fill="#DFDDED" transform="translate(240,183)"/>
<path d="M0 0 C0 0.66 0 1.32 0 2 C1.98 1.67 3.96 1.34 6 1 C5.67 1.66 5.34 2.32 5 3 C-2.92 2.67 -10.84 2.34 -19 2 C-16.22591333 -3.54817334 -4.96197601 -1.01784123 0 0 Z " fill="#42206E" transform="translate(161,49)"/>
<path d="M0 0 C1.98 0 3.96 0 6 0 C5.38490238 2.64850284 4.75850592 5.29339905 4.125 7.9375 C3.95097656 8.69224609 3.77695312 9.44699219 3.59765625 10.22460938 C3.12755935 12.16593545 2.5695703 14.08549544 2 16 C1.34 16.33 0.68 16.66 0 17 C-1.20827412 12.83816692 -0.82247604 9.30342983 -0.25390625 5.0859375 C0.0604155 2.85388575 0.0604155 2.85388575 0 0 Z " fill="#391B69" transform="translate(49,116)"/>
<path d="M0 0 C0.33 0 0.66 0 1 0 C1.41247574 5.44811706 -0.01089003 9.42014497 -2 14.375 C-2.42925781 15.47908203 -2.42925781 15.47908203 -2.8671875 16.60546875 C-3.56914861 18.40716893 -4.28334405 20.20409432 -5 22 C-5.33 22 -5.66 22 -6 22 C-6 20.35 -6 18.7 -6 17 C-6.66 16.67 -7.32 16.34 -8 16 C-8 14.68 -8 13.36 -8 12 C-6.68 12 -5.36 12 -4 12 C-2.68 8.04 -1.36 4.08 0 0 Z " fill="#E479ED" transform="translate(178,132)"/>
<path d="M0 0 C0.66 0.33 1.32 0.66 2 1 C1.09674384 2.32176485 0.17682097 3.63215066 -0.75 4.9375 C-1.26046875 5.66839844 -1.7709375 6.39929688 -2.296875 7.15234375 C-4.20326744 9.2205172 -5.21768274 9.77194121 -8 10 C-9.75 8.5625 -9.75 8.5625 -11 7 C-7.53252172 4.22601737 -3.93597489 2.04087587 0 0 Z " fill="#CCC9DF" transform="translate(170,206)"/>
<path d="M0 0 C0.66 0.33 1.32 0.66 2 1 C2.02725341 2.7290774 2.04650987 4.45828176 2.0625 6.1875 C2.07410156 7.15042969 2.08570313 8.11335937 2.09765625 9.10546875 C2.00486622 11.85576513 1.62111685 14.32479591 1 17 C0.01 16.67 -0.98 16.34 -2 16 C-1.835 15.38125 -1.67 14.7625 -1.5 14.125 C-0.92365356 12.03936614 -0.92365356 12.03936614 -1 10 C-1.66 10 -2.32 10 -3 10 C-2.67 8.35 -2.34 6.7 -2 5 C-1.34 5 -0.68 5 0 5 C0 3.35 0 1.7 0 0 Z " fill="#EEEDF4" transform="translate(245,155)"/>
<path d="M0 0 C3 1 3 1 4 2 C5.32520503 2.68268138 6.65812182 3.3507041 8 4 C8 5.65 8 7.3 8 9 C3.71 7.02 -0.58 5.04 -5 3 C-3.68 2.34 -2.36 1.68 -1 1 C-0.67 0.67 -0.34 0.34 0 0 Z " fill="#3B2269" transform="translate(192,56)"/>
<path d="M0 0 C2 2 2 2 2.3125 4.5 C2.1578125 5.7375 2.1578125 5.7375 2 7 C1.01 7.66 0.02 8.32 -1 9 C-2.98 7.35 -4.96 5.7 -7 4 C-6.34 3.01 -5.68 2.02 -5 1 C-4.01 1.66 -3.02 2.32 -2 3 C-2 2.34 -2 1.68 -2 1 C-1.34 0.67 -0.68 0.34 0 0 Z " fill="#C3BEDD" transform="translate(93,224)"/>
<path d="M0 0 C0.66 0 1.32 0 2 0 C5.44419134 12.48519362 5.44419134 12.48519362 5 19 C3.97354726 16.94709452 2.95439587 14.90024097 2 12.8125 C1.12855431 10.82798477 1.12855431 10.82798477 -1 10 C-1.125 3.375 -1.125 3.375 0 0 Z M1 5 C2 9 2 9 2 9 Z " fill="#F3F2F7" transform="translate(242,121)"/>
<path d="M0 0 C0.66 0 1.32 0 2 0 C0.43586569 3.83923876 -2.09936232 6.09936232 -5 9 C-5.8353125 10.3921875 -5.8353125 10.3921875 -6.6875 11.8125 C-7.120625 12.534375 -7.55375 13.25625 -8 14 C-8.66 14 -9.32 14 -10 14 C-8.58707905 9.1725201 -6.57025846 5.2837641 -4 1 C-3.34 1.33 -2.68 1.66 -2 2 C-1.67 1.67 -1.34 1.34 -1 1 C-0.67 0.67 -0.34 0.34 0 0 Z " fill="#E776F1" transform="translate(68,96)"/>
<path d="M0 0 C3.59334725 2.14029973 7.15138133 4.32890799 10.6875 6.5625 C12.11642578 7.46162109 12.11642578 7.46162109 13.57421875 8.37890625 C16 10 16 10 18 12 C13.43545749 11.45660208 10.0271824 10.20536179 6 8 C6 7.34 6 6.68 6 6 C4.68 5.67 3.36 5.34 2 5 C2 4.01 2 3.02 2 2 C1.34 2 0.68 2 0 2 C0 1.34 0 0.68 0 0 Z " fill="#3D1867" transform="translate(62,167)"/>
<path d="M0 0 C0.99 0.33 1.98 0.66 3 1 C2.40912862 4.60188716 0.98667144 6.50125598 -1.4375 9.1875 C-2.05496094 9.88230469 -2.67242187 10.57710938 -3.30859375 11.29296875 C-5 13 -5 13 -7 14 C-7.1875 11.625 -7.1875 11.625 -7 9 C-4.68143083 7.45428722 -2.49361571 6.20381448 0 5 C0 3.35 0 1.7 0 0 Z " fill="#2D2A3F" transform="translate(279,264)"/>
<path d="M0 0 C-0.928125 0.4021875 -0.928125 0.4021875 -1.875 0.8125 C-4.2995233 1.95556848 -4.2995233 1.95556848 -6 5 C-9.125 5.1875 -9.125 5.1875 -12 5 C-12.33 5.66 -12.66 6.32 -13 7 C-13.99 6.67 -14.98 6.34 -16 6 C-16 5.34 -16 4.68 -16 4 C-14.08959948 3.1319092 -12.17139263 2.28098217 -10.25 1.4375 C-9.18265625 0.96183594 -8.1153125 0.48617187 -7.015625 -0.00390625 C-4.01630163 -0.9946154 -2.86578759 -1.16161779 0 0 Z " fill="#1C1639" transform="translate(197,240)"/>
<path d="M0 0 C0.81404297 0.61488281 0.81404297 0.61488281 1.64453125 1.2421875 C2.35996094 1.78101562 3.07539063 2.31984375 3.8125 2.875 C4.52019531 3.40867187 5.22789062 3.94234375 5.95703125 4.4921875 C7.60456297 5.70814781 9.29624211 6.86416141 11 8 C10.67 8.99 10.34 9.98 10 11 C9.401875 10.690625 8.80375 10.38125 8.1875 10.0625 C5.91043228 8.89790296 5.91043228 8.89790296 3 8 C0 2.77777778 0 2.77777778 0 0 Z " fill="#EEEBF5" transform="translate(206,69)"/>
<path d="M0 0 C1.0828125 0.37125 1.0828125 0.37125 2.1875 0.75 C2.5175 1.74 2.8475 2.73 3.1875 3.75 C-0.64239106 5.55230168 -3.59371808 5.94622241 -7.8125 5.75 C-7.8125 3.75 -7.8125 3.75 -5.625 1.5625 C-2.8125 -0.25 -2.8125 -0.25 0 0 Z " fill="#595086" transform="translate(31.8125,18.25)"/>
<path d="M0 0 C1.32 0.33 2.64 0.66 4 1 C4.33 1.99 4.66 2.98 5 4 C3.35 4.33 1.7 4.66 0 5 C0.33 6.32 0.66 7.64 1 9 C-0.65 8.67 -2.3 8.34 -4 8 C-2.68 5.36 -1.36 2.72 0 0 Z " fill="#1D163C" transform="translate(235,199)"/>
<path d="M0 0 C0.33 0 0.66 0 1 0 C1.22786458 1.98567708 1.45572917 3.97135417 1.68359375 5.95703125 C1.97170735 8.19396393 1.97170735 8.19396393 3 11 C3.03874921 12.66621616 3.0450286 14.33394172 3 16 C3.99 16.33 4.98 16.66 6 17 C5.67 18.32 5.34 19.64 5 21 C0.46806282 16.24146596 -0.3460239 13.18011693 -0.3125 6.5625 C-0.23262695 4.3739783 -0.13641839 2.18572573 0 0 Z " fill="#D267DF" transform="translate(49,138)"/>
<path d="M0 0 C0.66 0.33 1.32 0.66 2 1 C0.79618552 3.49361571 -0.45428722 5.68143083 -2 8 C-2.66 8 -3.32 8 -4 8 C-4.33 9.65 -4.66 11.3 -5 13 C-5.99 12.67 -6.98 12.34 -8 12 C-6.59023295 8.96147295 -4.91129772 6.4060405 -2.875 3.75 C-2.06675781 2.69039063 -2.06675781 2.69039063 -1.2421875 1.609375 C-0.83226562 1.07828125 -0.42234375 0.5471875 0 0 Z " fill="#3E1B67" transform="translate(197,76)"/>
<path d="M0 0 C-5.78871099 3.85914066 -10.19672424 4.26679513 -17 4 C-17.33 3.34 -17.66 2.68 -18 2 C-16.12612523 1.6603981 -14.25083303 1.32861309 -12.375 1 C-11.33085937 0.814375 -10.28671875 0.62875 -9.2109375 0.4375 C-6.09425135 0.01284203 -3.14069188 -0.07545206 0 0 Z " fill="#DF85EF" transform="translate(144,51)"/>
<path d="M0 0 C0.99 0 1.98 0 3 0 C1.44499019 3.81684226 -1.03595495 6.19195732 -4 9 C-4.66 8.67 -5.32 8.34 -6 8 C-5.67 6.02 -5.34 4.04 -5 2 C-3.02 2.495 -3.02 2.495 -1 3 C-0.67 2.01 -0.34 1.02 0 0 Z " fill="#D7D3E7" transform="translate(226,208)"/>
<path d="M0 0 C0.66 0.33 1.32 0.66 2 1 C0.37965717 3.14949538 -1.24595794 5.2946141 -2.875 7.4375 C-3.33519531 8.04916016 -3.79539063 8.66082031 -4.26953125 9.29101562 C-7.7734375 13.88671875 -7.7734375 13.88671875 -10 15 C-10 14.01 -10 13.02 -10 12 C-9.34 12 -8.68 12 -8 12 C-7.938125 11.46375 -7.87625 10.9275 -7.8125 10.375 C-6.59964736 6.82973843 -4.55389074 4.7407608 -2 2 C-1.34 2 -0.68 2 0 2 C0 1.34 0 0.68 0 0 Z " fill="#E182ED" transform="translate(177,99)"/>
<path d="M0 0 C1.875 0.75 1.875 0.75 2.875 2.75 C2.545 3.41 2.215 4.07 1.875 4.75 C2.535 5.08 3.195 5.41 3.875 5.75 C-2.875 4.875 -2.875 4.875 -5.125 3.75 C-5.125 3.09 -5.125 2.43 -5.125 1.75 C-2.125 -0.25 -2.125 -0.25 0 0 Z " fill="#292446" transform="translate(42.125,283.25)"/>
<path d="M0 0 C-0.33 0.99 -0.66 1.98 -1 3 C-12.385 2.505 -12.385 2.505 -24 2 C-24 1.67 -24 1.34 -24 1 C-20.75008318 0.83168475 -17.50005436 0.66563638 -14.25 0.5 C-13.32960938 0.45230469 -12.40921875 0.40460938 -11.4609375 0.35546875 C-10.12675781 0.28779297 -10.12675781 0.28779297 -8.765625 0.21875 C-7.94868164 0.17685547 -7.13173828 0.13496094 -6.29003906 0.09179688 C-4.19481876 0.00780937 -2.09690296 0 0 0 Z " fill="#612379" transform="translate(132,186)"/>
<path d="M0 0 C0.66 0.33 1.32 0.66 2 1 C2 1.99 2 2.98 2 4 C5.63 4.66 9.26 5.32 13 6 C13 6.33 13 6.66 13 7 C8.05 7.33 3.1 7.66 -2 8 C-1.34 7.01 -0.68 6.02 0 5 C0.16713569 2.37468476 0.16713569 2.37468476 0 0 Z " fill="#E67EF0" transform="translate(165,114)"/>
<path d="M0 0 C1.04296875 1.890625 1.04296875 1.890625 2 4 C1.3125 5.75 1.3125 5.75 0 8 C-0.77205786 10.0874157 -1.4997405 12.18673984 -2.21875 14.29296875 C-3 16 -3 16 -5 17 C-4.46246904 10.81839396 -2.45417612 5.673142 0 0 Z " fill="#D36DE3" transform="translate(57,110)"/>
<path d="M0 0 C0.93065133 2.60582371 1.14917407 3.64198224 0.0625 6.25 C-0.4634375 7.11625 -0.4634375 7.11625 -1 8 C-0.01 7.67 0.98 7.34 2 7 C2.36923077 11.55384615 2.36923077 11.55384615 0.5 13.8125 C0.005 14.204375 -0.49 14.59625 -1 15 C-1.66 14.67 -2.32 14.34 -3 14 C-2.58846263 9.02906176 -2.20399168 4.55491614 0 0 Z " fill="#71639A" transform="translate(10,42)"/>
<path d="M0 0 C0.99 0.33 1.98 0.66 3 1 C2.01 1.495 2.01 1.495 1 2 C0.34227572 5.02934491 0.34227572 5.02934491 0 8 C-0.99 7.67 -1.98 7.34 -3 7 C-3 6.34 -3 5.68 -3 5 C-3.66 5 -4.32 5 -5 5 C-5.33 5.66 -5.66 6.32 -6 7 C-6 6.01 -6 5.02 -6 4 C-3.1875 1.75 -3.1875 1.75 0 0 Z " fill="#181237" transform="translate(205,232)"/>
<path d="M0 0 C1.875 0.25 1.875 0.25 4 1 C6.02755186 3.93995019 6 5.27704003 6 9 C5.01 9 4.02 9 3 9 C0.72162458 6.72162458 0.03353711 5.49187763 -0.1875 2.25 C-0.125625 1.5075 -0.06375 0.765 0 0 Z " fill="#EDECF0" transform="translate(233,102)"/>
<path d="M0 0 C0.845625 0.639375 1.69125 1.27875 2.5625 1.9375 C5.90728565 4.1966273 8.97396992 4.67791759 13 5 C11.68 6.32 10.36 7.64 9 9 C5.7 6.69 2.4 4.38 -1 2 C-0.67 1.34 -0.34 0.68 0 0 Z " fill="#E16AE9" transform="translate(67,168)"/>
<path d="M0 0 C0.66 0.33 1.32 0.66 2 1 C2.34153937 2.66500443 2.67449498 4.33178677 3 6 C3.66 6.66 4.32 7.32 5 8 C3.02 8.99 3.02 8.99 1 10 C-2.0651341 5.5862069 -2.0651341 5.5862069 -1.75 2.75 C-1 1 -1 1 0 0 Z " fill="#F0EFF5" transform="translate(227,112)"/>
<path d="M0 0 C3.77545388 1.09068668 6.47043472 1.9083091 9 5 C7.625 6.5 7.625 6.5 6 8 C5.34 8 4.68 8 4 8 C1.73603877 5.46436342 0.59687434 3.34249629 0 0 Z " fill="#4C4373" transform="translate(255,12)"/>
<path d="M0 0 C3.875 1.75 3.875 1.75 5 4 C5.99 3.67 6.98 3.34 8 3 C7.67 4.65 7.34 6.3 7 8 C6.01 8 5.02 8 4 8 C0 3.77142857 0 3.77142857 0 0 Z " fill="#2D2366" transform="translate(64,80)"/>
<path d="M0 0 C2.97 0 5.94 0 9 0 C8.67 0.99 8.34 1.98 8 3 C6.1875 3.625 6.1875 3.625 4 4 C2.88625 4.2784375 2.88625 4.2784375 1.75 4.5625 C1.1725 4.706875 0.595 4.85125 0 5 C0 3.35 0 1.7 0 0 Z " fill="#171038" transform="translate(136,250)"/>
<path d="M0 0 C0.33 0.66 0.66 1.32 1 2 C2.98 2 4.96 2 7 2 C6.67 2.99 6.34 3.98 6 5 C-0.52307692 5.36923077 -0.52307692 5.36923077 -2.9375 3.5 C-3.4634375 2.7575 -3.4634375 2.7575 -4 2 C-2.68 1.34 -1.36 0.68 0 0 Z " fill="#F867FA" transform="translate(73,168)"/>
<path d="M0 0 C2.31 0.33 4.62 0.66 7 1 C7 1.99 7 2.98 7 4 C5.35 4.66 3.7 5.32 2 6 C0 3 0 3 0 0 Z " fill="#CBC8DE" transform="translate(192,233)"/>
<path d="M0 0 C1.65 0.33 3.3 0.66 5 1 C2.31907309 3.68092691 0.60832637 3.38670257 -3.125 3.625 C-4.22070312 3.69976562 -5.31640625 3.77453125 -6.4453125 3.8515625 C-7.28835937 3.90054688 -8.13140625 3.94953125 -9 4 C-8.67 3.34 -8.34 2.68 -8 2 C-2.55072464 0.72463768 -2.55072464 0.72463768 0 2 C0 1.34 0 0.68 0 0 Z " fill="#DC70EA" transform="translate(131,183)"/>
<path d="M0 0 C0.99 0.33 1.98 0.66 3 1 C2.34 3.64 1.68 6.28 1 9 C-0.32 8.01 -1.64 7.02 -3 6 C-2.01 4.02 -1.02 2.04 0 0 Z " fill="#4B4279" transform="translate(22,24)"/>
<path d="M0 0 C0.33 0.99 0.66 1.98 1 3 C-0.39852912 5.79705825 -2.13651858 5.90914993 -5 7 C-5.99 7.66 -6.98 8.32 -8 9 C-8 7.68 -8 6.36 -8 5 C-6.25 3.515625 -6.25 3.515625 -4 2.25 C-3.2575 1.82203125 -2.515 1.3940625 -1.75 0.953125 C-1.1725 0.63859375 -0.595 0.3240625 0 0 Z " fill="#2F1256" transform="translate(156,174)"/>
<path d="M0 0 C0 0.66 0 1.32 0 2 C-0.99 2 -1.98 2 -3 2 C-3 2.66 -3 3.32 -3 4 C-5.8125 5.125 -5.8125 5.125 -9 6 C-9.99 5.34 -10.98 4.68 -12 4 C-10.3767313 3.3291288 -8.75132422 2.66342971 -7.125 2 C-6.22007813 1.62875 -5.31515625 1.2575 -4.3828125 0.875 C-2 0 -2 0 0 0 Z " fill="#DB7FEA" transform="translate(120,55)"/>
<path d="M0 0 C0.66 0 1.32 0 2 0 C2.66 0.66 3.32 1.32 4 2 C4.66 2 5.32 2 6 2 C6 2.99 6 3.98 6 5 C4.68 4.67 3.36 4.34 2 4 C2 4.66 2 5.32 2 6 C1.01 6 0.02 6 -1 6 C-1.042721 4.33388095 -1.04063832 2.66617115 -1 1 C-0.67 0.67 -0.34 0.34 0 0 Z " fill="#100C29" transform="translate(266,273)"/>
<path d="M0 0 C1 3 1 3 0.22265625 5.04296875 C-0.16019531 5.75066406 -0.54304688 6.45835937 -0.9375 7.1875 C-1.31777344 7.90292969 -1.69804687 8.61835938 -2.08984375 9.35546875 C-2.54037109 10.16951172 -2.54037109 10.16951172 -3 11 C-3.33 11 -3.66 11 -4 11 C-4.125 7.625 -4.125 7.625 -4 4 C-2.66666667 2.66666667 -1.33333333 1.33333333 0 0 Z " fill="#605D70" transform="translate(287,254)"/>
<path d="M0 0 C0 0.66 0 1.32 0 2 C-1.41199578 2.39222105 -2.82992764 2.76311059 -4.25 3.125 C-5.03890625 3.33382812 -5.8278125 3.54265625 -6.640625 3.7578125 C-9.4203071 4.04314411 -10.65887549 3.44977894 -13 2 C-11.58461283 1.66127487 -10.16762037 1.32925376 -8.75 1 C-7.56664062 0.7215625 -7.56664062 0.7215625 -6.359375 0.4375 C-4 0 -4 0 0 0 Z " fill="#BCB7D4" transform="translate(147,217)"/>
<path d="M0 0 C0.66 0.99 1.32 1.98 2 3 C-0.90600261 4.25664978 -2.79604584 5 -6 5 C-6 3.68 -6 2.36 -6 1 C-4.02 0.67 -2.04 0.34 0 0 Z " fill="#28214A" transform="translate(155,211)"/>
<path d="M0 0 C1.52519276 0.08937803 3.04681929 0.24537146 4.5625 0.4375 C5.80193359 0.59025391 5.80193359 0.59025391 7.06640625 0.74609375 C7.70449219 0.82988281 8.34257812 0.91367188 9 1 C6.44722581 3.79233071 4.77639718 4.48967606 1 5 C0.34 3.68 -0.32 2.36 -1 1 C-0.67 0.67 -0.34 0.34 0 0 Z " fill="#1C153F" transform="translate(155,208)"/>
<path d="M0 0 C0.99 0.33 1.98 0.66 3 1 C0.25 6.875 0.25 6.875 -2 8 C-2 7.34 -2 6.68 -2 6 C-2.66 5.67 -3.32 5.34 -4 5 C-2.68 3.35 -1.36 1.7 0 0 Z " fill="#392067" transform="translate(182,95)"/>
<path d="M0 0 C4.8333472 -0.08333357 9.23692563 0.04738513 14 1 C10.59271925 3.09678815 7.96792579 3.4133256 4 3 C1.625 1.5 1.625 1.5 0 0 Z " fill="#E188EE" transform="translate(152,51)"/>
<path d="M0 0 C-1.04874998 2.62187494 -1.64931313 3.79371361 -4.125 5.25 C-4.74375 5.4975 -5.3625 5.745 -6 6 C-7.13031152 3.73937696 -7 3.46191293 -7 1 C-4.50935112 0.31292445 -2.62113708 0 0 0 Z " fill="#1C153D" transform="translate(186,192)"/>
<path d="M0 0 C0.33 1.32 0.66 2.64 1 4 C0.401875 4.268125 -0.19625 4.53625 -0.8125 4.8125 C-2.97224808 5.98493467 -4.35790256 7.19369282 -6 9 C-5.25 4.25 -5.25 4.25 -3 2 C-2.34 2.33 -1.68 2.66 -1 3 C-0.67 2.01 -0.34 1.02 0 0 Z " fill="#E8E5F4" transform="translate(240,183)"/>
<path d="M0 0 C-0.33 1.65 -0.66 3.3 -1 5 C-1.99 5 -2.98 5 -4 5 C-5.6875 3 -5.6875 3 -7 1 C-4.50935112 0.31292445 -2.62113708 0 0 0 Z " fill="#E96AEF" transform="translate(64,160)"/>
<path d="M0 0 C2.475 0.495 2.475 0.495 5 1 C4.34 2.98 3.68 4.96 3 7 C2.01 7 1.02 7 0 7 C0 4.69 0 2.38 0 0 Z " fill="#EFEEF2" transform="translate(211,143)"/>
<path d="M0 0 C0.66 0 1.32 0 2 0 C1.75 2.375 1.75 2.375 1 5 C-1.0625 6.3125 -1.0625 6.3125 -3 7 C-2.25 2.25 -2.25 2.25 0 0 Z " fill="#2D1A5E" transform="translate(178,101)"/>
<path d="M0 0 C1.9375 1 1.9375 1 4 3 C4.66549451 5.69924572 4.81680763 8.20631637 5 11 C2.27042661 8.64264116 1.11106604 6.41866474 0 3 C0 2.01 0 1.02 0 0 Z " fill="#EEECF5" transform="translate(214,87)"/>
<path d="M0 0 C4.72065967 1.54269924 9.41664092 3.07794619 14 5 C14 5.33 14 5.66 14 6 C9.27096071 6.32993297 6.90444913 5.6381413 3 3 C2.01 2.67 1.02 2.34 0 2 C0 1.34 0 0.68 0 0 Z " fill="#D783E4" transform="translate(178,55)"/>
<path d="M0 0 C1.2065625 0.0309375 1.2065625 0.0309375 2.4375 0.0625 C3.0975 1.3825 3.7575 2.7025 4.4375 4.0625 C3.7775 4.7225 3.1175 5.3825 2.4375 6.0625 C2.4375 5.4025 2.4375 4.7425 2.4375 4.0625 C0.7875 4.0625 -0.8625 4.0625 -2.5625 4.0625 C-2.8925 3.0725 -3.2225 2.0825 -3.5625 1.0625 C-2.5625 0.0625 -2.5625 0.0625 0 0 Z " fill="#322768" transform="translate(35.5625,16.9375)"/>
<path d="M0 0 C0.66 0 1.32 0 2 0 C2 0.66 2 1.32 2 2 C2.66 2 3.32 2 4 2 C3.67 3.65 3.34 5.3 3 7 C2.01 7 1.02 7 0 7 C0.33 6.01 0.66 5.02 1 4 C0.34 3.67 -0.32 3.34 -1 3 C-0.67 2.01 -0.34 1.02 0 0 Z " fill="#1D1642" transform="translate(193,174)"/>
<path d="M0 0 C-1.64169528 2.02054804 -3.30911778 4.02043058 -5 6 C-5.33 6 -5.66 6 -6 6 C-6 4.02 -6 2.04 -6 0 C-3.50907189 -1.24546405 -2.58919267 -0.7767578 0 0 Z " fill="#EB75F0" transform="translate(167,163)"/>
<path d="M0 0 C0.99 0 1.98 0 3 0 C3.17700355 4.60209225 3.10814567 6.78370866 1 11 C0.67 7.37 0.34 3.74 0 0 Z " fill="#D076DC" transform="translate(178,121)"/>
<path d="M0 0 C-1.49097658 3.7952131 -3.75700849 5.61042731 -7 8 C-7.33 7.01 -7.66 6.02 -8 5 C-2.25 0 -2.25 0 0 0 Z " fill="#462072" transform="translate(85,72)"/>
<path d="M0 0 C0.66 0.33 1.32 0.66 2 1 C2 3.64 2 6.28 2 9 C-0 7.625 -0 7.625 -2 6 C-2 5.34 -2 4.68 -2 4 C-1.34 4 -0.68 4 0 4 C-0.33 3.01 -0.66 2.02 -1 1 C-0.67 0.67 -0.34 0.34 0 0 Z " fill="#423B64" transform="translate(20,266)"/>
<path d="M0 0 C0.66 0 1.32 0 2 0 C2.33 1.98 2.66 3.96 3 6 C1.35 5.67 -0.3 5.34 -2 5 C-1.125 1.125 -1.125 1.125 0 0 Z " fill="#140F31" transform="translate(213,226)"/>
<path d="M0 0 C0.99 0.33 1.98 0.66 3 1 C2.34 1 1.68 1 1 1 C0.67 1.99 0.34 2.98 0 4 C-3.0625 5.1875 -3.0625 5.1875 -6 6 C-6.66 5.34 -7.32 4.68 -8 4 C-7 3 -7 3 -3.9375 2.9375 C-2.4834375 2.9684375 -2.4834375 2.9684375 -1 3 C-0.67 2.01 -0.34 1.02 0 0 Z " fill="#EF6FEC" transform="translate(144,178)"/>
<path d="M0 0 C3.28788824 3.11016455 5.83735988 6.01618925 8 10 C4.31274141 9.00344362 3.20648538 8.3417689 1.1875 5 C0 2 0 2 0 0 Z " fill="#481A72" transform="translate(49,152)"/>
<path d="M0 0 C1.67542976 0.28604898 3.34385343 0.61781233 5 1 C4.67 2.65 4.34 4.3 4 6 C2.35 4.35 0.7 2.7 -1 1 C-0.67 0.67 -0.34 0.34 0 0 Z " fill="#F286F7" transform="translate(186,80)"/>
<path d="M0 0 C0.99 0.33 1.98 0.66 3 1 C2.45773019 4.79588866 0.79872437 6.47211993 -2 9 C-2 7.68 -2 6.36 -2 5 C-1.34 5 -0.68 5 0 5 C0 3.35 0 1.7 0 0 Z " fill="#484658" transform="translate(279,264)"/>
<path d="M0 0 C0.33 0.99 0.66 1.98 1 3 C0.01 3.99 -0.98 4.98 -2 6 C-2.99 4.68 -3.98 3.36 -5 2 C-2 0 -2 0 0 0 Z " fill="#120D2B" transform="translate(279,264)"/>
<path d="M0 0 C0.8125 1.6875 0.8125 1.6875 1 4 C-1.4375 6.75 -1.4375 6.75 -4 9 C-3.38461538 3.46153846 -3.38461538 3.46153846 -1.4375 1.125 C-0.963125 0.75375 -0.48875 0.3825 0 0 Z " fill="#1B1537" transform="translate(243,186)"/>
<path d="M0 0 C0 0.66 0 1.32 0 2 C0.66 2.33 1.32 2.66 2 3 C-4.625 2.25 -4.625 2.25 -8 0 C-4.71023192 -1.09658936 -3.28696233 -0.79953138 0 0 Z " fill="#D165E1" transform="translate(96,182)"/>
<path d="M0 0 C2.50298434 2.93828597 3.46930939 5.17902761 4 9 C2.68 8.67 1.36 8.34 0 8 C-0.38063221 5.6739143 -0.71269945 3.33944736 -1 1 C-0.67 0.67 -0.34 0.34 0 0 Z " fill="#6C6588" transform="translate(285,40)"/>
<path d="M0 0 C1.32 0.66 2.64 1.32 4 2 C0.375 5 0.375 5 -3 5 C-2.67 4.01 -2.34 3.02 -2 2 C-1.34 2 -0.68 2 0 2 C0 1.34 0 0.68 0 0 Z " fill="#353345" transform="translate(268,277)"/>
<path d="M0 0 C0.66 0.99 1.32 1.98 2 3 C1.67 3.99 1.34 4.98 1 6 C0.01 6 -0.98 6 -2 6 C-2.66 4.35 -3.32 2.7 -4 1 C-2.68 0.67 -1.36 0.34 0 0 Z " fill="#C9C4DF" transform="translate(127,241)"/>
<path d="M0 0 C3.3 0.33 6.6 0.66 10 1 C7 3 7 3 3.875 2.75 C2.92625 2.5025 1.9775 2.255 1 2 C0.67 1.34 0.34 0.68 0 0 Z " fill="#150F37" transform="translate(124,248)"/>
<path d="M0 0 C0 0.99 0 1.98 0 3 C-3.3 2.67 -6.6 2.34 -10 2 C-10 1.67 -10 1.34 -10 1 C-6.56484998 0.37542727 -3.50935186 0 0 0 Z " fill="#DA69E4" transform="translate(108,184)"/>
<path d="M0 0 C0.33 0 0.66 0 1 0 C2.25 6.625 2.25 6.625 0 10 C-0.66 10 -1.32 10 -2 10 C-1.34 6.7 -0.68 3.4 0 0 Z " fill="#373252" transform="translate(245,172)"/>
<path d="M0 0 C1.65 1.65 3.3 3.3 5 5 C3.68 5.33 2.36 5.66 1 6 C-0.0625 4.125 -0.0625 4.125 -1 2 C-0.67 1.34 -0.34 0.68 0 0 Z " fill="#331B62" transform="translate(57,162)"/>
<path d="M0 0 C0.33 0 0.66 0 1 0 C1 2.31 1 4.62 1 7 C-0.32 6.67 -1.64 6.34 -3 6 C-2.01 4.02 -1.02 2.04 0 0 Z " fill="#39195C" transform="translate(172,154)"/>
<path d="M0 0 C0.99 0.33 1.98 0.66 3 1 C2.01 2.485 2.01 2.485 1 4 C-2.125 4.1875 -2.125 4.1875 -5 4 C-2.6875 1.9375 -2.6875 1.9375 0 0 Z " fill="#DD7DEC" transform="translate(98,64)"/>
<path d="M0 0 C1.65 0.33 3.3 0.66 5 1 C5 1.66 5 2.32 5 3 C3.35 3.66 1.7 4.32 0 5 C-0.33 4.01 -0.66 3.02 -1 2 C-0.67 1.34 -0.34 0.68 0 0 Z " fill="#E3E1F0" transform="translate(228,200)"/>
<path d="M0 0 C0.66 0.33 1.32 0.66 2 1 C1.34 2.32 0.68 3.64 0 5 C-0.99 5 -1.98 5 -3 5 C-3.33 4.34 -3.66 3.68 -4 3 C-3.34 3 -2.68 3 -2 3 C-1.67 2.34 -1.34 1.68 -1 1 C-0.67 0.67 -0.34 0.34 0 0 Z " fill="#191339" transform="translate(190,184)"/>
<path d="M0 0 C1.32 0 2.64 0 4 0 C4 1.65 4 3.3 4 5 C1.525 4.01 1.525 4.01 -1 3 C-0.67 2.01 -0.34 1.02 0 0 Z " fill="#331E64" transform="translate(55,102)"/>
<path d="M0 0 C0.33 0.66 0.66 1.32 1 2 C0.0625 4.625 0.0625 4.625 -1 7 C-1.99 6.67 -2.98 6.34 -4 6 C-2.84826645 3.53199953 -1.95216435 1.95216435 0 0 Z " fill="#E174EA" transform="translate(74,84)"/>
<path d="M0 0 C0.99 0 1.98 0 3 0 C2.67 1.98 2.34 3.96 2 6 C0.68 5.01 -0.64 4.02 -2 3 C-1.34 2.01 -0.68 1.02 0 0 Z " fill="#392168" transform="translate(200,72)"/>
<path d="M0 0 C-0.33 0.99 -0.66 1.98 -1 3 C-3.31 3.33 -5.62 3.66 -8 4 C-6.4425489 0.88509781 -3.40085499 0 0 0 Z " fill="#E07FEC" transform="translate(108,60)"/>
<path d="M0 0 C1.0625 1.875 1.0625 1.875 2 4 C1.67 4.66 1.34 5.32 1 6 C0.34 6 -0.32 6 -1 6 C-1.66 4.68 -2.32 3.36 -3 2 C-2.01 1.34 -1.02 0.68 0 0 Z " fill="#4E467E" transform="translate(16,34)"/>
<path d="M0 0 C1.65 1.32 3.3 2.64 5 4 C4.67 4.66 4.34 5.32 4 6 C0.125 4.25 0.125 4.25 -1 2 C-0.67 1.34 -0.34 0.68 0 0 Z " fill="#544E76" transform="translate(275,26)"/>
</svg>
