<?xml version="1.0" encoding="UTF-8"?>
<svg version="1.1" xmlns="http://www.w3.org/2000/svg" width="92" height="92">
<path d="M0 0 C9.18179099 7.22358912 15.03082705 17.3105519 16.47265625 28.9453125 C17.62044801 41.34556273 14.14611641 52.19169748 6.47265625 61.9453125 C-1.3028719 70.47903531 -11.48794207 75.10860755 -22.890625 76.1640625 C-34.37884084 76.60380282 -44.64297411 73.24698755 -53.52734375 65.9453125 C-62.62763517 56.83106358 -67.28796371 47.1665386 -67.77734375 34.3203125 C-67.58256059 22.50936989 -63.60546802 12.61611694 -55.64453125 3.87890625 C-40.0296174 -10.75612434 -17.50419344 -12.03885534 0 0 Z M-21.52734375 13.9453125 C-21.04028663 16.00934218 -21.04028663 16.00934218 -19.52734375 17.9453125 C-15.96527714 18.76401435 -15.96527714 18.76401435 -12.52734375 18.9453125 C-15.36164828 15.691111 -17.21342149 14.4246372 -21.52734375 13.9453125 Z M-34.52734375 16.9453125 C-35.18734375 17.6053125 -35.84734375 18.2653125 -36.52734375 18.9453125 C-32.77109834 24.48393318 -28.68918484 28.78055992 -23.48046875 32.98828125 C-20.3368471 36.13819014 -19.24146682 39.5436324 -19.21484375 43.9453125 C-19.32048618 47.67801176 -20.10586606 50.00494673 -22.52734375 52.9453125 C-25.70754752 54.98479101 -27.81916745 55.10198725 -31.52734375 54.6328125 C-32.37296875 54.53355469 -33.21859375 54.43429688 -34.08984375 54.33203125 C-36.28260113 53.98414186 -38.38576745 53.52532275 -40.52734375 52.9453125 C-37.25296108 56.99013815 -32.92436538 58.64523826 -27.90625 59.2734375 C-20.13184786 59.57535603 -14.87707647 57.95148289 -9.08984375 52.7578125 C-6.88625368 48.79135038 -6.10446217 45.48233008 -6.52734375 40.9453125 C-8.57000456 34.88931811 -11.65288597 30.106435 -16.52734375 25.9453125 C-17.49671875 25.0790625 -18.46609375 24.2128125 -19.46484375 23.3203125 C-24.17028667 19.6711935 -28.51382294 17.35532528 -34.52734375 16.9453125 Z " fill="#FBCF5F" transform="translate(71.52734375,12.0546875)"/>
<path d="M0 0 C6.40681156 2.78164075 10.12201416 7.0208194 14.26171875 12.55078125 C16.44102151 15.36487165 18.84288516 17.76609091 21.3671875 20.26953125 C23.5191312 23.4974468 23.56805193 24.55353934 23.3671875 28.26953125 C21.7171875 27.60953125 20.0671875 26.94953125 18.3671875 26.26953125 C18.32851562 27.10484375 18.32851562 27.10484375 18.2890625 27.95703125 C17.65090748 36.543117 14.75553087 42.83199186 8.40234375 48.7265625 C2.07140915 53.52640735 -4.81971975 55.01143959 -12.671875 54.71875 C-19.14233535 53.73708385 -24.40109006 50.80757797 -28.8828125 46.08203125 C-31.85901408 43.03818872 -33.67725655 42.53194272 -37.6328125 41.26953125 C-40.5078125 38.76953125 -40.5078125 38.76953125 -42.6328125 36.26953125 C-42.6328125 35.60953125 -42.6328125 34.94953125 -42.6328125 34.26953125 C-42.04113281 34.25535156 -41.44945312 34.24117187 -40.83984375 34.2265625 C-36.40943804 33.95914813 -34.240928 33.78510743 -30.7578125 30.83203125 C-29.7059375 29.56359375 -29.7059375 29.56359375 -28.6328125 28.26953125 C-27.6428125 27.60953125 -26.6528125 26.94953125 -25.6328125 26.26953125 C-24.38903857 28.75707911 -24.49975015 30.49608426 -24.5078125 33.26953125 C-24.50394531 34.59984375 -24.50394531 34.59984375 -24.5 35.95703125 C-24.6328125 38.26953125 -24.6328125 38.26953125 -25.6328125 40.26953125 C-20.65230911 43.41511234 -15.42204786 44.53499233 -9.6328125 43.26953125 C-7.71313638 41.62505127 -7.71313638 41.62505127 -6.6328125 39.26953125 C-6.6328125 37.61953125 -6.6328125 35.96953125 -6.6328125 34.26953125 C-9.9328125 34.26953125 -13.2328125 34.26953125 -16.6328125 34.26953125 C-15.4453125 29.51953125 -15.4453125 29.51953125 -12.6328125 27.26953125 C-11.9728125 27.26953125 -11.3128125 27.26953125 -10.6328125 27.26953125 C-10.6328125 26.60953125 -10.6328125 25.94953125 -10.6328125 25.26953125 C-11.220625 25.00398438 -11.8084375 24.7384375 -12.4140625 24.46484375 C-18.63845231 21.11156333 -23.54366482 15.01691363 -25.6328125 8.26953125 C-25.3828125 5.26953125 -25.3828125 5.26953125 -24.6328125 3.26953125 C-23.69308594 2.96208984 -23.69308594 2.96208984 -22.734375 2.6484375 C-21.91710937 2.37902344 -21.09984375 2.10960937 -20.2578125 1.83203125 C-19.44570313 1.56519531 -18.63359375 1.29835938 -17.796875 1.0234375 C-11.68350689 -1.10630987 -6.46838013 -1.79463959 0 0 Z M-5.6328125 6.26953125 C-5.14575538 8.33356093 -5.14575538 8.33356093 -3.6328125 10.26953125 C-0.07074589 11.0882331 -0.07074589 11.0882331 3.3671875 11.26953125 C0.53288297 8.01532975 -1.31889024 6.74885595 -5.6328125 6.26953125 Z M-18.6328125 9.26953125 C-19.2928125 9.92953125 -19.9528125 10.58953125 -20.6328125 11.26953125 C-16.87656709 16.80815193 -12.79465359 21.10477867 -7.5859375 25.3125 C-4.44231585 28.46240889 -3.34693557 31.86785115 -3.3203125 36.26953125 C-3.42595493 40.00223051 -4.21133481 42.32916548 -6.6328125 45.26953125 C-9.81301627 47.30900976 -11.9246362 47.426206 -15.6328125 46.95703125 C-16.4784375 46.85777344 -17.3240625 46.75851563 -18.1953125 46.65625 C-20.38806988 46.30836061 -22.4912362 45.8495415 -24.6328125 45.26953125 C-21.35842983 49.3143569 -17.02983413 50.96945701 -12.01171875 51.59765625 C-4.23731661 51.89957478 1.01745478 50.27570164 6.8046875 45.08203125 C9.00827757 41.11556913 9.79006908 37.80654883 9.3671875 33.26953125 C7.32452669 27.21353686 4.24164528 22.43065375 -0.6328125 18.26953125 C-1.6021875 17.40328125 -2.5715625 16.53703125 -3.5703125 15.64453125 C-8.27575542 11.99541225 -12.61929169 9.67954403 -18.6328125 9.26953125 Z " fill="#080502" transform="translate(55.6328125,19.73046875)"/>
<path d="M0 0 C0.66 0 1.32 0 2 0 C2.33 1.65 2.66 3.3 3 5 C3.99 5.33 4.98 5.66 6 6 C6.45375 6.99 6.9075 7.98 7.375 9 C8.68365462 12.2381557 8.68365462 12.2381557 11.6875 12.875 C12.8321875 12.936875 12.8321875 12.936875 14 13 C14 12.34 14 11.68 14 11 C14.66 11 15.32 11 16 11 C16.33 9.02 16.66 7.04 17 5 C14.69 4.67 12.38 4.34 10 4 C10 3.67 10 3.34 10 3 C16.15234375 2.90234375 16.15234375 2.90234375 18 3 C18.33 3.33 18.66 3.66 19 4 C18.53539254 10.27220077 18.53539254 10.27220077 16.75 12.69921875 C13.31984739 15.24886344 9.05945476 14.58255015 5 14 C2.34448417 12.91621174 0.37499665 11.65217158 -2 10 C-1.34 6.7 -0.68 3.4 0 0 Z " fill="#F8CF66" transform="translate(31,50)"/>
<path d="M0 0 C2.97 0.495 2.97 0.495 6 1 C2.34714813 5.48304547 -2.73140091 7.85385947 -8 10 C-8.99 10 -9.98 10 -11 10 C-11 7.36 -11 4.72 -11 2 C-9.39125 2.2784375 -9.39125 2.2784375 -7.75 2.5625 C-4.59608454 2.9304568 -2.90181508 3.04465343 0 2 C0 1.34 0 0.68 0 0 Z " fill="#FAD169" transform="translate(68,76)"/>
<path d="M0 0 C4.07876434 6.11814652 3.75555757 14.55206543 2.55078125 21.64453125 C2.07715806 23.7775151 1.5705333 25.89106441 1 28 C0.67 28 0.34 28 0 28 C-0.78118882 18.52958787 -1.16656743 9.47611697 0 0 Z " fill="#F7D070" transform="translate(85,32)"/>
<path d="M0 0 C1.65 0 3.3 0 5 0 C5.33 1.65 5.66 3.3 6 5 C5.34 5 4.68 5 4 5 C4 4.34 4 3.68 4 3 C3.34 3 2.68 3 2 3 C1.9175 3.5775 1.835 4.155 1.75 4.75 C0.79468987 7.6159304 -0.78469173 8.9990764 -3 11 C-3.66 10.34 -4.32 9.68 -5 9 C-4.625 6.875 -4.625 6.875 -4 5 C-3.34 5 -2.68 5 -2 5 C-2 4.01 -2 3.02 -2 2 C-1.34 2 -0.68 2 0 2 C0 1.34 0 0.68 0 0 Z " fill="#FDD05B" transform="translate(26,69)"/>
<path d="M0 0 C2 3 2 3 3.4375 6.5 C4.70531908 9.92655575 4.70531908 9.92655575 6.75 11.6875 C7.1625 12.120625 7.575 12.55375 8 13 C7.6875 15.1875 7.6875 15.1875 7 17 C8.32 17 9.64 17 11 17 C11.66 18.98 12.32 20.96 13 23 C12.01 23 11.02 23 10 23 C4.75790883 17.18604434 0.30877135 9.94034153 -0.1875 2 C-0.125625 1.34 -0.06375 0.68 0 0 Z " fill="#F8D674" transform="translate(5,52)"/>
<path d="M0 0 C1.32 0.33 2.64 0.66 4 1 C3.34 1.66 2.68 2.32 2 3 C1.94720327 5.34360054 1.94720327 5.34360054 2.1875 7.9375 C2.25390625 10.65625 2.25390625 10.65625 2 13 C-0.375 14.9375 -0.375 14.9375 -3 16 C-3.66 16.99 -4.32 17.98 -5 19 C-5.66 18.67 -6.32 18.34 -7 18 C-6.401875 17.2575 -5.80375 16.515 -5.1875 15.75 C-2.00439792 11.06030511 -1.16631188 5.46046016 0 0 Z " fill="#F4CA6A" transform="translate(74,46)"/>
<path d="M0 0 C0.66 0.33 1.32 0.66 2 1 C0.28032649 4.02990095 -1.29238306 6.76327296 -4 9 C-4.66 9 -5.32 9 -6 9 C-6.0825 9.763125 -6.165 10.52625 -6.25 11.3125 C-7.14615794 14.52373261 -8.21611025 15.29374499 -11 17 C-9.71415249 12.40191701 -7.99307926 9.34199498 -4.9375 5.6875 C-4.22464844 4.82511719 -3.51179687 3.96273438 -2.77734375 3.07421875 C-1.87876325 2.02554568 -0.97651476 0.97651476 0 0 Z " fill="#F3CF72" transform="translate(18,14)"/>
<path d="M0 0 C0.66 1.32 1.32 2.64 2 4 C-3.14285714 9.57142857 -3.14285714 9.57142857 -7 10 C-7 9.34 -7 8.68 -7 8 C-8.32 7.34 -9.64 6.68 -11 6 C-9.39125 5.9071875 -9.39125 5.9071875 -7.75 5.8125 C-3.86468039 5.33854041 -3.86468039 5.33854041 -1.5625 2.4375 C-1.046875 1.633125 -0.53125 0.82875 0 0 Z " fill="#1B1508" transform="translate(50,58)"/>
<path d="M0 0 C0 0.33 0 0.66 0 1 C-6.06815522 2.22899346 -11.79895188 3.27560214 -18 3 C-18.33 3.99 -18.66 4.98 -19 6 C-20.65 5.67 -22.3 5.34 -24 5 C-18.35116169 -0.64883831 -7.53808506 -0.45028384 0 0 Z " fill="#F7D280" transform="translate(51,4)"/>
<path d="M0 0 C0.66 0 1.32 0 2 0 C2 3.63 2 7.26 2 11 C3.65 11 5.3 11 7 11 C7 11.99 7 12.98 7 14 C3.22454612 12.90931332 0.52956528 12.0916909 -2 9 C-1.67 8.67 -1.34 8.34 -1 8 C-0.76924918 6.65252916 -0.58846937 5.29622435 -0.4375 3.9375 C-0.293125 2.638125 -0.14875 1.33875 0 0 Z " fill="#E1C26A" transform="translate(31,50)"/>
<path d="M0 0 C0.99 0.33 1.98 0.66 3 1 C3 3.66666667 3 6.33333333 3 9 C0.36 7.35 -2.28 5.7 -5 4 C-2.6875 1.9375 -2.6875 1.9375 0 0 Z " fill="#EECA64" transform="translate(61,17)"/>
<path d="M0 0 C6.63498399 0.35544557 10.63187218 2.13095043 16 6 C15.01 6.33 14.02 6.66 13 7 C10.99301025 5.6772113 8.99408077 4.34216975 7 3 C4.67990333 2.14743436 2.41027245 1.57846539 0 1 C0 0.67 0 0.34 0 0 Z " fill="#1C0B04" transform="translate(48,19)"/>
<path d="M0 0 C0.80566406 0.00322266 1.61132812 0.00644531 2.44140625 0.00976562 C3.70404297 0.02233398 3.70404297 0.02233398 4.9921875 0.03515625 C5.84167969 0.03966797 6.69117188 0.04417969 7.56640625 0.04882812 C9.66669659 0.06062751 11.7669508 0.07856319 13.8671875 0.09765625 C10.56823245 2.08169761 8.18375025 2.29121953 4.3671875 2.16015625 C0.97270789 2.05291308 -1.87292241 2.10585007 -5.1328125 3.09765625 C-5.4628125 2.43765625 -5.7928125 1.77765625 -6.1328125 1.09765625 C-3.8362755 -0.05061225 -2.54968083 -0.0179555 0 0 Z " fill="#E2C46C" transform="translate(43.1328125,17.90234375)"/>
<path d="M0 0 C1.32 0.33 2.64 0.66 4 1 C3.34 1.66 2.68 2.32 2 3 C1.2833793 5.31847874 0.61757973 7.65319703 0 10 C-0.33 10.99 -0.66 11.98 -1 13 C-1.66 12.67 -2.32 12.34 -3 12 C-2.01 8.04 -1.02 4.08 0 0 Z " fill="#E0C36D" transform="translate(74,46)"/>
<path d="M0 0 C1.9375 0.625 1.9375 0.625 4 2 C4.75 5.125 4.75 5.125 5 8 C3.02 6.35 1.04 4.7 -1 3 C-0.67 2.01 -0.34 1.02 0 0 Z " fill="#130C0A" transform="translate(27,62)"/>
<path d="M0 0 C1.32 0.66 2.64 1.32 4 2 C4 2.66 4 3.32 4 4 C2.02 4.99 2.02 4.99 0 6 C-0.99 5.34 -1.98 4.68 -3 4 C-3 3.34 -3 2.68 -3 2 C-2.01 2 -1.02 2 0 2 C0 1.34 0 0.68 0 0 Z M-5 4 C-3 5 -3 5 -3 5 Z " fill="#E4C265" transform="translate(41,43)"/>
<path d="M0 0 C6.15234375 -0.09765625 6.15234375 -0.09765625 8 0 C9 1 9 1 9.0625 3.5625 C9.041875 4.366875 9.02125 5.17125 9 6 C8.01 6.495 8.01 6.495 7 7 C7 5.35 7 3.7 7 2 C4.69 1.67 2.38 1.34 0 1 C0 0.67 0 0.34 0 0 Z " fill="#D8B76D" transform="translate(41,53)"/>
<path d="M0 0 C6.52307692 -0.36923077 6.52307692 -0.36923077 8.9375 1.5 C9.288125 1.995 9.63875 2.49 10 3 C8.68 3.99 7.36 4.98 6 6 C5.67 4.68 5.34 3.36 5 2 C3.35 1.67 1.7 1.34 0 1 C0 0.67 0 0.34 0 0 Z " fill="#E7C159" transform="translate(43,74)"/>
<path d="M0 0 C1.98 0.99 1.98 0.99 4 2 C3.41196203 5.02419525 2.77321882 8.01758453 2 11 C1.34 10.67 0.68 10.34 0 10 C0 6.7 0 3.4 0 0 Z " fill="#F0CF6A" transform="translate(28,21)"/>
<path d="M0 0 C1.5 1.1875 1.5 1.1875 3 3 C3.1875 5.6875 3.1875 5.6875 3 8 C0.525 7.01 0.525 7.01 -2 6 C-1.34 5.67 -0.68 5.34 0 5 C0 3.35 0 1.7 0 0 Z " fill="#231103" transform="translate(76,40)"/>
<path d="M0 0 C2.97 0.495 2.97 0.495 6 1 C4.68 2.32 3.36 3.64 2 5 C1.34 4.67 0.68 4.34 0 4 C0 2.68 0 1.36 0 0 Z " fill="#F7D67E" transform="translate(68,76)"/>
<path d="M0 0 C1.98 0.495 1.98 0.495 4 1 C4 1.66 4 2.32 4 3 C4.66 3.33 5.32 3.66 6 4 C4.02 4.33 2.04 4.66 0 5 C-0.33 4.34 -0.66 3.68 -1 3 C-0.67 2.01 -0.34 1.02 0 0 Z " fill="#E6C160" transform="translate(12,57)"/>
<path d="M0 0 C1.74627478 2.61941217 2.38722388 4.03824877 3 7 C0.37812506 5.95125002 -0.79371361 5.35068687 -2.25 2.875 C-2.4975 2.25625 -2.745 1.6375 -3 1 C-2.01 0.67 -1.02 0.34 0 0 Z " fill="#F4C960" transform="translate(11,50)"/>
</svg>
