<?xml version="1.0" encoding="UTF-8"?>
<svg version="1.1" xmlns="http://www.w3.org/2000/svg" width="96" height="96">
<path d="M0 0 C4.18113803 6.49306141 5.36333577 12.63067587 3.96875 20.20703125 C1.29062092 28.98372601 -5.786275 35.010931 -12.04980469 41.37597656 C-13.80486628 43.1854418 -15.44811627 45.06442998 -17.0625 47 C-20.62541615 51.0409451 -24.31270139 54.94516288 -28.0625 58.8125 C-28.68374756 59.47185547 -29.30499512 60.13121094 -29.94506836 60.81054688 C-34.81807891 65.76974326 -39.10763891 68.27093223 -46.09375 69.3984375 C-54.57942469 69.30052587 -60.49688702 66.84308447 -66.625 61 C-71.15413257 56.14735796 -72.11275782 49.76885003 -71.9375 43.328125 C-71.03322278 36.59125967 -67.54030266 31.38584275 -62.9921875 26.5078125 C-61.40951765 24.83708386 -61.40951765 24.83708386 -59.625 22 C-58.614375 21.154375 -57.60375 20.30875 -56.5625 19.4375 C-50.89110089 14.68197901 -46.10585913 9.00406317 -41.40234375 3.30859375 C-35.43064433 -3.75844384 -29.41760787 -8.23483262 -20.25 -10.1875 C-12.47608453 -10.65697269 -4.69475692 -5.95740548 0 0 Z " fill="#60C98A" transform="translate(81.625,18)"/>
<path d="M0 0 C5.51697115 2.84863216 9.50518115 7.63231081 11.91796875 13.30078125 C13.16032707 20.10986051 11.67181191 25.0743331 7.9140625 30.76953125 C4.90528601 34.58496602 1.5206161 37.93624743 -2.0078125 41.26953125 C-4.13190884 43.12875391 -4.13190884 43.12875391 -5.08203125 45.30078125 C-8.99532578 44.75433021 -10.6692211 43.00142512 -13.33203125 40.17578125 C-17.4015168 35.96642795 -21.63573459 32.1031915 -26.08203125 28.30078125 C-27.58346617 26.98992297 -29.08350049 25.67745849 -30.58203125 24.36328125 C-31.25234375 23.77675781 -31.92265625 23.19023438 -32.61328125 22.5859375 C-33.09796875 22.16183594 -33.58265625 21.73773438 -34.08203125 21.30078125 C-32.59768122 13.57235582 -23.29397024 5.51110602 -17.01953125 0.98828125 C-11.79261412 -1.84296553 -5.5749378 -1.87225866 0 0 Z " fill="#FAFCFC" transform="translate(70.08203125,13.69921875)"/>
<path d="M0 0 C4.18113803 6.49306141 5.36333577 12.63067587 3.96875 20.20703125 C1.29062092 28.98372601 -5.786275 35.010931 -12.04980469 41.37597656 C-13.80486628 43.1854418 -15.44811627 45.06442998 -17.0625 47 C-20.62541615 51.0409451 -24.31270139 54.94516288 -28.0625 58.8125 C-28.68374756 59.47185547 -29.30499512 60.13121094 -29.94506836 60.81054688 C-34.81807891 65.76974326 -39.10763891 68.27093223 -46.09375 69.3984375 C-51.54500915 69.33553836 -55.62282057 68.1827692 -60.625 66 C-60.625 65.01 -60.625 64.02 -60.625 63 C-61.615 62.67 -62.605 62.34 -63.625 62 C-63.625 61.34 -63.625 60.68 -63.625 60 C-60.92798166 60.53940367 -58.88609801 61.35524134 -56.375 62.5625 C-51.03327079 64.87953211 -46.55558593 64.60965872 -41.0625 62.875 C-32.50449257 58.20699595 -26.34880976 50.75817587 -20.625 43 C-21.285 43 -21.945 43 -22.625 43 C-22.625 42.34 -22.625 41.68 -22.625 41 C-23.19734375 40.75636719 -23.7696875 40.51273438 -24.359375 40.26171875 C-27.02933538 38.77482702 -28.76329007 37.01916092 -30.875 34.8125 C-34.41160662 31.18849783 -38.05378606 27.80426047 -41.89453125 24.5078125 C-43.89968378 22.76065928 -45.78343313 20.91829882 -47.625 19 C-50.87327183 20.39718243 -52.73879455 21.98573105 -55 24.6875 C-55.59941406 25.40035156 -56.19882812 26.11320312 -56.81640625 26.84765625 C-57.41324219 27.55792969 -58.01007812 28.26820312 -58.625 29 C-59.47384766 29.92619141 -59.47384766 29.92619141 -60.33984375 30.87109375 C-65.09711958 36.09362883 -67.04897295 40.57327154 -66.89453125 47.83203125 C-66.40892415 51.73800141 -65.0456494 55.34690155 -63.625 59 C-69.1953125 56.8203125 -69.1953125 56.8203125 -71 53.375 C-72.49814446 45.28501991 -71.90843453 39.15646988 -67.625 32 C-66.16111502 30.07304937 -64.64193374 28.27722945 -62.9921875 26.5078125 C-61.40951765 24.83708386 -61.40951765 24.83708386 -59.625 22 C-58.614375 21.154375 -57.60375 20.30875 -56.5625 19.4375 C-50.89110089 14.68197901 -46.10585913 9.00406317 -41.40234375 3.30859375 C-35.43064433 -3.75844384 -29.41760787 -8.23483262 -20.25 -10.1875 C-12.47608453 -10.65697269 -4.69475692 -5.95740548 0 0 Z M-40.625 8 C-41.15738281 8.57492188 -41.68976562 9.14984375 -42.23828125 9.7421875 C-45.08307192 12.88500043 -45.08307192 12.88500043 -45.625 17 C-44.15829097 18.62297664 -44.15829097 18.62297664 -42.171875 20.1640625 C-39.1004996 22.73617027 -36.14567874 25.36300299 -33.265625 28.1484375 C-32.54246094 28.84324219 -31.81929687 29.53804687 -31.07421875 30.25390625 C-29.58826055 31.68707731 -28.10658782 33.12470301 -26.62890625 34.56640625 C-25.91089844 35.25347656 -25.19289063 35.94054688 -24.453125 36.6484375 C-23.4926123 37.57922119 -23.4926123 37.57922119 -22.51269531 38.52880859 C-20.51960481 40.08214063 -19.0952428 40.59240309 -16.625 41 C-16.20089844 40.5153125 -15.77679688 40.030625 -15.33984375 39.53125 C-14.75332031 38.8609375 -14.16679688 38.190625 -13.5625 37.5 C-12.60923828 36.40558594 -12.60923828 36.40558594 -11.63671875 35.2890625 C-10.34012906 33.81371967 -9.03105985 32.34920611 -7.70703125 30.8984375 C-2.18498886 24.79946531 1.06930451 19.99829551 0.7890625 11.52734375 C-0.14026002 5.8549695 -3.51443985 1.76861513 -7.75 -1.9375 C-20.58527171 -11.14541231 -31.91172329 -1.47499173 -40.625 8 Z " fill="#4E615D" transform="translate(81.625,18)"/>
<path d="M0 0 C4.85004086 4.02450199 9.30915858 8.27652643 13.73046875 12.765625 C15.83621112 14.8387483 18.00066702 16.77281355 20.25 18.6875 C23.58341411 21.54090248 26.30214676 24.54337554 29 28 C28.34 28.99 27.68 29.98 27 31 C27 30.34 27 29.68 27 29 C26.34 29 25.68 29 25 29 C25 28.34 25 27.68 25 27 C24.42765625 26.75636719 23.8553125 26.51273438 23.265625 26.26171875 C20.59566462 24.77482702 18.86170993 23.01916092 16.75 20.8125 C13.21339338 17.18849783 9.57121394 13.80426047 5.73046875 10.5078125 C3.72531622 8.76065928 1.84156687 6.91829882 0 5 C-3.24827183 6.39718243 -5.11379455 7.98573105 -7.375 10.6875 C-7.97441406 11.40035156 -8.57382812 12.11320312 -9.19140625 12.84765625 C-9.78824219 13.55792969 -10.38507812 14.26820312 -11 15 C-11.56589844 15.61746094 -12.13179687 16.23492187 -12.71484375 16.87109375 C-17.47211958 22.09362883 -19.42397295 26.57327154 -19.26953125 33.83203125 C-18.78392415 37.73800141 -17.4206494 41.34690155 -16 45 C-21.5703125 42.8203125 -21.5703125 42.8203125 -23.375 39.375 C-24.87314446 31.28501991 -24.28343453 25.15646988 -20 18 C-18.53611502 16.07304937 -17.01693374 14.27722945 -15.3671875 12.5078125 C-13.78451765 10.83708386 -13.78451765 10.83708386 -12 8 C-8.40076922 4.43703351 -4.92127178 1.49129448 0 0 Z " fill="#375D4D" transform="translate(34,32)"/>
<path d="M0 0 C0.66 0 1.32 0 2 0 C2 0.66 2 1.32 2 2 C2.66 2 3.32 2 4 2 C1.9656818 6.43702766 -1.00634947 9.52884522 -4.3125 13.0625 C-4.88162109 13.68705078 -5.45074219 14.31160156 -6.03710938 14.95507812 C-11.36000984 20.68132122 -15.74744441 23.55236257 -23.5625 24.375 C-29.24610877 24.35351188 -34.05062527 21.54747229 -39 19 C-38.01 19.99 -37.02 20.98 -36 22 C-36.33 22.66 -36.66 23.32 -37 24 C-40.21245277 21.56895466 -42.65962842 19.26691165 -45 16 C-43.72125 16.165 -42.4425 16.33 -41.125 16.5 C-33.11038747 17.32230851 -25.04571278 17.07887954 -17 17 C-16.67 16.34 -16.34 15.68 -16 15 C-15.01 15 -14.02 15 -13 15 C-13 14.34 -13 13.68 -13 13 C-12.21625 12.79375 -11.4325 12.5875 -10.625 12.375 C-7.68930633 11.22398846 -7.68930633 11.22398846 -7 8 C-6.67 7.01 -6.34 6.02 -6 5 C-3.4375 3.8125 -3.4375 3.8125 -1 3 C-0.67 2.01 -0.34 1.02 0 0 Z " fill="#63B38B" transform="translate(57,59)"/>
<path d="M0 0 C4.50716905 4.26994962 7.25284794 7.30202641 7.5 13.625 C7.26351391 22.58519525 1.76657049 28.42965127 -4.3125 34.5 C-5.17488281 35.3146875 -6.03726563 36.129375 -6.92578125 36.96875 C-9.04987759 38.82797266 -9.04987759 38.82797266 -10 41 C-11.875 40.6875 -11.875 40.6875 -14 40 C-14.66 39.01 -15.32 38.02 -16 37 C-15.38125 36.95875 -14.7625 36.9175 -14.125 36.875 C-13.42375 36.58625 -12.7225 36.2975 -12 36 C-11.71125 35.0925 -11.4225 34.185 -11.125 33.25 C-9.61543916 28.88904647 -7.73080467 27.64265331 -4 25 C-3.34 25 -2.68 25 -2 25 C1.46519479 16.64640541 1.96883864 8.82801843 0 0 Z " fill="#C0D0CE" transform="translate(75,18)"/>
<path d="M0 0 C0.495 1.98 0.495 1.98 1 4 C0.34 4 -0.32 4 -1 4 C-1.33644531 5.30904297 -1.33644531 5.30904297 -1.6796875 6.64453125 C-4.22326976 13.10884239 -10.32412143 18.68944776 -16.1875 22.375 C-22.56154389 25.04798615 -29.1863364 24.86154207 -35.5625 22.5 C-36.696875 22.005 -37.83125 21.51 -39 21 C-39 20.01 -39 19.02 -39 18 C-39.99 17.67 -40.98 17.34 -42 17 C-42 16.34 -42 15.68 -42 15 C-39.30298166 15.53940367 -37.26109801 16.35524134 -34.75 17.5625 C-29.40827079 19.87953211 -24.93058593 19.60965872 -19.4375 17.875 C-12.89945129 14.30879161 -8.26172974 9.37998294 -3.48046875 3.734375 C-2 2 -2 2 0 0 Z " fill="#36564B" transform="translate(60,63)"/>
<path d="M0 0 C4.85004086 4.02450199 9.30915858 8.27652643 13.73046875 12.765625 C15.83621112 14.8387483 18.00066702 16.77281355 20.25 18.6875 C23.58341411 21.54090248 26.30214676 24.54337554 29 28 C28.34 28.99 27.68 29.98 27 31 C27 30.34 27 29.68 27 29 C26.34 29 25.68 29 25 29 C25 28.34 25 27.68 25 27 C24.42765625 26.75636719 23.8553125 26.51273438 23.265625 26.26171875 C20.59566462 24.77482702 18.86170993 23.01916092 16.75 20.8125 C13.21339338 17.18849783 9.57121394 13.80426047 5.73046875 10.5078125 C3.72531622 8.76065928 1.84156687 6.91829882 0 5 C-1.65 5.66 -3.3 6.32 -5 7 C-5 5.35 -5 3.7 -5 2 C-3.35 1.34 -1.7 0.68 0 0 Z " fill="#17422D" transform="translate(34,32)"/>
<path d="M0 0 C-0.68707031 0.03738281 -1.37414062 0.07476562 -2.08203125 0.11328125 C-2.98308594 0.17902344 -3.88414063 0.24476562 -4.8125 0.3125 C-5.70582031 0.37050781 -6.59914063 0.42851562 -7.51953125 0.48828125 C-10.36036678 1.07434338 -11.17006773 1.82150921 -13 4 C-14.0828125 4.8353125 -14.0828125 4.8353125 -15.1875 5.6875 C-21.72071094 11.05925122 -27.14600864 17.08673958 -32 24 C-33.65 23.67 -35.3 23.34 -37 23 C-35.44067258 19.20680465 -33.05753612 16.88626252 -30.125 14.0625 C-27.54888663 11.57482037 -25.15284766 9.19937932 -22.97265625 6.35546875 C-18.22250687 0.68350821 -10.96922873 -1.44945075 -3.8125 -2.15234375 C-2 -2 -2 -2 0 0 Z " fill="#5D6B67" transform="translate(68,10)"/>
<path d="M0 0 C1.32 0 2.64 0 4 0 C4 1.98 4 3.96 4 6 C4.66 6.33 5.32 6.66 6 7 C7.76065836 9.64098754 8.52722899 10.9742655 9 14 C8.67 14.99 8.34 15.98 8 17 C4.92582941 16.92910718 1.9949543 16.72218756 -1 16 C-3.66916146 13.16907118 -3.96848507 11.55676374 -4.1875 7.6875 C-4.125625 6.800625 -4.06375 5.91375 -4 5 C-2.68 5.33 -1.36 5.66 0 6 C-0.33 5.01 -0.66 4.02 -1 3 C-0.67 2.01 -0.34 1.02 0 0 Z " fill="#69C38F" transform="translate(19,60)"/>
<path d="M0 0 C6.80670103 6.44845361 6.80670103 6.44845361 7.1953125 11.578125 C7.16050781 12.90070312 7.16050781 12.90070312 7.125 14.25 C7.10695313 15.14203125 7.08890625 16.0340625 7.0703125 16.953125 C7.03550781 17.96632813 7.03550781 17.96632813 7 19 C5.35 18.67 3.7 18.34 2 18 C1.93941406 17.11957031 1.87882812 16.23914063 1.81640625 15.33203125 C1.73261719 14.17058594 1.64882812 13.00914063 1.5625 11.8125 C1.48128906 10.66394531 1.40007812 9.51539063 1.31640625 8.33203125 C1.04596188 5.48401829 0.62478253 2.78789518 0 0 Z " fill="#B3C7C6" transform="translate(75,18)"/>
<path d="M0 0 C-1.49076434 3.2826932 -3.38620321 5.93077441 -5.625 8.75 C-6.57246094 9.94882812 -6.57246094 9.94882812 -7.5390625 11.171875 C-8.26222656 12.07679687 -8.26222656 12.07679687 -9 13 C-10.65 12.67 -12.3 12.34 -14 12 C-12.6118265 8.87142986 -10.98898122 6.71810826 -8.5625 4.3125 C-7.96566406 3.71050781 -7.36882813 3.10851562 -6.75390625 2.48828125 C-4.5957026 0.6569325 -2.83946433 0 0 0 Z " fill="#43514F" transform="translate(45,21)"/>
<path d="M0 0 C0.33 0 0.66 0 1 0 C1.49914707 6.73848545 0.19940966 12.0098644 -3 18 C-3.66 18.33 -4.32 18.66 -5 19 C-4.814375 18.236875 -4.62875 17.47375 -4.4375 16.6875 C-3.77180827 13.91032625 -3.77180827 13.91032625 -5 11 C-4.66015625 8.73828125 -4.66015625 8.73828125 -4.0625 6.3125 C-3.86785156 5.50425781 -3.67320313 4.69601563 -3.47265625 3.86328125 C-3.31667969 3.24839844 -3.16070312 2.63351563 -3 2 C-2.01 2 -1.02 2 0 2 C0 1.34 0 0.68 0 0 Z " fill="#4B5C5C" transform="translate(85,28)"/>
<path d="M0 0 C1.41750563 0.11509661 2.83401169 0.24253658 4.25 0.375 C5.03890625 0.44460937 5.8278125 0.51421875 6.640625 0.5859375 C9.11784316 1.02068108 10.80891666 1.7906648 13 3 C16.99091763 4.81405347 20.65394313 6.34150653 25 7 C25 7.33 25 7.66 25 8 C17.57488991 8.70048208 12.5490142 6.37081613 6 3 C6.99 3.99 7.98 4.98 9 6 C8.67 6.66 8.34 7.32 8 8 C4.80800833 5.58443874 2.25283313 3.31996462 0 0 Z " fill="#65A488" transform="translate(12,75)"/>
<path d="M0 0 C1.46373047 0.05414063 1.46373047 0.05414063 2.95703125 0.109375 C4.06111328 0.17898438 4.06111328 0.17898438 5.1875 0.25 C5.8475 1.57 6.5075 2.89 7.1875 4.25 C1.2475 4.25 -4.6925 4.25 -10.8125 4.25 C-5.1875 -0.25 -5.1875 -0.25 0 0 Z " fill="#2D3F3B" transform="translate(63.8125,9.75)"/>
<path d="M0 0 C1.12894876 0.93274109 2.25300876 1.87140122 3.375 2.8125 C4.00148438 3.33457031 4.62796875 3.85664062 5.2734375 4.39453125 C7 6 7 6 9 9 C8.01 9 7.02 9 6 9 C5.54625 8.525625 5.0925 8.05125 4.625 7.5625 C2.48244319 5.50234922 0.9346337 5.22009753 -2 5 C-2.99 5.66 -3.98 6.32 -5 7 C-5 5.35 -5 3.7 -5 2 C-3.35 1.34 -1.7 0.68 0 0 Z " fill="#1B4238" transform="translate(34,32)"/>
<path d="M0 0 C0 3 0 3 -1 5 C-1.66 5 -2.32 5 -3 5 C-3 7.64 -3 10.28 -3 13 C-2.34 13 -1.68 13 -1 13 C-1.33 13.99 -1.66 14.98 -2 16 C-3.32 15.67 -4.64 15.34 -6 15 C-6 12 -6 12 -5 10 C-5.66 10 -6.32 10 -7 10 C-6.42424336 6.64749299 -5.40693737 5.06181371 -2.9375 2.75 C-2.38964844 2.22921875 -1.84179688 1.7084375 -1.27734375 1.171875 C-0.64505859 0.59179688 -0.64505859 0.59179688 0 0 Z " fill="#71C997" transform="translate(26,43)"/>
<path d="M0 0 C0.33 0.66 0.66 1.32 1 2 C1.66 2 2.32 2 3 2 C3.66 1.34 4.32 0.68 5 0 C4.74438677 2.3431213 4.40729228 4.67843403 4 7 C3.01 7.495 3.01 7.495 2 8 C1.34 7.67 0.68 7.34 0 7 C0 7.66 0 8.32 0 9 C-0.99 8.67 -1.98 8.34 -3 8 C-2.01 5.36 -1.02 2.72 0 0 Z " fill="#C5D7D5" transform="translate(76,34)"/>
<path d="M0 0 C0.66 0 1.32 0 2 0 C2 1.65 2 3.3 2 5 C2.66 5.33 3.32 5.66 4 6 C5.74627478 8.61941217 6.38722388 10.03824877 7 13 C6.01 13.33 5.02 13.66 4 14 C2.9375 12.125 2.9375 12.125 2 10 C2.33 9.34 2.66 8.68 3 8 C2.01 8 1.02 8 0 8 C0 5.36 0 2.72 0 0 Z " fill="#91E6B3" transform="translate(21,61)"/>
<path d="M0 0 C2.16874252 0.50603992 3.99967627 0.99983813 6 2 C6 4 6 4 3.75 6.4375 C1.5687345 8.47004286 -0.56743 10.28819148 -3 12 C-2.45276317 8.62537285 -1.9451 6.91765 0 4 C0 3.01 0 2.02 0 1 C0 0.67 0 0.34 0 0 Z " fill="#556E65" transform="translate(61,59)"/>
<path d="M0 0 C0.99 0.33 1.98 0.66 3 1 C0.03 4.96 0.03 4.96 -3 9 C-3.99 7.68 -4.98 6.36 -6 5 C-4.68 3.68 -3.36 2.36 -2 1 C-1.34 1.33 -0.68 1.66 0 2 C0 1.34 0 0.68 0 0 Z " fill="#BFD3CE" transform="translate(76,41)"/>
<path d="M0 0 C0 3 0 3 -1 6 C-1.66 6 -2.32 6 -3 6 C-3 6.66 -3 7.32 -3 8 C-5.52892721 10.73397536 -7.89595133 12.93063422 -11 15 C-10.52042767 10.71446004 -7.7812778 8.23068595 -4.9375 5.25 C-4.46505859 4.74339844 -3.99261719 4.23679687 -3.50585938 3.71484375 C-2.34369289 2.47050387 -1.17269839 1.23441936 0 0 Z " fill="#E0EDEC" transform="translate(47,20)"/>
<path d="M0 0 C2.4375 0.375 2.4375 0.375 5 1 C6.35439668 3.70879335 6.06501451 6.00933268 6 9 C5.01 9 4.02 9 3 9 C2.01 6.03 1.02 3.06 0 0 Z " fill="#384D48" transform="translate(79,21)"/>
<path d="M0 0 C4.25219775 0.47246642 6.37314725 2.77272377 9 6 C8.8125 8.3125 8.8125 8.3125 8 10 C7.34 10 6.68 10 6 10 C6 8.68 6 7.36 6 6 C5.01 5.67 4.02 5.34 3 5 C3 4.34 3 3.68 3 3 C2.01 3 1.02 3 0 3 C0 2.01 0 1.02 0 0 Z " fill="#68BF8E" transform="translate(48,52)"/>
<path d="M0 0 C1.32 0 2.64 0 4 0 C4.99 2.97 5.98 5.94 7 9 C4.0625 7.875 4.0625 7.875 1 6 C0.125 2.8125 0.125 2.8125 0 0 Z " fill="#335646" transform="translate(11,68)"/>
<path d="M0 0 C0 0.99 0 1.98 0 3 C0.31088368 4.67099977 0.64080332 6.33871537 1 8 C-0.98 8.99 -0.98 8.99 -3 10 C-2.67 8.68 -2.34 7.36 -2 6 C-2.99 6 -3.98 6 -5 6 C-5.33 6.99 -5.66 7.98 -6 9 C-6.33 8.34 -6.66 7.68 -7 7 C-4.66666667 4.66666667 -2.33333333 2.33333333 0 0 Z " fill="#CBDAD8" transform="translate(71,43)"/>
<path d="M0 0 C0.33 1.32 0.66 2.64 1 4 C0.34 4 -0.32 4 -1 4 C-1.28875 4.969375 -1.5775 5.93875 -1.875 6.9375 C-3 10 -3 10 -5 11 C-5.33 10.34 -5.66 9.68 -6 9 C-6.66 8.67 -7.32 8.34 -8 8 C-5.36 5.36 -2.72 2.72 0 0 Z " fill="#315443" transform="translate(60,63)"/>
<path d="M0 0 C0.66 0.99 1.32 1.98 2 3 C1.67 3.33 1.34 3.66 1 4 C0.87625 5.258125 0.7525 6.51625 0.625 7.8125 C0.2392411 11.3349214 -0.48682882 13.3775605 -3 16 C-3.37952295 9.80112515 -2.8352113 5.5522888 0 0 Z " fill="#697D78" transform="translate(13,52)"/>
<path d="M0 0 C0.99 0.33 1.98 0.66 3 1 C0.25 7.875 0.25 7.875 -2 9 C-2.99 8.34 -3.98 7.68 -5 7 C-3.35 4.69 -1.7 2.38 0 0 Z " fill="#344D45" transform="translate(79,41)"/>
<path d="M0 0 C1.2065625 0.0309375 1.2065625 0.0309375 2.4375 0.0625 C1.28576645 2.53050047 0.38966435 4.11033565 -1.5625 6.0625 C-3.6875 5.6875 -3.6875 5.6875 -5.5625 5.0625 C-3.15007962 0.07683121 -3.15007962 0.07683121 0 0 Z " fill="#4F6262" transform="translate(36.5625,27.9375)"/>
<path d="M0 0 C2.5 2.3125 2.5 2.3125 5 5 C5 5.99 5 6.98 5 8 C4.34 8 3.68 8 3 8 C3 9.98 3 11.96 3 14 C2.67 14 2.34 14 2 14 C1.93941406 13.40832031 1.87882812 12.81664062 1.81640625 12.20703125 C1.37987629 8.09021792 0.91328654 4.04455467 0 0 Z " fill="#C5D3D1" transform="translate(75,18)"/>
<path d="M0 0 C3.53600465 1.91135386 5.78972846 3.62642766 8 7 C4.83119306 7 3.56310828 6.7941758 1 5 C0.25 2.375 0.25 2.375 0 0 Z " fill="#284939" transform="translate(49,47)"/>
<path d="M0 0 C2.3431213 0.25561323 4.67843403 0.59270772 7 1 C7.33 1.66 7.66 2.32 8 3 C7.34 3 6.68 3 6 3 C6.99 3.99 7.98 4.98 9 6 C8.67 6.66 8.34 7.32 8 8 C4.80800833 5.58443874 2.25283313 3.31996462 0 0 Z " fill="#667B72" transform="translate(12,75)"/>
<path d="M0 0 C1.32 0.33 2.64 0.66 4 1 C0.535 3.97 0.535 3.97 -3 7 C-3.66 6.34 -4.32 5.68 -5 5 C-2.75 2.4375 -2.75 2.4375 0 0 Z " fill="#62A185" transform="translate(48,72)"/>
<path d="M0 0 C0 0.66 0 1.32 0 2 C-0.66 2 -1.32 2 -2 2 C-2.33 3.65 -2.66 5.3 -3 7 C-4.32 6.67 -5.64 6.34 -7 6 C-3.61538462 0 -3.61538462 0 0 0 Z " fill="#5AB484" transform="translate(56,62)"/>
<path d="M0 0 C0.66 0 1.32 0 2 0 C2 0.99 2 1.98 2 3 C1.34 3 0.68 3 0 3 C0 4.32 0 5.64 0 7 C-1.32 6.67 -2.64 6.34 -4 6 C-1.125 1.125 -1.125 1.125 0 0 Z " fill="#324742" transform="translate(68,54)"/>
<path d="M0 0 C0.99 0.33 1.98 0.66 3 1 C0.69 3.31 -1.62 5.62 -4 8 C-4.33 7.01 -4.66 6.02 -5 5 C-4.34 5 -3.68 5 -3 5 C-2.5359375 4.0409375 -2.5359375 4.0409375 -2.0625 3.0625 C-1 1 -1 1 0 0 Z " fill="#4A6058" transform="translate(52,74)"/>
<path d="M0 0 C0.33 0 0.66 0 1 0 C1 3.3 1 6.6 1 10 C0.01 9.67 -0.98 9.34 -2 9 C-2.25 3.375 -2.25 3.375 0 0 Z " fill="#113C2B" transform="translate(13,59)"/>
<path d="M0 0 C-2.06756277 2.7972908 -3.14440371 3.02692273 -6.6875 3.6875 C-7.780625 3.790625 -8.87375 3.89375 -10 4 C-6.58908673 0.88145073 -4.68377325 -0.53528837 0 0 Z " fill="#263530" transform="translate(63,10)"/>
<path d="M0 0 C1.98 0 3.96 0 6 0 C6.33 0.66 6.66 1.32 7 2 C6.67 2.66 6.34 3.32 6 4 C4.125 3.6875 4.125 3.6875 2 3 C1.34 2.01 0.68 1.02 0 0 Z " fill="#B0CCC5" transform="translate(59,55)"/>
<path d="M0 0 C0.66 0.33 1.32 0.66 2 1 C1.34 2.65 0.68 4.3 0 6 C-0.66 6 -1.32 6 -2 6 C-2.33 6.66 -2.66 7.32 -3 8 C-3.36923077 3.44615385 -3.36923077 3.44615385 -1.5 1.1875 C-1.005 0.795625 -0.51 0.40375 0 0 Z " fill="#5FB88E" transform="translate(32,36)"/>
<path d="M0 0 C3.36720387 1.39332574 4.9859524 2.9789286 7 6 C4 6 4 6 1.8125 4.125 C0 2 0 2 0 0 Z " fill="#364A41" transform="translate(36,35)"/>
<path d="M0 0 C2.31 0.33 4.62 0.66 7 1 C7 1.99 7 2.98 7 4 C4.69 3.34 2.38 2.68 0 2 C0 1.34 0 0.68 0 0 Z " fill="#5DB583" transform="translate(22,76)"/>
<path d="M0 0 C0.33 0.99 0.66 1.98 1 3 C1.99 3.33 2.98 3.66 4 4 C2.68 4.99 1.36 5.98 0 7 C-0.66 5.68 -1.32 4.36 -2 3 C-1.34 2.01 -0.68 1.02 0 0 Z " fill="#B3C7C3" transform="translate(72,43)"/>
<path d="M0 0 C1.32 0.33 2.64 0.66 4 1 C3.39816251 3.02045442 2.72693904 5.02111039 2 7 C1.01 7.495 1.01 7.495 0 8 C0.185625 7.236875 0.37125 6.47375 0.5625 5.6875 C1.22819173 2.91032625 1.22819173 2.91032625 0 0 Z " fill="#576B68" transform="translate(80,39)"/>
<path d="" fill="#FEFFFF" transform="translate(0,0)"/>
<path d="" fill="#FFFFFF" transform="translate(0,0)"/>
<path d="" fill="#FFFFFF" transform="translate(0,0)"/>
<path d="" fill="#FFFFFF" transform="translate(0,0)"/>
<path d="" fill="#FEFFFF" transform="translate(0,0)"/>
<path d="" fill="#FFFFFF" transform="translate(0,0)"/>
<path d="" fill="#FFFFFF" transform="translate(0,0)"/>
<path d="" fill="#FFFFFF" transform="translate(0,0)"/>
<path d="" fill="#FFFFFF" transform="translate(0,0)"/>
<path d="" fill="#FFFFFF" transform="translate(0,0)"/>
<path d="" fill="#FFFFFF" transform="translate(0,0)"/>
<path d="" fill="#FFFFFF" transform="translate(0,0)"/>
<path d="" fill="#FFFFFF" transform="translate(0,0)"/>
<path d="" fill="#FFFFFF" transform="translate(0,0)"/>
<path d="" fill="#FFFFFF" transform="translate(0,0)"/>
<path d="" fill="#FFFFFF" transform="translate(0,0)"/>
<path d="" fill="#FFFFFF" transform="translate(0,0)"/>
<path d="" fill="#FFFFFF" transform="translate(0,0)"/>
<path d="" fill="#FFFFFF" transform="translate(0,0)"/>
<path d="" fill="#FFFFFF" transform="translate(0,0)"/>
<path d="" fill="#FFFFFF" transform="translate(0,0)"/>
<path d="" fill="#FFFFFF" transform="translate(0,0)"/>
<path d="" fill="#FFFFFF" transform="translate(0,0)"/>
<path d="" fill="#FEFFFF" transform="translate(0,0)"/>
<path d="" fill="#FEFFFF" transform="translate(0,0)"/>
<path d="" fill="#FFFFFF" transform="translate(0,0)"/>
<path d="" fill="#FEFFFF" transform="translate(0,0)"/>
<path d="" fill="#FFFFFF" transform="translate(0,0)"/>
<path d="" fill="#FFFFFF" transform="translate(0,0)"/>
<path d="" fill="#FFFFFF" transform="translate(0,0)"/>
<path d="" fill="#FFFFFF" transform="translate(0,0)"/>
<path d="" fill="#FFFFFF" transform="translate(0,0)"/>
<path d="" fill="#FFFFFF" transform="translate(0,0)"/>
<path d="" fill="#FFFFFF" transform="translate(0,0)"/>
<path d="" fill="#00FFFF" transform="translate(0,0)"/>
<path d="" fill="#FFFFFF" transform="translate(0,0)"/>
<path d="" fill="#FFFFFF" transform="translate(0,0)"/>
<path d="" fill="#FFFFFF" transform="translate(0,0)"/>
<path d="" fill="#FFFFFF" transform="translate(0,0)"/>
<path d="" fill="#FFFFFF" transform="translate(0,0)"/>
<path d="" fill="#FFFFFF" transform="translate(0,0)"/>
<path d="" fill="#FFFFFF" transform="translate(0,0)"/>
<path d="" fill="#FFFFFF" transform="translate(0,0)"/>
<path d="" fill="#FFFFFF" transform="translate(0,0)"/>
<path d="" fill="#FFFFFF" transform="translate(0,0)"/>
<path d="" fill="#FFFFFF" transform="translate(0,0)"/>
<path d="" fill="#FFFFFF" transform="translate(0,0)"/>
<path d="" fill="#FFFFFF" transform="translate(0,0)"/>
<path d="" fill="#FFFFFF" transform="translate(0,0)"/>
</svg>
