<?xml version="1.0" encoding="UTF-8"?>
<svg version="1.1" xmlns="http://www.w3.org/2000/svg" width="500" height="500">
<path d="M0 0 C3.66525004 3.32758044 7.34675425 6.78602146 10 11 C10 11.66 10 12.32 10 13 C10.99 13.33 11.98 13.66 13 14 C14.60546875 15.9609375 14.60546875 15.9609375 16.1875 18.375 C16.71730469 19.16648438 17.24710937 19.95796875 17.79296875 20.7734375 C19 23 19 23 19 26 C19.66 26 20.32 26 21 26 C38.60423117 53.53482312 41.84547156 90.62946147 35 122 C32.20071435 133.5311605 28.43592988 144.43656179 23 155 C22.34 155 21.68 155 21 155 C20.896875 155.53625 20.79375 156.0725 20.6875 156.625 C19.81907303 159.62502044 18.44379704 162.2379535 17 165 C16.34 165 15.68 165 15 165 C14.690625 165.78375 14.38125 166.5675 14.0625 167.375 C13 170 13 170 12 172 C11.34 172 10.68 172 10 172 C9.73316406 172.58523437 9.46632813 173.17046875 9.19140625 173.7734375 C7.97468941 176.04730176 6.65950677 177.71165914 4.9375 179.625 C4.01517578 180.65753906 4.01517578 180.65753906 3.07421875 181.7109375 C2.38972656 182.46632812 1.70523437 183.22171875 1 184 C-0.58395227 185.74943982 -2.16727522 187.49944959 -3.75 189.25 C-4.48734375 190.05953125 -5.2246875 190.8690625 -5.984375 191.703125 C-8.01426526 193.93914975 -8.01426526 193.93914975 -9.640625 196.296875 C-10.31351562 197.13992187 -10.31351562 197.13992187 -11 198 C-11.66 198 -12.32 198 -13 198 C-13.309375 198.61875 -13.61875 199.2375 -13.9375 199.875 C-14.625 201.25 -15.3125 202.625 -16 204 C-16.66 204 -17.32 204 -18 204 C-18 204.66 -18 205.32 -18 206 C-18.66 206 -19.32 206 -20 206 C-20.28875 206.598125 -20.5775 207.19625 -20.875 207.8125 C-22 210 -22 210 -24 213 C-24.66 213 -25.32 213 -26 213 C-26.2578125 213.57234375 -26.515625 214.1446875 -26.78125 214.734375 C-28.11365942 217.21128995 -29.65056118 219.1341166 -31.5 221.25 C-32.1084375 221.95640625 -32.716875 222.6628125 -33.34375 223.390625 C-35 225 -35 225 -37 225 C-37.21527344 225.53367187 -37.43054688 226.06734375 -37.65234375 226.6171875 C-39.49576844 229.87657608 -42.00013373 232.4281177 -44.5625 235.125 C-48.18633907 238.76403407 -48.18633907 238.76403407 -51 243 C-51.66 243 -52.32 243 -53 243 C-53.28875 243.598125 -53.5775 244.19625 -53.875 244.8125 C-55 247 -55 247 -57 250 C-57.66 250 -58.32 250 -59 250 C-59 250.66 -59 251.32 -59 252 C-59.66 252 -60.32 252 -61 252 C-61 252.66 -61 253.32 -61 254 C-61.66 254 -62.32 254 -63 254 C-63 254.66 -63 255.32 -63 256 C-63.66 256 -64.32 256 -65 256 C-65.2371875 256.54140625 -65.474375 257.0828125 -65.71875 257.640625 C-67.34347757 260.63250137 -69.3501877 263.11159399 -71.5 265.75 C-72.2940625 266.73484375 -73.088125 267.7196875 -73.90625 268.734375 C-74.5971875 269.48203125 -75.288125 270.2296875 -76 271 C-76.66 271 -77.32 271 -78 271 C-78.20882813 271.52722656 -78.41765625 272.05445313 -78.6328125 272.59765625 C-80.57072647 276.00284795 -83.18194676 278.61205446 -85.875 281.4375 C-86.93649432 282.55968804 -87.99641913 283.68336299 -89.0546875 284.80859375 C-89.55967773 285.34468262 -90.06466797 285.88077148 -90.58496094 286.43310547 C-91.87868995 287.86567152 -93.07457858 289.38505371 -94.2578125 290.91015625 C-94.83273437 291.59980469 -95.40765625 292.28945313 -96 293 C-96.66 293 -97.32 293 -98 293 C-98.21269531 293.53109375 -98.42539062 294.0621875 -98.64453125 294.609375 C-100.5224829 297.92149722 -103.08048081 300.5092467 -105.6875 303.25 C-106.77286157 304.40817409 -107.8574995 305.56702677 -108.94140625 306.7265625 C-109.46621582 307.28633789 -109.99102539 307.84611328 -110.53173828 308.42285156 C-114.27153755 312.43999544 -117.95339433 316.4300915 -121 321 C-121.66 321 -122.32 321 -123 321 C-123.4021875 321.86625 -123.4021875 321.86625 -123.8125 322.75 C-125.02929189 325.05550043 -126.30333879 327.02056192 -128 329 C-128.66 329 -129.32 329 -130 329 C-130.25450928 329.57669434 -130.50901855 330.15338867 -130.77124023 330.74755859 C-132.1345011 333.24655417 -133.68693819 334.99018536 -135.66015625 337.0390625 C-136.37107422 337.78414063 -137.08199219 338.52921875 -137.81445312 339.296875 C-138.55630859 340.06515625 -139.29816406 340.8334375 -140.0625 341.625 C-141.53459437 343.15689422 -143.00474702 344.69065748 -144.47265625 346.2265625 C-145.12500244 346.90283691 -145.77734863 347.57911133 -146.44946289 348.27587891 C-148.07637241 349.93143911 -148.07637241 349.93143911 -149 352 C-149.66 352 -150.32 352 -151 352 C-151.3403125 352.804375 -151.3403125 352.804375 -151.6875 353.625 C-153.45570089 356.82460161 -155.53670203 359.29037223 -158 362 C-158.66 362 -159.32 362 -160 362 C-160 362.66 -160 363.32 -160 364 C-174.1042471 377 -174.1042471 377 -179 377 C-179 377.66 -179 378.32 -179 379 C-179.99 379 -180.98 379 -182 379 C-182 379.66 -182 380.32 -182 381 C-212.31021898 396.27155929 -244.27184491 402.90993671 -277.5546875 393.14453125 C-283.11994392 391.29575559 -288.57406938 389.22175989 -294 387 C-295.66635335 386.33255057 -297.33291252 385.66561368 -299 385 C-299 384.34 -299 383.68 -299 383 C-299.598125 382.855625 -300.19625 382.71125 -300.8125 382.5625 C-302.56150404 382.1127561 -304.28677023 381.57107659 -306 381 C-306 380.34 -306 379.68 -306 379 C-306.56976563 378.89300781 -307.13953125 378.78601563 -307.7265625 378.67578125 C-310.34553429 377.89728964 -312.13206931 376.74181162 -314.375 375.1875 C-317.07796906 373.32446182 -319.78444666 371.4986559 -322.5625 369.75 C-323.366875 369.1725 -324.17125 368.595 -325 368 C-325 367.34 -325 366.68 -325 366 C-325.56203125 365.7628125 -326.1240625 365.525625 -326.703125 365.28125 C-329.51894042 363.71052303 -331.47955416 361.78528536 -333.75 359.5 C-334.54921875 358.7059375 -335.3484375 357.911875 -336.171875 357.09375 C-338 355 -338 355 -338 353 C-338.66 353 -339.32 353 -340 353 C-341.7265625 350.91796875 -341.7265625 350.91796875 -343.625 348.1875 C-344.57246094 346.84751953 -344.57246094 346.84751953 -345.5390625 345.48046875 C-347 343 -347 343 -347 340 C-347.66 340 -348.32 340 -349 340 C-351 337 -351 337 -351 334 C-351.66 334 -352.32 334 -353 334 C-371.11859489 297.67289163 -373.27576046 261.16056388 -360.84375 222.39453125 C-355.20824973 206.76363354 -345.66769743 193.23451361 -335.11328125 180.54296875 C-333.65371143 178.78662873 -332.2365039 176.99452154 -330.85546875 175.17578125 C-330.24316406 174.45777344 -329.63085938 173.73976562 -329 173 C-328.34 173 -327.68 173 -327 173 C-326.77441406 172.45601562 -326.54882812 171.91203125 -326.31640625 171.3515625 C-324.58776213 168.26359881 -322.35449856 165.95545026 -319.9375 163.375 C-316.58466353 159.95790247 -316.58466353 159.95790247 -314 156 C-313.34 156 -312.68 156 -312 156 C-312 155.34 -312 154.68 -312 154 C-311.34 154 -310.68 154 -310 154 C-310 153.34 -310 152.68 -310 152 C-309.34 152 -308.68 152 -308 152 C-307.74734375 151.42894531 -307.4946875 150.85789063 -307.234375 150.26953125 C-305.83878272 147.70358468 -304.22710568 145.83927479 -302.25 143.6875 C-301.45207031 142.81480469 -300.65414062 141.94210938 -299.83203125 141.04296875 C-297.75767304 138.80541671 -295.66759613 136.5830381 -293.57421875 134.36328125 C-292.36173307 133.07575254 -291.1494967 131.78798902 -289.9375 130.5 C-289.33486328 129.86078613 -288.73222656 129.22157227 -288.11132812 128.56298828 C-283.94739188 124.1112171 -280.10618337 119.54413646 -276.453125 114.66015625 C-275.97359375 114.11230469 -275.4940625 113.56445312 -275 113 C-274.34 113 -273.68 113 -273 113 C-272.71125 112.401875 -272.4225 111.80375 -272.125 111.1875 C-271 109 -271 109 -269 106 C-268.34 106 -267.68 106 -267 106 C-267 105.34 -267 104.68 -267 104 C-266.34 104 -265.68 104 -265 104 C-265 103.34 -265 102.68 -265 102 C-264.34 102 -263.68 102 -263 102 C-262.7628125 101.45859375 -262.525625 100.9171875 -262.28125 100.359375 C-260.65652243 97.36749863 -258.6498123 94.88840601 -256.5 92.25 C-255.7059375 91.26515625 -254.911875 90.2803125 -254.09375 89.265625 C-253.05734375 88.14414063 -253.05734375 88.14414063 -252 87 C-251.34 87 -250.68 87 -250 87 C-249.73195557 86.40977051 -249.46391113 85.81954102 -249.18774414 85.21142578 C-247.99051006 82.98233096 -246.73748805 81.44125218 -244.99609375 79.6171875 C-244.42052734 79.00746094 -243.84496094 78.39773437 -243.25195312 77.76953125 C-242.35379883 76.83173828 -242.35379883 76.83173828 -241.4375 75.875 C-240.24667673 74.62431717 -239.05777889 73.37179738 -237.87109375 72.1171875 C-237.34443115 71.56659668 -236.81776855 71.01600586 -236.27514648 70.44873047 C-234.89762196 69.00795511 -234.89762196 69.00795511 -234 67 C-233.34 67 -232.68 67 -232 67 C-232 66.34 -232 65.68 -232 65 C-231.34 65 -230.68 65 -230 65 C-229.7628125 64.45859375 -229.525625 63.9171875 -229.28125 63.359375 C-227.65652243 60.36749863 -225.6498123 57.88840601 -223.5 55.25 C-222.30890625 53.77273437 -222.30890625 53.77273437 -221.09375 52.265625 C-220.4028125 51.51796875 -219.711875 50.7703125 -219 50 C-218.34 50 -217.68 50 -217 50 C-217 49.34 -217 48.68 -217 48 C-216.34 48 -215.68 48 -215 48 C-214.7525 47.443125 -214.505 46.88625 -214.25 46.3125 C-212.77075182 43.57589087 -211.06532561 41.32349131 -209 39 C-208.34 39 -207.68 39 -207 39 C-206.731875 38.4225 -206.46375 37.845 -206.1875 37.25 C-204.97070811 34.94449957 -203.69666121 32.97943808 -202 31 C-201.34 31 -200.68 31 -200 31 C-200 30.34 -200 29.68 -200 29 C-198.35511706 27.31183067 -196.68662458 25.64646685 -195 24 C-194.34 23.01 -193.68 22.02 -193 21 C-192.34 21 -191.68 21 -191 21 C-190.73574219 20.40703125 -190.47148437 19.8140625 -190.19921875 19.203125 C-188.95629575 16.91970946 -187.69598354 15.52573277 -185.8125 13.75 C-183.2425351 11.25984768 -180.83113126 8.71526802 -178.5 6 C-168.66224169 -5.31125515 -157.49002703 -14.38761316 -144 -21 C-143.0409375 -21.50144531 -142.081875 -22.00289062 -141.09375 -22.51953125 C-94.26222486 -45.87616311 -38.4224769 -32.76727533 0 0 Z M-139 2 C-139 2.66 -139 3.32 -139 4 C-139.61875 4.144375 -140.2375 4.28875 -140.875 4.4375 C-143.03258322 4.93152225 -143.03258322 4.93152225 -145 6 C-145 6.66 -145 7.32 -145 8 C-146.051875 8.3403125 -146.051875 8.3403125 -147.125 8.6875 C-150.74128535 10.33841288 -153.08769976 12.2908835 -156 15 C-156 15.66 -156 16.32 -156 17 C-156.66 17 -157.32 17 -158 17 C-158 17.66 -158 18.32 -158 19 C-158.66 19 -159.32 19 -160 19 C-161.53676516 20.48046792 -161.53676516 20.48046792 -163.125 22.4375 C-166.49378571 26.41621323 -169.9703982 30.2770561 -173.49609375 34.1171875 C-175.20803393 35.85882884 -175.20803393 35.85882884 -175 38 C-175.66 38 -176.32 38 -177 38 C-178.60480279 39.54775998 -178.60480279 39.54775998 -180.25 41.5625 C-180.86488281 42.28824219 -181.47976562 43.01398438 -182.11328125 43.76171875 C-182.73589844 44.50035156 -183.35851562 45.23898438 -184 46 C-184.59167969 46.66644531 -185.18335938 47.33289063 -185.79296875 48.01953125 C-186.60701172 48.93798828 -186.60701172 48.93798828 -187.4375 49.875 C-187.93121094 50.42929688 -188.42492187 50.98359375 -188.93359375 51.5546875 C-190.19790607 52.96886621 -190.19790607 52.96886621 -190 55 C-190.56847656 55.22042969 -191.13695312 55.44085938 -191.72265625 55.66796875 C-194.70717397 57.41363006 -196.31369201 59.59240623 -198.4375 62.3125 C-201.43506998 66.13375008 -204.5337728 69.59917331 -208 73 C-209.45237003 74.54868776 -210.89084944 76.11056557 -212.3125 77.6875 C-213.00988281 78.45449219 -213.70726562 79.22148437 -214.42578125 80.01171875 C-216.20691413 81.83866723 -216.20691413 81.83866723 -216 84 C-216.66 84 -217.32 84 -218 84 C-218 84.66 -218 85.32 -218 86 C-218.66 86 -219.32 86 -220 86 C-222.39820305 88.63684747 -222.39820305 88.63684747 -223 92 C-223.66 92 -224.32 92 -225 92 C-225 92.66 -225 93.32 -225 94 C-225.66 94 -226.32 94 -227 94 C-227 94.66 -227 95.32 -227 96 C-227.66 96 -228.32 96 -229 96 C-230.38938077 97.96147874 -231.7260411 99.96166576 -233 102 C-232.34 102 -231.68 102 -231 102 C-231 102.66 -231 103.32 -231 104 C-230.34 104 -229.68 104 -229 104 C-229 104.66 -229 105.32 -229 106 C-228.34 106 -227.68 106 -227 106 C-227 106.66 -227 107.32 -227 108 C-226.34 108 -225.68 108 -225 108 C-225 108.66 -225 109.32 -225 110 C-223.51638306 111.50049936 -223.51638306 111.50049936 -221.5625 113.0625 C-217.41038212 116.57070655 -213.64192767 120.35450405 -209.8828125 124.27734375 C-208.17939784 126.2250104 -208.17939784 126.2250104 -206 126 C-206 126.66 -206 127.32 -206 128 C-204.41561079 129.60270119 -204.41561079 129.60270119 -202.375 131.25 C-199.65952241 133.54660073 -197.08737736 135.87150775 -194.625 138.4375 C-192.37287237 141.23284557 -192.37287237 141.23284557 -190 141 C-190 141.66 -190 142.32 -190 143 C-189.34 143 -188.68 143 -188 143 C-188 143.66 -188 144.32 -188 145 C-187.34 145 -186.68 145 -186 145 C-186 145.66 -186 146.32 -186 147 C-185.34 147 -184.68 147 -184 147 C-184 147.66 -184 148.32 -184 149 C-183.34 149 -182.68 149 -182 149 C-182 149.66 -182 150.32 -182 151 C-180.41561079 152.60270119 -180.41561079 152.60270119 -178.375 154.25 C-175.65952241 156.54660073 -173.08737736 158.87150775 -170.625 161.4375 C-168.37287237 164.23284557 -168.37287237 164.23284557 -166 164 C-166 164.66 -166 165.32 -166 166 C-164.51638306 167.50049936 -164.51638306 167.50049936 -162.5625 169.0625 C-158.41038212 172.57070655 -154.64192767 176.35450405 -150.8828125 180.27734375 C-149.17939784 182.2250104 -149.17939784 182.2250104 -147 182 C-147 182.66 -147 183.32 -147 184 C-146.34 184 -145.68 184 -145 184 C-145 184.66 -145 185.32 -145 186 C-144.34 186 -143.68 186 -143 186 C-143 186.66 -143 187.32 -143 188 C-141.51953208 189.53676516 -141.51953208 189.53676516 -139.5625 191.125 C-138.840625 191.73988281 -138.11875 192.35476562 -137.375 192.98828125 C-136.59125 193.65214844 -135.8075 194.31601563 -135 195 C-133.34908096 196.43165636 -131.70312845 197.86906247 -130.0625 199.3125 C-128.93521484 200.29669922 -128.93521484 200.29669922 -127.78515625 201.30078125 C-126 203 -126 203 -125 205 C-124.34 205 -123.68 205 -123 205 C-123 205.66 -123 206.32 -123 207 C-119.52001493 210.63633539 -119.52001493 210.63633539 -115 212 C-115 212.66 -115 213.32 -115 214 C-114.34 214 -113.68 214 -113 214 C-113 214.66 -113 215.32 -113 216 C-112.34 216 -111.68 216 -111 216 C-110.71125 216.639375 -110.4225 217.27875 -110.125 217.9375 C-109.17176549 220.15206079 -109.17176549 220.15206079 -107 221 C-103.47507681 217.51318409 -100.04711224 213.96079004 -96.6875 210.3125 C-95.80449219 209.35988281 -94.92148437 208.40726563 -94.01171875 207.42578125 C-91.78721541 205.26865508 -91.78721541 205.26865508 -92 203 C-91.34 203 -90.68 203 -90 203 C-90 202.34 -90 201.68 -90 201 C-89.34 201 -88.68 201 -88 201 C-86.46323484 199.51953208 -86.46323484 199.51953208 -84.875 197.5625 C-81.50621429 193.58378677 -78.0296018 189.7229439 -74.50390625 185.8828125 C-72.79196607 184.14117116 -72.79196607 184.14117116 -73 182 C-72.45214844 181.80019531 -71.90429688 181.60039062 -71.33984375 181.39453125 C-68.05076163 179.43426027 -65.93552272 176.62848139 -63.5625 173.6875 C-62.62856517 172.54372129 -61.69238723 171.40177026 -60.75390625 170.26171875 C-60.07352295 169.43486572 -60.07352295 169.43486572 -59.37939453 168.59130859 C-58.04971089 167.05734789 -56.6016534 165.62850779 -55.15234375 164.20703125 C-52.76727289 162.27515737 -52.76727289 162.27515737 -53 160 C-52.34 160 -51.68 160 -51 160 C-49.22328303 158.32040162 -49.22328303 158.32040162 -47.4375 156.1875 C-46.81746094 155.47980469 -46.19742188 154.77210938 -45.55859375 154.04296875 C-43.81575246 151.98726532 -43.81575246 151.98726532 -43 149 C-42.34 149 -41.68 149 -41 149 C-39.22328303 147.32040162 -39.22328303 147.32040162 -37.4375 145.1875 C-36.81746094 144.47980469 -36.19742188 143.77210938 -35.55859375 143.04296875 C-33.81575246 140.98726532 -33.81575246 140.98726532 -33 138 C-32.34 138 -31.68 138 -31 138 C-25.82318668 132.55810889 -22.39955203 125.62111704 -19 119 C-18.67829834 118.40243896 -18.35659668 117.80487793 -18.02514648 117.18920898 C-15.44598554 112.27805416 -13.74102529 107.41372816 -12.3125 102.0625 C-12.10044922 101.31548828 -11.88839844 100.56847656 -11.66992188 99.79882812 C-5.88599233 78.6519059 -7.53648314 51.50295307 -17.875 32.125 C-18.89469868 30.40346382 -19.93546827 28.69417957 -21 27 C-21.46277344 26.23300781 -21.92554688 25.46601562 -22.40234375 24.67578125 C-32.07748081 9.31884625 -46.16204751 -4.31732394 -64.12670898 -8.59960938 C-90.37314207 -14.40995029 -115.22738731 -10.25017287 -139 2 Z " fill="#0C4145" transform="translate(416,56)"/>
<path d="M0 0 C3.4170389 0.32007485 5.0639761 1.71387903 7.390625 4.1328125 C8.01364502 4.77065674 8.63666504 5.40850098 9.27856445 6.06567383 C9.92913818 6.74525146 10.57971191 7.4248291 11.25 8.125 C12.60099698 9.50833682 13.95383941 10.88987394 15.30859375 12.26953125 C16.27321533 13.25300537 16.27321533 13.25300537 17.25732422 14.25634766 C19.75987465 16.76030047 22.40988624 19.05085846 25.11328125 21.33203125 C27.51501098 23.45529956 29.74704563 25.7197784 32 28 C36.78686752 32.8384184 41.64626917 37.64062094 47.2265625 41.56640625 C47.81179687 42.03949219 48.39703125 42.51257813 49 43 C49 43.66 49 44.32 49 45 C49.66 45 50.32 45 51 45 C51 45.66 51 46.32 51 47 C51.66 47 52.32 47 53 47 C53 47.66 53 48.32 53 49 C53.54140625 49.21269531 54.0828125 49.42539063 54.640625 49.64453125 C57.85326623 51.49020427 60.20545593 54.03967334 62.75 56.6875 C66.01102446 60.0191285 69.23854882 63.31195198 72.8125 66.3125 C77.6108658 70.38658417 81.96674177 74.91648002 86.37036133 79.4074707 C89.42376335 82.50281617 92.50941186 85.48366718 95.8125 88.3125 C101.954303 93.60839027 107.53318558 99.49062009 113.22265625 105.26171875 C117.69642642 109.77456115 122.20901421 114.12858478 127.03466797 118.26171875 C130.79319499 121.58603085 134.28611406 125.18315243 137.8125 128.75 C138.56208984 129.50410156 139.31167969 130.25820313 140.08398438 131.03515625 C141.46577497 132.42559075 142.84652673 133.81705907 144.22583008 135.20996094 C145.8128005 136.81112609 147.40453633 138.40730356 149 140 C147.63312778 143.98671063 145.84804907 146.88494633 143 150 C142.34 150 141.68 150 141 150 C140.77441406 150.54527344 140.54882812 151.09054687 140.31640625 151.65234375 C138.6085995 154.69801692 136.32960002 157.05338401 133.9375 159.5625 C130.19669966 163.55424903 126.61902783 167.60893394 123.1875 171.875 C119.98115434 175.84558217 116.79152682 179.57837823 113 183 C112.34 183 111.68 183 111 183 C110.814375 183.680625 110.62875 184.36125 110.4375 185.0625 C108.75087442 188.5090827 106.65880296 190.50102432 103.9140625 193.1328125 C97.91116122 198.98870395 92.74207171 205.69297011 87.4296875 212.16796875 C85.06430247 214.92504937 82.59112916 217.45541807 80 220 C78.94314421 221.08774122 77.88860213 222.17773352 76.8359375 223.26953125 C65.1096852 235.33574846 53.41691385 243.3304046 38 250 C37.14792969 250.37125 36.29585937 250.7425 35.41796875 251.125 C25.47358118 254.72361521 15.09707452 255.28503756 4.625 255.3125 C3.62750732 255.31781738 2.63001465 255.32313477 1.60229492 255.32861328 C-4.81618579 255.26781504 -10.7655409 254.51186672 -17 253 C-18.07507813 252.73960937 -19.15015625 252.47921875 -20.2578125 252.2109375 C-33.3283932 248.40016874 -45.17270396 242.22643311 -56 234 C-56.78632812 233.43925781 -57.57265625 232.87851562 -58.3828125 232.30078125 C-62.5817487 229.27959545 -62.5817487 229.27959545 -64 228 C-64 227.34 -64 226.68 -64 226 C-64.56203125 225.77957031 -65.1240625 225.55914062 -65.703125 225.33203125 C-80.20767969 216.92037623 -89.63961796 194.09867096 -93.78515625 178.88037109 C-98.01785549 162.28270325 -98.40504732 144.7866664 -95 128 C-94.82855469 127.06414062 -94.65710938 126.12828125 -94.48046875 125.1640625 C-88.23454217 95.7477631 -66.75426139 73.33266091 -46.82104492 52.14501953 C-43.3494823 48.45461774 -39.94343633 44.72650919 -36.63671875 40.88671875 C-34.62126228 38.56341213 -32.56151538 36.28251535 -30.5 34 C-23.65691015 26.63849181 -23.65691015 26.63849181 -17.4296875 18.7734375 C-16.95789063 18.18820313 -16.48609375 17.60296875 -16 17 C-15.34 17 -14.68 17 -14 17 C-13.5978125 16.12601563 -13.5978125 16.12601563 -13.1875 15.234375 C-11.98519009 12.97213399 -10.66174087 11.19423682 -9 9.25 C-8.484375 8.63640625 -7.96875 8.0228125 -7.4375 7.390625 C-6 6 -6 6 -4 6 C-3.71125 5.38125 -3.4225 4.7625 -3.125 4.125 C-2 2 -2 2 0 0 Z " fill="#EF9231" transform="translate(167,175)"/>
<path d="M0 0 C21.78316473 5.88734182 40.11834385 24.93744829 51.14160156 43.97119141 C55.92389431 52.61320861 59.64683649 61.37679977 62 71 C62.22429687 71.86753906 62.44859375 72.73507813 62.6796875 73.62890625 C68.66312532 101.78384998 61.00824182 128.22898632 48 153 C47.34 153 46.68 153 46 153 C45.73574219 153.73476562 45.47148437 154.46953125 45.19921875 155.2265625 C42.30564624 161.91853801 36.91987068 167.2490253 31.7421875 172.265625 C29.32916598 174.66782579 27.12701449 177.22947862 24.90625 179.80859375 C21.93533036 183.22393374 18.87289817 186.55611489 15.8203125 189.8984375 C13.96323333 191.86723421 13.96323333 191.86723421 13 194 C12.34 194 11.68 194 11 194 C10.78472656 194.53367188 10.56945312 195.06734375 10.34765625 195.6171875 C8.50423156 198.87657608 5.99986627 201.4281177 3.4375 204.125 C-0.18633907 207.76403407 -0.18633907 207.76403407 -3 212 C-3.66 212 -4.32 212 -5 212 C-5 212.66 -5 213.32 -5 214 C-5.66 214 -6.32 214 -7 214 C-7.22558594 214.54398438 -7.45117188 215.08796875 -7.68359375 215.6484375 C-9.41223787 218.73640119 -11.64550144 221.04454974 -14.0625 223.625 C-17.41533647 227.04209753 -17.41533647 227.04209753 -20 231 C-20.66 231 -21.32 231 -22 231 C-22.33644531 231.81210937 -22.33644531 231.81210937 -22.6796875 232.640625 C-24.41148866 235.73532294 -26.71619268 238.17925605 -29.125 240.75 C-29.59292969 241.25660156 -30.06085938 241.76320313 -30.54296875 242.28515625 C-31.69126541 243.52719141 -32.84508672 244.76411494 -34 246 C-35.32 245.67 -36.64 245.34 -38 245 C-38 244.34 -38 243.68 -38 243 C-38.58571777 242.74025391 -39.17143555 242.48050781 -39.77490234 242.21289062 C-42.15393635 240.91608999 -43.70649192 239.52219354 -45.6015625 237.59375 C-46.25640625 236.93246094 -46.91125 236.27117187 -47.5859375 235.58984375 C-48.25882812 234.90019531 -48.93171875 234.21054687 -49.625 233.5 C-50.305625 232.81035156 -50.98625 232.12070312 -51.6875 231.41015625 C-52.94711545 230.13311529 -54.20466586 228.85403183 -55.45947266 227.57226562 C-56.63280175 226.37476335 -57.8145227 225.1854773 -59 224 C-58.01 223.67 -57.02 223.34 -56 223 C-55.32364546 221.67155476 -54.65935585 220.33696376 -54 219 C-52.35406219 217.08841166 -50.66195325 215.21607095 -48.9375 213.375 C-45.58466353 209.95790247 -45.58466353 209.95790247 -43 206 C-42.34 206 -41.68 206 -41 206 C-41 205.34 -41 204.68 -41 204 C-40.34 204 -39.68 204 -39 204 C-38.68095703 203.20335937 -38.68095703 203.20335937 -38.35546875 202.390625 C-36.47752402 199.07851498 -33.91958177 196.49067632 -31.3125 193.75 C-30.21798673 192.58274649 -29.12423255 191.41478071 -28.03125 190.24609375 C-27.5053125 189.68519043 -26.979375 189.12428711 -26.4375 188.54638672 C-24.6908527 186.66743563 -22.9930571 184.75068968 -21.3125 182.8125 C-20.78914063 182.21050781 -20.26578125 181.60851562 -19.7265625 180.98828125 C-18.87191406 180.00408203 -18.87191406 180.00408203 -18 179 C-16.40241941 177.16092467 -14.79799137 175.32777989 -13.1875 173.5 C-12.43855469 172.6440625 -11.68960938 171.788125 -10.91796875 170.90625 C-9 169 -9 169 -7 169 C-6.5359375 168.071875 -6.5359375 168.071875 -6.0625 167.125 C-5.375 165.75 -4.6875 164.375 -4 163 C-3.34 163 -2.68 163 -2 163 C-1.731875 162.41734375 -1.46375 161.8346875 -1.1875 161.234375 C0.01480991 158.97213399 1.33825913 157.19423682 3 155.25 C3.515625 154.63640625 4.03125 154.0228125 4.5625 153.390625 C6 152 6 152 8 152 C8.268125 151.41734375 8.53625 150.8346875 8.8125 150.234375 C10.01480991 147.97213399 11.33825913 146.19423682 13 144.25 C13.515625 143.63640625 14.03125 143.0228125 14.5625 142.390625 C16 141 16 141 18 141 C18.25136719 140.46632812 18.50273437 139.93265625 18.76171875 139.3828125 C20.29083811 136.44034307 22.04466651 133.68054837 23.8125 130.875 C29.03465052 122.40445294 33.0362941 114.5221408 35.75 104.9375 C35.96100342 104.19346924 36.17200684 103.44943848 36.3894043 102.68286133 C42.06369659 81.52941633 40.45962775 54.49566352 30.125 35.125 C29.10530132 33.40346382 28.06453173 31.69417957 27 30 C26.53722656 29.23300781 26.07445312 28.46601562 25.59765625 27.67578125 C19.3826471 17.81096064 11.33684988 10.15766667 2.30859375 2.93359375 C1.54675781 2.29550781 0.78492188 1.65742187 0 1 C0 0.67 0 0.34 0 0 Z " fill="#C3D5D9" transform="translate(367,53)"/>
<path d="M0 0 C6.63827981 5.40325101 12.57190027 11.47711985 18.57714844 17.5612793 C20.0459161 19.0464282 21.52179125 20.5242531 23 22 C21.63312778 25.98671063 19.84804907 28.88494633 17 32 C16.34 32 15.68 32 15 32 C14.77441406 32.54527344 14.54882812 33.09054687 14.31640625 33.65234375 C12.6085995 36.69801692 10.32960002 39.05338401 7.9375 41.5625 C4.19669966 45.55424903 0.61902783 49.60893394 -2.8125 53.875 C-6.01884566 57.84558217 -9.20847318 61.57837823 -13 65 C-13.66 65 -14.32 65 -15 65 C-15.185625 65.680625 -15.37125 66.36125 -15.5625 67.0625 C-17.24912558 70.5090827 -19.34119704 72.50102432 -22.0859375 75.1328125 C-28.08883878 80.98870395 -33.25792829 87.69297011 -38.5703125 94.16796875 C-40.93569753 96.92504937 -43.40887084 99.45541807 -46 102 C-47.05685579 103.08774122 -48.11139787 104.17773352 -49.1640625 105.26953125 C-60.8903148 117.33574846 -72.58308615 125.3304046 -88 132 C-89.27810547 132.556875 -89.27810547 132.556875 -90.58203125 133.125 C-100.52641882 136.72361521 -110.90292548 137.28503756 -121.375 137.3125 C-122.37249268 137.31781738 -123.36998535 137.32313477 -124.39770508 137.32861328 C-130.81618579 137.26781504 -136.7655409 136.51186672 -143 135 C-144.07507813 134.73960937 -145.15015625 134.47921875 -146.2578125 134.2109375 C-159.3283932 130.40016874 -171.17270396 124.22643311 -182 116 C-182.78632813 115.43925781 -183.57265625 114.87851562 -184.3828125 114.30078125 C-188.5817487 111.27959545 -188.5817487 111.27959545 -190 110 C-190 109.34 -190 108.68 -190 108 C-190.55558594 107.78859375 -191.11117187 107.5771875 -191.68359375 107.359375 C-194.79630896 105.53268884 -196.81595654 103.01186752 -199.0625 100.25 C-199.49626953 99.73695313 -199.93003906 99.22390625 -200.37695312 98.6953125 C-203.15115194 95.33418274 -205.19248875 91.95874595 -207 88 C-205 88 -205 88 -203.375 89.375 C-202 91 -202 91 -202 93 C-201.401875 93.103125 -200.80375 93.20625 -200.1875 93.3125 C-197.68741714 94.09824033 -196.62464918 94.96918853 -195 97 C-195 97.66 -195 98.32 -195 99 C-193.9171875 99.37125 -193.9171875 99.37125 -192.8125 99.75 C-189.74385796 101.11384091 -187.61306423 102.90954861 -185 105 C-183.3471165 105.70014168 -181.67851342 106.36374934 -180 107 C-178.79730469 107.51240234 -178.79730469 107.51240234 -177.5703125 108.03515625 C-172.63701075 110.10777344 -168.31235903 111.43485542 -163 112 C-162.67 112.33 -162.34 112.66 -162 113 C-137.77855958 116.4252542 -116.62634039 113.31158678 -94.9609375 101.91796875 C-93 101 -93 101 -91 101 C-91 100.34 -91 99.68 -91 99 C-89.57827665 98.02901561 -88.1513378 97.06469586 -86.69775391 96.14208984 C-76.46554983 89.25882112 -66.11308841 78.54989844 -59.19140625 68.43359375 C-58.60166016 67.72396484 -58.60166016 67.72396484 -58 67 C-57.34 67 -56.68 67 -56 67 C-55.76410156 66.44570313 -55.52820313 65.89140625 -55.28515625 65.3203125 C-53.6873545 62.43552758 -51.68148991 60.28827968 -49.4375 57.875 C-46.36280814 54.68492491 -46.36280814 54.68492491 -44 51 C-43.34 51 -42.68 51 -42 51 C-41.731875 50.41734375 -41.46375 49.8346875 -41.1875 49.234375 C-39.98519009 46.97213399 -38.66174087 45.19423682 -37 43.25 C-36.484375 42.63640625 -35.96875 42.0228125 -35.4375 41.390625 C-34 40 -34 40 -32 40 C-31.72760498 39.40541992 -31.45520996 38.81083984 -31.17456055 38.19824219 C-30.02970512 36.05559444 -28.87355302 34.57993363 -27.20703125 32.828125 C-26.66224121 32.24981934 -26.11745117 31.67151367 -25.55615234 31.07568359 C-24.98074707 30.47320801 -24.4053418 29.87073242 -23.8125 29.25 C-22.63331428 27.9981492 -21.45492282 26.74554975 -20.27734375 25.4921875 C-19.71128418 24.89116211 -19.14522461 24.29013672 -18.56201172 23.67089844 C-15.00990937 19.87118158 -11.44030841 16.04827779 -8.4453125 11.7890625 C-7.72988281 10.90347656 -7.72988281 10.90347656 -7 10 C-6.34 10 -5.68 10 -5 10 C-4.731875 9.4225 -4.46375 8.845 -4.1875 8.25 C-3 6 -3 6 -1.375 3.875 C0.19712122 2.11872074 0.19712122 2.11872074 0 0 Z " fill="#DD7721" transform="translate(293,293)"/>
<path d="M0 0 C3 0.1875 3 0.1875 5 1.1875 C5.57113429 4.17474163 6.03435866 7.11457665 6.4375 10.125 C8.01570335 20.8112672 10.13019888 29.3168057 15.79296875 38.64453125 C17.12237506 41.4453193 17.40004068 43.12744857 17 46.1875 C15 48.1875 15 48.1875 11.63671875 48.66796875 C8 48.1875 8 48.1875 5.70703125 45.80078125 C5.08183594 44.71152344 4.45664063 43.62226563 3.8125 42.5 C3.47790771 41.92000244 3.14331543 41.34000488 2.79858398 40.74243164 C-0.44468343 34.87324799 -2.38389217 28.67932299 -4 22.1875 C-4.19335938 21.57261719 -4.38671875 20.95773437 -4.5859375 20.32421875 C-5.24482668 16.92410196 -5.18441423 13.51238885 -5.1875 10.0625 C-5.19974609 9.33417969 -5.21199219 8.60585938 -5.22460938 7.85546875 C-5.22985188 5.96467022 -5.12233385 4.07434419 -5 2.1875 C-3 0.1875 -3 0.1875 0 0 Z " fill="#FDE7CA" transform="translate(107,319.8125)"/>
<path d="M0 0 C2 0 2 0 3.625 1.375 C5 3 5 3 5 5 C5.598125 5.103125 6.19625 5.20625 6.8125 5.3125 C9.31258286 6.09824033 10.37535082 6.96918853 12 9 C12 9.66 12 10.32 12 11 C12.721875 11.2475 13.44375 11.495 14.1875 11.75 C17.25614204 13.11384091 19.38693577 14.90954861 22 17 C23.65212159 17.70193767 25.32171022 18.36315965 27 19 C29.10549957 19.87178778 31.20963351 20.74687993 33.3125 21.625 C34.38113281 22.07101562 35.44976562 22.51703125 36.55078125 22.9765625 C37.76314453 23.48316406 37.76314453 23.48316406 39 24 C38.67 24.66 38.34 25.32 38 26 C38.66 26.33 39.32 26.66 40 27 C40 27.66 40 28.32 40 29 C38.35 29 36.7 29 35 29 C35 28.34 35 27.68 35 27 C34.01 27.495 34.01 27.495 33 28 C33 29.32 33 30.64 33 32 C33.99 32 34.98 32 36 32 C36.33 32.99 36.66 33.98 37 35 C32.34324016 33.42701051 28.70102351 30.90281047 24.75 28.0625 C24.11320312 27.61970703 23.47640625 27.17691406 22.8203125 26.72070312 C18.12239705 23.36719114 18.12239705 23.36719114 17 20 C16.42378906 19.72671875 15.84757812 19.4534375 15.25390625 19.171875 C12.080832 17.52209636 10.1554559 14.9767224 7.9375 12.25 C7.50373047 11.73695313 7.06996094 11.22390625 6.62304688 10.6953125 C3.84884806 7.33418274 1.80751125 3.95874595 0 0 Z " fill="#D67826" transform="translate(86,381)"/>
<path d="M0 0 C2.875 0.6875 2.875 0.6875 4.875 2.3125 C5.875 4.6875 5.875 4.6875 5.3125 7.5 C4.838125 8.551875 4.36375 9.60375 3.875 10.6875 C3.61460938 11.3165625 3.35421875 11.945625 3.0859375 12.59375 C2.1875 14.5 2.1875 14.5 -0.125 17.6875 C-3.875 18.625 -3.875 18.625 -7.125 18.6875 C-9.36978379 15.32032432 -9.35127545 13.75074121 -8.7265625 9.828125 C-7.33479427 4.8755991 -5.16049582 1.13530908 0 0 Z " fill="#FDE9CE" transform="translate(116.125,289.3125)"/>
<path d="M0 0 C0.495 0.99 0.495 0.99 1 2 C-1.46272459 5.43022354 -2.79341119 7.27472607 -7 8 C-7.33 8.66 -7.66 9.32 -8 10 C-10.48184831 11.36501657 -12.95395037 12.64113861 -15.5 13.875 C-16.23758545 14.23432617 -16.9751709 14.59365234 -17.73510742 14.96386719 C-19.18980226 15.67028202 -20.64574244 16.37413919 -22.10302734 17.07519531 C-23.54773733 17.77951467 -24.9754733 18.5187672 -26.39453125 19.2734375 C-38.62036458 25.49840355 -53.5416976 26.74611928 -67 26 C-67.72509766 25.96181152 -68.45019531 25.92362305 -69.19726562 25.88427734 C-73.80211851 25.63751857 -78.4010189 25.33842699 -83 25 C-83 24.34 -83 23.68 -83 23 C-82.11441406 23.01571045 -81.22882813 23.0314209 -80.31640625 23.04760742 C-50.1436244 23.51267957 -23.63330131 21.07834982 0 0 Z " fill="#2B3A2B" transform="translate(235,406)"/>
<path d="M0 0 C2 0 2 0 3.625 1.375 C5 3 5 3 5 5 C5.598125 5.103125 6.19625 5.20625 6.8125 5.3125 C9.31258286 6.09824033 10.37535082 6.96918853 12 9 C12 9.66 12 10.32 12 11 C12.7425 11.2475 13.485 11.495 14.25 11.75 C17.29871536 13.13577971 18.95623982 14.35068125 21 17 C21.25 19.75 21.25 19.75 21 22 C21.99 22 22.98 22 24 22 C24 23.32 24 24.64 24 26 C19.2687747 24.50592885 19.2687747 24.50592885 17.9375 22 C17.4734375 21.01 17.4734375 21.01 17 20 C16.42507812 19.74734375 15.85015625 19.4946875 15.2578125 19.234375 C12.118203 17.51791029 10.16007309 14.9823987 7.9375 12.25 C7.50373047 11.73695313 7.06996094 11.22390625 6.62304688 10.6953125 C3.84884806 7.33418274 1.80751125 3.95874595 0 0 Z " fill="#DC7A20" transform="translate(86,381)"/>
<path d="M0 0 C0.33 0 0.66 0 1 0 C0.9278125 0.8559375 0.855625 1.711875 0.78125 2.59375 C-0.33118325 18.04421184 -0.092086 33.51963531 0 49 C0.66 49 1.32 49 2 49 C2 51.64 2 54.28 2 57 C2.66 57 3.32 57 4 57 C4.33 60.3 4.66 63.6 5 67 C2.06104138 63.0813885 0.96147513 60.06152515 -0.125 55.4375 C-0.38265137 54.36133423 -0.38265137 54.36133423 -0.64550781 53.26342773 C-4.22847684 37.75056328 -3.94523587 21.58610224 -1 6 C-0.66327796 4.00056774 -0.32900668 2.0007163 0 0 Z " fill="#C08D4A" transform="translate(73,297)"/>
<path d="M0 0 C-1.73324679 2.00691734 -2.93192269 2.97381642 -5.4375 3.9375 C-8.14570081 4.85552865 -8.14570081 4.85552865 -10.0625 7.1875 C-10.701875 7.785625 -11.34125 8.38375 -12 9 C-14.0625 8.6875 -14.0625 8.6875 -16 8 C-16.99 8.33 -17.98 8.66 -19 9 C-19 10.98 -19 12.96 -19 15 C-22.48056025 16.6435979 -24.34470956 17.29703854 -28 16 C-28.7425 15.814375 -29.485 15.62875 -30.25 15.4375 C-30.8275 15.293125 -31.405 15.14875 -32 15 C-24.39293726 8.17987478 -10.49080634 -0.63922476 0 0 Z " fill="#365B5C" transform="translate(288,30)"/>
<path d="M0 0 C0.33 0 0.66 0 1 0 C0.7834375 1.670625 0.7834375 1.670625 0.5625 3.375 C0.37482148 4.91664494 0.18733144 6.45831284 0 8 C-0.09539062 8.71285156 -0.19078125 9.42570312 -0.2890625 10.16015625 C-2.05517532 24.86935298 -0.79876982 39.36893475 1 54 C0.34 54 -0.32 54 -1 54 C-1 52.02 -1 50.04 -1 48 C-1.66 48 -2.32 48 -3 48 C-3.07443429 42.28917253 -3.12873634 36.5786306 -3.16479492 30.86743164 C-3.17983491 28.92662636 -3.20027214 26.9858548 -3.22631836 25.04516602 C-3.26291295 22.24747368 -3.27977448 19.45023267 -3.29296875 16.65234375 C-3.30845261 15.7916478 -3.32393646 14.93095184 -3.33988953 14.04417419 C-3.34139495 8.59417233 -2.48741519 4.86293974 0 0 Z " fill="#213728" transform="translate(72,298)"/>
<path d="M0 0 C2.64 0 5.28 0 8 0 C8.33 0.99 8.66 1.98 9 3 C9.66 3 10.32 3 11 3 C10.125 10.625 10.125 10.625 9 14 C8.34 14 7.68 14 7 14 C6.9175 14.598125 6.835 15.19625 6.75 15.8125 C5.77052189 18.66931115 4.56298332 19.46221001 2 21 C-0.25 21.6875 -0.25 21.6875 -2 22 C-2 21.34 -2 20.68 -2 20 C-2.99 19.67 -3.98 19.34 -5 19 C-6.47193312 16.05613377 -5.84936173 13.62609964 -5.5625 10.375 C-5.46066406 9.18648438 -5.35882813 7.99796875 -5.25390625 6.7734375 C-5.17011719 5.85820312 -5.08632812 4.94296875 -5 4 C-4.01 4 -3.02 4 -2 4 C-1.34 2.68 -0.68 1.36 0 0 Z M-1.8125 4 C-4.33532749 8.00397137 -4.92148407 11.28904402 -5 16 C-4.01 17.485 -4.01 17.485 -3 19 C0.67261021 19.22091829 0.67261021 19.22091829 4 18 C6.694329 14.63068252 8.74106039 11.1324834 10 7 C9.31913332 4.57462418 8.79604968 2.79604968 7 1 C2.75520911 0.22821984 0.79498721 0.65511844 -1.8125 4 Z " fill="#E2984A" transform="translate(112,289)"/>
<path d="M0 0 C0.66 0.33 1.32 0.66 2 1 C0.29906612 5.31611971 -2.86484759 8.31238613 -6 11.625 C-6.5465625 12.21023438 -7.093125 12.79546875 -7.65625 13.3984375 C-9.74281394 15.62819701 -11.84055695 17.84055695 -14 20 C-14.33 19.01 -14.66 18.02 -15 17 C-13.6875 14.5 -13.6875 14.5 -12 12 C-11.34 11.01 -10.68 10.02 -10 9 C-9.01 9 -8.02 9 -7 9 C-6.401875 7.88625 -5.80375 6.7725 -5.1875 5.625 C-3.62304383 2.71187472 -2.90092502 1.93395001 0 0 Z " fill="#436567" transform="translate(316,348)"/>
<path d="M0 0 C6.510703 5.47490934 12.74987827 11.23223578 19 17 C14.95421892 17 11.51986075 16.02272541 8 14 C7.25 11.4375 7.25 11.4375 7 9 C5.6846659 8.29848848 4.34882408 7.63474075 3 7 C0 2.71428571 0 2.71428571 0 0 Z " fill="#E1913C" transform="translate(226,229)"/>
<path d="M0 0 C2.99051522 1.34094131 5.05670845 2.81748865 7.34765625 5.15234375 C7.95287109 5.76400391 8.55808594 6.37566406 9.18164062 7.00585938 C9.80232422 7.64330078 10.42300781 8.28074219 11.0625 8.9375 C11.68705078 9.57107422 12.31160156 10.20464844 12.95507812 10.85742188 C14.11828251 12.03800605 15.27941431 13.22063864 16.43774414 14.40600586 C17.49304008 15.48274085 18.58688699 16.52280211 19.71264648 17.52563477 C21 19 21 19 20.8125 21.875 C20.07366138 24.71668701 19.18383281 27.31664564 18 30 C16.68 30 15.36 30 14 30 C15.04024912 27.75946342 16.06046554 25.92558087 17.625 24 C19.37768588 21.85514888 19.37768588 21.85514888 19 18 C18.41573242 17.740979 17.83146484 17.48195801 17.22949219 17.21508789 C14.83360043 15.90931114 13.24747618 14.49092728 11.328125 12.55859375 C10.66425781 11.89279297 10.00039063 11.22699219 9.31640625 10.54101562 C8.63449219 9.84685547 7.95257813 9.15269531 7.25 8.4375 C6.55261719 7.73947266 5.85523438 7.04144531 5.13671875 6.32226562 C0 1.14031158 0 1.14031158 0 0 Z " fill="#3A3D28" transform="translate(296,295)"/>
<path d="M0 0 C1.31223496 3.93670488 0.24296256 6.12488144 -1 10 C1.475 10.99 1.475 10.99 4 12 C4 11.01 4 10.02 4 9 C4.99 9 5.98 9 7 9 C6.979375 8.05125 6.95875 7.1025 6.9375 6.125 C7 3 7 3 8 1 C10.0625 0.375 10.0625 0.375 12 0 C10.57228683 4.87802 8.97862895 8.89432226 6 13 C2.25 13.9375 2.25 13.9375 -1 14 C-3.11299851 10.83050223 -3.25293119 10.49404825 -2.75 7 C-2.66234375 6.319375 -2.5746875 5.63875 -2.484375 4.9375 C-2 3 -2 3 0 0 Z " fill="#FDDFB2" transform="translate(110,294)"/>
<path d="M0 0 C0 1.98 0 3.96 0 6 C-3.48056025 7.6435979 -5.34470956 8.29703854 -9 7 C-9.7425 6.814375 -10.485 6.62875 -11.25 6.4375 C-11.8275 6.293125 -12.405 6.14875 -13 6 C-5.8 0 -5.8 0 0 0 Z " fill="#295256" transform="translate(269,39)"/>
<path d="M0 0 C0.33 0.66 0.66 1.32 1 2 C0.360625 2.763125 -0.27875 3.52625 -0.9375 4.3125 C-3.14232781 6.88246713 -3.14232781 6.88246713 -4 10 C-4.99 10 -5.98 10 -7 10 C-7.66 12.31 -8.32 14.62 -9 17 C-9.556875 17.04125 -10.11375 17.0825 -10.6875 17.125 C-14.24030274 18.46930374 -15.70958953 21.00974189 -18 24 C-18.66 23.67 -19.32 23.34 -20 23 C-18.26916941 19.43016192 -16.1877034 17.18862559 -13.1875 14.6875 C-9.54883622 11.64522862 -6.88530483 8.4177532 -4.2265625 4.50390625 C-3.61941406 3.75947266 -3.61941406 3.75947266 -3 3 C-2.34 3 -1.68 3 -1 3 C-0.67 2.01 -0.34 1.02 0 0 Z " fill="#2B3B2B" transform="translate(295,340)"/>
<path d="M0 0 C0.66 0.33 1.32 0.66 2 1 C0.57541089 5.35756669 -0.44477864 8.06666767 -4.4375 10.5 C-8 12 -8 12 -12 11 C-8.04 7.37 -4.08 3.74 0 0 Z " fill="#325A5C" transform="translate(254,46)"/>
<path d="M0 0 C0.66 0.33 1.32 0.66 2 1 C1.67 1.66 1.34 2.32 1 3 C0.34 3 -0.32 3 -1 3 C-0.67 4.65 -0.34 6.3 0 8 C-0.7425 8.433125 -1.485 8.86625 -2.25 9.3125 C-6.97682261 11.88936356 -6.97682261 11.88936356 -9.75 16.1875 C-9.8325 16.785625 -9.915 17.38375 -10 18 C-10.66 17.67 -11.32 17.34 -12 17 C-12 14 -12 14 -10 11 C-9.34 11 -8.68 11 -8 11 C-7.71125 10.401875 -7.4225 9.80375 -7.125 9.1875 C-6 7 -6 7 -4 4 C-3.34 4 -2.68 4 -2 4 C-2 3.34 -2 2.68 -2 2 C-1.34 2 -0.68 2 0 2 C0 1.34 0 0.68 0 0 Z " fill="#48696B" transform="translate(151,158)"/>
<path d="M0 0 C1 2 1 2 0.5625 4.6875 C-1.59580229 9.26310085 -4.84733028 12.155813 -9 15 C-11.2578125 15.69921875 -11.2578125 15.69921875 -13 16 C-10.71094117 11.90378947 -8.14344452 8.46584909 -5 5 C-4.34 5 -3.68 5 -3 5 C-3 4.34 -3 3.68 -3 3 C-2.34 3 -1.68 3 -1 3 C-0.67 2.01 -0.34 1.02 0 0 Z " fill="#3C6063" transform="translate(202,101)"/>
<path d="M0 0 C0.33 0.99 0.66 1.98 1 3 C-0.40445835 5.2636564 -2.1967913 7.0208685 -4 9 C-3.01 9.99 -2.02 10.98 -1 12 C-4.50776784 13.60355101 -7.14354879 14.22036864 -11 14 C-9.42219077 10.28954753 -7.09296752 7.70093616 -4.375 4.75 C-3.55773437 3.85796875 -2.74046875 2.9659375 -1.8984375 2.046875 C-1.27195313 1.37140625 -0.64546875 0.6959375 0 0 Z " fill="#DF9239" transform="translate(137,208)"/>
<path d="M0 0 C1.45823212 -0.0270043 2.91660675 -0.04639787 4.375 -0.0625 C5.18710938 -0.07410156 5.99921875 -0.08570313 6.8359375 -0.09765625 C9 0 9 0 11 1 C12.95390533 5.55000333 13.2177468 9.45941948 13.125 14.375 C13.10695313 15.62023437 13.08890625 16.86546875 13.0703125 18.1484375 C13.04710938 19.08945312 13.02390625 20.03046875 13 21 C9.77277017 14.84727321 9.86397917 8.8010413 10 2 C8.72125 1.979375 7.4425 1.95875 6.125 1.9375 C5.40570313 1.92589844 4.68640625 1.91429687 3.9453125 1.90234375 C1.91814596 1.87350758 1.91814596 1.87350758 0 3 C0 2.01 0 1.02 0 0 Z " fill="#E79F51" transform="translate(102,319)"/>
<path d="M0 0 C4.8980305 2.35831098 8.95486375 4.35216046 12 9 C8.67438135 10.76062164 7.40826005 11.10784228 3.6875 10.125 C2.800625 9.75375 1.91375 9.3825 1 9 C2.375 7.5 2.375 7.5 4 6 C4.66 6 5.32 6 6 6 C6 5.34 6 4.68 6 4 C4.35 3.67 2.7 3.34 1 3 C0.67 2.01 0.34 1.02 0 0 Z " fill="#E49239" transform="translate(239,244)"/>
<path d="M0 0 C0.33 0.66 0.66 1.32 1 2 C-0.80251112 5.69989125 -2.75271413 7.59072339 -6 10 C-6.350625 10.70125 -6.70125 11.4025 -7.0625 12.125 C-7.371875 12.74375 -7.68125 13.3625 -8 14 C-8.99 14.33 -9.98 14.66 -11 15 C-12.38576923 16.62332967 -13.72641268 18.28724465 -15 20 C-15.66 19.67 -16.32 19.34 -17 19 C-16.14535156 18.08476562 -15.29070312 17.16953125 -14.41015625 16.2265625 C-13.29415079 15.02615326 -12.17827192 13.82562632 -11.0625 12.625 C-10.49853516 12.02171875 -9.93457031 11.4184375 -9.35351562 10.796875 C-8.54624023 9.92675781 -8.54624023 9.92675781 -7.72265625 9.0390625 C-7.22515869 8.50490723 -6.72766113 7.97075195 -6.21508789 7.42041016 C-4.89706492 5.9954525 -4.89706492 5.9954525 -4 4 C-3.34 4 -2.68 4 -2 4 C-1.34 2.68 -0.68 1.36 0 0 Z " fill="#CB9047" transform="translate(155,188)"/>
<path d="M0 0 C0.82841892 2.34546108 1.18500916 3.53458633 0.25 5.88671875 C-2.30257586 9.56402335 -3.27738744 10.82230839 -7.8125 11.9375 C-9.3903125 11.9684375 -9.3903125 11.9684375 -11 12 C-7.49102731 7.81576108 -3.91939465 3.80411834 0 0 Z " fill="#2C3D2E" transform="translate(247,394)"/>
<path d="M0 0 C3.45416056 3.13397152 4.92356373 6.49930977 6 11 C5.6875 14.5 5.6875 14.5 5 17 C3.4375 15.875 3.4375 15.875 2 14 C2.3125 10.8125 2.3125 10.8125 3 8 C1.68 7.34 0.36 6.68 -1 6 C-0.67 4.02 -0.34 2.04 0 0 Z " fill="#406165" transform="translate(438,86)"/>
<path d="M0 0 C0 5.56519485 -3.96861081 9.92063922 -7.6875 13.8125 C-8.450625 14.534375 -9.21375 15.25625 -10 16 C-10.66 16.99 -11.32 17.98 -12 19 C-12.66 19 -13.32 19 -14 19 C-12.56420625 15.87378898 -10.81985376 13.31999255 -8.6875 10.625 C-8.07132812 9.84511719 -7.45515625 9.06523437 -6.8203125 8.26171875 C-4.58004918 5.47821561 -2.30796831 2.72759891 0 0 Z " fill="#C88F49" transform="translate(103,246)"/>
<path d="M0 0 C0.66 1.32 1.32 2.64 2 4 C0.625 6 0.625 6 -1 8 C-1.66 8 -2.32 8 -3 8 C-3.33 8.99 -3.66 9.98 -4 11 C-4 10.34 -4 9.68 -4 9 C-4.928125 9.99 -4.928125 9.99 -5.875 11 C-8 13 -8 13 -10 13 C-8.32598022 9.04322598 -5.86850715 6.15535787 -3 3 C-2.34 3 -1.68 3 -1 3 C-0.67 2.01 -0.34 1.02 0 0 Z " fill="#517276" transform="translate(90,226)"/>
<path d="M0 0 C0.66 1.32 1.32 2.64 2 4 C1.34 4 0.68 4 0 4 C-0.2475 4.5775 -0.495 5.155 -0.75 5.75 C-2.16683317 8.3002997 -3.87627537 10.01785701 -6 12 C-6.99 11.34 -7.98 10.68 -9 10 C-6.03 6.7 -3.06 3.4 0 0 Z " fill="#406263" transform="translate(162,146)"/>
<path d="M0 0 C0.66 0.33 1.32 0.66 2 1 C2 1.66 2 2.32 2 3 C2.66 3.33 3.32 3.66 4 4 C3.34 4 2.68 4 2 4 C1.773125 4.7425 1.54625 5.485 1.3125 6.25 C-0.24407532 9.51139591 -2.08518854 10.92894975 -5 13 C-5 12.01 -5 11.02 -5 10 C-4.34 10 -3.68 10 -3 10 C-2.67 9.01 -2.34 8.02 -2 7 C-2.33 6.67 -2.66 6.34 -3 6 C-1.125 1.125 -1.125 1.125 0 0 Z " fill="#CB772B" transform="translate(276,354)"/>
<path d="M0 0 C0.33 0.66 0.66 1.32 1 2 C0.66226563 2.47050781 0.32453125 2.94101563 -0.0234375 3.42578125 C-0.46945313 4.04839844 -0.91546875 4.67101562 -1.375 5.3125 C-1.81585938 5.92738281 -2.25671875 6.54226562 -2.7109375 7.17578125 C-3.83410907 8.7652392 -4.92041447 10.38062171 -6 12 C-6.99 12 -7.98 12 -9 12 C-9 12.99 -9 13.98 -9 15 C-10.65 15.66 -12.3 16.32 -14 17 C-9.68339698 10.99926777 -4.97966692 5.45993937 0 0 Z " fill="#CA8F48" transform="translate(118,229)"/>
<path d="M0 0 C0.99 0.33 1.98 0.66 3 1 C2.44570312 2.09699219 1.89140625 3.19398438 1.3203125 4.32421875 C0.58843442 5.77859187 -0.14333045 7.23302196 -0.875 8.6875 C-1.23980469 9.40873047 -1.60460937 10.12996094 -1.98046875 10.87304688 C-3.8179242 14.53125364 -5.56138502 18.1611695 -7 22 C-8.85650977 16.4304707 -5.25866291 11.20323836 -2.875 6.125 C-2.33617188 4.97257812 -1.79734375 3.82015625 -1.2421875 2.6328125 C-0.62730469 1.32957031 -0.62730469 1.32957031 0 0 Z " fill="#2E3C27" transform="translate(83,269)"/>
<path d="M0 0 C1 2 1 2 0.0625 5.125 C-0.288125 6.07375 -0.63875 7.0225 -1 8 C-1.66 8 -2.32 8 -3 8 C-3 8.99 -3 9.98 -3 11 C-3.66 11 -4.32 11 -5 11 C-5.12375 11.7425 -5.2475 12.485 -5.375 13.25 C-5.95486701 15.80141485 -6.73708739 17.7267573 -8 20 C-8.66 19.67 -9.32 19.34 -10 19 C-8.71078784 16.39459218 -7.41874404 13.79065627 -6.125 11.1875 C-5.76019531 10.44951172 -5.39539063 9.71152344 -5.01953125 8.95117188 C-4.66503906 8.23896484 -4.31054688 7.52675781 -3.9453125 6.79296875 C-3.62062988 6.1383667 -3.29594727 5.48376465 -2.96142578 4.80932617 C-2 3 -2 3 0 0 Z " fill="#C8904A" transform="translate(88,265)"/>
<path d="M0 0 C3.54721832 1.0641655 6.94779323 2.33511618 10.3125 3.875 C10.98925781 4.18179688 11.66601562 4.48859375 12.36328125 4.8046875 C14 6 14 6 14.73046875 8.1328125 C14.81941406 8.74898437 14.90835937 9.36515625 15 10 C8.93941903 8.60140439 4.57201885 5.05385671 0 1 C0 0.67 0 0.34 0 0 Z " fill="#C5D8DA" transform="translate(367,53)"/>
<path d="M0 0 C4.88049925 3.9419417 9.0580583 8.11950075 13 13 C11.35 12.67 9.7 12.34 8 12 C8 11.01 8 10.02 8 9 C7.01 9.33 6.02 9.66 5 10 C4.34 9.34 3.68 8.68 3 8 C3.33 7.01 3.66 6.02 4 5 C3.01 5 2.02 5 1 5 C0.67 3.35 0.34 1.7 0 0 Z " fill="#D99448" transform="translate(191,196)"/>
<path d="M0 0 C-3.14511933 2.57672427 -6.32163947 4.17392493 -10.0625 5.75 C-11.62677734 6.42289062 -11.62677734 6.42289062 -13.22265625 7.109375 C-16 8 -16 8 -19 7 C-15.87736391 4.26769342 -12.66022982 3.00151461 -8.8046875 1.6484375 C-5.53863164 0.4749196 -3.56030115 -0.09369214 0 0 Z " fill="#B67638" transform="translate(216,419)"/>
<path d="M0 0 C0.66 0.33 1.32 0.66 2 1 C1.67 1.99 1.34 2.98 1 4 C1.99 4.33 2.98 4.66 4 5 C3.34 6.65 2.68 8.3 2 10 C0.0625 9.625 0.0625 9.625 -2 9 C-2.33 8.34 -2.66 7.68 -3 7 C-3.99 7 -4.98 7 -6 7 C-4.02 4.69 -2.04 2.38 0 0 Z " fill="#183A34" transform="translate(308,325)"/>
<path d="M0 0 C0.33 0.66 0.66 1.32 1 2 C0.34 2 -0.32 2 -1 2 C-1.2475 2.5775 -1.495 3.155 -1.75 3.75 C-3.16683317 6.3002997 -4.87627537 8.01785701 -7 10 C-7.125 3.25 -7.125 3.25 -6 1 C-2.9375 0.375 -2.9375 0.375 0 0 Z " fill="#45686A" transform="translate(427,226)"/>
<path d="M0 0 C1.65 0.33 3.3 0.66 5 1 C2.68462045 4.72114571 0.71420527 7.61229661 -3 10 C-3 8.02 -3 6.04 -3 4 C-2.01 3.67 -1.02 3.34 0 3 C0 2.01 0 1.02 0 0 Z " fill="#446A6D" transform="translate(245,81)"/>
<path d="M0 0 C0.33 0.66 0.66 1.32 1 2 C1.66 2 2.32 2 3 2 C1.64978174 6.41889613 -0.26115668 8.34345343 -4 11 C-4.08226668 7.95613276 -3.97608217 5.92824652 -3 3 C-2.34 3 -1.68 3 -1 3 C-0.67 2.01 -0.34 1.02 0 0 Z " fill="#C87730" transform="translate(285,345)"/>
<path d="M0 0 C0.33 0.66 0.66 1.32 1 2 C1.66 2 2.32 2 3 2 C3 2.66 3 3.32 3 4 C3.61875 4.268125 4.2375 4.53625 4.875 4.8125 C7 6 7 6 9 9 C3.25 10.125 3.25 10.125 1 9 C1 8.34 1 7.68 1 7 C1.66 7 2.32 7 3 7 C3 6.34 3 5.68 3 5 C2.01 4.67 1.02 4.34 0 4 C0 2.68 0 1.36 0 0 Z " fill="#D48F3E" transform="translate(217,220)"/>
<path d="M0 0 C-2.64 2.97 -5.28 5.94 -8 9 C-9.30232558 3.79069767 -9.30232558 3.79069767 -8 1 C-4.70594381 -0.82039948 -3.63772813 -1.21257604 0 0 Z " fill="#3D6164" transform="translate(228,108)"/>
<path d="M0 0 C2.31 0.66 4.62 1.32 7 2 C7.33 3.32 7.66 4.64 8 6 C7.236875 5.835 6.47375 5.67 5.6875 5.5 C2.96403764 4.90854604 2.96403764 4.90854604 0 5 C0 3.35 0 1.7 0 0 Z " fill="#DF761E" transform="translate(106,398)"/>
<path d="M0 0 C0.99 0.33 1.98 0.66 3 1 C2.01 1.495 2.01 1.495 1 2 C0.5978125 2.86625 0.5978125 2.86625 0.1875 3.75 C-1.38109573 6.72207612 -3.57487767 8.70251569 -6 11 C-6 9.02 -6 7.04 -6 5 C-4.68 4.67 -3.36 4.34 -2 4 C-2 3.34 -2 2.68 -2 2 C-1.34 2 -0.68 2 0 2 C0 1.34 0 0.68 0 0 Z " fill="#4B686A" transform="translate(264,406)"/>
<path d="M0 0 C0.33 0 0.66 0 1 0 C1.5 2.6875 1.5 2.6875 1 6 C-1.40205632 8.17172215 -3.99618429 9.78761655 -7 11 C-7.66 10.67 -8.32 10.34 -9 10 C-8.27683594 9.29423828 -8.27683594 9.29423828 -7.5390625 8.57421875 C-6.90742188 7.95160156 -6.27578125 7.32898438 -5.625 6.6875 C-4.68527344 5.76517578 -4.68527344 5.76517578 -3.7265625 4.82421875 C-1.81913393 2.91187472 -1.81913393 2.91187472 0 0 Z " fill="#243C33" transform="translate(269,369)"/>
<path d="M0 0 C2.03863154 1.84447616 3.05636206 3.12755624 4.1875 5.6875 C5.72173708 8.18301003 5.72173708 8.18301003 7.96875 8.3203125 C9.98198743 8.31322364 11.99347934 8.16446891 14 8 C14 8.66 14 9.32 14 10 C12.54257537 10.08096803 11.08387193 10.13917774 9.625 10.1875 C8.81289062 10.22230469 8.00078125 10.25710938 7.1640625 10.29296875 C6.44992188 10.19628906 5.73578125 10.09960938 5 10 C4.34 9.01 3.68 8.02 3 7 C0.94074861 6.27617533 0.94074861 6.27617533 -1 6 C-0.67 4.02 -0.34 2.04 0 0 Z " fill="#E9A052" transform="translate(109,359)"/>
<path d="M0 0 C0.66 1.32 1.32 2.64 2 4 C-1.42388092 7.82669043 -4.00724943 9.72278474 -9 11 C-8.04956626 9.66102417 -7.08940853 8.32894573 -6.125 7 C-5.59132813 6.2575 -5.05765625 5.515 -4.5078125 4.75 C-4.01023437 4.1725 -3.51265625 3.595 -3 3 C-2.34 3 -1.68 3 -1 3 C-0.67 2.01 -0.34 1.02 0 0 Z " fill="#CBDBDD" transform="translate(386,191)"/>
<path d="M0 0 C0.66 0.33 1.32 0.66 2 1 C2.33 1.99 2.66 2.98 3 4 C2.01 4.495 2.01 4.495 1 5 C0.01 6.485 0.01 6.485 -1 8 C-2 9 -2 9 -4.5625 9.0625 C-5.366875 9.041875 -6.17125 9.02125 -7 9 C-6.57847656 8.51789063 -6.15695313 8.03578125 -5.72265625 7.5390625 C-5.17480469 6.90742188 -4.62695312 6.27578125 -4.0625 5.625 C-3.51722656 4.99851562 -2.97195312 4.37203125 -2.41015625 3.7265625 C-0.93041376 2.04367666 -0.93041376 2.04367666 0 0 Z " fill="#3E6365" transform="translate(182,123)"/>
<path d="M0 0 C0.33 0.99 0.66 1.98 1 3 C0.01 4.485 0.01 4.485 -1 6 C-1.66 6 -2.32 6 -3 6 C-2.67 6.99 -2.34 7.98 -2 9 C-2.99 9.66 -3.98 10.32 -5 11 C-6.32 10.67 -7.64 10.34 -9 10 C-6.03 6.7 -3.06 3.4 0 0 Z " fill="#3F6164" transform="translate(239,60)"/>
<path d="M0 0 C0.66 0.33 1.32 0.66 2 1 C1.67 1.33 1.34 1.66 1 2 C1.66 2.66 2.32 3.32 3 4 C1.25364835 4.53293835 -0.49727652 5.05090663 -2.25 5.5625 C-3.22453125 5.85253906 -4.1990625 6.14257812 -5.203125 6.44140625 C-7.96243932 6.99249836 -9.3912824 6.93789609 -12 6 C-11.34 6 -10.68 6 -10 6 C-10 5.34 -10 4.68 -10 4 C-8.9171875 4.12375 -8.9171875 4.12375 -7.8125 4.25 C-4.16451206 3.92573441 -2.65431702 2.42680413 0 0 Z " fill="#3C5E63" transform="translate(206,444)"/>
<path d="M0 0 C4.67248931 2.82522609 7.65996398 5.67760044 11 10 C9.35 9.67 7.7 9.34 6 9 C6 8.01 6 7.02 6 6 C4.35 6 2.7 6 1 6 C0.67 4.02 0.34 2.04 0 0 Z " fill="#CA8E43" transform="translate(257,259)"/>
<path d="M0 0 C4.14032846 1.54385129 7.93553053 3.51028938 11.8125 5.625 C12.40998047 5.94984375 13.00746094 6.2746875 13.62304688 6.609375 C15.08337135 7.40379151 16.54187491 8.20155376 18 9 C16 10 16 10 13.94140625 9.546875 C13.15636719 9.28390625 12.37132812 9.0209375 11.5625 8.75 C10.78003906 8.49734375 9.99757813 8.2446875 9.19140625 7.984375 C6.88535165 6.94850021 5.69669957 5.83890849 4 4 C1.90010348 2.82425289 1.90010348 2.82425289 0 2 C0 1.34 0 0.68 0 0 Z " fill="#333B27" transform="translate(116,413)"/>
<path d="M0 0 C3.86933162 0.57323431 6.15222057 2.38953552 9 5 C9 5.66 9 6.32 9 7 C4.50970874 7.36407767 4.50970874 7.36407767 2.25 5.75 C0.87958164 3.83141429 0.3981173 2.30908032 0 0 Z " fill="#254C4F" transform="translate(241,215)"/>
<path d="M0 0 C1.0625 3.734375 1.0625 3.734375 0.5 6.125 C-1.78449568 8.98061959 -4.53130392 9.22917865 -8 10 C-6.34908222 5.70761377 -3.26245434 3.1206085 0 0 Z " fill="#628283" transform="translate(120,193)"/>
<path d="M0 0 C0.66 0.33 1.32 0.66 2 1 C1.67 1.99 1.34 2.98 1 4 C0.34 4 -0.32 4 -1 4 C-1 4.66 -1 5.32 -1 6 C-3.31 7.32 -5.62 8.64 -8 10 C-7.67 7.69 -7.34 5.38 -7 3 C-4.525 3.99 -4.525 3.99 -2 5 C-1.855625 4.360625 -1.71125 3.72125 -1.5625 3.0625 C-1 1 -1 1 0 0 Z " fill="#48666A" transform="translate(272,58)"/>
<path d="M0 0 C4.67248931 2.82522609 7.65996398 5.67760044 11 10 C9.35 9.67 7.7 9.34 6 9 C6 8.34 6 7.68 6 7 C5.01 6.67 4.02 6.34 3 6 C3 5.01 3 4.02 3 3 C2.01 3 1.02 3 0 3 C0 2.01 0 1.02 0 0 Z " fill="#597677" transform="translate(410,52)"/>
<path d="M0 0 C0.66 1.32 1.32 2.64 2 4 C-1.625 9.875 -1.625 9.875 -5 11 C-4.55123384 9.35153231 -4.09069512 7.70626545 -3.625 6.0625 C-3.36976562 5.14597656 -3.11453125 4.22945313 -2.8515625 3.28515625 C-2 1 -2 1 0 0 Z " fill="#3F6365" transform="translate(59,273)"/>
<path d="M0 0 C2 0 2 0 3.625 1.375 C5 3 5 3 5 5 C5.66 5 6.32 5 7 5 C8.0625 6.8125 8.0625 6.8125 9 9 C8.67 9.99 8.34 10.98 8 12 C6.84906075 10.5665848 5.70441965 9.12811091 4.5625 7.6875 C3.92441406 6.88699219 3.28632812 6.08648437 2.62890625 5.26171875 C1 3 1 3 0 0 Z " fill="#BD7835" transform="translate(86,381)"/>
<path d="M0 0 C0.66 0.66 1.32 1.32 2 2 C0.6875 4.9375 0.6875 4.9375 -1 8 C-1.99 8.33 -2.98 8.66 -4 9 C-5 6 -5 6 -4.25 3.9375 C-3 2 -3 2 0 0 Z " fill="#22494B" transform="translate(430,218)"/>
<path d="M0 0 C0.99 0.33 1.98 0.66 3 1 C0.36 3.97 -2.28 6.94 -5 10 C-5.33 8.68 -5.66 7.36 -6 6 C-5.34 6 -4.68 6 -4 6 C-4 5.01 -4 4.02 -4 3 C-3.34 3 -2.68 3 -2 3 C-2 2.34 -2 1.68 -2 1 C-1.34 0.67 -0.68 0.34 0 0 Z " fill="#243D33" transform="translate(128,215)"/>
<path d="M0 0 C0.53625 0.226875 1.0725 0.45375 1.625 0.6875 C0.635 1.0175 -0.355 1.3475 -1.375 1.6875 C-1.375 2.3475 -1.375 3.0075 -1.375 3.6875 C-4.84 5.1725 -4.84 5.1725 -8.375 6.6875 C-8.375 5.3675 -8.375 4.0475 -8.375 2.6875 C-2.95961538 -0.38942308 -2.95961538 -0.38942308 0 0 Z " fill="#3E5F64" transform="translate(235.375,433.3125)"/>
<path d="M0 0 C0.99 0 1.98 0 3 0 C2.52797514 4.24822374 0.03344482 6.19989709 -3 9 C-3.33 8.01 -3.66 7.02 -4 6 C-2.84338843 3.79192337 -1.77322566 1.77322566 0 0 Z " fill="#305457" transform="translate(305,359)"/>
<path d="M0 0 C1.65 0.33 3.3 0.66 5 1 C3.625 3.5 3.625 3.5 2 6 C1.34 6 0.68 6 0 6 C-0.33 6.66 -0.66 7.32 -1 8 C-1.33 6.02 -1.66 4.04 -2 2 C-1.34 2 -0.68 2 0 2 C0 1.34 0 0.68 0 0 Z " fill="#32585B" transform="translate(379,275)"/>
<path d="M0 0 C1 2 1 2 0.3125 4.4375 C-1.13008173 7.25396909 -2.23297381 8.49071299 -5 10 C-5.99 9.67 -6.98 9.34 -8 9 C-5.36 6.03 -2.72 3.06 0 0 Z " fill="#476467" transform="translate(99,216)"/>
<path d="M0 0 C0.66 0.33 1.32 0.66 2 1 C1.44449305 4.59905908 0.25112752 5.99909799 -2.5625 8.25 C-3.20316406 8.77078125 -3.84382813 9.2915625 -4.50390625 9.828125 C-4.99761719 10.21484375 -5.49132812 10.6015625 -6 11 C-5.75 8.625 -5.75 8.625 -5 6 C-3.68352881 5.30062468 -2.34977849 4.63270867 -1 4 C-0.19471111 1.94999129 -0.19471111 1.94999129 0 0 Z " fill="#4B6C6D" transform="translate(336,325)"/>
<path d="M0 0 C0.99 0.33 1.98 0.66 3 1 C2.75 2.875 2.75 2.875 2 5 C-0.0625 6.25 -0.0625 6.25 -2 7 C-2.66 6.34 -3.32 5.68 -4 5 C-2.68 3.35 -1.36 1.7 0 0 Z " fill="#B9D1D5" transform="translate(333,292)"/>
<path d="M0 0 C0.99 0.33 1.98 0.66 3 1 C3 1.66 3 2.32 3 3 C3.66 3 4.32 3 5 3 C5 3.66 5 4.32 5 5 C5.66 5 6.32 5 7 5 C7 5.66 7 6.32 7 7 C7.66 7 8.32 7 9 7 C8.67 7.66 8.34 8.32 8 9 C6.68 9 5.36 9 4 9 C3.34 7.02 2.68 5.04 2 3 C1.34 3 0.68 3 0 3 C0 2.01 0 1.02 0 0 Z " fill="#4C6B6F" transform="translate(182,157)"/>
<path d="M0 0 C0.33 1.32 0.66 2.64 1 4 C0.01 4 -0.98 4 -2 4 C-1.34 5.32 -0.68 6.64 0 8 C-4.75 9.125 -4.75 9.125 -7 8 C-6.67 7.34 -6.34 6.68 -6 6 C-5.34 6 -4.68 6 -4 6 C-3.71125 5.38125 -3.4225 4.7625 -3.125 4.125 C-2 2 -2 2 0 0 Z " fill="#527477" transform="translate(229,71)"/>
<path d="M0 0 C1.8871875 0.0309375 1.8871875 0.0309375 3.8125 0.0625 C1.1264714 1.85318573 -0.8501589 2.72305791 -3.875 3.6875 C-4.68324219 3.94789062 -5.49148438 4.20828125 -6.32421875 4.4765625 C-6.93910156 4.66992188 -7.55398438 4.86328125 -8.1875 5.0625 C-7.875 3.125 -7.875 3.125 -7.1875 1.0625 C-4.43671116 0.14557039 -2.82801087 -0.04636083 0 0 Z " fill="#617E85" transform="translate(292.1875,49.9375)"/>
<path d="M0 0 C2.97 0.495 2.97 0.495 6 1 C4.35 2.65 2.7 4.3 1 6 C0.01 5.67 -0.98 5.34 -2 5 C-1.34 3.35 -0.68 1.7 0 0 Z " fill="#C67731" transform="translate(221,411)"/>
<path d="M0 0 C6.57142857 4 6.57142857 4 8 8 C5.625 8.1875 5.625 8.1875 3 8 C1.0549 5.08235 0.54723683 3.37462715 0 0 Z " fill="#21372D" transform="translate(97,397)"/>
<path d="M0 0 C2.28773145 1.81112073 2.95209822 2.60720543 3.3125 5.5625 C3 8 3 8 1 10 C-2.625 10.125 -2.625 10.125 -6 10 C-6.33 9.34 -6.66 8.68 -7 8 C-4.69 8.33 -2.38 8.66 0 9 C0 8.01 0 7.02 0 6 C0.66 6 1.32 6 2 6 C2 5.34 2 4.68 2 4 C1.34 4 0.68 4 0 4 C0 2.68 0 1.36 0 0 Z " fill="#FFE1B6" transform="translate(121,358)"/>
<path d="M0 0 C0.66 0.33 1.32 0.66 2 1 C1.68289062 1.52078125 1.36578125 2.0415625 1.0390625 2.578125 C-0.28920511 5.67408709 -0.42364247 8.39404121 -0.625 11.75 C-0.69976562 12.92046875 -0.77453125 14.0909375 -0.8515625 15.296875 C-0.92503906 16.63492187 -0.92503906 16.63492187 -1 18 C-1.33 18 -1.66 18 -2 18 C-2.05382106 15.37472811 -2.09358313 12.75055287 -2.125 10.125 C-2.14175781 9.37863281 -2.15851563 8.63226563 -2.17578125 7.86328125 C-2.1933959 5.90805539 -2.10320189 3.95257979 -2 2 C-1.34 1.34 -0.68 0.68 0 0 Z " fill="#FCDCAD" transform="translate(104,320)"/>
<path d="M0 0 C1.32 0.33 2.64 0.66 4 1 C3.67 1.66 3.34 2.32 3 3 C2.34 3 1.68 3 1 3 C1 3.66 1 4.32 1 5 C0.34 5 -0.32 5 -1 5 C-1 5.66 -1 6.32 -1 7 C-1.66 7 -2.32 7 -3 7 C-3.33 7.66 -3.66 8.32 -4 9 C-4 7.68 -4 6.36 -4 5 C-3.34 5 -2.68 5 -2 5 C-2 4.01 -2 3.02 -2 2 C-1.34 2 -0.68 2 0 2 C0 1.34 0 0.68 0 0 Z " fill="#4C686C" transform="translate(356,303)"/>
<path d="M0 0 C2.23775292 1.00313062 3.8507388 1.84476835 5.5625 3.625 C7.02978279 5.34561132 7.02978279 5.34561132 10 5 C10.33 6.98 10.66 8.96 11 11 C6.86378916 7.6189962 3.18683431 4.33409466 0 0 Z " fill="#33422A" transform="translate(170,175)"/>
<path d="M0 0 C1.65 0 3.3 0 5 0 C5.33 0.66 5.66 1.32 6 2 C5.01 2 4.02 2 3 2 C2.731875 2.598125 2.46375 3.19625 2.1875 3.8125 C1.01506533 5.97224808 -0.19369282 7.35790256 -2 9 C-2 7.68 -2 6.36 -2 5 C-1.34 5 -0.68 5 0 5 C0 3.35 0 1.7 0 0 Z " fill="#1A3B32" transform="translate(164,172)"/>
<path d="M0 0 C-2.6598561 3.44216672 -5.90288286 3.99504674 -10 5 C-10.66 4.34 -11.32 3.68 -12 3 C-4.71428571 -0.42857143 -4.71428571 -0.42857143 0 0 Z " fill="#4A6A6B" transform="translate(288,30)"/>
<path d="M0 0 C1.32 0.33 2.64 0.66 4 1 C2.85760183 2.33627775 1.71098945 3.66895388 0.5625 5 C-0.07558594 5.7425 -0.71367187 6.485 -1.37109375 7.25 C-2.17740234 8.11625 -2.17740234 8.11625 -3 9 C-3.33 9 -3.66 9 -4 9 C-4 7.35 -4 5.7 -4 4 C-3.34 4 -2.68 4 -2 4 C-2 3.34 -2 2.68 -2 2 C-1.34 2 -0.68 2 0 2 C0 1.34 0 0.68 0 0 Z " fill="#4E6B6E" transform="translate(298,368)"/>
<path d="M0 0 C3.48435804 4.59301742 5.26283775 7.08615072 5 13 C2.03472242 10.5546615 1.44417786 8.55397653 0.8125 4.8125 C0.65394531 3.91144531 0.49539062 3.01039063 0.33203125 2.08203125 C0.22246094 1.39496094 0.11289062 0.70789063 0 0 Z " fill="#577376" transform="translate(50,354)"/>
<path d="M0 0 C0.66 0.33 1.32 0.66 2 1 C1.375 3.375 1.375 3.375 0 6 C-3.125 7.3125 -3.125 7.3125 -6 8 C-4.02 5.36 -2.04 2.72 0 0 Z " fill="#1B4348" transform="translate(356,272)"/>
<path d="M0 0 C0.66 1.32 1.32 2.64 2 4 C-0.35277269 6.72426311 -2.62496331 7.8141763 -6 9 C-4.47291037 5.56404834 -2.40072955 2.88087546 0 0 Z " fill="#D1DBDC" transform="translate(373,205)"/>
<path d="M0 0 C3.375 0.625 3.375 0.625 7 2 C8.4375 5.125 8.4375 5.125 9 8 C5.27885429 5.68462045 2.38770339 3.71420527 0 0 Z " fill="#34442F" transform="translate(181,186)"/>
<path d="M0 0 C0.5534764 2.07553648 1 3.84365964 1 6 C-1.31 6.66 -3.62 7.32 -6 8 C-4.55746343 4.63408134 -2.66735273 2.48952921 0 0 Z " fill="#46656B" transform="translate(131,181)"/>
<path d="M0 0 C0 1.98 0 3.96 0 6 C0.66 6 1.32 6 2 6 C2 8.64 2 11.28 2 14 C1.34 13.67 0.68 13.34 0 13 C0.061875 12.278125 0.12375 11.55625 0.1875 10.8125 C-0.03593995 7.46090075 -1.19497887 5.78274092 -3 3 C-3 2.34 -3 1.68 -3 1 C-1 0 -1 0 0 0 Z " fill="#E79748" transform="translate(123,353)"/>
<path d="M0 0 C1.98 0 3.96 0 6 0 C6.66 1.32 7.32 2.64 8 4 C7.0925 3.814375 6.185 3.62875 5.25 3.4375 C2.31685676 3.04265379 0.7355343 3.05308428 -2 4 C-1.34 2.68 -0.68 1.36 0 0 Z " fill="#FDDEB4" transform="translate(113,290)"/>
<path d="M0 0 C4.67248931 2.82522609 7.65996398 5.67760044 11 10 C8.33333333 8.66666667 5.66666667 7.33333333 3 6 C3 5.01 3 4.02 3 3 C2.01 2.67 1.02 2.34 0 2 C0 1.34 0 0.68 0 0 Z " fill="#C4904A" transform="translate(234,237)"/>
<path d="M0 0 C0.99 0.33 1.98 0.66 3 1 C2.04578192 2.14926266 1.08647955 3.29430541 0.125 4.4375 C-0.40867187 5.07558594 -0.94234375 5.71367187 -1.4921875 6.37109375 C-3 8 -3 8 -5 9 C-5 7.35 -5 5.7 -5 4 C-4.0409375 3.8453125 -4.0409375 3.8453125 -3.0625 3.6875 C-2.381875 3.460625 -1.70125 3.23375 -1 3 C-0.67 2.01 -0.34 1.02 0 0 Z " fill="#263C2D" transform="translate(113,231)"/>
<path d="M0 0 C0.28875 0.7425 0.5775 1.485 0.875 2.25 C1.82368263 4.56900199 2.86559779 6.76932676 4 9 C2.68388323 8.04663979 1.37221039 7.08714226 0.0625 6.125 C-0.66839844 5.59132812 -1.39929688 5.05765625 -2.15234375 4.5078125 C-4 3 -4 3 -5 1 C-2 0 -2 0 0 0 Z " fill="#2A3F2C" transform="translate(206,204)"/>
<path d="M0 0 C3.25543229 0.34879632 4.01873107 1.02133261 6.25 3.5625 C6.8275 4.366875 7.405 5.17125 8 6 C5.69 5.34 3.38 4.68 1 4 C0.67 2.68 0.34 1.36 0 0 Z " fill="#4A6B6F" transform="translate(209,184)"/>
<path d="M0 0 C1.22589844 0.15275391 1.22589844 0.15275391 2.4765625 0.30859375 C3.41628906 0.43427734 3.41628906 0.43427734 4.375 0.5625 C4.375 0.8925 4.375 1.2225 4.375 1.5625 C-3.05357143 3.70535714 -3.05357143 3.70535714 -6.625 4.5625 C-6.625 3.2425 -6.625 1.9225 -6.625 0.5625 C-4.10446405 -0.69776798 -2.7707902 -0.35624445 0 0 Z " fill="#2B5256" transform="translate(355.625,25.4375)"/>
<path d="M0 0 C0.66 0 1.32 0 2 0 C2.433125 0.9590625 2.433125 0.9590625 2.875 1.9375 C3.82823451 4.15206079 3.82823451 4.15206079 6 5 C6.625 7.5625 6.625 7.5625 7 10 C5.82174642 9.09827532 4.65768423 8.17798498 3.5 7.25 C2.8503125 6.73953125 2.200625 6.2290625 1.53125 5.703125 C0 4 0 4 0 0 Z " fill="#587879" transform="translate(78,407)"/>
<path d="M0 0 C5.875 3.75 5.875 3.75 7 6 C4.69 5.67 2.38 5.34 0 5 C0 3.35 0 1.7 0 0 Z " fill="#2C3D31" transform="translate(106,405)"/>
<path d="M0 0 C0.95465783 2.16967689 1.14401212 3.56328793 0.3984375 5.82421875 C-0.35870385 7.5684743 -1.17609198 9.28627131 -2 11 C-3.32 11 -4.64 11 -6 11 C-4.97088923 8.78345373 -3.91765775 6.89130823 -2.4375 4.9375 C-0.81311272 2.95818504 -0.81311272 2.95818504 0 0 Z " fill="#273C2B" transform="translate(316,314)"/>
<path d="M0 0 C1.98 1.65 3.96 3.3 6 5 C5.38125 5.144375 4.7625 5.28875 4.125 5.4375 C1.96741678 5.93152225 1.96741678 5.93152225 0 7 C-0.66 6.34 -1.32 5.68 -2 5 C-1.34 4.01 -0.68 3.02 0 2 C0 1.34 0 0.68 0 0 Z " fill="#CB7B31" transform="translate(293,293)"/>
<path d="M0 0 C1.32 0 2.64 0 4 0 C4.33 0.66 4.66 1.32 5 2 C5.99 2 6.98 2 8 2 C7.67 3.65 7.34 5.3 7 7 C5.83040013 6.02433888 4.66438823 5.044375 3.5 4.0625 C2.8503125 3.51722656 2.200625 2.97195312 1.53125 2.41015625 C1.0259375 1.94480469 0.520625 1.47945312 0 1 C0 0.67 0 0.34 0 0 Z " fill="#1C3B2C" transform="translate(224,226)"/>
<path d="M0 0 C4.48525648 0.656379 8.66914029 1.70074209 13 3 C13 3.33 13 3.66 13 4 C5.73846154 4.49230769 5.73846154 4.49230769 2 2 C1.34 1.34 0.68 0.68 0 0 Z " fill="#293728" transform="translate(139,425)"/>
<path d="M0 0 C2.1875 0.3125 2.1875 0.3125 4 1 C2.35 2.98 0.7 4.96 -1 7 C-1.66 5.68 -2.32 4.36 -3 3 C-1.75 1.4375 -1.75 1.4375 0 0 Z " fill="#1F3D31" transform="translate(95,251)"/>
<path d="M0 0 C2.475 0.495 2.475 0.495 5 1 C4.67 2.98 4.34 4.96 4 7 C3.01 6.34 2.02 5.68 1 5 C1.33 4.34 1.66 3.68 2 3 C1.34 3 0.68 3 0 3 C0 2.01 0 1.02 0 0 Z " fill="#BBCFD4" transform="translate(418,185)"/>
<path d="M0 0 C1.32 0.33 2.64 0.66 4 1 C4 1.66 4 2.32 4 3 C1.36 3.99 -1.28 4.98 -4 6 C-4 5.34 -4 4.68 -4 4 C-3.34 4 -2.68 4 -2 4 C-1.34 2.68 -0.68 1.36 0 0 Z " fill="#476365" transform="translate(218,440)"/>
<path d="M0 0 C-1.5 1.625 -1.5 1.625 -4 3 C-6.83163803 2.65955497 -9.25986036 1.86771089 -12 1 C-12 0.67 -12 0.34 -12 0 C-7.66726186 -0.92844389 -4.33273814 -0.92844389 0 0 Z " fill="#093D3B" transform="translate(208,428)"/>
<path d="M0 0 C2.38564077 0.57584432 4.66682784 1.22227595 7 2 C7 3.32 7 4.64 7 6 C2.32307692 4.52307692 2.32307692 4.52307692 0.6875 1.875 C0.460625 1.25625 0.23375 0.6375 0 0 Z " fill="#C37835" transform="translate(103,401)"/>
<path d="M0 0 C2.97 0.495 2.97 0.495 6 1 C5.34 2.98 4.68 4.96 4 7 C3.67 6.01 3.34 5.02 3 4 C2.34 4 1.68 4 1 4 C0.67 2.68 0.34 1.36 0 0 Z " fill="#436368" transform="translate(62,386)"/>
<path d="M0 0 C1.32 0.33 2.64 0.66 4 1 C2.625 3 2.625 3 1 5 C0.34 5 -0.32 5 -1 5 C-1.33 5.99 -1.66 6.98 -2 8 C-2.33 6.68 -2.66 5.36 -3 4 C-2.34 3.67 -1.68 3.34 -1 3 C-0.67 2.01 -0.34 1.02 0 0 Z " fill="#5A7678" transform="translate(287,380)"/>
<path d="M0 0 C0.99 0 1.98 0 3 0 C3.33 0.99 3.66 1.98 4 3 C2.35 4.65 0.7 6.3 -1 8 C-0.67 5.36 -0.34 2.72 0 0 Z " fill="#CD782A" transform="translate(267,365)"/>
<path d="M0 0 C0.66 0 1.32 0 2 0 C0.44499019 3.81684226 -2.03595495 6.19195732 -5 9 C-5 7.68 -5 6.36 -5 5 C-4.34 5 -3.68 5 -3 5 C-2.5359375 4.0409375 -2.5359375 4.0409375 -2.0625 3.0625 C-1 1 -1 1 0 0 Z " fill="#496568" transform="translate(349,312)"/>
<path d="M0 0 C3.25543229 0.34879632 4.01873107 1.02133261 6.25 3.5625 C6.8275 4.366875 7.405 5.17125 8 6 C2.33846154 4.52307692 2.33846154 4.52307692 0.625 1.875 C0.41875 1.25625 0.2125 0.6375 0 0 Z " fill="#3F6063" transform="translate(276,248)"/>
<path d="M0 0 C1.67542976 0.28604898 3.34385343 0.61781233 5 1 C3.69593116 3.01920337 2.36176581 5.01924973 1 7 C0.67 7 0.34 7 0 7 C-0.38133299 5.0085944 -0.71325582 3.00720923 -1 1 C-0.67 0.67 -0.34 0.34 0 0 Z " fill="#213D37" transform="translate(99,244)"/>
<path d="M0 0 C1.14926266 0.95421808 2.29430541 1.91352045 3.4375 2.875 C4.07558594 3.40867188 4.71367187 3.94234375 5.37109375 4.4921875 C7 6 7 6 8 8 C6.35 7.67 4.7 7.34 3 7 C2.67 6.01 2.34 5.02 2 4 C1.01 3.67 0.02 3.34 -1 3 C-0.67 2.01 -0.34 1.02 0 0 Z " fill="#6A8185" transform="translate(251,222)"/>
<path d="M0 0 C0.33 0.99 0.66 1.98 1 3 C-1.31 5.31 -3.62 7.62 -6 10 C-6.66 9.67 -7.32 9.34 -8 9 C-5.36 6.03 -2.72 3.06 0 0 Z " fill="#C18E4C" transform="translate(137,208)"/>
<path d="M0 0 C4.2742558 1.5830577 6.26531794 4.50568404 9 8 C7.0625 7.625 7.0625 7.625 5 7 C4.67 6.34 4.34 5.68 4 5 C3.01 4.67 2.02 4.34 1 4 C0.3125 1.9375 0.3125 1.9375 0 0 Z " fill="#CA9249" transform="translate(204,209)"/>
<path d="M0 0 C1.98 0.66 3.96 1.32 6 2 C4.35 3.65 2.7 5.3 1 7 C0.67 4.69 0.34 2.38 0 0 Z " fill="#203C30" transform="translate(155,180)"/>
<path d="M0 0 C2.31 1.98 4.62 3.96 7 6 C6.34 6.66 5.68 7.32 5 8 C4.01 7.34 3.02 6.68 2 6 C2 5.34 2 4.68 2 4 C1.34 4 0.68 4 0 4 C0 2.68 0 1.36 0 0 Z " fill="#436464" transform="translate(198,172)"/>
<path d="M0 0 C2.475 0.495 2.475 0.495 5 1 C5.625 2.875 5.625 2.875 6 5 C5.34 5.66 4.68 6.32 4 7 C2.68 5.35 1.36 3.7 0 2 C0.99 2 1.98 2 3 2 C2.01 1.34 1.02 0.68 0 0 Z " fill="#CFE0E0" transform="translate(378,60)"/>
<path d="M0 0 C4.29 0.33 8.58 0.66 13 1 C13 1.33 13 1.66 13 2 C11.39679026 2.19551338 9.79237014 2.38111983 8.1875 2.5625 C7.29417969 2.66691406 6.40085937 2.77132813 5.48046875 2.87890625 C3 3 3 3 0 2 C0 1.34 0 0.68 0 0 Z " fill="#2F5254" transform="translate(314,23)"/>
<path d="M0 0 C2.475 0.99 2.475 0.99 5 2 C3.35 3.65 1.7 5.3 0 7 C-0.66 6.01 -1.32 5.02 -2 4 C-1.34 2.68 -0.68 1.36 0 0 Z " fill="#416264" transform="translate(251,417)"/>
<path d="M0 0 C1.32 0 2.64 0 4 0 C6.1519437 3.22791555 6.20086443 4.28400809 6 8 C3.87961365 5.38485683 1.86908256 2.80362384 0 0 Z " fill="#628182" transform="translate(71,401)"/>
<path d="M0 0 C2.66666667 2.66666667 5.33333333 5.33333333 8 8 C7.67 8.66 7.34 9.32 7 10 C5.82174642 9.09827532 4.65768423 8.17798498 3.5 7.25 C2.8503125 6.73953125 2.200625 6.2290625 1.53125 5.703125 C0 4 0 4 0 0 Z " fill="#2F392C" transform="translate(89,387)"/>
<path d="M0 0 C1.65 0.33 3.3 0.66 5 1 C4.34 2.32 3.68 3.64 3 5 C1.35 4.67 -0.3 4.34 -2 4 C-1.34 2.68 -0.68 1.36 0 0 Z " fill="#D0752B" transform="translate(291,338)"/>
<path d="M0 0 C1.98 0 3.96 0 6 0 C6.33 0.99 6.66 1.98 7 3 C6.34 3.66 5.68 4.32 5 5 C3.35 3.35 1.7 1.7 0 0 Z " fill="#253F31" transform="translate(233,235)"/>
<path d="M0 0 C0.66 1.32 1.32 2.64 2 4 C0.68 4.99 -0.64 5.98 -2 7 C-2 6.34 -2 5.68 -2 5 C-2.66 4.67 -3.32 4.34 -4 4 C-3.34 4 -2.68 4 -2 4 C-2 3.01 -2 2.02 -2 1 C-1.34 0.67 -0.68 0.34 0 0 Z " fill="#11393C" transform="translate(117,225)"/>
<path d="M0 0 C0.99 0.33 1.98 0.66 3 1 C1.02 3.31 -0.96 5.62 -3 8 C-3.33 6.68 -3.66 5.36 -4 4 C-2.68 3.34 -1.36 2.68 0 2 C0 1.34 0 0.68 0 0 Z " fill="#577275" transform="translate(232,99)"/>
<path d="M0 0 C0.66 0 1.32 0 2 0 C2 0.66 2 1.32 2 2 C2.99 2 3.98 2 5 2 C4.67 3.65 4.34 5.3 4 7 C2 5.1875 2 5.1875 0 3 C0 2.01 0 1.02 0 0 Z " fill="#D59346" transform="translate(81,371)"/>
<path d="M0 0 C1.67542976 0.28604898 3.34385343 0.61781233 5 1 C4.67 1.99 4.34 2.98 4 4 C4.33 4.66 4.66 5.32 5 6 C1.83884224 4.63016497 1.0072908 4.0109362 -1 1 C-0.67 0.67 -0.34 0.34 0 0 Z " fill="#083D3A" transform="translate(311,306)"/>
<path d="M0 0 C0.66 0.33 1.32 0.66 2 1 C1.01 1.66 0.02 2.32 -1 3 C-2.19232613 5.05003955 -2.19232613 5.05003955 -3 7 C-3.66 6.67 -4.32 6.34 -5 6 C-4.75 4.125 -4.75 4.125 -4 2 C-2.0625 0.6875 -2.0625 0.6875 0 0 Z " fill="#294E52" transform="translate(191,116)"/>
<path d="M0 0 C1.32 0 2.64 0 4 0 C4 1.32 4 2.64 4 4 C4.66 4 5.32 4 6 4 C6 4.66 6 5.32 6 6 C3.37812506 4.95125002 2.20628639 4.35068687 0.75 1.875 C0.5025 1.25625 0.255 0.6375 0 0 Z " fill="#BF773B" transform="translate(97,395)"/>
<path d="M0 0 C0.99 0.33 1.98 0.66 3 1 C1.35 2.98 -0.3 4.96 -2 7 C-2.33 6.01 -2.66 5.02 -3 4 C-1.5625 1.8125 -1.5625 1.8125 0 0 Z " fill="#506E6F" transform="translate(369,289)"/>
<path d="M0 0 C1.65 0 3.3 0 5 0 C5.33 1.98 5.66 3.96 6 6 C3.97945196 4.35830472 1.97956942 2.69088222 0 1 C0 0.67 0 0.34 0 0 Z " fill="#2E4030" transform="translate(281,281)"/>
<path d="M0 0 C0 3 0 3 -1.25 4.75 C-3 6 -3 6 -5.1875 5.6875 C-5.785625 5.460625 -6.38375 5.23375 -7 5 C-6.01 4.67 -5.02 4.34 -4 4 C-4 3.34 -4 2.68 -4 2 C-2.68 1.34 -1.36 0.68 0 0 Z " fill="#BDD1D2" transform="translate(315,272)"/>
<path d="M0 0 C0.33 0.99 0.66 1.98 1 3 C-0.4375 5.6875 -0.4375 5.6875 -2 8 C-2.99 7.67 -3.98 7.34 -5 7 C-5 6.34 -5 5.68 -5 5 C-4.34 5 -3.68 5 -3 5 C-3 4.34 -3 3.68 -3 3 C-2.34 3 -1.68 3 -1 3 C-0.67 2.01 -0.34 1.02 0 0 Z " fill="#1B4649" transform="translate(365,262)"/>
<path d="M0 0 C1 2 1 2 0.375 4 C-1.39265071 6.57112831 -3.07589059 7.07659703 -6 8 C-5.67 7.01 -5.34 6.02 -5 5 C-4.34 5 -3.68 5 -3 5 C-3 4.34 -3 3.68 -3 3 C-2.34 3 -1.68 3 -1 3 C-0.67 2.01 -0.34 1.02 0 0 Z " fill="#637E80" transform="translate(202,101)"/>
<path d="M0 0 C1.11375 0.185625 1.11375 0.185625 2.25 0.375 C-0.63087546 2.77572955 -3.31404834 4.84791037 -6.75 6.375 C-3.42692308 0.46730769 -3.42692308 0.46730769 0 0 Z " fill="#1B4448" transform="translate(339.75,292.625)"/>
<path d="M0 0 C2.97 0.495 2.97 0.495 6 1 C6 2.65 6 4.3 6 6 C3.97945196 4.35830472 1.97956942 2.69088222 0 1 C0 0.67 0 0.34 0 0 Z " fill="#2B3F2E" transform="translate(249,250)"/>
<path d="M0 0 C1.875 0.3125 1.875 0.3125 4 1 C4.66 1.99 5.32 2.98 6 4 C4.35 4 2.7 4 1 4 C0.67 2.68 0.34 1.36 0 0 Z " fill="#365659" transform="translate(235,209)"/>
<path d="M0 0 C1.65 0 3.3 0 5 0 C4.01 1.485 4.01 1.485 3 3 C2.67 3.66 2.34 4.32 2 5 C0.68 4.67 -0.64 4.34 -2 4 C-1.34 2.68 -0.68 1.36 0 0 Z " fill="#0A383B" transform="translate(114,201)"/>
<path d="M0 0 C1.32 0.33 2.64 0.66 4 1 C3.01 1 2.02 1 1 1 C0.7525 1.639375 0.505 2.27875 0.25 2.9375 C-1 5 -1 5 -3.125 5.75 C-4.053125 5.87375 -4.053125 5.87375 -5 6 C-3.35 4.02 -1.7 2.04 0 0 Z " fill="#47696B" transform="translate(174,133)"/>
<path d="M0 0 C2.475 0.495 2.475 0.495 5 1 C4.34 2.32 3.68 3.64 3 5 C2.01 5 1.02 5 0 5 C0 3.35 0 1.7 0 0 Z " fill="#365B5F" transform="translate(245,81)"/>
<path d="M0 0 C0.99 0.33 1.98 0.66 3 1 C2.75 2.875 2.75 2.875 2 5 C-0.0625 6.25 -0.0625 6.25 -2 7 C-2.33 6.01 -2.66 5.02 -3 4 C-2.34 3.34 -1.68 2.68 -1 2 C-0.67 1.34 -0.34 0.68 0 0 Z " fill="#07383B" transform="translate(230,71)"/>
<path d="M0 0 C2.4375 0.75 2.4375 0.75 5 2 C5.8125 4.125 5.8125 4.125 6 6 C4.02 5.34 2.04 4.68 0 4 C0 2.68 0 1.36 0 0 Z " fill="#B7CCCE" transform="translate(376,57)"/>
<path d="M0 0 C1.98 0 3.96 0 6 0 C6.33 0.66 6.66 1.32 7 2 C4.69 2.33 2.38 2.66 0 3 C0 2.01 0 1.02 0 0 Z " fill="#436468" transform="translate(364,50)"/>
<path d="M0 0 C0.66 0.33 1.32 0.66 2 1 C-0.75 5.875 -0.75 5.875 -3 7 C-3.33 6.01 -3.66 5.02 -4 4 C-2.68 2.68 -1.36 1.36 0 0 Z " fill="#4C6B6E" transform="translate(254,46)"/>
</svg>
